<svg width="161" height="156" viewBox="0 0 161 156" fill="none" xmlns="http://www.w3.org/2000/svg">
<path d="M142.732 92.0325L142.713 92.0599L142.694 92.0872C134.328 104.241 124.282 114.784 113.903 124.082L113.812 124.163L113.726 124.248C108.975 128.903 101.214 135.901 93.9541 141.777C90.3188 144.719 86.899 147.307 84.0974 149.164C82.6919 150.095 81.534 150.781 80.6443 151.226C80.5546 151.272 80.4715 151.312 80.3945 151.349C79.3236 150.862 77.8898 149.948 76.0716 148.509C74.8905 147.574 73.7227 146.566 72.5205 145.527L72.4457 145.463C71.3261 144.494 70.1272 143.458 69.0043 142.589C46.2798 124.401 22.6323 102.882 10.7334 79.7704C0.848681 57.604 1.35538 31.3337 15.538 15.5798C34.0745 -1.85908 61.743 1.55326 75.8965 19.9031L80.4853 25.8524L84.9184 19.798C88.7355 14.5852 93.3625 10.5332 98.8127 7.56755C121.218 -1.70752 144.372 7.65329 154.021 29.2585C160.806 51.6773 155.048 74.6165 142.732 92.0325Z" stroke="black" stroke-opacity="0.4" stroke-width="8"/>
</svg>
