<svg width="296" height="301" viewBox="0 0 296 301" fill="none" xmlns="http://www.w3.org/2000/svg">
<path d="M260.413 177.576L260.378 177.628L260.344 177.68C245.243 200.814 227.109 220.881 208.374 238.58L208.211 238.734L208.055 238.895C199.48 247.757 185.471 261.077 172.366 272.261C165.804 277.861 159.631 282.787 154.574 286.321C152.037 288.094 149.947 289.399 148.341 290.247C148.179 290.333 148.029 290.41 147.89 290.48C145.957 289.553 143.369 287.813 140.087 285.074C137.955 283.295 135.847 281.376 133.677 279.398L133.542 279.276C131.521 277.433 129.357 275.461 127.33 273.807C86.311 239.186 43.626 198.227 22.1477 154.236C4.30521 112.044 5.21984 62.0404 30.8202 32.0542C64.2797 -1.13945 114.223 5.35567 139.771 40.2832L148.054 51.6072L156.056 40.0831C162.946 30.1609 171.298 22.4483 181.136 16.8034C221.579 -0.850975 263.374 16.9666 280.79 58.0904C293.038 100.763 282.644 144.426 260.413 177.576Z" stroke="black" stroke-opacity="0.4" stroke-width="20"/>
</svg>
