<svg width="404" height="464" viewBox="0 0 404 464" fill="none" xmlns="http://www.w3.org/2000/svg">
<path d="M280.431 367.913C279.577 369.809 277.763 370.863 275.949 371.073V372.443H278.617C281.071 372.443 282.992 370.547 282.992 368.123V367.175C282.992 366.227 282.672 365.384 282.245 364.752H280.965C281.071 366.016 280.858 367.07 280.431 367.913Z" fill="#727272"/>
<path d="M269.653 366.227C269.653 365.7 269.653 365.279 269.653 364.752H268.586C268.053 365.489 267.839 366.332 267.839 367.175V368.123C267.839 370.547 269.76 372.443 272.214 372.443H276.056V371.073C273.068 371.284 269.974 369.598 269.653 366.227Z" fill="#979797"/>
<path d="M269.76 363.593C269.867 362.75 270.187 361.907 270.4 361.065H267.306L258.556 350.107C256.742 350.002 255.034 349.896 253.54 349.791L265.492 364.752H268.586C268.906 364.225 269.333 363.909 269.76 363.593Z" fill="#979797"/>
<path d="M281.498 360.959H280.324C280.644 361.907 280.858 362.645 280.964 363.488C281.498 363.804 281.925 364.225 282.352 364.752H283.312L296.117 350.002C294.516 350.107 292.809 350.212 290.995 350.212L281.498 360.959Z" fill="#727272"/>
<path d="M269.76 363.593C269.333 363.909 268.906 364.331 268.586 364.752H269.653C269.653 364.331 269.76 363.909 269.76 363.593Z" fill="#979797"/>
<path d="M280.965 363.488C281.071 363.909 281.071 364.331 281.071 364.752H282.352C281.925 364.225 281.498 363.804 280.965 363.488Z" fill="#979797"/>
<path opacity="0.4" d="M275.949 360.222C276.163 360.538 276.376 360.748 276.483 361.065H280.324C279.577 358.852 278.19 356.113 275.949 352.952V360.222Z" fill="#222221"/>
<path opacity="0.4" d="M275.523 359.484C275.736 359.695 275.843 359.905 275.949 360.221V352.846C275.736 352.636 275.629 352.425 275.416 352.109C275.416 352.109 272.001 356.323 270.401 360.959H274.349C274.989 360.116 275.523 359.484 275.523 359.484Z" fill="#222221"/>
<path opacity="0.4" d="M278.19 368.229C277.763 369.283 276.91 369.809 275.949 369.915V371.074C277.763 370.863 279.471 369.915 280.431 367.913C280.858 367.07 281.071 366.016 281.071 364.647H278.297C278.724 366.227 278.617 367.386 278.19 368.229Z" fill="#222221"/>
<path opacity="0.4" d="M272.321 367.281C272.215 366.438 272.428 365.595 272.641 364.752H269.654C269.654 365.279 269.654 365.806 269.654 366.227C269.974 369.598 273.068 371.284 275.949 371.073V369.915C274.349 370.125 272.535 369.177 272.321 367.281Z" fill="#222221"/>
<path opacity="0.4" d="M277.55 362.856H278.724C279.577 362.856 280.324 363.066 280.965 363.488C280.858 362.75 280.645 361.907 280.324 360.959H276.483C276.91 361.697 277.23 362.223 277.55 362.856Z" fill="#222221"/>
<path opacity="0.4" d="M273.388 362.856C273.708 362.118 274.135 361.486 274.455 360.959H270.507C270.187 361.802 269.974 362.645 269.867 363.488C270.507 363.066 271.361 362.75 272.215 362.75H273.388V362.856Z" fill="#222221"/>
<path opacity="0.4" d="M277.55 362.856C277.87 363.488 278.083 364.12 278.297 364.752H281.071C281.071 364.331 281.071 363.909 280.965 363.488C280.324 363.066 279.577 362.856 278.724 362.856H277.55Z" fill="#222221"/>
<path opacity="0.4" d="M273.388 362.856H272.215C271.361 362.856 270.507 363.172 269.867 363.593C269.76 364.015 269.76 364.331 269.76 364.752H272.748C272.855 364.015 273.068 363.382 273.388 362.856Z" fill="#222221"/>
<path d="M274.455 360.959H275.949V360.116C275.843 359.905 275.629 359.695 275.522 359.379C275.522 359.484 274.989 360.116 274.455 360.959Z" fill="white"/>
<path d="M276.483 360.959C276.269 360.643 276.163 360.432 275.949 360.116V360.959H276.483Z" fill="white"/>
<path d="M275.949 369.915C276.91 369.809 277.763 369.177 278.19 368.229C278.617 367.386 278.617 366.227 278.19 364.752H275.843V369.915H275.949Z" fill="white"/>
<path d="M272.641 364.752C272.321 365.595 272.214 366.543 272.321 367.281C272.535 369.177 274.349 370.231 276.056 369.915V364.752H272.641Z" fill="white"/>
<path d="M275.949 360.959H274.455C274.135 361.486 273.708 362.118 273.388 362.856H275.949V360.959Z" fill="white"/>
<path d="M275.949 362.856H277.55C277.23 362.329 276.91 361.697 276.483 360.959H275.949V362.856Z" fill="white"/>
<path d="M275.949 362.856H273.388C273.068 363.488 272.855 364.12 272.641 364.752H275.949V362.856V362.856Z" fill="white"/>
<path d="M275.949 364.752H278.297C278.083 364.225 277.87 363.593 277.55 362.856H275.949V364.752Z" fill="white"/>
<path d="M302.947 358.009V403.524" stroke="#808080" stroke-miterlimit="10"/>
<g opacity="0.4">
<path d="M272.961 71.4324C272.855 71.4324 272.748 71.4324 272.748 71.4324C272.748 71.3289 272.855 71.4324 272.961 71.4324C272.961 71.4324 272.855 71.4324 272.961 71.4324Z" fill="#CB272A"/>
<path d="M159.316 202.605C160.917 204.08 162.624 205.239 164.012 206.082C164.759 206.503 165.399 206.714 166.039 206.925C166.679 207.03 167.106 207.135 167.64 207.135C168.6 207.03 169.774 206.714 171.375 205.871C172.868 205.028 174.469 203.764 176.176 202.289C177.884 200.814 179.591 199.233 181.298 197.548C181.725 197.126 182.259 196.705 182.686 196.283L184.073 195.019C185.033 194.176 185.994 193.333 187.061 192.49V191.648L187.488 192.069L187.594 191.858C187.701 178.478 189.302 165.624 192.289 153.613C191.436 155.615 190.262 157.511 188.875 159.302C187.488 161.094 185.674 162.885 183.539 164.254C182.472 164.886 181.192 165.519 179.911 165.94C178.631 166.361 177.137 166.678 175.75 166.678C172.868 166.783 169.987 165.835 167.746 164.465C165.506 163.095 163.692 161.304 162.304 159.513C160.917 157.617 159.743 155.615 158.89 153.613C158.143 151.822 157.609 150.031 157.396 148.134C151.633 162.042 148.432 177.108 148.432 192.912L148.966 192.701C152.807 196.073 156.008 199.655 159.316 202.605Z" fill="#222221"/>
<path d="M166.893 154.983C168.387 156.142 169.881 157.09 171.375 157.722C172.868 158.354 174.256 158.67 175.536 158.565C178.204 158.565 181.192 156.879 184.286 154.561C187.274 152.243 190.262 149.293 193.677 146.449L193.783 145.922L193.89 146.027L193.997 145.817L194.21 146.238C206.695 104.516 235.507 74.4887 269.653 71.8547C270.4 71.644 271.254 71.5386 272.001 71.3279C271.788 71.2225 271.574 71.2225 271.361 71.2225C270.08 71.4333 268.8 71.644 267.519 71.8547C217.9 74.4887 175.963 104.516 157.929 146.449H158.036C161.13 149.609 163.905 152.665 166.893 154.983Z" fill="#222221"/>
<path d="M215.445 281.097C215.232 280.781 214.912 280.465 214.698 280.149C211.604 276.04 208.723 271.615 206.055 266.979C204.348 264.345 203.814 262.87 203.814 262.87C194.317 244.432 188.448 222.096 187.701 197.969C187.701 197.864 187.701 197.758 187.594 197.653C187.381 198.707 187.167 199.655 186.847 200.708C186.1 203.237 185.033 205.766 183.646 208.189C182.259 210.612 180.445 212.93 177.884 214.932C176.603 215.985 175.109 216.828 173.402 217.566C171.695 218.303 169.774 218.725 167.746 218.725C165.719 218.725 163.798 218.409 161.984 217.777C160.17 217.144 158.676 216.196 157.396 215.143C154.835 213.141 153.021 210.718 151.527 208.294C150.139 205.871 149.179 203.342 148.432 200.708C148.432 200.603 148.432 200.603 148.432 200.498C150.033 223.677 158.356 245.065 171.695 262.87C171.695 262.87 172.335 264.345 174.896 266.979C178.737 271.615 182.899 276.04 187.381 280.149C187.701 280.465 188.128 280.781 188.448 281.097C206.909 300.589 234.44 330.827 243.83 347.263H253.327C247.138 330.827 228.144 300.589 215.445 281.097Z" fill="#222221"/>
<path d="M187.701 193.544C187.701 193.228 187.701 192.912 187.701 192.596C187.701 192.385 187.701 192.069 187.701 191.858L187.594 191.753L187.274 192.385C180.552 205.976 173.722 212.719 167 212.403C156.115 211.876 148.859 192.596 148.752 192.385L148.325 192.49C148.325 192.912 148.325 193.228 148.325 193.649C150.033 197.758 156.755 212.614 166.893 213.141C173.722 213.457 180.445 207.135 187.061 194.282C187.381 194.071 187.488 193.86 187.701 193.544Z" fill="#CB272A"/>
<path d="M193.89 146.027L193.677 146.449C187.488 157.195 181.085 162.463 174.789 162.042C164.759 161.515 158.143 146.554 158.036 146.449H157.929C157.823 146.765 157.716 146.975 157.609 147.292C158.996 150.136 165.292 162.252 174.789 162.779C181.192 163.095 187.701 158.038 193.89 147.608C193.997 147.186 194.21 146.659 194.317 146.238L193.89 146.027Z" fill="#CB272A"/>
<path d="M272.215 71.4332C272.428 71.4332 272.535 71.4332 272.641 71.4332C272.535 71.4332 272.428 71.4332 272.321 71.4332C272.215 71.4332 272.108 71.4332 272.001 71.5386C272.108 71.4332 272.215 71.4332 272.215 71.4332Z" fill="#CB272A"/>
<path d="M273.602 71.4332C273.388 71.3279 273.175 71.3279 272.961 71.3279C273.068 71.3279 273.282 71.4332 273.388 71.5386C273.388 71.5386 273.495 71.5386 273.602 71.4332Z" fill="#CB272A"/>
<path d="M194.317 146.343L194.424 146.554C198.799 150.347 202.854 153.929 207.015 156.879C211.177 159.829 215.445 161.936 219.287 162.042C221.208 162.147 223.128 161.831 225.049 160.988C226.97 160.251 228.997 158.986 231.025 157.511C234.973 154.561 238.708 150.558 242.976 146.554L243.083 146.027L243.19 146.133L243.296 145.817L243.403 146.027C248.312 104.411 259.516 74.594 272.748 71.9601C272.961 71.8547 273.175 71.7493 273.388 71.5386C273.282 71.4333 273.175 71.4333 272.961 71.3279C272.961 71.3279 272.961 71.3279 272.855 71.3279C272.748 71.3279 272.748 71.3279 272.641 71.2225C272.535 71.2225 272.321 71.2225 272.214 71.2225H272.108C271.361 71.4333 270.507 71.5386 269.76 71.7493C235.613 74.594 206.802 104.516 194.317 146.343Z" fill="white"/>
<path d="M187.808 192.069L188.128 192.385C193.463 196.81 198.052 201.235 202.64 204.923C204.881 206.714 207.229 208.294 209.363 209.453C211.497 210.612 213.418 211.139 215.019 211.244C215.766 211.244 216.619 211.244 217.366 211.034C218.22 210.823 219.074 210.507 220.034 210.085C221.955 209.137 224.089 207.557 226.33 205.766C228.464 203.869 230.705 201.762 232.946 199.444C233.479 198.917 234.119 198.285 234.653 197.758L236.36 195.967C237.534 194.808 238.708 193.649 240.095 192.49V191.647L240.522 191.964L240.629 191.753C240.629 177.108 241.376 163.201 242.763 150.242C242.336 152.033 241.696 153.718 241.056 155.404C239.882 158.143 238.388 160.672 236.467 163.095C235.507 164.36 234.44 165.413 233.159 166.572C231.985 167.626 230.598 168.574 228.997 169.417C227.504 170.26 225.796 170.892 224.089 171.313C222.275 171.735 220.461 171.945 218.647 171.84C215.019 171.629 211.604 170.365 208.723 168.785C205.842 167.099 203.494 164.992 201.467 162.674C199.439 160.356 197.838 157.933 196.451 155.299C195.384 153.192 194.53 150.979 193.89 148.661C193.463 150.242 192.93 151.822 192.29 153.402C192.29 153.402 192.29 153.508 192.183 153.508C189.195 165.519 187.594 178.372 187.488 191.753L187.808 192.069Z" fill="white"/>
<path d="M240.735 192.596C240.735 192.385 240.735 192.174 240.735 191.964L240.629 191.858L240.415 192.49C232.839 209.348 224.516 217.987 215.659 218.093H215.552C200.293 218.093 188.235 192.806 188.128 192.49L187.914 192.069L187.701 191.964C187.701 192.174 187.701 192.49 187.701 192.701C187.701 193.017 187.701 193.333 187.701 193.649C187.808 193.86 188.021 194.176 188.128 194.598C191.116 200.392 201.787 218.935 215.445 218.935H215.552C224.409 218.83 232.732 210.717 240.202 194.808C240.415 194.387 240.522 194.071 240.735 193.649C240.735 193.228 240.735 192.912 240.735 192.596Z" fill="white"/>
<path d="M251.62 281.097C251.513 280.781 251.406 280.465 251.299 280.149C250.126 276.04 248.952 271.615 247.991 266.979C247.351 264.345 247.138 262.87 247.138 262.87C243.51 244.854 241.269 223.15 240.842 199.549V199.444C240.842 199.339 240.842 199.233 240.735 199.128C240.522 200.498 240.202 201.867 239.882 203.132C238.921 206.503 237.641 209.769 235.72 212.93C233.799 216.091 231.238 219.146 227.717 221.675C225.903 222.939 223.875 223.993 221.528 224.73C219.18 225.468 216.726 225.784 214.271 225.678C211.817 225.573 209.47 224.941 207.335 224.098C205.201 223.255 203.387 222.202 201.68 220.937C198.372 218.514 195.917 215.669 193.89 212.614C191.863 209.559 190.369 206.398 189.195 203.132C188.661 201.446 188.128 199.866 187.808 198.074C187.808 198.074 187.808 198.074 187.808 197.969C188.555 222.096 194.424 244.432 203.921 262.87C203.921 262.87 204.347 264.345 206.162 266.979C208.829 271.615 211.71 276.04 214.805 280.149C215.018 280.465 215.339 280.781 215.552 281.097C228.25 300.589 247.244 330.827 253.754 347.263H266.559C263.891 330.827 256.528 300.589 251.62 281.097Z" fill="white"/>
<path d="M193.997 147.502C193.997 147.608 194.103 147.713 194.21 147.818C196.664 151.822 206.802 167.31 219.82 167.31H219.927C228.25 167.204 236.04 160.672 243.083 147.924C243.083 147.818 243.19 147.818 243.19 147.713C243.19 147.292 243.296 146.765 243.296 146.343L243.083 146.133L242.869 146.554C235.933 159.724 228.144 166.467 219.927 166.467H219.82C205.628 166.467 194.53 146.659 194.424 146.554L194.317 146.449C194.21 146.87 193.997 147.397 193.89 147.818C193.89 147.608 193.997 147.608 193.997 147.502Z" fill="white"/>
<path d="M274.349 71.7493C274.242 71.4333 274.135 71.2225 274.029 71.3279C273.922 71.2225 273.922 71.2225 273.815 71.2225C273.709 71.2225 273.709 71.3279 273.602 71.3279C273.709 71.4333 273.815 71.5386 273.922 71.644H274.349V71.7493Z" fill="#CB272A"/>
<path d="M273.602 71.7493H273.922C273.815 71.6439 273.708 71.5386 273.602 71.4332C273.495 71.4332 273.495 71.5386 273.388 71.5386C273.388 71.6439 273.495 71.7493 273.602 71.7493Z" fill="#CB272A"/>
<path d="M241.162 192.385L240.949 192.069L240.735 191.964C240.735 192.174 240.735 192.385 240.735 192.596C240.735 192.912 240.735 193.228 240.735 193.544C240.842 193.755 241.055 194.176 241.269 194.492C244.684 201.024 257.489 223.361 274.775 223.887V223.044C255.461 222.412 241.269 192.701 241.162 192.385Z" fill="#CB272A"/>
<path d="M273.602 71.7493C273.495 71.644 273.388 71.644 273.388 71.5386C273.175 71.644 272.961 71.7494 272.748 71.9601C259.516 74.594 248.312 104.411 243.403 146.027L243.616 146.449C246.498 148.661 249.165 150.874 251.94 152.876C254.607 154.877 257.275 156.774 259.943 158.354C262.611 159.935 265.278 161.304 267.839 162.147C270.294 162.99 272.641 163.411 274.775 163.411V87.0264C274.669 87.0264 274.562 87.0264 274.349 87.0264C271.681 87.0264 269.547 84.9192 269.547 82.2852C269.547 79.6513 271.681 77.5441 274.349 77.5441C274.455 77.5441 274.562 77.5441 274.775 77.5441V71.8547H274.349H273.922H273.602V71.7493Z" fill="#222221"/>
<path d="M243.19 147.608C243.19 147.608 243.19 147.502 243.296 147.502C243.296 147.608 243.403 147.713 243.51 147.818C246.177 152.243 258.556 170.787 274.882 171.208V170.365C257.062 169.838 243.83 146.659 243.723 146.449L243.51 146.238C243.296 146.765 243.19 147.186 243.19 147.608Z" fill="#CB272A"/>
<path d="M274.562 234.318C271.361 234.107 268.373 233.475 265.599 232.422C262.824 231.368 260.37 229.998 258.236 228.418C253.967 225.362 250.766 221.675 248.205 217.777C245.644 213.878 243.723 209.875 242.443 205.66C241.802 203.659 241.269 201.551 240.842 199.444C241.269 222.939 243.51 244.748 247.138 262.765C247.138 262.765 247.351 264.24 247.992 266.874C249.059 271.51 250.126 275.935 251.3 280.044C251.406 280.36 251.513 280.676 251.62 280.992C256.528 300.483 263.998 330.721 266.452 347.157H274.775V234.318C274.669 234.318 274.562 234.318 274.562 234.318Z" fill="#222221"/>
<path d="M241.269 192.28C244.79 194.914 247.992 197.548 251.193 199.971C254.287 202.394 257.382 204.712 260.263 206.714C263.144 208.716 266.132 210.296 268.693 211.35C269.974 211.876 271.147 212.192 272.214 212.403L272.961 212.509L273.708 212.614C274.029 212.614 274.349 212.614 274.669 212.614V178.056H274.562C269.867 177.846 265.492 176.37 261.757 174.263C258.022 172.156 255.034 169.522 252.473 166.572C249.912 163.727 247.885 160.567 246.284 157.195C244.897 154.456 243.83 151.611 243.19 148.661C243.083 149.083 242.976 149.609 242.87 150.031C241.482 162.99 240.735 176.897 240.735 191.542L240.949 191.964L241.269 192.28Z" fill="#222221"/>
<path d="M276.483 71.5386C276.59 71.4332 276.696 71.4332 276.696 71.4332C276.483 71.4332 276.376 71.4332 276.163 71.4332C276.269 71.4332 276.376 71.4332 276.483 71.5386Z" fill="#CB272A"/>
<path d="M361.53 192.596C361.53 192.912 361.53 193.333 361.53 193.649C361.53 193.544 361.637 193.544 361.637 193.439C361.743 193.649 361.957 193.86 362.063 194.071C364.944 198.18 374.228 210.612 384.579 209.769C390.875 209.242 396.317 203.869 400.799 193.649C400.799 193.333 400.799 192.912 400.799 192.596L400.585 192.49L400.372 192.385C395.997 202.816 390.661 208.4 384.472 208.926C372.841 209.875 361.957 192.49 361.85 192.385L361.53 191.858C361.53 192.069 361.53 192.28 361.53 192.596Z" fill="#B9272A"/>
<path d="M355.234 147.502C355.234 147.502 355.234 147.397 355.234 147.502C355.234 147.502 355.341 147.608 355.341 147.713C357.688 150.558 366.759 161.094 376.683 160.251C382.445 159.724 387.46 155.51 391.515 147.502C391.408 147.186 391.302 146.87 391.088 146.659H390.982C387.033 154.667 382.125 158.986 376.576 159.513C365.692 160.461 355.448 146.765 355.341 146.554L355.021 146.133L354.701 146.449C355.021 146.765 355.127 147.081 355.234 147.502Z" fill="#B9272A"/>
<path d="M354.914 146.343L355.127 145.922L355.234 146.133L355.341 146.027L355.447 146.554C358.755 148.767 361.957 150.979 365.051 152.77C368.253 154.561 371.454 155.931 374.335 156.142C375.829 156.247 377.109 156.142 378.497 155.72C379.777 155.299 381.164 154.667 382.551 153.824C383.939 152.981 385.326 151.822 386.713 150.558C388.1 149.293 389.488 147.924 391.088 146.554H391.195C373.268 104.832 331.545 74.8047 282.245 71.96C280.858 71.7493 279.577 71.5386 278.19 71.3279C277.977 71.3279 277.763 71.3279 277.55 71.4332C278.297 71.644 279.151 71.7493 279.898 71.96C313.831 74.8047 342.429 104.727 354.914 146.343Z" fill="#222221"/>
<path d="M386.927 158.46C385.326 160.145 383.405 161.62 381.058 162.569C378.71 163.517 376.042 163.728 373.588 163.411C371.134 163.095 368.893 162.252 366.972 161.094C365.051 160.04 363.237 158.67 361.743 157.195C360.249 155.72 358.862 154.14 357.688 152.454C356.941 151.295 356.194 150.031 355.661 148.767C357.048 153.508 358.115 158.46 359.076 163.517C360.676 172.578 361.637 182.165 361.637 191.964L362.063 191.542L362.17 192.385C366.118 195.019 369.746 197.758 373.161 199.971C376.683 202.183 380.097 203.764 382.765 203.975C384.045 204.08 385.113 203.869 386.286 203.448C387.46 203.026 388.954 202.183 390.341 201.13C391.835 199.971 393.329 198.707 394.93 197.126C396.53 195.651 398.131 194.071 400.158 192.385L400.585 192.49L400.799 192.596C400.799 182.481 399.518 172.683 397.064 163.411C395.677 158.038 393.863 152.876 391.835 147.924C391.622 149.715 391.195 151.401 390.448 152.981C389.594 154.877 388.42 156.774 386.927 158.46Z" fill="#222221"/>
<path d="M390.982 213.141C389.594 213.878 387.887 214.405 386.286 214.721C384.579 214.932 382.872 214.932 381.271 214.721C378.07 214.194 375.295 212.93 373.054 211.35C370.814 209.769 368.893 207.978 367.292 205.976C365.692 204.08 364.411 201.973 363.344 199.76C362.81 198.601 362.277 197.337 361.85 196.073C361.743 196.916 361.637 197.758 361.423 198.601C360.569 222.518 354.7 244.538 345.31 262.87C345.31 262.87 344.67 264.661 342.642 267.717C340.508 271.51 338.161 275.092 335.6 278.569C323.008 298.271 302.413 331.353 296.224 347.262H306.041C315.005 331.353 344.777 298.271 363.13 278.569C366.759 275.197 370.173 271.51 373.268 267.717C376.149 264.661 377.109 262.87 377.109 262.87C390.341 245.17 398.665 223.993 400.372 201.024C399.732 203.132 398.771 205.239 397.491 207.241C395.997 209.559 393.863 211.666 390.982 213.141Z" fill="#222221"/>
<path d="M277.336 71.5386C277.336 71.5386 277.443 71.5386 277.55 71.4332C277.443 71.4332 277.23 71.3279 277.123 71.3279C277.016 71.3279 276.91 71.3279 276.803 71.3279C276.91 71.3279 276.91 71.3279 277.016 71.3279C277.016 71.4332 277.123 71.4332 277.336 71.5386Z" fill="#CB272A"/>
<path d="M276.163 71.4332C275.949 71.3278 275.843 71.3278 275.629 71.4332C275.736 71.4332 275.736 71.5386 275.843 71.5386C275.949 71.4332 276.056 71.4332 276.163 71.4332Z" fill="#CB272A"/>
<path d="M306.041 147.397C306.148 147.397 306.255 147.502 306.255 147.608C309.029 150.874 320.98 163.517 333.999 163.517C334.639 163.517 335.386 163.517 336.026 163.411C343.603 162.569 350.005 157.301 355.127 147.608C355.127 147.502 355.234 147.502 355.234 147.397C355.127 147.081 355.021 146.659 354.914 146.343L354.807 146.449C349.792 156.352 343.389 161.831 336.026 162.569C321.087 164.149 306.468 146.554 306.361 146.343L306.148 146.133L305.935 146.238C305.935 146.659 305.934 147.081 306.041 147.397Z" fill="#CACACA"/>
<path d="M355.768 210.928C353.633 213.668 350.752 216.196 347.017 217.777C345.203 218.514 343.176 219.041 341.255 219.357C339.228 219.568 337.2 219.568 335.386 219.252C331.545 218.619 328.13 217.144 325.249 215.353C323.755 214.405 322.474 213.457 321.194 212.403C319.913 211.35 318.74 210.191 317.672 209.032C315.432 206.714 313.618 204.185 311.91 201.551C310.95 199.866 309.989 198.18 309.242 196.494C309.242 199.444 308.922 202.289 308.282 205.134C307.642 226.627 305.508 246.434 302.093 263.081C302.093 263.081 301.88 264.872 301.026 267.927C300.172 271.72 299.319 275.303 298.251 278.779C293.343 298.481 285.34 331.564 282.885 347.473H296.117C302.306 331.564 322.795 298.481 335.493 278.779C337.947 275.408 340.295 271.72 342.536 267.927C344.563 264.872 345.203 263.081 345.203 263.081C354.594 244.854 360.463 222.728 361.316 198.812C361.103 199.971 360.783 201.13 360.356 202.289C359.396 205.239 357.902 208.189 355.768 210.928Z" fill="#CACACA"/>
<path d="M276.589 71.96C289.821 74.8047 300.919 104.516 305.828 146.027L305.934 145.922L306.148 146.133L306.255 146.027L306.361 146.343C310.63 149.293 314.898 152.138 319.166 154.561C323.435 156.879 327.81 158.67 332.078 159.197C336.346 159.619 340.188 158.67 343.923 156.247C345.844 155.088 347.658 153.508 349.472 151.927C351.286 150.242 352.993 148.345 354.914 146.449L355.021 146.238C342.536 104.621 313.938 74.6993 279.897 71.96C279.15 71.7493 278.297 71.5386 277.55 71.4332C277.443 71.4332 277.443 71.4332 277.336 71.5386C277.23 71.5386 277.123 71.4332 276.91 71.4332C276.803 71.4332 276.803 71.4332 276.696 71.4332C276.589 71.4332 276.483 71.5386 276.483 71.5386C276.376 71.5386 276.269 71.4332 276.269 71.4332C276.163 71.4332 276.056 71.5386 275.949 71.5386C276.163 71.6439 276.376 71.8547 276.589 71.96Z" fill="#CACACA"/>
<path d="M308.496 192.596C308.496 192.912 308.496 193.228 308.496 193.544C308.496 193.544 308.496 193.439 308.602 193.439C308.816 193.649 308.922 193.965 309.242 194.282C312.977 199.233 326.423 215.459 340.615 214.089C348.831 213.246 355.874 206.608 361.423 194.282C361.53 194.071 361.53 193.965 361.637 193.755C361.637 193.439 361.637 193.017 361.637 192.701C361.637 192.49 361.637 192.174 361.637 191.964L361.423 192.174L361.21 192.596C355.661 205.555 348.618 212.509 340.401 213.351C324.502 214.932 308.922 192.701 308.816 192.49L308.496 192.069H308.389C308.496 192.174 308.496 192.385 308.496 192.596Z" fill="#CACACA"/>
<path d="M352.993 154.561C351.713 156.985 350.112 159.408 347.978 161.41C345.844 163.411 343.176 165.097 340.188 166.045C337.2 166.994 333.999 167.204 330.904 166.783C327.917 166.362 325.035 165.308 322.474 164.044C319.913 162.779 317.566 161.199 315.538 159.408C313.404 157.617 311.59 155.72 309.883 153.613C308.496 151.822 307.215 150.031 306.148 148.029C306.148 148.24 306.041 148.451 306.041 148.661C306.575 153.402 307.002 158.354 307.322 163.411C307.962 172.578 308.282 182.06 308.282 191.858L308.389 191.964L308.816 191.648V192.174C313.831 195.757 318.42 199.233 323.221 202.183C327.917 205.028 332.719 207.346 336.88 207.873C339.014 208.084 340.828 207.873 342.749 207.241C344.67 206.609 346.591 205.555 348.618 204.08C350.646 202.605 352.566 200.708 354.594 198.707C356.621 196.705 358.649 194.492 360.89 192.28L361.317 191.964L361.423 191.648L361.53 191.753C361.53 181.955 360.57 172.472 358.969 163.306C358.115 158.249 356.941 153.402 355.554 148.556C355.448 148.345 355.341 148.134 355.234 147.924C354.807 150.347 354.06 152.454 352.993 154.561Z" fill="#CACACA"/>
<path d="M275.629 71.4332C275.629 71.4332 275.629 71.3279 275.629 71.4332C275.416 71.3279 275.416 71.4332 275.309 71.5386L275.202 71.4332C275.096 71.3279 274.882 71.4332 274.882 71.8547H275.309C275.309 71.644 275.522 71.4332 275.629 71.4332Z" fill="#CB272A"/>
<path d="M275.202 71.7493H275.523C275.629 71.6439 275.736 71.5386 275.843 71.5386C275.736 71.5386 275.736 71.4332 275.629 71.4332C275.523 71.4332 275.309 71.6439 275.202 71.7493Z" fill="#CB272A"/>
<path d="M301.133 267.822C301.88 264.766 302.2 262.975 302.2 262.975C305.508 246.329 307.749 226.521 308.389 205.028C308.282 205.45 308.175 205.976 308.069 206.398C307.002 210.717 305.188 214.932 302.733 218.935C300.172 222.939 296.758 226.732 292.062 229.787C289.715 231.262 286.94 232.527 284.059 233.37C283.312 233.58 282.565 233.791 281.818 233.896C281.071 234.107 280.324 234.212 279.471 234.318C277.977 234.529 276.483 234.529 274.882 234.423V347.368H283.205C285.553 331.459 293.663 298.376 298.572 278.674C299.319 275.197 300.279 271.615 301.133 267.822Z" fill="#222221"/>
<path d="M275.416 223.887C287.047 223.887 298.038 213.773 308.282 193.86C308.389 193.755 308.389 193.649 308.496 193.544C308.496 193.228 308.496 192.912 308.496 192.596C308.496 192.385 308.496 192.174 308.496 191.964L308.282 192.069L308.175 192.385C297.931 212.719 286.94 223.044 275.522 223.044C275.416 223.044 275.416 223.044 275.309 223.044C275.202 223.044 274.989 223.044 274.882 223.044V223.887C274.989 223.887 275.202 223.887 275.309 223.887C275.202 223.887 275.309 223.887 275.416 223.887Z" fill="#B9272A"/>
<path d="M275.309 170.471C275.202 170.471 275.096 170.471 274.989 170.471C274.882 170.471 274.776 170.471 274.669 170.471V171.313C274.776 171.313 274.882 171.313 274.989 171.313C275.096 171.313 275.202 171.313 275.309 171.313C286.087 171.313 296.437 163.306 305.935 147.608C305.935 147.608 305.935 147.608 305.935 147.502C305.935 147.081 305.828 146.765 305.828 146.343L305.614 146.449C296.117 162.358 285.98 170.471 275.309 170.471Z" fill="#B9272A"/>
<path d="M301.133 162.779C300.172 164.36 298.998 165.94 297.718 167.52C295.157 170.576 291.956 173.315 288.007 175.212C284.166 177.213 279.471 178.267 274.775 178.056V212.614C274.882 212.614 275.096 212.614 275.202 212.614C276.91 212.509 278.51 212.087 280.751 211.034C282.992 209.98 285.553 208.4 288.327 206.398C291.102 204.396 293.983 202.078 297.184 199.655C300.386 197.232 303.694 194.703 307.855 192.28L308.175 192.069L308.389 191.753V191.858C308.389 182.06 308.069 172.472 307.428 163.411C307.108 158.354 306.681 153.508 306.148 148.661C305.721 151.822 304.867 154.877 303.694 157.722C302.947 159.513 302.093 161.093 301.133 162.779Z" fill="#222221"/>
<path d="M147.579 194.598C148.966 198.18 150.246 201.762 152.594 204.923C155.262 208.4 158.463 211.139 162.518 212.825C166.466 214.405 170.734 214.405 174.683 212.719C177.991 211.244 180.658 208.61 182.686 205.66C185.14 202.078 186.741 197.969 187.914 193.755C187.061 193.965 186.1 194.176 185.247 194.492C192.823 201.762 196.771 212.509 206.482 217.46C210.964 219.778 216.192 220.516 220.888 218.514C225.689 216.407 229.744 212.193 233.052 208.294C237.001 203.764 240.095 198.601 242.443 193.123C242.763 192.28 242.123 191.437 241.376 191.226C240.415 191.015 239.775 191.542 239.455 192.28C237.534 196.705 235.08 200.919 232.092 204.712C229.104 208.4 225.583 212.193 221.528 214.721C212.458 220.305 203.174 212.193 198.052 205.239C194.744 200.814 191.756 196.073 187.808 192.174C186.954 191.331 185.46 191.753 185.14 192.912C183.433 198.812 180.765 205.766 175.109 209.137C168.28 213.246 160.704 209.348 156.115 203.869C153.661 200.919 152.38 197.442 150.993 193.86C150.033 191.858 146.938 192.701 147.579 194.598Z" fill="white"/>
<path d="M239.242 192.807C243.51 200.182 248.205 207.451 254.181 213.668C260.05 219.568 268.373 225.889 277.23 225.152C282.459 224.73 287.261 222.202 291.742 219.673C293.556 218.725 291.956 215.985 290.142 216.934C286.407 219.041 282.565 221.253 278.19 221.886C274.029 222.518 269.867 221.253 266.239 219.146C259.303 215.248 253.754 209.137 249.165 202.71C246.498 199.023 244.15 195.124 241.909 191.226C240.949 189.435 238.174 191.015 239.242 192.807Z" fill="white"/>
<path d="M288.648 221.78C294.41 217.46 299.319 212.193 303.054 206.082C304.974 203.026 306.255 199.866 307.749 196.705C307.962 196.283 308.176 195.546 308.709 195.546C309.136 195.546 309.776 196.494 310.096 196.81C311.377 198.285 312.551 199.655 313.831 201.13C318.526 206.398 323.755 211.56 330.584 214.3C336.347 216.618 343.283 216.934 348.938 213.984C352.46 212.087 354.807 208.926 356.728 205.45C359.076 201.341 361.317 197.232 363.664 193.228C362.704 193.228 361.85 193.228 360.89 193.228C364.304 199.339 368.893 205.555 375.509 208.505C381.698 211.244 389.488 211.139 394.61 206.292C397.491 203.553 399.198 199.76 400.585 196.178C401.332 194.282 398.238 193.439 397.491 195.335C396.104 198.812 394.396 202.5 391.408 204.923C388.421 207.241 384.472 207.767 380.844 207.03C372.734 205.45 367.506 198.496 363.664 191.753C363.131 190.699 361.53 190.699 360.89 191.753C358.862 195.441 356.728 199.128 354.701 202.816C352.993 205.766 351.286 208.926 348.298 210.718C343.069 214.089 335.92 213.457 330.371 210.823C324.075 207.767 319.167 202.5 314.685 197.337C312.871 195.23 310.096 190.91 306.788 193.017C305.615 193.755 305.081 195.019 304.547 196.283C303.8 197.969 303.054 199.655 302.2 201.341C298.465 208.294 293.236 214.405 286.94 219.252C285.447 220.2 287.047 222.939 288.648 221.78Z" fill="white"/>
<path d="M156.435 146.449C158.676 152.454 161.451 159.408 167.426 162.674C174.362 166.467 182.579 163.306 187.808 158.038C191.009 154.772 193.357 150.768 195.704 146.87C194.744 146.87 193.89 146.87 192.93 146.87C197.305 154.034 202.32 161.831 210.11 165.624C218.753 169.838 228.891 167.415 235.72 161.094C239.562 157.511 242.123 152.981 243.937 148.134C242.976 148.24 242.016 148.345 241.055 148.556C245.217 154.034 250.232 158.776 255.995 162.463C258.769 164.254 261.757 165.729 264.745 167.099C267.626 168.469 270.721 170.049 272.748 172.683C273.175 171.84 273.708 171.103 274.135 170.26C265.492 169.417 257.275 164.886 252.047 158.038C251.3 158.776 250.553 159.513 249.806 160.251C254.394 162.779 259.089 165.413 263.678 167.942C267.733 170.154 271.788 172.472 276.483 172.683C285.34 172.999 293.023 167.415 298.145 160.777C301.239 156.774 303.694 152.243 306.041 147.713C307.002 145.922 304.227 144.341 303.267 146.133C299.532 153.297 295.477 161.094 288.541 165.729C285.34 167.836 281.605 169.417 277.657 169.522C273.282 169.628 269.653 167.731 265.919 165.624C261.117 162.99 256.208 160.251 251.406 157.617C250.126 156.879 248.205 158.46 249.165 159.829C255.141 167.626 264.105 172.683 274.029 173.631C275.202 173.737 276.163 172.156 275.416 171.208C271.361 165.94 264.638 164.149 259.089 160.777C253.22 157.195 247.992 152.559 243.83 147.081C242.976 145.922 241.376 146.133 240.949 147.502C238.174 155.299 232.305 162.252 223.875 164.36C220.034 165.308 215.872 164.992 212.244 163.306C208.829 161.726 205.948 159.197 203.494 156.352C200.613 152.981 198.159 149.293 195.918 145.5C195.277 144.447 193.783 144.447 193.143 145.5C188.982 152.559 183.433 161.831 173.936 161.515C165.826 161.199 162.198 152.349 159.85 145.922C158.89 143.709 155.795 144.552 156.435 146.449Z" fill="white"/>
<path d="M303.907 146.659C310.096 153.086 316.605 159.724 325.142 162.885C333.359 165.835 342.429 164.886 348.831 158.776C352.246 155.615 354.7 151.611 356.728 147.502C355.874 147.608 355.021 147.713 354.167 147.818C357.155 150.768 360.463 153.402 363.877 155.826C367.079 158.038 370.707 160.777 374.655 161.62C378.39 162.358 382.018 160.988 384.792 158.565C387.78 155.931 389.594 152.243 391.302 148.767C392.155 146.975 389.381 145.29 388.527 147.186C385.966 152.665 381.698 160.777 374.121 158.249C370.814 157.09 367.719 154.772 364.838 152.77C361.85 150.558 358.969 148.24 356.301 145.606C355.661 144.974 354.274 144.974 353.74 145.922C350.539 152.349 346.057 159.092 338.481 160.883C330.478 162.885 322.261 159.092 316.072 154.245C312.337 151.295 309.029 147.818 305.828 144.447C304.761 142.972 302.413 145.184 303.907 146.659Z" fill="white"/>
<path d="M279.151 82.2852C279.151 84.8138 277.23 86.8157 274.669 87.0264V163.622C274.775 163.622 274.882 163.622 274.882 163.622C277.123 163.622 279.364 163.095 281.605 162.147C283.952 161.199 286.407 159.935 288.861 158.249C291.422 156.669 293.983 154.772 296.651 152.665C299.425 150.663 302.2 148.451 305.401 146.449L305.614 146.027C300.706 104.516 289.608 74.6994 276.376 71.9601C276.163 71.7494 275.843 71.644 275.629 71.5386C275.522 71.644 275.416 71.644 275.309 71.7493H274.989H274.562H274.455V77.4387C277.23 77.7548 279.151 79.7566 279.151 82.2852Z" fill="#222221"/>
<g opacity="0.4">
<g opacity="0.4">
<path d="M274.775 347.262H266.772H254.394H245.217H243.83C242.976 347.262 242.336 348 242.336 348.843V356.534C242.336 357.377 242.976 358.114 243.83 358.114H274.669H275.096V347.368H274.775V347.262Z" fill="#222221"/>
<path d="M274.775 347.262H266.772H254.394H245.217H243.83C242.976 347.262 242.336 348 242.336 348.843V356.534C242.336 357.377 242.976 358.114 243.83 358.114H274.669H275.096V347.368H274.775V347.262Z" fill="#B9272A"/>
</g>
<g opacity="0.4">
<path d="M305.614 347.262H302.84H294.09H282.245H275.202V358.009H305.614C306.361 358.009 307.001 357.272 307.001 356.429V348.737C307.001 348 306.361 347.262 305.614 347.262Z" fill="#222221"/>
<path d="M305.614 347.262H302.84H294.09H282.245H275.202V358.009H305.614C306.361 358.009 307.001 357.272 307.001 356.429V348.737C307.001 348 306.361 347.262 305.614 347.262Z" fill="#B9272A"/>
</g>
</g>
<path opacity="0.4" d="M309.029 191.648L308.602 191.964L308.922 192.385C309.029 192.596 324.609 214.827 340.508 213.246C348.725 212.403 355.768 205.45 361.316 192.49L361.53 192.069L361.103 192.385C358.755 194.598 356.835 196.81 354.807 198.812C352.78 200.814 350.752 202.605 348.832 204.185C346.804 205.66 344.883 206.819 342.963 207.346C341.042 207.978 339.228 208.189 337.094 207.978C332.932 207.557 328.13 205.239 323.435 202.289C318.74 199.339 314.044 195.862 309.029 192.28V191.648Z" fill="#222221"/>
<path opacity="0.4" d="M386.286 203.342C385.113 203.764 384.045 203.974 382.765 203.869C380.204 203.658 376.683 202.078 373.161 199.865C369.64 197.653 366.118 195.019 362.17 192.28L362.063 191.437L361.637 191.858L361.957 192.385C362.063 192.596 372.948 209.875 384.579 208.926C390.768 208.4 396.104 202.921 400.479 192.385L400.692 192.49L400.265 192.385C398.238 193.965 396.637 195.651 395.037 197.126C393.436 198.601 391.942 199.971 390.448 201.13C388.847 202.078 387.46 202.921 386.286 203.342Z" fill="#222221"/>
<path opacity="0.4" d="M275.416 223.15C286.94 223.15 297.931 212.825 308.069 192.491L308.175 192.174L307.855 192.385C303.694 194.808 300.386 197.337 297.184 199.76C293.983 202.184 291.102 204.501 288.327 206.503C285.553 208.505 282.992 210.085 280.751 211.139C278.51 212.193 276.91 212.614 275.202 212.719C275.096 212.719 274.882 212.719 274.775 212.719V223.15C274.882 223.15 275.096 223.15 275.202 223.15C275.202 223.15 275.309 223.15 275.416 223.15Z" fill="#222221"/>
<path opacity="0.4" d="M384.579 209.769C374.228 210.612 364.945 198.285 362.063 194.071C361.85 193.86 361.743 193.649 361.637 193.439C361.637 193.544 361.53 193.544 361.53 193.649C361.423 193.86 361.423 193.966 361.316 194.176C355.768 206.503 348.725 213.246 340.508 213.984C326.316 215.353 312.871 199.128 309.136 194.176C308.922 193.86 308.709 193.544 308.496 193.333C308.496 193.333 308.496 193.439 308.389 193.439C308.389 193.755 308.389 193.966 308.389 194.282C308.282 194.176 308.282 193.966 308.175 193.86C297.931 213.773 286.94 223.887 275.309 223.887C275.202 223.887 275.202 223.887 275.096 223.887C274.989 223.887 274.776 223.887 274.669 223.887V234.318C276.163 234.423 277.657 234.318 279.257 234.213C280.004 234.107 280.858 234.002 281.605 233.791C282.352 233.686 283.099 233.475 283.846 233.264C286.834 232.421 289.501 231.157 291.849 229.682C296.544 226.627 299.959 222.834 302.52 218.83C305.081 214.827 306.788 210.612 307.855 206.293C307.962 205.871 308.069 205.344 308.175 204.923C308.816 202.078 309.136 199.233 309.136 196.283C309.883 198.075 310.736 199.76 311.804 201.341C313.404 203.975 315.325 206.503 317.566 208.821C318.633 209.98 319.807 211.139 321.087 212.193C322.368 213.246 323.755 214.194 325.142 215.143C328.023 216.934 331.438 218.409 335.28 219.041C337.2 219.357 339.228 219.357 341.148 219.146C343.176 218.936 345.097 218.409 346.911 217.566C350.539 215.986 353.42 213.457 355.661 210.718C357.795 207.978 359.289 205.028 360.356 201.973C360.783 200.814 361.103 199.655 361.316 198.496C361.53 197.653 361.637 196.81 361.743 195.967C362.17 197.232 362.704 198.391 363.237 199.655C364.304 201.867 365.585 203.975 367.185 205.871C368.786 207.768 370.6 209.664 372.948 211.244C375.189 212.825 377.963 214.089 381.164 214.616C382.765 214.827 384.472 214.827 386.18 214.616C387.887 214.405 389.488 213.773 390.875 213.035C393.756 211.56 395.89 209.348 397.491 207.135C398.878 205.134 399.838 203.026 400.372 200.919C400.585 198.496 400.692 196.073 400.692 193.544C396.317 203.869 390.875 209.243 384.579 209.769Z" fill="#222221"/>
<path opacity="0.4" d="M336.026 162.674C343.496 161.831 349.792 156.458 354.807 146.554C352.886 148.45 351.179 150.347 349.365 152.033C347.551 153.718 345.737 155.193 343.816 156.352C340.081 158.776 336.133 159.724 331.972 159.302C327.703 158.881 323.328 156.985 319.06 154.667C314.791 152.349 310.63 149.504 306.255 146.449L306.148 146.133L306.041 146.238L306.255 146.449C306.468 146.554 321.087 164.254 336.026 162.674Z" fill="#222221"/>
<path opacity="0.4" d="M376.683 159.302C382.338 158.776 387.14 154.456 391.088 146.449C389.488 147.818 388.1 149.188 386.713 150.452C385.326 151.717 383.939 152.876 382.552 153.718C381.164 154.667 379.777 155.299 378.497 155.615C377.109 156.036 375.829 156.142 374.335 156.036C371.454 155.826 368.253 154.456 365.051 152.665C361.85 150.874 358.755 148.661 355.448 146.449L355.341 145.922L355.234 146.027L355.554 146.449C355.661 146.554 365.905 160.251 376.683 159.302Z" fill="#222221"/>
<path opacity="0.4" d="M275.309 170.471C285.98 170.471 296.117 162.358 305.614 146.449C302.307 148.451 299.532 150.663 296.864 152.665C294.197 154.667 291.529 156.563 289.075 158.249C286.514 159.935 284.059 161.199 281.818 162.147C279.471 163.095 277.337 163.517 275.096 163.622C274.989 163.622 274.882 163.622 274.882 163.622V170.471C274.989 170.471 275.096 170.471 275.202 170.471C275.096 170.471 275.202 170.471 275.309 170.471Z" fill="#222221"/>
<path opacity="0.4" d="M336.133 163.517C335.493 163.622 334.746 163.622 334.106 163.622C321.087 163.622 309.136 150.874 306.361 147.713C306.361 147.818 306.361 147.924 306.361 148.134C307.429 150.136 308.709 152.033 310.096 153.718C311.804 155.826 313.618 157.722 315.752 159.513C317.886 161.304 320.127 162.885 322.688 164.149C325.249 165.413 328.023 166.467 331.118 166.888C334.106 167.31 337.414 167.099 340.402 166.151C343.389 165.202 346.057 163.517 348.191 161.515C350.326 159.513 351.926 157.09 353.207 154.667C354.274 152.559 355.021 150.452 355.448 148.24C355.341 148.134 355.341 147.924 355.234 147.818C350.005 157.301 343.603 162.674 336.133 163.517Z" fill="#222221"/>
<path opacity="0.4" d="M376.789 160.145C366.865 160.988 357.688 150.452 355.448 147.608C355.448 147.713 355.448 147.713 355.448 147.818C355.554 148.134 355.661 148.345 355.661 148.661C356.301 149.926 356.942 151.19 357.688 152.349C358.862 154.035 360.143 155.615 361.743 157.09C363.237 158.565 364.945 159.935 366.972 160.988C368.893 162.042 371.134 162.885 373.588 163.306C376.042 163.622 378.71 163.412 381.058 162.463C383.405 161.62 385.433 160.04 386.927 158.354C388.527 156.669 389.594 154.772 390.448 152.876C391.088 151.19 391.622 149.504 391.835 147.818C391.729 147.713 391.729 147.502 391.622 147.397C387.567 155.404 382.552 159.619 376.789 160.145Z" fill="#222221"/>
<path opacity="0.4" d="M287.901 175.212C291.849 173.21 295.05 170.471 297.611 167.52C298.892 166.045 300.066 164.465 301.026 162.779C301.986 161.094 302.84 159.513 303.587 157.722C304.761 154.772 305.721 151.822 306.041 148.661C306.041 148.345 305.935 148.029 305.935 147.608C305.935 147.608 305.935 147.502 305.828 147.502C296.331 163.306 285.98 171.208 275.202 171.208C275.096 171.208 274.989 171.208 274.882 171.208C274.776 171.208 274.669 171.208 274.562 171.208V178.056C279.364 178.267 284.059 177.213 287.901 175.212Z" fill="#222221"/>
<path opacity="0.4" d="M187.061 192.28C185.994 193.123 185.033 193.965 184.073 194.808L182.686 196.073C182.259 196.494 181.832 196.916 181.299 197.337C179.484 199.023 177.777 200.603 176.177 202.078C174.469 203.553 172.869 204.817 171.375 205.66C169.881 206.503 168.6 206.925 167.64 206.925C167.106 206.925 166.679 206.925 166.039 206.714C165.399 206.609 164.759 206.292 164.012 205.871C162.518 205.134 160.917 203.869 159.316 202.394C156.009 199.55 152.807 195.862 148.966 192.174L148.432 192.385L147.899 192.596C147.792 195.23 148.112 197.758 148.752 200.287C148.752 200.392 148.752 200.392 148.752 200.498C149.393 203.132 150.46 205.555 151.847 208.084C153.234 210.507 155.048 212.93 157.716 214.932C158.996 215.985 160.49 216.828 162.304 217.566C164.012 218.198 166.039 218.619 168.067 218.514C170.094 218.514 172.015 217.987 173.722 217.355C175.43 216.618 176.923 215.775 178.204 214.721C180.765 212.719 182.579 210.401 183.966 207.978C185.353 205.555 186.421 203.132 187.168 200.498C187.488 199.55 187.701 198.496 187.914 197.442C187.914 197.548 187.914 197.653 187.914 197.758C187.914 197.758 187.914 197.758 187.914 197.864C188.235 199.55 188.768 201.235 189.302 202.921C190.475 206.187 191.969 209.348 193.997 212.403C196.024 215.459 198.479 218.303 201.787 220.727C203.387 221.991 205.308 223.045 207.442 223.887C209.576 224.73 211.924 225.362 214.378 225.468C216.833 225.573 219.394 225.257 221.635 224.52C223.982 223.782 226.01 222.728 227.824 221.464C231.345 218.936 233.906 215.88 235.827 212.719C237.748 209.559 239.028 206.292 239.988 202.921C240.309 201.551 240.629 200.287 240.842 198.917C240.842 199.023 240.842 199.128 240.949 199.233V199.339C241.376 201.446 241.802 203.553 242.549 205.555C243.83 209.769 245.751 213.773 248.312 217.671C250.873 221.464 254.074 225.152 258.342 228.312C260.477 229.893 262.931 231.263 265.705 232.316C268.48 233.37 271.468 234.002 274.669 234.213C274.776 234.213 274.776 234.213 274.882 234.213V223.782C257.702 223.255 244.79 200.919 241.376 194.387C241.162 194.071 241.056 193.649 240.842 193.439C240.629 193.86 240.522 194.176 240.309 194.598C232.839 210.507 224.622 218.619 215.659 218.725H215.552C202 218.725 191.222 200.182 188.235 194.387C188.021 194.071 187.914 193.755 187.808 193.439C187.701 193.755 187.488 194.071 187.381 194.282C180.765 207.135 174.042 213.457 167.213 213.141C157.182 212.614 150.353 197.758 148.646 193.649C148.432 193.123 148.219 192.701 148.219 192.596L148.646 192.49L149.072 192.385C149.179 192.596 156.329 211.877 167.32 212.403C174.042 212.719 180.872 205.976 187.594 192.385L187.914 191.753L187.488 191.332L187.061 192.28Z" fill="#222221"/>
<path opacity="0.4" d="M240.202 192.385C238.815 193.544 237.641 194.703 236.467 195.862L234.76 197.653C234.226 198.285 233.586 198.812 233.052 199.339C230.811 201.551 228.571 203.764 226.436 205.66C224.302 207.451 222.168 209.032 220.141 209.98C219.18 210.401 218.22 210.717 217.473 210.928C216.619 211.139 215.872 211.139 215.125 211.139C213.525 211.033 211.604 210.507 209.47 209.348C207.335 208.189 205.095 206.608 202.747 204.817C198.158 201.235 193.57 196.705 188.235 192.28L187.914 191.964L188.128 192.385C188.235 192.596 200.293 217.987 215.552 217.987H215.659C224.516 217.882 232.946 209.348 240.415 192.385L240.629 191.753L240.202 191.437V192.385V192.385Z" fill="#222221"/>
<path opacity="0.4" d="M273.068 212.509L272.321 212.403C271.254 212.193 270.08 211.877 268.8 211.35C266.239 210.296 263.358 208.716 260.37 206.714C257.382 204.712 254.394 202.394 251.3 199.971C248.205 197.548 245.004 194.914 241.376 192.28L241.056 192.069L241.269 192.385C241.376 192.701 255.675 222.412 274.882 223.045V212.614C274.562 212.614 274.242 212.614 273.922 212.614L273.068 212.509Z" fill="#222221"/>
<path d="M187.701 191.648L187.594 191.753L187.701 191.858L187.808 192.069L187.701 191.648Z" fill="#8BBFFA"/>
<path d="M240.735 191.648L240.629 191.858L240.735 191.964L240.949 192.069L240.735 191.648Z" fill="#8BBFFA"/>
<path d="M242.87 146.449L243.083 146.027L242.87 145.922V146.449Z" fill="#8BBFFA"/>
<path d="M193.677 146.449L193.89 146.027L193.783 145.922L193.677 146.449Z" fill="#8BBFFA"/>
<path d="M224.942 160.988C223.022 161.831 221.101 162.147 219.18 162.042C215.339 161.936 211.07 159.829 206.909 156.879C202.747 153.929 198.692 150.347 194.317 146.554C194.424 146.765 205.521 166.467 219.714 166.467H219.82C228.037 166.361 235.827 159.724 242.763 146.554C238.494 150.558 234.76 154.561 230.811 157.511C228.891 158.986 226.97 160.145 224.942 160.988Z" fill="#9C9B9B"/>
<path opacity="0.5" d="M259.943 158.459C257.275 156.879 254.608 154.983 251.94 152.981C249.272 150.979 246.498 148.766 243.617 146.554C243.723 146.765 256.955 169.944 274.776 170.47V163.622C272.535 163.622 270.294 163.201 267.84 162.358C265.172 161.41 262.611 160.04 259.943 158.459Z" fill="#222221"/>
<path d="M243.403 147.818C243.296 147.713 243.296 147.608 243.19 147.502C243.19 147.502 243.19 147.608 243.083 147.608C243.083 147.713 242.976 147.713 242.976 147.818C236.04 160.567 228.25 167.099 219.82 167.204H219.714C206.695 167.204 196.558 151.717 194.104 147.713C193.997 147.608 193.997 147.502 193.89 147.397C193.89 147.502 193.783 147.608 193.783 147.608C187.594 158.038 181.085 163.095 174.683 162.779C165.185 162.253 158.89 150.136 157.502 147.292C157.396 146.976 157.289 146.765 157.182 146.659L157.822 146.343H157.929C158.036 146.449 164.652 161.41 174.683 161.936C180.978 162.253 187.274 156.985 193.57 146.343C190.155 149.188 187.167 152.138 184.18 154.456C181.192 156.774 178.097 158.46 175.429 158.46C174.042 158.46 172.762 158.249 171.268 157.617C169.774 156.985 168.28 156.036 166.786 154.877C163.798 152.56 160.917 149.504 157.929 146.449H157.822L157.182 146.765C157.182 147.081 157.289 147.397 157.289 147.713C157.609 149.61 158.143 151.401 158.783 153.192C159.637 155.299 160.704 157.301 162.198 159.092C163.585 160.988 165.399 162.674 167.64 164.044C169.881 165.413 172.655 166.362 175.643 166.256C177.137 166.256 178.524 165.94 179.805 165.519C181.085 165.097 182.366 164.465 183.433 163.833C185.674 162.463 187.381 160.672 188.768 158.881C190.155 157.09 191.329 155.194 192.183 153.192C192.183 153.192 192.183 153.086 192.289 153.086C192.93 151.506 193.57 150.031 193.89 148.345C194.53 150.663 195.384 152.876 196.451 154.983C197.838 157.617 199.439 160.04 201.466 162.358C203.494 164.676 205.842 166.783 208.723 168.469C211.604 170.154 214.912 171.419 218.647 171.524C220.461 171.629 222.381 171.419 224.089 170.997C225.903 170.576 227.503 169.944 228.997 169.101C230.491 168.258 231.878 167.31 233.159 166.256C234.333 165.203 235.507 164.044 236.467 162.779C238.388 160.356 239.882 157.722 241.055 155.088C241.802 153.402 242.336 151.717 242.763 149.926C242.87 149.504 242.976 148.977 243.083 148.556C243.723 151.506 244.897 154.351 246.177 157.09C247.778 160.356 249.912 163.517 252.367 166.467C254.928 169.417 257.915 172.051 261.65 174.158C265.278 176.265 269.76 177.74 274.455 177.951H274.562V171.103C258.449 170.787 246.071 152.138 243.403 147.818Z" fill="#B1B1B0"/>
<path d="M243.19 145.817L243.083 146.027L243.296 146.238L243.617 146.449L243.296 146.027L243.19 145.817Z" fill="#8BBFFA"/>
<path d="M193.997 145.817L193.89 146.027L194.21 146.343L194.424 146.449L194.317 146.343L193.997 145.817Z" fill="#8BBFFA"/>
<path d="M401.332 192.807L401.119 192.701C401.012 193.017 400.799 193.333 400.692 193.649C400.692 196.073 400.585 198.601 400.372 201.025C400.479 200.708 400.585 200.498 400.585 200.182C401.332 197.758 401.546 195.335 401.332 192.807Z" fill="#8BBFFA"/>
<path d="M308.496 194.282C308.496 193.966 308.496 193.755 308.496 193.439C308.389 193.544 308.389 193.649 308.282 193.755C308.282 193.966 308.389 194.176 308.496 194.282Z" fill="#8BBFFA"/>
<path d="M308.389 191.753L308.282 192.174L308.496 191.964V191.858L308.389 191.753Z" fill="#8BBFFA"/>
<path d="M400.799 192.596L401.119 192.701L400.799 192.596Z" fill="#8BBFFA"/>
<path d="M361.423 191.648L361.316 191.964L361.53 191.858V191.753L361.423 191.648Z" fill="#8BBFFA"/>
<path d="M306.041 147.397C306.041 147.502 305.934 147.502 306.041 147.397C306.041 147.502 306.041 147.502 306.041 147.608C306.041 147.924 306.148 148.24 306.148 148.661C306.148 148.451 306.255 148.24 306.255 148.029C306.255 147.924 306.255 147.818 306.255 147.608C306.148 147.502 306.148 147.502 306.041 147.397Z" fill="#8BBFFA"/>
<path d="M391.835 147.818C391.835 147.502 391.942 147.186 391.942 146.87C391.835 147.081 391.728 147.292 391.622 147.397C391.622 147.608 391.728 147.713 391.835 147.818Z" fill="#8BBFFA"/>
<path d="M355.447 147.608C355.447 147.502 355.341 147.502 355.341 147.397C355.341 147.502 355.234 147.502 355.234 147.608C355.341 147.713 355.341 147.924 355.447 148.029C355.554 148.24 355.661 148.451 355.768 148.661C355.661 148.345 355.554 148.134 355.554 147.818C355.341 147.818 355.341 147.713 355.447 147.608Z" fill="#8BBFFA"/>
<path d="M391.195 146.554V146.449V146.554L391.622 146.765L391.195 146.554Z" fill="#8BBFFA"/>
<path d="M305.935 145.922L305.828 146.133L305.614 146.449L305.828 146.343L306.148 146.133L305.935 145.922Z" fill="#8BBFFA"/>
<path d="M355.127 145.922L354.914 146.343L354.807 146.449L354.914 146.343L355.234 146.027L355.127 145.922Z" fill="#8BBFFA"/>
<path opacity="0.3" d="M256.848 461.05C259.943 462.736 263.464 463.684 267.199 463.684H270.507L263.144 455.466L256.848 461.05Z" fill="#222221"/>
<path opacity="0.3" d="M273.068 423.648H257.382L264.318 431.339L273.068 423.648Z" fill="#222221"/>
<path opacity="0.3" d="M253.007 444.193L247.138 449.355C248.525 453.569 251.3 457.257 254.928 459.786L261.757 453.885L253.007 444.193Z" fill="#222221"/>
<path d="M284.272 434.078L275.629 424.385L274.775 425.123V442.401L284.272 434.078Z" fill="white"/>
<path opacity="0.3" d="M274.562 442.612L274.776 442.402V425.123L265.812 432.919L274.562 442.612Z" fill="#222221"/>
<path opacity="0.3" d="M245.964 436.501V442.823C245.964 444.298 246.071 445.668 246.391 447.037L251.406 442.612L245.964 436.501Z" fill="#222221"/>
<path opacity="0.3" d="M262.611 432.814L254.394 423.648H253.967L245.964 430.601V433.13L253.22 441.032L262.611 432.814Z" fill="#222221"/>
<path opacity="0.3" d="M264.134 434.421L254.64 442.747L263.285 452.358L272.78 444.032L264.134 434.421Z" fill="#222221"/>
<path opacity="0.3" d="M245.964 423.648V427.651L250.659 423.648H245.964Z" fill="#222221"/>
<path d="M282.992 455.466L274.775 446.194V462.736L282.992 455.466Z" fill="white"/>
<path opacity="0.3" d="M274.775 446.194L274.349 445.773L264.852 454.096L273.602 463.684L274.775 462.736V446.194Z" fill="#222221"/>
<path d="M299.532 423.648L298.998 424.174L305.934 431.866V423.648H299.532Z" fill="white"/>
<path d="M295.797 423.964L295.477 423.648H277.977L285.98 432.603L295.797 423.964Z" fill="white"/>
<path d="M277.016 463.684H284.806C286.62 463.684 288.327 463.473 289.928 463.052L284.593 457.046L277.016 463.684Z" fill="white"/>
<path opacity="0.3" d="M285.766 435.747L276.033 444.283L284.75 453.971L294.482 445.435L285.766 435.747Z" fill="white"/>
<path d="M287.474 434.183L296.224 443.876L305.934 435.342V435.237L297.291 425.649L287.474 434.183Z" fill="white"/>
<path d="M303.694 452.2C305.188 449.355 305.935 446.194 305.935 442.823V438.292L297.718 445.562L303.694 452.2Z" fill="white"/>
<path d="M286.193 455.571L292.276 462.314C296.437 460.734 300.065 457.889 302.52 454.202L296.01 447.037L286.193 455.571Z" fill="white"/>
<path d="M252.367 423.648H250.659L245.964 427.651V429.126V430.601L253.967 423.648H252.367Z" fill="white"/>
<path opacity="0.2" d="M299.532 423.648H298.465H297.825H296.971H296.117H295.37L295.691 423.964L285.873 432.603L277.87 423.648H276.483H276.376H274.882H274.776H274.669V425.228L275.523 424.49L284.166 434.183L274.562 442.612V446.405L282.885 455.677L274.562 462.946V464H275.096H276.803L284.379 457.362L289.715 463.368C290.142 463.262 290.568 463.157 290.889 463.052C291.315 462.946 291.636 462.736 292.062 462.63L285.98 455.887L295.797 447.353L302.306 454.518C302.52 454.202 302.733 453.886 302.947 453.569C303.16 453.253 303.374 452.832 303.48 452.516L297.505 445.878L305.721 438.609V437.133V435.658L296.011 444.193L287.261 434.5L297.078 425.86L305.721 435.448V433.762V432.076L298.785 424.385L299.532 423.648ZM294.517 445.351L284.699 453.886L275.949 444.193L285.767 435.658L294.517 445.351Z" fill="#222221"/>
<path d="M274.349 445.773L274.775 446.194V442.401L274.562 442.612L265.919 432.919L274.775 425.123V423.542H273.175L264.425 431.233L257.489 423.542H255.995H254.501L262.717 432.708L253.22 441.032L246.071 433.025V434.71V436.396L251.513 442.507L246.498 446.932C246.604 447.353 246.711 447.775 246.818 448.196C246.924 448.618 247.031 449.039 247.138 449.355L253.007 444.193L261.65 453.886L254.821 459.786C255.141 459.996 255.461 460.207 255.781 460.418C256.101 460.629 256.421 460.839 256.742 461.05L263.037 455.571L270.4 463.789H271.894H273.388L264.638 454.096L274.349 445.773ZM254.714 442.718L264.211 434.394L272.855 444.087L263.358 452.411L254.714 442.718Z" fill="white"/>
<path d="M273.602 463.684H274.776V462.736L273.602 463.684Z" fill="#CFC195"/>
<path opacity="0.4" d="M242.443 358.114C242.443 359.379 256.955 360.432 274.775 360.432V355.797C256.848 355.797 242.443 356.85 242.443 358.114Z" fill="#222221"/>
<path opacity="0.4" d="M307.002 358.114C307.002 356.85 292.489 355.797 274.669 355.797V360.432C292.596 360.432 307.002 359.379 307.002 358.114Z" fill="#222221"/>
<path d="M241.482 421.119C241.376 420.698 241.269 420.487 241.269 420.487L243.617 419.644C243.617 419.644 243.723 419.855 243.83 420.171L241.482 421.119Z" fill="#FFFF9C"/>
<path d="M255.034 435.869C254.714 435.869 254.394 435.869 254.074 435.764L254.394 433.341C254.714 433.341 255.034 433.446 255.354 433.341L255.568 435.764C255.354 435.869 255.248 435.869 255.034 435.869ZM257.062 435.553L256.315 433.235C256.635 433.13 256.955 433.025 257.275 432.814L258.449 435.026C258.022 435.237 257.595 435.448 257.062 435.553ZM252.58 435.448C252.153 435.237 251.726 435.026 251.3 434.816L252.58 432.708C252.9 432.919 253.22 433.025 253.54 433.13L252.58 435.448ZM259.73 434.183L258.236 432.182C258.556 431.971 258.769 431.76 259.089 431.444L260.797 433.235C260.37 433.657 260.05 433.973 259.73 434.183ZM250.019 434.078C249.699 433.762 249.272 433.551 248.952 433.235L250.659 431.444C250.979 431.655 251.193 431.971 251.513 432.182L250.019 434.078ZM261.65 432.392L259.73 430.707C259.943 430.391 260.263 430.18 260.477 429.758L262.504 431.233C262.291 431.655 261.97 432.076 261.65 432.392ZM247.992 432.182C247.671 431.866 247.351 431.55 247.138 431.128L249.059 429.548C249.272 429.864 249.592 430.18 249.806 430.391L247.992 432.182ZM263.358 430.285L261.33 428.916C261.544 428.599 261.757 428.283 261.97 427.967L264.105 429.232C263.784 429.548 263.571 429.864 263.358 430.285ZM246.391 430.18C246.178 429.864 245.857 429.442 245.644 429.126L247.778 427.757C247.992 428.073 248.205 428.389 248.418 428.705L246.391 430.18ZM264.745 428.073L262.611 426.808C262.824 426.492 263.038 426.071 263.144 425.755L265.385 426.914C265.172 427.335 264.958 427.651 264.745 428.073ZM244.897 427.967C244.684 427.546 244.47 427.23 244.257 426.808L246.498 425.649C246.711 425.966 246.924 426.387 247.138 426.703L244.897 427.967ZM265.919 425.755L263.678 424.701C263.891 424.385 263.998 423.964 264.211 423.648L266.452 424.701C266.239 425.017 266.132 425.439 265.919 425.755ZM243.617 425.755C243.403 425.333 243.19 425.017 243.083 424.596L245.324 423.542C245.537 423.858 245.644 424.28 245.857 424.596L243.617 425.755ZM266.986 423.437L264.638 422.489C264.745 422.173 264.958 421.751 265.172 421.33L267.519 422.278C267.306 422.699 267.199 423.121 266.986 423.437ZM242.549 423.437C242.336 423.015 242.229 422.594 242.016 422.278L244.363 421.33C244.47 421.646 244.684 422.067 244.897 422.489L242.549 423.437Z" fill="#FFFF9C"/>
<path d="M267.946 421.119L266.879 420.698H265.705C265.705 420.487 265.705 420.381 265.705 420.276L265.598 420.171L268.373 413.006L268.266 420.065C268.266 420.065 268.266 420.276 268.266 420.698H268.159L267.946 421.119Z" fill="#FFFF9C"/>
<path d="M274.562 437.766L274.349 440.189C274.455 440.189 274.562 440.189 274.669 440.189C274.775 440.189 274.775 440.189 274.882 440.189C274.882 439.346 274.882 438.609 274.882 437.66L274.562 437.766Z" fill="#FFFF9C"/>
<path d="M275.842 440.189L275.522 437.766C275.309 437.766 275.202 437.766 274.989 437.766H274.775C274.775 438.714 274.775 439.451 274.775 440.294C274.882 440.294 274.882 440.294 274.989 440.294C275.309 440.294 275.522 440.294 275.842 440.189Z" fill="#DBD49A"/>
<path d="M272.535 439.873C272.108 439.662 271.574 439.451 271.147 439.135L272.641 437.134C272.855 437.344 273.175 437.45 273.388 437.555L272.535 439.873Z" fill="#FFFF9C"/>
<path d="M277.123 439.873L276.269 437.555C276.59 437.45 276.803 437.344 277.123 437.134L278.51 439.135C278.083 439.451 277.55 439.662 277.123 439.873Z" fill="#DBD49A"/>
<path d="M279.577 438.187L277.763 436.501C277.977 436.291 278.19 435.975 278.404 435.658L280.538 437.028C280.218 437.45 279.897 437.871 279.577 438.187Z" fill="#DBD49A"/>
<path d="M270.08 438.082C269.76 437.766 269.44 437.344 269.226 436.923L271.361 435.553C271.574 435.869 271.787 436.185 272.001 436.396L270.08 438.082Z" fill="#FFFF9C"/>
<path d="M281.178 435.869L278.937 434.71C279.15 434.394 279.257 434.078 279.364 433.657L281.711 434.605C281.605 435.026 281.391 435.448 281.178 435.869Z" fill="#DBD49A"/>
<path d="M268.48 435.764C268.266 435.342 268.053 434.921 267.946 434.499L270.294 433.551C270.4 433.867 270.614 434.289 270.72 434.605L268.48 435.764Z" fill="#FFFF9C"/>
<path d="M282.245 433.341L279.897 432.603C280.004 432.182 280.111 431.866 280.217 431.444L282.672 432.076C282.458 432.498 282.352 432.919 282.245 433.341Z" fill="#DBD49A"/>
<path d="M267.519 433.341C267.412 432.919 267.306 432.498 267.199 432.076L269.653 431.444C269.76 431.866 269.867 432.182 269.973 432.603L267.519 433.341Z" fill="#FFFF9C"/>
<path d="M282.885 430.812L280.431 430.285C280.538 429.864 280.538 429.548 280.644 429.126L283.099 429.548C282.992 429.969 282.992 430.391 282.885 430.812Z" fill="#DBD49A"/>
<path d="M266.772 430.812C266.665 430.391 266.559 429.969 266.559 429.548L269.013 429.126C269.12 429.548 269.12 429.864 269.226 430.285L266.772 430.812Z" fill="#FFFF9C"/>
<path d="M283.312 428.283L280.858 427.967C280.858 427.546 280.964 427.124 280.964 426.808L283.419 427.019C283.312 427.44 283.312 427.862 283.312 428.283Z" fill="#DBD49A"/>
<path d="M266.345 428.283C266.239 427.862 266.239 427.441 266.132 427.019L268.586 426.703C268.586 427.124 268.693 427.546 268.8 427.862L266.345 428.283Z" fill="#FFFF9C"/>
<path d="M266.025 425.755C266.025 425.333 265.919 424.912 265.919 424.49L268.373 424.28C268.373 424.701 268.48 425.123 268.48 425.439L266.025 425.755Z" fill="#FFFF9C"/>
<path d="M283.526 425.755L281.071 425.649C281.071 425.228 281.071 424.807 281.178 424.49L283.632 424.596C283.526 424.912 283.526 425.333 283.526 425.755Z" fill="#DBD49A"/>
<path d="M265.812 423.226C265.812 422.805 265.812 422.383 265.812 421.962L268.266 421.857C268.266 422.173 268.266 422.594 268.266 423.121L265.812 423.226Z" fill="#FFFF9C"/>
<path d="M283.632 423.226L281.071 423.121V422.699V421.962H283.526L283.632 422.699V423.226Z" fill="#DBD49A"/>
<path d="M281.498 421.224C281.391 421.014 281.285 420.803 281.285 420.698H281.178C281.178 420.381 281.178 420.171 281.178 420.171L280.751 414.165L283.526 419.539C283.526 419.539 283.632 419.749 283.846 420.065L283.739 420.171C283.739 420.276 283.739 420.487 283.739 420.698H282.672L281.498 421.224Z" fill="#DBD49A"/>
<path d="M296.224 434.499C295.797 434.499 295.264 434.394 294.837 434.289L295.477 431.865C295.797 431.971 296.117 431.971 296.437 431.971L296.224 434.499ZM297.718 434.499L297.398 432.076C297.718 432.076 298.038 431.971 298.358 431.865L299.105 434.183C298.572 434.289 298.145 434.394 297.718 434.499ZM293.45 433.867C293.023 433.657 292.596 433.551 292.169 433.341L293.343 431.128C293.663 431.339 293.983 431.444 294.303 431.549L293.45 433.867ZM300.386 433.551L299.212 431.339C299.532 431.233 299.745 431.023 300.066 430.812L301.559 432.814C301.239 433.13 300.813 433.341 300.386 433.551ZM291.102 432.603C290.782 432.392 290.355 432.076 290.035 431.865L291.636 429.969C291.956 430.18 292.276 430.39 292.489 430.601L291.102 432.603ZM302.627 431.971L300.919 430.18C301.133 429.969 301.453 429.653 301.666 429.442L303.587 431.023C303.267 431.339 302.947 431.655 302.627 431.971ZM289.075 431.023C288.754 430.707 288.434 430.496 288.114 430.18L289.928 428.389C290.248 428.705 290.462 428.915 290.782 429.126L289.075 431.023ZM304.334 429.969L302.306 428.494C302.52 428.178 302.733 427.862 302.947 427.546L305.081 428.915C304.867 429.337 304.654 429.653 304.334 429.969ZM287.261 429.232C286.94 428.915 286.727 428.599 286.407 428.283L288.328 426.703C288.541 427.019 288.861 427.335 289.075 427.546L287.261 429.232ZM305.721 427.862L303.587 426.598C303.8 426.281 303.907 425.965 304.121 425.544L306.361 426.703C306.148 427.124 305.935 427.546 305.721 427.862ZM285.553 427.335C285.34 427.019 285.02 426.703 284.806 426.387L286.834 424.912C287.047 425.228 287.26 425.544 287.581 425.86L285.553 427.335ZM306.895 425.649L304.654 424.596C304.867 424.28 304.974 423.858 305.188 423.542L307.535 424.49C307.215 424.912 307.108 425.333 306.895 425.649ZM284.059 425.333C283.846 425.017 283.526 424.596 283.312 424.28L285.446 422.91C285.66 423.226 285.873 423.542 286.087 423.858L284.059 425.333ZM307.962 423.331L305.614 422.383C305.721 422.067 305.935 421.646 306.041 421.33L308.389 422.173C308.175 422.594 308.069 423.015 307.962 423.331ZM282.672 423.331C282.459 422.91 282.245 422.594 282.032 422.278L284.166 421.014C284.379 421.33 284.593 421.646 284.806 421.962L282.672 423.331Z" fill="#DBD49A"/>
<path d="M308.816 421.014L306.468 420.276L306.575 419.644L309.029 420.487L308.816 421.014Z" fill="#DBD49A"/>
<path opacity="0.4" d="M241.162 405.104V422.067C241.162 422.91 241.909 423.648 242.763 423.648H246.071H250.659H252.367H254.074H254.501H255.995H257.489H273.175H274.775V423.437V422.173V421.751V420.065V411.321V403.524H242.763C241.909 403.524 241.162 404.262 241.162 405.104Z" fill="#222221"/>
<path d="M274.882 423.542L274.775 423.648H274.882V423.542Z" fill="#D1BEA0"/>
<path d="M309.242 403.524H274.775V411.321V420.065V421.751V422.173V423.437V423.648H274.882L274.989 423.542V423.648H276.483H276.589H277.977H295.477H296.224H297.078H297.931H298.571H299.639H306.041H309.349C310.203 423.648 310.95 422.91 310.95 422.067V405.104C310.736 404.262 310.096 403.524 309.242 403.524Z" fill="#222221"/>
</g>
<path opacity="0.2" d="M232.092 158.776C234.439 157.933 236.574 156.036 238.388 154.561C240.522 152.559 242.336 149.188 245.644 150.242C249.059 151.295 251.833 155.615 255.354 157.09C263.358 160.461 264.531 139.811 257.702 139.811C252.26 139.706 249.592 146.132 245.004 147.186C241.055 148.029 237.214 143.077 233.799 141.918C226.756 139.495 225.049 143.499 225.369 149.609C225.583 153.508 225.049 159.618 230.278 159.197C230.705 159.092 231.452 158.986 232.092 158.776Z" fill="#222221"/>
<path opacity="0.2" d="M245.11 149.083C242.123 151.506 240.949 156.142 239.988 159.829C238.494 165.624 236.147 168.89 233.052 173.842C235.507 173.104 236.147 171.524 236.68 174.579C237 177.108 236.36 180.163 237.107 182.376C240.415 176.581 242.123 170.892 242.869 164.465C243.296 160.461 243.19 150.452 247.245 148.24" fill="#222221"/>
<path opacity="0.2" d="M242.443 150.768C244.897 152.349 246.071 155.72 247.138 158.46C248.739 162.674 250.659 164.992 253.327 168.363C251.406 167.942 250.766 166.888 250.659 169.206C250.553 171.103 251.3 173.315 250.873 175.106C247.992 170.997 246.284 166.994 245.217 162.147C244.577 159.197 243.937 151.822 240.735 150.347L242.443 150.768Z" fill="#222221"/>
<path d="M247.885 149.293C247.885 151.611 245.964 153.508 243.617 153.508C241.269 153.508 239.348 151.611 239.348 149.293C239.348 146.975 241.269 145.079 243.617 145.079C245.964 145.079 247.885 146.975 247.885 149.293Z" fill="white"/>
<path opacity="0.2" d="M188.341 150.768C189.622 150.347 190.689 149.399 191.649 148.556C192.823 147.502 193.677 145.711 195.491 146.343C197.305 146.87 198.692 149.188 200.613 149.925C204.774 151.717 205.415 140.865 201.787 140.759C198.905 140.759 197.518 144.131 195.064 144.658C193.036 145.079 191.009 142.445 189.195 141.918C185.46 140.654 184.606 142.761 184.713 145.922C184.82 148.029 184.606 151.19 187.274 150.979C187.594 150.979 188.021 150.874 188.341 150.768Z" fill="#222221"/>
<path opacity="0.2" d="M195.17 145.711C193.57 146.975 192.93 149.399 192.396 151.4C191.542 154.456 190.369 156.142 188.768 158.776C190.048 158.354 190.475 157.511 190.689 159.197C190.902 160.461 190.475 162.147 190.902 163.306C192.609 160.251 193.57 157.301 193.997 153.824C194.21 151.717 194.21 146.449 196.344 145.29" fill="#222221"/>
<path opacity="0.2" d="M193.783 146.554C195.064 147.397 195.704 149.188 196.238 150.558C197.091 152.77 198.052 153.929 199.546 155.826C198.585 155.615 198.265 154.983 198.158 156.247C198.158 157.195 198.478 158.46 198.265 159.302C196.771 157.09 195.811 154.983 195.277 152.454C194.957 150.874 194.637 146.975 192.93 146.238L193.783 146.554Z" fill="#222221"/>
<path d="M196.665 145.816C196.665 147.081 195.597 148.029 194.424 148.029C193.143 148.029 192.183 146.975 192.183 145.816C192.183 144.552 193.25 143.604 194.424 143.604C195.597 143.604 196.665 144.552 196.665 145.816Z" fill="white"/>
<path opacity="0.2" d="M152.274 151.611C153.554 151.19 154.621 150.242 155.582 149.399C156.755 148.345 157.609 146.554 159.423 147.186C161.237 147.713 162.624 150.031 164.545 150.768C168.707 152.559 169.347 141.708 165.719 141.602C162.838 141.602 161.451 144.974 158.996 145.5C156.969 145.922 154.941 143.288 153.127 142.656C149.393 141.391 148.539 143.499 148.646 146.659C148.752 148.767 148.539 151.927 151.207 151.717C151.527 151.822 151.847 151.717 152.274 151.611Z" fill="#222221"/>
<path opacity="0.2" d="M159.103 146.554C157.503 147.818 156.862 150.242 156.329 152.244C155.475 155.299 154.301 156.985 152.701 159.619C153.981 159.197 154.408 158.354 154.621 160.04C154.835 161.304 154.408 162.99 154.835 164.149C156.542 161.094 157.503 158.144 157.823 154.667C158.036 152.56 158.036 147.292 160.17 146.133" fill="#222221"/>
<path opacity="0.2" d="M157.716 147.397C158.996 148.24 159.636 150.031 160.17 151.401C161.024 153.613 161.984 154.772 163.478 156.669C162.518 156.458 162.198 155.826 162.091 157.09C162.091 158.038 162.411 159.197 162.198 160.145C160.704 157.933 159.743 155.826 159.21 153.297C158.89 151.717 158.569 147.818 156.862 147.081L157.716 147.397Z" fill="#222221"/>
<path d="M160.597 146.66C160.597 147.924 159.53 148.872 158.356 148.872C157.076 148.872 156.115 147.818 156.115 146.66C156.115 145.395 157.182 144.447 158.356 144.447C159.53 144.447 160.597 145.395 160.597 146.66Z" fill="white"/>
<path d="M151.954 193.755C151.954 195.651 150.353 197.232 148.432 197.232C146.511 197.232 144.911 195.651 144.911 193.755C144.911 191.858 146.511 190.278 148.432 190.278C150.353 190.278 151.954 191.858 151.954 193.755Z" fill="white"/>
<path d="M244.577 192.596C244.577 194.492 242.976 196.073 241.055 196.073C239.135 196.073 237.534 194.492 237.534 192.596C237.534 190.699 239.135 189.119 241.055 189.119C243.083 189.224 244.577 190.699 244.577 192.596Z" fill="white"/>
<path d="M366.118 191.648C366.118 193.544 364.518 195.124 362.597 195.124C360.676 195.124 359.076 193.544 359.076 191.648C359.076 189.751 360.676 188.171 362.597 188.171C364.518 188.276 366.118 189.751 366.118 191.648Z" fill="white"/>
<path d="M187.701 196.073C189.646 196.073 191.222 194.516 191.222 192.596C191.222 190.676 189.646 189.119 187.701 189.119C185.756 189.119 184.179 190.676 184.179 192.596C184.179 194.516 185.756 196.073 187.701 196.073Z" fill="white"/>
<path d="M312.23 193.333C312.23 195.23 310.63 196.81 308.709 196.81C306.788 196.81 305.188 195.23 305.188 193.333C305.188 191.437 306.788 189.856 308.709 189.856C310.736 189.856 312.23 191.437 312.23 193.333Z" fill="white"/>
<path d="M404 193.123C404 195.019 402.399 196.599 400.479 196.599C398.558 196.599 396.957 195.019 396.957 193.123C396.957 191.226 398.558 189.646 400.479 189.646C402.506 189.646 404 191.226 404 193.123Z" fill="white"/>
<path opacity="0.2" d="M316.925 157.722C314.578 156.879 312.444 154.983 310.629 153.508C308.495 151.506 306.681 148.134 303.373 149.188C299.959 150.241 297.184 154.561 293.663 156.036C285.66 159.408 284.486 138.757 291.315 138.757C296.757 138.652 299.425 145.079 304.014 146.132C307.962 146.975 311.803 142.024 315.218 140.865C322.261 138.441 323.968 142.445 323.648 148.556C323.435 152.454 323.968 158.565 318.739 158.143C318.206 158.143 317.566 158.038 316.925 157.722Z" fill="#222221"/>
<path opacity="0.2" d="M303.907 148.029C306.895 150.452 308.069 155.088 309.029 158.776C310.523 164.57 312.87 167.836 315.965 172.788C313.511 172.051 312.87 170.47 312.337 173.526C312.017 176.054 312.657 179.11 311.91 181.322C308.602 175.528 306.895 169.838 306.148 163.411C305.721 159.408 305.828 149.399 301.773 147.186" fill="#222221"/>
<path opacity="0.2" d="M306.575 149.82C304.12 151.4 302.947 154.772 301.879 157.511C300.279 161.726 298.358 164.044 295.69 167.415C297.611 166.994 298.251 165.94 298.358 168.258C298.465 170.154 297.718 172.367 298.145 174.158C301.026 170.049 302.733 166.045 303.8 161.199C304.441 158.249 305.081 150.874 308.282 149.399L306.575 149.82Z" fill="#222221"/>
<path d="M301.133 148.345C301.133 150.663 303.053 152.559 305.401 152.559C307.749 152.559 309.669 150.663 309.669 148.345C309.669 146.027 307.749 144.131 305.401 144.131C303.053 144.025 301.133 146.027 301.133 148.345Z" fill="white"/>
<path opacity="0.2" d="M360.676 149.82C359.396 149.399 358.329 148.45 357.368 147.608C356.194 146.554 355.341 144.763 353.527 145.395C351.713 145.922 350.325 148.24 348.405 148.977C344.243 150.768 343.603 139.916 347.231 139.811C350.112 139.811 351.499 143.183 353.954 143.709C355.981 144.131 358.009 141.497 359.823 140.865C363.557 139.6 364.411 141.707 364.304 144.868C364.198 146.975 364.411 150.136 361.743 149.925C361.316 149.925 360.996 149.925 360.676 149.82Z" fill="#222221"/>
<path opacity="0.2" d="M353.847 144.658C355.448 145.922 356.088 148.345 356.621 150.347C357.475 153.402 358.649 155.088 360.249 157.722C358.969 157.301 358.542 156.458 358.329 158.143C358.115 159.408 358.542 161.093 358.115 162.252C356.408 159.197 355.447 156.247 355.127 152.77C354.914 150.663 354.914 145.395 352.78 144.236" fill="#222221"/>
<path opacity="0.2" d="M355.234 145.606C353.954 146.449 353.313 148.24 352.78 149.609C351.926 151.822 350.966 152.981 349.472 154.877C350.432 154.667 350.752 154.034 350.859 155.299C350.859 156.247 350.539 157.511 350.752 158.354C352.246 156.142 353.207 154.034 353.74 151.506C354.06 149.925 354.38 146.027 356.088 145.29L355.234 145.606Z" fill="#222221"/>
<path d="M352.353 144.763C352.353 146.027 353.42 146.975 354.594 146.975C355.874 146.975 356.835 145.922 356.835 144.763C356.835 143.499 355.768 142.55 354.594 142.55C353.313 142.55 352.353 143.604 352.353 144.763Z" fill="white"/>
<path opacity="0.2" d="M396.744 150.663C395.463 150.242 394.396 149.293 393.436 148.45C392.262 147.397 391.408 145.606 389.594 146.238C387.78 146.765 386.393 149.083 384.472 149.82C380.311 151.611 379.67 140.759 383.299 140.654C386.18 140.654 387.567 144.025 390.021 144.552C392.049 144.974 394.076 142.34 395.89 141.813C399.625 140.549 400.479 142.656 400.372 145.817C400.265 147.924 400.479 151.084 397.811 150.874C397.491 150.874 397.064 150.768 396.744 150.663Z" fill="#222221"/>
<path opacity="0.2" d="M389.914 145.5C391.515 146.765 392.155 149.188 392.689 151.19C393.543 154.245 394.716 155.931 396.317 158.565C395.036 158.143 394.61 157.301 394.396 158.986C394.183 160.251 394.61 161.936 394.183 163.095C392.475 160.04 391.515 157.09 391.195 153.613C390.982 151.506 390.982 146.238 388.847 145.079" fill="#222221"/>
<path opacity="0.2" d="M391.302 146.449C390.021 147.292 389.381 149.083 388.847 150.452C387.994 152.665 387.033 153.824 385.539 155.72C386.5 155.51 386.82 154.877 386.927 156.142C386.927 157.09 386.606 158.249 386.82 159.197C388.314 156.985 389.274 154.877 389.808 152.349C390.128 150.768 390.448 146.87 392.155 146.133L391.302 146.449Z" fill="#222221"/>
<path d="M390.661 147.924C391.899 147.924 392.902 146.933 392.902 145.711C392.902 144.489 391.899 143.499 390.661 143.499C389.424 143.499 388.42 144.489 388.42 145.711C388.42 146.933 389.424 147.924 390.661 147.924Z" fill="white"/>
<path d="M247.992 358.009V403.524" stroke="#808080" stroke-miterlimit="10"/>
<path d="M257.809 358.009V403.524" stroke="#808080" stroke-miterlimit="10"/>
<path d="M267.839 358.009V403.524" stroke="#808080" stroke-miterlimit="10"/>
<path d="M283.419 358.009V403.524" stroke="#808080" stroke-miterlimit="10"/>
<path d="M293.556 358.009V403.524" stroke="#808080" stroke-miterlimit="10"/>
</svg>
