<svg width="262" height="374" viewBox="0 0 262 374" fill="none" xmlns="http://www.w3.org/2000/svg">
<path d="M138.431 281.676C137.577 283.478 135.763 284.48 133.949 284.68V285.982H136.617C139.071 285.982 140.992 284.179 140.992 281.876V280.975C140.992 280.074 140.672 279.272 140.245 278.672H138.965C139.071 279.873 138.858 280.875 138.431 281.676Z" fill="#727272"/>
<path d="M127.653 280.074C127.653 279.573 127.653 279.172 127.653 278.672H126.586C126.053 279.373 125.839 280.174 125.839 280.975V281.876C125.839 284.179 127.76 285.982 130.214 285.982H134.056V284.68C131.068 284.88 127.974 283.278 127.653 280.074Z" fill="#979797"/>
<path d="M127.76 277.57C127.867 276.769 128.187 275.968 128.4 275.167H125.306L116.556 264.753C114.742 264.653 113.034 264.553 111.54 264.452L123.492 278.672H126.586C126.906 278.171 127.333 277.871 127.76 277.57Z" fill="#979797"/>
<path d="M139.498 275.067H138.324C138.644 275.968 138.858 276.669 138.964 277.47C139.498 277.77 139.925 278.171 140.352 278.672H141.312L154.117 264.653C152.516 264.753 150.809 264.853 148.995 264.853L139.498 275.067Z" fill="#727272"/>
<path d="M127.76 277.57C127.333 277.87 126.906 278.271 126.586 278.672H127.653C127.653 278.271 127.76 277.87 127.76 277.57Z" fill="#979797"/>
<path d="M138.965 277.47C139.071 277.871 139.071 278.271 139.071 278.672H140.352C139.925 278.171 139.498 277.771 138.965 277.47Z" fill="#979797"/>
<path opacity="0.4" d="M133.949 274.366C134.163 274.666 134.376 274.867 134.483 275.167H138.324C137.577 273.064 136.19 270.461 133.949 267.457V274.366Z" fill="#222221"/>
<path opacity="0.4" d="M133.523 273.665C133.736 273.865 133.843 274.065 133.949 274.366V267.356C133.736 267.156 133.629 266.956 133.416 266.655C133.416 266.655 130.001 270.661 128.401 275.067H132.349C132.989 274.266 133.523 273.665 133.523 273.665Z" fill="#222221"/>
<path opacity="0.4" d="M136.19 281.976C135.763 282.978 134.91 283.478 133.949 283.578V284.68C135.763 284.48 137.471 283.578 138.431 281.676C138.858 280.875 139.071 279.873 139.071 278.572H136.297C136.724 280.074 136.617 281.175 136.19 281.976Z" fill="#222221"/>
<path opacity="0.4" d="M130.321 281.075C130.215 280.274 130.428 279.473 130.641 278.672H127.654C127.654 279.172 127.654 279.673 127.654 280.074C127.974 283.278 131.068 284.88 133.949 284.68V283.578C132.349 283.779 130.535 282.877 130.321 281.075Z" fill="#222221"/>
<path opacity="0.4" d="M135.55 276.869H136.724C137.577 276.869 138.324 277.069 138.965 277.47C138.858 276.769 138.645 275.968 138.324 275.067H134.483C134.91 275.768 135.23 276.268 135.55 276.869Z" fill="#222221"/>
<path opacity="0.4" d="M131.388 276.869C131.708 276.168 132.135 275.567 132.455 275.067H128.507C128.187 275.868 127.974 276.669 127.867 277.47C128.507 277.069 129.361 276.769 130.215 276.769H131.388V276.869Z" fill="#222221"/>
<path opacity="0.4" d="M135.55 276.869C135.87 277.47 136.083 278.071 136.297 278.672H139.071C139.071 278.271 139.071 277.871 138.965 277.47C138.324 277.07 137.577 276.869 136.724 276.869H135.55Z" fill="#222221"/>
<path opacity="0.4" d="M131.388 276.869H130.215C129.361 276.869 128.507 277.17 127.867 277.57C127.76 277.971 127.76 278.271 127.76 278.672H130.748C130.855 277.971 131.068 277.37 131.388 276.869Z" fill="#222221"/>
<path d="M132.455 275.067H133.949V274.266C133.843 274.065 133.629 273.865 133.522 273.565C133.522 273.665 132.989 274.266 132.455 275.067Z" fill="white"/>
<path d="M134.483 275.067C134.269 274.766 134.163 274.566 133.949 274.266V275.067H134.483Z" fill="white"/>
<path d="M133.949 283.578C134.91 283.478 135.763 282.877 136.19 281.976C136.617 281.175 136.617 280.074 136.19 278.672H133.843V283.578H133.949Z" fill="white"/>
<path d="M130.641 278.672C130.321 279.473 130.214 280.374 130.321 281.075C130.535 282.877 132.349 283.879 134.056 283.578V278.672H130.641Z" fill="white"/>
<path d="M133.949 275.067H132.455C132.135 275.567 131.708 276.168 131.388 276.869H133.949V275.067Z" fill="white"/>
<path d="M133.949 276.869H135.55C135.23 276.369 134.91 275.768 134.483 275.067H133.949V276.869Z" fill="white"/>
<path d="M133.949 276.869H131.388C131.068 277.47 130.855 278.071 130.641 278.672H133.949V276.869V276.869Z" fill="white"/>
<path d="M133.949 278.672H136.297C136.083 278.171 135.87 277.57 135.55 276.869H133.949V278.672Z" fill="white"/>
<path d="M160.947 272.263V315.522" stroke="#808080" stroke-miterlimit="10"/>
<g opacity="0.4">
<path d="M125.961 0.891043C125.855 0.891043 125.748 0.891043 125.748 0.891043C125.748 0.793972 125.855 0.891043 125.961 0.891043C125.961 0.891043 125.855 0.891043 125.961 0.891043Z" fill="#CB272A"/>
<path d="M12.3164 125.562C13.9171 126.964 15.6244 128.065 17.0116 128.866C17.7586 129.267 18.3988 129.467 19.0391 129.668C19.6794 129.768 20.1062 129.868 20.6397 129.868C21.6001 129.768 22.7739 129.467 24.3745 128.666C25.8685 127.865 27.4691 126.663 29.1765 125.262C30.8838 123.86 32.5911 122.358 34.2985 120.755C34.7253 120.355 35.2589 119.954 35.6857 119.554L37.0729 118.352C38.0333 117.551 38.9937 116.75 40.0608 115.949V115.148L40.4876 115.548L40.5943 115.348C40.701 102.631 42.3016 90.4141 45.2895 78.9986C44.4358 80.9012 43.262 82.7036 41.8748 84.4059C40.4876 86.1083 38.6735 87.8106 36.5394 89.1123C35.4723 89.7132 34.1918 90.314 32.9113 90.7145C31.6308 91.1151 30.1368 91.4155 28.7496 91.4155C25.8685 91.5156 22.9873 90.6144 20.7464 89.3126C18.5055 88.0109 16.6915 86.3085 15.3043 84.6062C13.9171 82.8038 12.7433 80.9012 11.8896 78.9986C11.1426 77.2963 10.6091 75.594 10.3957 73.7915C4.63339 87.0095 1.43213 101.329 1.43213 116.349L1.96567 116.149C5.8072 119.353 9.00846 122.758 12.3164 125.562Z" fill="#222221"/>
<path d="M19.8927 80.3005C21.3867 81.402 22.8806 82.3032 24.3745 82.904C25.8685 83.5048 27.2557 83.8052 28.5362 83.7051C31.2039 83.7051 34.1917 82.1029 37.2863 79.8999C40.2741 77.6969 43.262 74.8931 46.6767 72.1894L46.7834 71.6887L46.8901 71.7889L46.9968 71.5886L47.2102 71.9891C59.6952 32.3352 88.5066 3.79636 122.653 1.29295C123.4 1.09268 124.254 0.992546 125.001 0.792273C124.788 0.692137 124.574 0.692139 124.361 0.692139C123.08 0.892411 121.8 1.09268 120.519 1.29295C70.8996 3.79636 28.963 32.3352 10.9292 72.1894H11.0359C14.1305 75.1935 16.9049 78.0975 19.8927 80.3005Z" fill="#222221"/>
<path d="M68.4453 200.164C68.2319 199.863 67.9118 199.563 67.6984 199.262C64.6038 195.357 61.7227 191.151 59.0549 186.745C57.3476 184.242 56.8141 182.84 56.8141 182.84C47.317 165.316 41.448 144.087 40.701 121.156C40.701 121.056 40.701 120.956 40.5943 120.856C40.3809 121.857 40.1675 122.758 39.8473 123.76C39.1004 126.163 38.0333 128.566 36.6461 130.869C35.2589 133.172 33.4448 135.375 30.8838 137.278C29.6033 138.279 28.1094 139.081 26.402 139.781C24.6947 140.482 22.7739 140.883 20.7464 140.883C18.719 140.883 16.7982 140.583 14.9842 139.982C13.1701 139.381 11.6762 138.48 10.3957 137.478C7.83466 135.576 6.02061 133.273 4.52668 130.969C3.13947 128.666 2.17909 126.263 1.43213 123.76C1.43213 123.66 1.43213 123.66 1.43213 123.559C3.03276 145.589 11.356 165.917 24.6947 182.84C24.6947 182.84 25.3349 184.242 27.8959 186.745C31.7374 191.151 35.8991 195.357 40.3809 199.262C40.701 199.563 41.1278 199.863 41.448 200.164C59.9086 218.689 87.4395 247.428 96.8299 263.049H106.327C100.138 247.428 81.1437 218.689 68.4453 200.164Z" fill="#222221"/>
<path d="M40.701 116.95C40.701 116.65 40.701 116.349 40.701 116.049C40.701 115.849 40.701 115.548 40.701 115.348L40.5943 115.248L40.2742 115.849C33.5515 128.766 26.7222 135.175 19.9995 134.875C9.11519 134.374 1.85898 116.049 1.75227 115.849L1.32544 115.949C1.32544 116.349 1.32544 116.65 1.32544 117.05C3.03278 120.956 9.75544 135.075 19.8928 135.576C26.7222 135.876 33.4448 129.868 40.0608 117.651C40.3809 117.451 40.4876 117.251 40.701 116.95Z" fill="#CB272A"/>
<path d="M46.8902 71.7888L46.6767 72.1894C40.4876 82.4033 34.0851 87.4101 27.7893 87.0095C17.7586 86.5088 11.1427 72.2895 11.036 72.1894H10.9293C10.8226 72.4898 10.7158 72.69 10.6091 72.9905C11.9963 75.6941 18.2922 87.2098 27.7893 87.7105C34.1918 88.0109 40.701 83.2043 46.8902 73.2909C46.9969 72.8903 47.2103 72.3896 47.317 71.9891L46.8902 71.7888Z" fill="#CB272A"/>
<path d="M125.215 0.892334C125.428 0.892334 125.535 0.892334 125.641 0.892334C125.535 0.892334 125.428 0.892334 125.321 0.892334C125.215 0.892334 125.108 0.892332 125.001 0.992469C125.108 0.892332 125.215 0.892334 125.215 0.892334Z" fill="#CB272A"/>
<path d="M126.602 0.892379C126.388 0.792242 126.175 0.792236 125.961 0.792236C126.068 0.792236 126.282 0.892377 126.388 0.992513C126.388 0.992513 126.495 0.992515 126.602 0.892379Z" fill="#CB272A"/>
<path d="M47.3169 72.0893L47.4236 72.2896C51.7987 75.8945 55.8536 79.2991 60.0152 82.1029C64.1769 84.9067 68.4453 86.9094 72.2868 87.0096C74.2075 87.1097 76.1283 86.8093 78.0491 86.0082C79.9698 85.3073 81.9973 84.1056 84.0248 82.7037C87.973 79.8999 91.7078 76.0947 95.9762 72.2896L96.0829 71.7889L96.1896 71.889L96.2963 71.5886L96.403 71.7889C101.312 32.2351 112.516 3.8965 125.748 1.3931C125.961 1.29296 126.175 1.19282 126.388 0.99255C126.282 0.892414 126.175 0.89241 125.961 0.792273C125.961 0.792273 125.961 0.792273 125.855 0.792273C125.748 0.792273 125.748 0.792275 125.641 0.692139C125.535 0.692139 125.321 0.692139 125.214 0.692139H125.108C124.361 0.892411 123.507 0.992547 122.76 1.19282C88.6132 3.8965 59.8018 32.3352 47.3169 72.0893Z" fill="white"/>
<path d="M40.8078 115.548L41.1279 115.849C46.4634 120.054 51.0519 124.26 55.6403 127.765C57.8812 129.467 60.2288 130.969 62.363 132.071C64.4972 133.172 66.4179 133.673 68.0186 133.773C68.7655 133.773 69.6192 133.773 70.3662 133.573C71.2198 133.373 72.0735 133.072 73.0339 132.672C74.9547 131.77 77.0888 130.268 79.3297 128.566C81.4639 126.764 83.7048 124.761 85.9457 122.558C86.4792 122.057 87.1195 121.456 87.653 120.956L89.3604 119.253C90.5342 118.152 91.708 117.05 93.0952 115.949V115.148L93.522 115.448L93.6287 115.248C93.6287 101.329 94.3757 88.111 95.7629 75.7943C95.3361 77.4966 94.6958 79.0988 94.0555 80.7009C92.8817 83.3045 91.3878 85.7078 89.4671 88.0109C88.5067 89.2125 87.4396 90.2139 86.1591 91.3154C84.9853 92.3168 83.5981 93.218 81.9975 94.0191C80.5035 94.8202 78.7962 95.421 77.0888 95.8215C75.2748 96.2221 73.4607 96.4223 71.6467 96.3222C68.0186 96.1219 64.6039 94.9203 61.7228 93.4182C58.8416 91.8161 56.494 89.8133 54.4665 87.6103C52.4391 85.4073 50.8384 83.1042 49.4512 80.6008C48.3841 78.5981 47.5305 76.4952 46.8902 74.2922C46.4634 75.7943 45.9298 77.2963 45.2896 78.7984C45.2896 78.7984 45.2896 78.8985 45.1829 78.8985C42.195 90.314 40.5944 102.531 40.4877 115.248L40.8078 115.548Z" fill="white"/>
<path d="M93.7354 116.049C93.7354 115.849 93.7354 115.649 93.7354 115.448L93.6287 115.348L93.4153 115.949C85.8389 131.971 77.5156 140.182 68.6588 140.282H68.5521C53.2927 140.282 41.2346 116.249 41.1279 115.949L40.9145 115.548L40.701 115.448C40.701 115.649 40.701 115.949 40.701 116.149C40.701 116.45 40.701 116.75 40.701 117.05C40.8078 117.251 41.0212 117.551 41.1279 117.952C44.1157 123.459 54.7866 141.083 68.4454 141.083H68.5521C77.4089 140.983 85.7322 133.273 93.2019 118.152C93.4153 117.751 93.522 117.451 93.7354 117.05C93.7354 116.65 93.7354 116.35 93.7354 116.049Z" fill="white"/>
<path d="M104.62 200.163C104.513 199.863 104.406 199.563 104.299 199.262C103.126 195.357 101.952 191.151 100.991 186.745C100.351 184.242 100.138 182.84 100.138 182.84C96.5097 165.717 94.2688 145.089 93.8419 122.658V122.558C93.8419 122.458 93.842 122.358 93.7352 122.258C93.5218 123.559 93.2017 124.861 92.8816 126.063C91.9212 129.267 90.6407 132.371 88.7199 135.375C86.7992 138.379 84.2381 141.283 80.7167 143.687C78.9027 144.888 76.8752 145.89 74.5276 146.591C72.18 147.292 69.7257 147.592 67.2714 147.492C64.8171 147.392 62.4695 146.791 60.3354 145.99C58.2012 145.189 56.3871 144.187 54.6798 142.986C51.3718 140.683 48.9175 137.979 46.89 135.075C44.8626 132.171 43.3686 129.167 42.1948 126.063C41.6613 124.461 41.1277 122.958 40.8076 121.256C40.8076 121.256 40.8076 121.256 40.8076 121.156C41.5546 144.087 47.4236 165.316 56.9207 182.84C56.9207 182.84 57.3475 184.242 59.1615 186.745C61.8293 191.151 64.7104 195.357 67.805 199.262C68.0184 199.563 68.3385 199.863 68.5519 200.163C81.2503 218.689 100.244 247.428 106.754 263.049H119.559C116.891 247.428 109.528 218.689 104.62 200.163Z" fill="white"/>
<path d="M46.9967 73.1907C46.9967 73.2908 47.1034 73.391 47.2101 73.4911C49.6644 77.2963 59.8018 92.0163 72.8203 92.0163H72.927C81.2503 91.9162 89.04 85.7077 96.0828 73.5912C96.0828 73.4911 96.1895 73.4911 96.1895 73.391C96.1895 72.9904 96.2962 72.4897 96.2962 72.0892L96.0828 71.8889L95.8694 72.2895C88.9333 84.8065 81.1436 91.2152 72.927 91.2152H72.8203C58.628 91.2152 47.5303 72.3896 47.4236 72.2895L47.3169 72.1893C47.2102 72.5899 46.9967 73.0906 46.89 73.4911C46.89 73.2908 46.9967 73.2908 46.9967 73.1907Z" fill="white"/>
<path d="M127.349 1.19282C127.242 0.892411 127.135 0.692137 127.029 0.792273C126.922 0.692137 126.922 0.692139 126.815 0.692139C126.709 0.692139 126.709 0.792273 126.602 0.792273C126.709 0.89241 126.815 0.992549 126.922 1.09269H127.349V1.19282Z" fill="#CB272A"/>
<path d="M126.602 1.19274H126.922C126.815 1.0926 126.708 0.99247 126.602 0.892334C126.495 0.892334 126.495 0.992469 126.388 0.992469C126.388 1.0926 126.495 1.19274 126.602 1.19274Z" fill="#CB272A"/>
<path d="M94.1622 115.849L93.9488 115.548L93.7354 115.448C93.7354 115.649 93.7354 115.849 93.7354 116.049C93.7354 116.349 93.7354 116.65 93.7354 116.95C93.8421 117.151 94.0555 117.551 94.2689 117.852C97.6836 124.06 110.489 145.289 127.775 145.79V144.988C108.461 144.388 94.2689 116.149 94.1622 115.849Z" fill="#CB272A"/>
<path d="M126.602 1.19282C126.495 1.09269 126.388 1.09269 126.388 0.992554C126.175 1.09269 125.961 1.19283 125.748 1.3931C112.516 3.89651 101.312 32.2351 96.403 71.7889L96.6164 72.1894C99.4975 74.2923 102.165 76.3952 104.94 78.2977C107.607 80.2003 110.275 82.0028 112.943 83.5048C115.611 85.0069 118.278 86.3086 120.839 87.1097C123.294 87.9108 125.641 88.3114 127.775 88.3114V15.7126C127.669 15.7126 127.562 15.7126 127.349 15.7126C124.681 15.7126 122.547 13.7099 122.547 11.2064C122.547 8.70304 124.681 6.70032 127.349 6.70032C127.455 6.70032 127.562 6.70032 127.775 6.70032V1.29296H127.349H126.922H126.602V1.19282Z" fill="#222221"/>
<path d="M96.1896 73.291C96.1896 73.291 96.1896 73.1909 96.2963 73.1909C96.2963 73.291 96.403 73.3912 96.5097 73.4913C99.1774 77.697 111.556 95.321 127.882 95.7215V94.9205C110.062 94.4198 96.8298 72.3898 96.7231 72.1895L96.5097 71.9893C96.2963 72.4899 96.1896 72.8905 96.1896 73.291Z" fill="#CB272A"/>
<path d="M127.562 155.703C124.361 155.503 121.373 154.902 118.599 153.901C115.824 152.899 113.37 151.597 111.236 150.095C106.967 147.191 103.766 143.687 101.205 139.982C98.644 136.277 96.7232 132.471 95.4427 128.466C94.8024 126.563 94.2689 124.561 93.842 122.558C94.2689 144.888 96.5098 165.617 100.138 182.74C100.138 182.74 100.351 184.142 100.992 186.645C102.059 191.051 103.126 195.257 104.3 199.162C104.406 199.463 104.513 199.763 104.62 200.063C109.528 218.589 116.998 247.328 119.452 262.949H127.775V155.703C127.669 155.703 127.562 155.703 127.562 155.703Z" fill="#222221"/>
<path d="M94.2689 115.749C97.7903 118.252 100.992 120.755 104.193 123.059C107.287 125.362 110.382 127.565 113.263 129.467C116.144 131.37 119.132 132.872 121.693 133.873C122.974 134.374 124.147 134.674 125.214 134.875L125.961 134.975L126.708 135.075C127.029 135.075 127.349 135.075 127.669 135.075V102.23H127.562C122.867 102.03 118.492 100.628 114.757 98.6253C111.022 96.6226 108.034 94.1192 105.473 91.3154C102.912 88.6117 100.885 85.6076 99.2842 82.4033C97.897 79.7997 96.8299 77.0961 96.1896 74.2922C96.0829 74.6928 95.9762 75.1935 95.8695 75.594C94.4823 87.9108 93.7354 101.129 93.7354 115.048L93.9488 115.448L94.2689 115.749Z" fill="#222221"/>
<path d="M129.483 0.992469C129.59 0.892332 129.696 0.892334 129.696 0.892334C129.483 0.892334 129.376 0.892334 129.163 0.892334C129.269 0.892334 129.376 0.892332 129.483 0.992469Z" fill="#CB272A"/>
<path d="M214.53 116.049C214.53 116.35 214.53 116.75 214.53 117.05C214.53 116.95 214.637 116.95 214.637 116.85C214.743 117.05 214.957 117.251 215.063 117.451C217.944 121.356 227.228 133.172 237.579 132.371C243.875 131.871 249.317 126.764 253.799 117.05C253.799 116.75 253.799 116.35 253.799 116.049L253.585 115.949L253.372 115.849C248.997 125.762 243.661 131.07 237.472 131.57C225.841 132.471 214.957 115.949 214.85 115.849L214.53 115.348C214.53 115.548 214.53 115.749 214.53 116.049Z" fill="#B9272A"/>
<path d="M208.234 73.1907C208.234 73.1907 208.234 73.0906 208.234 73.1907C208.234 73.1907 208.341 73.2908 208.341 73.391C210.688 76.0946 219.759 86.1083 229.683 85.3072C235.445 84.8065 240.46 80.801 244.515 73.1907C244.408 72.8903 244.302 72.5899 244.088 72.3896H243.982C240.033 80 235.125 84.1055 229.576 84.6062C218.692 85.5074 208.448 72.4897 208.341 72.2895L208.021 71.8889L207.701 72.1893C208.021 72.4897 208.127 72.7901 208.234 73.1907Z" fill="#B9272A"/>
<path d="M207.914 72.0892L208.127 71.6887L208.234 71.889L208.341 71.7888L208.447 72.2895C211.755 74.3924 214.957 76.4952 218.051 78.1976C221.253 79.8999 224.454 81.2016 227.335 81.4019C228.829 81.502 230.109 81.4019 231.497 81.0014C232.777 80.6008 234.164 80 235.551 79.1989C236.939 78.3978 238.326 77.2963 239.713 76.0947C241.1 74.8931 242.488 73.5913 244.088 72.2895H244.195C226.268 32.6356 184.545 4.09674 135.245 1.39306C133.858 1.19279 132.577 0.992509 131.19 0.792236C130.977 0.792236 130.763 0.792242 130.55 0.892379C131.297 1.09265 132.151 1.19279 132.898 1.39306C166.831 4.09674 195.429 32.5354 207.914 72.0892Z" fill="#222221"/>
<path d="M239.927 83.6049C238.326 85.2071 236.405 86.609 234.058 87.5103C231.71 88.4115 229.042 88.6118 226.588 88.3113C224.134 88.0109 221.893 87.2098 219.972 86.1083C218.051 85.107 216.237 83.8052 214.743 82.4033C213.249 81.0014 211.862 79.4994 210.688 77.8972C209.941 76.7957 209.194 75.594 208.661 74.3924C210.048 78.8985 211.115 83.6049 212.076 88.4115C213.676 97.0232 214.637 106.136 214.637 115.448L215.063 115.048L215.17 115.849C219.118 118.352 222.746 120.956 226.161 123.059C229.683 125.161 233.097 126.664 235.765 126.864C237.045 126.964 238.113 126.764 239.286 126.363C240.46 125.963 241.954 125.161 243.341 124.16C244.835 123.059 246.329 121.857 247.93 120.355C249.53 118.953 251.131 117.451 253.158 115.849L253.585 115.949L253.799 116.049C253.799 106.436 252.518 97.1233 250.064 88.3113C248.677 83.2044 246.863 78.2977 244.835 73.5913C244.622 75.2936 244.195 76.8958 243.448 78.3979C242.594 80.2003 241.42 82.0028 239.927 83.6049Z" fill="#222221"/>
<path d="M243.982 135.576C242.594 136.277 240.887 136.777 239.286 137.078C237.579 137.278 235.872 137.278 234.271 137.078C231.07 136.577 228.295 135.375 226.054 133.873C223.814 132.371 221.893 130.669 220.292 128.766C218.692 126.964 217.411 124.961 216.344 122.858C215.81 121.757 215.277 120.555 214.85 119.354C214.743 120.155 214.637 120.956 214.423 121.757C213.569 144.488 207.7 165.416 198.31 182.84C198.31 182.84 197.67 184.542 195.642 187.446C193.508 191.051 191.161 194.456 188.6 197.76C176.008 216.486 155.413 247.928 149.224 263.049H159.041C168.005 247.928 197.777 216.486 216.13 197.76C219.759 194.556 223.173 191.051 226.268 187.446C229.149 184.542 230.109 182.84 230.109 182.84C243.341 166.017 251.665 145.89 253.372 124.06C252.732 126.063 251.771 128.065 250.491 129.968C248.997 132.171 246.863 134.174 243.982 135.576Z" fill="#222221"/>
<path d="M130.336 0.992513C130.336 0.992513 130.443 0.992515 130.55 0.892379C130.443 0.892379 130.23 0.792236 130.123 0.792236C130.016 0.792236 129.91 0.792236 129.803 0.792236C129.91 0.792236 129.91 0.792236 130.016 0.792236C130.016 0.892373 130.123 0.892377 130.336 0.992513Z" fill="#CB272A"/>
<path d="M129.163 0.892485C128.949 0.792349 128.843 0.792349 128.629 0.892485C128.736 0.892485 128.736 0.99262 128.843 0.99262C128.949 0.892483 129.056 0.892485 129.163 0.892485Z" fill="#CB272A"/>
<path d="M159.041 73.0905C159.148 73.0905 159.255 73.1907 159.255 73.2908C162.029 76.3951 173.981 88.4114 186.999 88.4114C187.639 88.4114 188.386 88.4114 189.026 88.3113C196.603 87.5102 203.005 82.5034 208.127 73.2908C208.127 73.1907 208.234 73.1907 208.234 73.0905C208.127 72.7901 208.021 72.3896 207.914 72.0892L207.807 72.1893C202.792 81.6021 196.389 86.8092 189.026 87.5102C174.087 89.0122 159.468 72.2895 159.361 72.0892L159.148 71.8889L158.935 71.9891C158.935 72.3896 158.935 72.7901 159.041 73.0905Z" fill="#CACACA"/>
<path d="M208.768 133.473C206.633 136.076 203.752 138.48 200.017 139.982C198.203 140.683 196.176 141.183 194.255 141.484C192.228 141.684 190.2 141.684 188.386 141.384C184.545 140.783 181.13 139.381 178.249 137.679C176.755 136.777 175.474 135.876 174.194 134.875C172.913 133.873 171.74 132.772 170.672 131.67C168.432 129.467 166.618 127.064 164.91 124.561C163.95 122.959 162.989 121.356 162.242 119.754C162.242 122.558 161.922 125.262 161.282 127.965C160.642 148.393 158.508 167.219 155.093 183.04C155.093 183.04 154.88 184.743 154.026 187.647C153.172 191.251 152.319 194.656 151.251 197.961C146.343 216.686 138.34 248.129 135.885 263.249H149.117C155.306 248.129 175.795 216.686 188.493 197.961C190.947 194.756 193.295 191.251 195.536 187.647C197.563 184.743 198.203 183.04 198.203 183.04C207.594 165.717 213.463 144.688 214.316 121.957C214.103 123.059 213.783 124.16 213.356 125.262C212.396 128.065 210.902 130.869 208.768 133.473Z" fill="#CACACA"/>
<path d="M129.589 1.39302C142.821 4.09669 153.919 32.3351 158.828 71.7888L158.934 71.6887L159.148 71.8889L159.255 71.7888L159.361 72.0892C163.63 74.893 167.898 77.5967 172.166 79.8998C176.435 82.1028 180.81 83.8051 185.078 84.3058C189.346 84.7064 193.188 83.8051 196.923 81.502C198.844 80.4005 200.658 78.8985 202.472 77.3964C204.286 75.7942 205.993 73.9918 207.914 72.1893L208.021 71.9891C195.536 32.4353 166.938 3.99656 132.897 1.39302C132.15 1.19274 131.297 0.99247 130.55 0.892334C130.443 0.892334 130.443 0.892332 130.336 0.992469C130.23 0.992469 130.123 0.892334 129.91 0.892334C129.803 0.892334 129.803 0.892334 129.696 0.892334C129.589 0.892334 129.483 0.992469 129.483 0.992469C129.376 0.992469 129.269 0.892334 129.269 0.892334C129.163 0.892334 129.056 0.992469 128.949 0.992469C129.163 1.0926 129.376 1.29288 129.589 1.39302Z" fill="#CACACA"/>
<path d="M161.496 116.049C161.496 116.349 161.496 116.65 161.496 116.95C161.496 116.95 161.496 116.85 161.602 116.85C161.816 117.05 161.922 117.351 162.242 117.651C165.977 122.358 179.423 137.779 193.615 136.477C201.831 135.676 208.874 129.367 214.423 117.651C214.53 117.451 214.53 117.351 214.637 117.151C214.637 116.85 214.637 116.45 214.637 116.149C214.637 115.949 214.637 115.649 214.637 115.448L214.423 115.649L214.21 116.049C208.661 128.366 201.618 134.975 193.401 135.776C177.502 137.278 161.922 116.149 161.816 115.949L161.496 115.548H161.389C161.496 115.649 161.496 115.849 161.496 116.049Z" fill="#CACACA"/>
<path d="M205.993 79.8999C204.713 82.203 203.112 84.5062 200.978 86.4088C198.844 88.3113 196.176 89.9135 193.188 90.8148C190.2 91.716 186.999 91.9163 183.904 91.5157C180.917 91.1152 178.035 90.1138 175.474 88.9122C172.913 87.7105 170.566 86.2085 168.538 84.5062C166.404 82.8039 164.59 81.0014 162.883 78.9987C161.496 77.2964 160.215 75.594 159.148 73.6915C159.148 73.8917 159.041 74.092 159.041 74.2923C159.575 78.7984 160.002 83.5048 160.322 88.3113C160.962 97.0232 161.282 106.035 161.282 115.348L161.389 115.448L161.816 115.148V115.649C166.831 119.053 171.42 122.358 176.221 125.161C180.917 127.865 185.719 130.068 189.88 130.569C192.014 130.769 193.828 130.569 195.749 129.968C197.67 129.367 199.591 128.366 201.618 126.964C203.646 125.562 205.566 123.76 207.594 121.857C209.621 119.954 211.649 117.852 213.89 115.749L214.317 115.448L214.423 115.148L214.53 115.248C214.53 105.935 213.57 96.9231 211.969 88.2112C211.115 83.4047 209.941 78.7984 208.554 74.1921C208.448 73.9919 208.341 73.7916 208.234 73.5913C207.807 75.8944 207.06 77.8972 205.993 79.8999Z" fill="#CACACA"/>
<path d="M128.629 0.892405C128.629 0.892405 128.629 0.792269 128.629 0.892405C128.416 0.792269 128.416 0.892404 128.309 0.99254L128.202 0.892405C128.096 0.792269 127.882 0.892399 127.882 1.29294H128.309C128.309 1.09267 128.522 0.892405 128.629 0.892405Z" fill="#CB272A"/>
<path d="M128.202 1.19274H128.523C128.629 1.0926 128.736 0.992469 128.843 0.992469C128.736 0.992469 128.736 0.892334 128.629 0.892334C128.523 0.892334 128.309 1.0926 128.202 1.19274Z" fill="#CB272A"/>
<path d="M154.133 187.546C154.88 184.642 155.2 182.94 155.2 182.94C158.508 167.119 160.749 148.293 161.389 127.865C161.282 128.266 161.175 128.766 161.069 129.167C160.002 133.272 158.188 137.278 155.733 141.083C153.172 144.888 149.758 148.493 145.062 151.397C142.715 152.799 139.94 154.001 137.059 154.802C136.312 155.002 135.565 155.202 134.818 155.302C134.071 155.503 133.324 155.603 132.471 155.703C130.977 155.903 129.483 155.903 127.882 155.803V263.149H136.205C138.553 248.029 146.663 216.586 151.572 197.86C152.319 194.556 153.279 191.151 154.133 187.546Z" fill="#222221"/>
<path d="M128.416 145.79C140.047 145.79 151.038 136.176 161.282 117.251C161.389 117.151 161.389 117.05 161.496 116.95C161.496 116.65 161.496 116.349 161.496 116.049C161.496 115.849 161.496 115.649 161.496 115.448L161.282 115.548L161.175 115.849C150.931 135.175 139.94 144.988 128.522 144.988C128.416 144.988 128.416 144.988 128.309 144.988C128.202 144.988 127.989 144.988 127.882 144.988V145.79C127.989 145.79 128.202 145.79 128.309 145.79C128.202 145.79 128.309 145.79 128.416 145.79Z" fill="#B9272A"/>
<path d="M128.309 95.0206C128.202 95.0206 128.096 95.0206 127.989 95.0206C127.882 95.0206 127.776 95.0206 127.669 95.0206V95.8217C127.776 95.8217 127.882 95.8217 127.989 95.8217C128.096 95.8217 128.202 95.8217 128.309 95.8217C139.087 95.8217 149.437 88.2113 158.935 73.291C158.935 73.291 158.935 73.291 158.935 73.1909C158.935 72.7903 158.828 72.4899 158.828 72.0894L158.614 72.1895C149.117 87.3101 138.98 95.0206 128.309 95.0206Z" fill="#B9272A"/>
<path d="M154.133 87.7105C153.172 89.2125 151.998 90.7146 150.718 92.2166C148.157 95.1206 144.956 97.7241 141.007 99.5266C137.166 101.429 132.471 102.431 127.775 102.23V135.075C127.882 135.075 128.096 135.075 128.202 135.075C129.91 134.975 131.51 134.574 133.751 133.573C135.992 132.572 138.553 131.069 141.327 129.167C144.102 127.264 146.983 125.061 150.184 122.758C153.386 120.455 156.694 118.052 160.855 115.749L161.175 115.548L161.389 115.248V115.348C161.389 106.035 161.069 96.923 160.428 88.3113C160.108 83.5048 159.681 78.8985 159.148 74.2922C158.721 77.2963 157.867 80.2003 156.694 82.9039C155.947 84.6063 155.093 86.1083 154.133 87.7105Z" fill="#222221"/>
<path d="M0.578513 117.952C1.96573 121.356 3.24623 124.761 5.59383 127.765C8.26155 131.069 11.4628 133.673 15.5178 135.275C19.466 136.777 23.7343 136.777 27.6826 135.175C30.9906 133.773 33.6583 131.27 35.6857 128.466C38.1401 125.061 39.7407 121.156 40.9145 117.151C40.0608 117.351 39.1004 117.551 38.2468 117.851C45.8231 124.761 49.7713 134.975 59.4818 139.681C63.9636 141.884 69.1923 142.585 73.8875 140.683C78.6894 138.68 82.7444 134.674 86.0524 130.969C90.0006 126.663 93.0951 121.757 95.4427 116.55C95.7629 115.749 95.1226 114.948 94.3757 114.747C93.4153 114.547 92.775 115.048 92.4549 115.749C90.5341 119.954 88.0798 123.96 85.092 127.565C82.1041 131.069 78.5827 134.674 74.5278 137.078C65.4575 142.385 56.1739 134.674 51.0518 128.065C47.7439 123.86 44.756 119.354 40.8078 115.648C39.9541 114.847 38.4602 115.248 38.1401 116.349C36.4327 121.957 33.765 128.566 28.1094 131.77C21.28 135.676 13.7037 131.971 9.11523 126.764C6.66092 123.96 5.38041 120.655 3.9932 117.251C3.03282 115.348 -0.0617406 116.149 0.578513 117.952Z" fill="white"/>
<path d="M92.2415 116.249C96.5099 123.259 101.205 130.168 107.181 136.076C113.05 141.684 121.373 147.692 130.23 146.991C135.459 146.591 140.261 144.187 144.742 141.784C146.556 140.883 144.956 138.279 143.142 139.18C139.407 141.183 135.565 143.286 131.19 143.887C127.029 144.488 122.867 143.286 119.239 141.283C112.303 137.578 106.754 131.77 102.165 125.662C99.4977 122.157 97.1501 118.452 94.9092 114.747C93.9489 113.045 91.1744 114.547 92.2415 116.249Z" fill="white"/>
<path d="M141.648 143.787C147.41 139.681 152.319 134.674 156.054 128.867C157.974 125.963 159.255 122.958 160.749 119.954C160.962 119.554 161.176 118.853 161.709 118.853C162.136 118.853 162.776 119.754 163.096 120.055C164.377 121.456 165.551 122.758 166.831 124.16C171.526 129.167 176.755 134.074 183.584 136.677C189.347 138.88 196.283 139.181 201.938 136.377C205.46 134.574 207.807 131.57 209.728 128.266C212.076 124.36 214.317 120.455 216.664 116.65C215.704 116.65 214.85 116.65 213.89 116.65C217.304 122.458 221.893 128.366 228.509 131.17C234.698 133.773 242.488 133.673 247.61 129.067C250.491 126.463 252.198 122.858 253.585 119.454C254.332 117.651 251.238 116.85 250.491 118.653C249.104 121.957 247.396 125.462 244.408 127.765C241.421 129.968 237.472 130.469 233.844 129.768C225.734 128.266 220.506 121.657 216.664 115.248C216.131 114.247 214.53 114.247 213.89 115.248C211.862 118.753 209.728 122.258 207.701 125.762C205.993 128.566 204.286 131.57 201.298 133.272C196.069 136.477 188.92 135.876 183.371 133.373C177.075 130.469 172.167 125.462 167.685 120.555C165.871 118.552 163.096 114.447 159.788 116.45C158.615 117.151 158.081 118.352 157.547 119.554C156.8 121.156 156.054 122.758 155.2 124.36C151.465 130.969 146.236 136.777 139.94 141.384C138.447 142.285 140.047 144.888 141.648 143.787Z" fill="white"/>
<path d="M9.43532 72.1893C11.6762 77.8971 14.4506 84.506 20.4263 87.6103C27.3624 91.2152 35.579 88.2111 40.8077 83.2043C44.009 80.1001 46.3566 76.2949 48.7042 72.5898C47.7438 72.5898 46.8902 72.5898 45.9298 72.5898C50.3048 79.3991 55.3201 86.8092 63.1099 90.4141C71.7533 94.4195 81.8907 92.1164 88.72 86.1082C92.5616 82.7036 95.1226 78.3977 96.9366 73.7915C95.9763 73.8916 95.0159 73.9917 94.0555 74.192C98.2171 79.3991 103.232 83.9052 108.995 87.41C111.769 89.1123 114.757 90.5142 117.745 91.816C120.626 93.1178 123.721 94.6198 125.748 97.1232C126.175 96.3221 126.708 95.6212 127.135 94.8201C118.492 94.019 110.275 89.7131 105.047 83.2043C104.3 83.9052 103.553 84.6062 102.806 85.3071C107.394 87.7104 112.089 90.2138 116.678 92.6171C120.733 94.7199 124.788 96.9229 129.483 97.1232C138.34 97.4236 146.023 92.1164 151.145 85.8078C154.239 82.0026 156.694 77.6968 159.041 73.3909C160.002 71.6886 157.227 70.1866 156.267 71.8889C152.532 78.6981 148.477 86.1082 141.541 90.5142C138.34 92.5169 134.605 94.019 130.657 94.1191C126.282 94.2193 122.653 92.4168 118.919 90.4141C114.117 87.9107 109.208 85.3071 104.406 82.8037C103.126 82.1028 101.205 83.6048 102.165 84.9066C108.141 92.3167 117.105 97.1232 127.029 98.0244C128.202 98.1246 129.163 96.6225 128.416 95.7213C124.361 90.7145 117.638 89.0122 112.089 85.8078C106.22 82.4032 100.992 77.9972 96.8299 72.7901C95.9762 71.6886 94.3756 71.8889 93.9488 73.1907C91.1744 80.6007 85.3054 87.2097 76.8754 89.2124C73.0338 90.1137 68.8722 89.8133 65.2441 88.2111C61.8294 86.709 58.9483 84.3058 56.4939 81.6021C53.6128 78.3977 51.1585 74.893 48.9176 71.2881C48.2774 70.2867 46.7834 70.2867 46.1432 71.2881C41.9815 77.9972 36.4327 86.8092 26.9356 86.5088C18.8257 86.2084 15.1976 77.7969 12.85 71.6886C11.8896 69.5857 8.79507 70.3868 9.43532 72.1893Z" fill="white"/>
<path d="M156.907 72.3896C163.096 78.498 169.605 84.8065 178.142 87.8106C186.359 90.6144 195.429 89.7132 201.831 83.9053C205.246 80.9012 207.7 77.096 209.728 73.1907C208.874 73.2909 208.021 73.391 207.167 73.4911C210.155 76.295 213.463 78.7984 216.877 81.1015C220.079 83.2044 223.707 85.8079 227.655 86.609C231.39 87.3099 235.018 86.0082 237.792 83.705C240.78 81.2016 242.594 77.6969 244.302 74.3924C245.155 72.69 242.381 71.0879 241.527 72.8903C238.966 78.0974 234.698 85.8079 227.121 83.4046C223.813 82.3031 220.719 80.1001 217.838 78.1975C214.85 76.0947 211.969 73.8917 209.301 71.3883C208.661 70.7875 207.274 70.7875 206.74 71.6887C203.539 77.797 199.057 84.2057 191.481 85.908C183.477 87.8106 175.261 84.2057 169.072 79.5994C165.337 76.7956 162.029 73.4911 158.828 70.2868C157.761 68.8849 155.413 70.9877 156.907 72.3896Z" fill="white"/>
<path d="M132.151 11.2064C132.151 13.6097 130.23 15.5123 127.669 15.7126V88.5116C127.775 88.5116 127.882 88.5116 127.882 88.5116C130.123 88.5116 132.364 88.0109 134.605 87.1097C136.952 86.2085 139.407 85.0069 141.861 83.4047C144.422 81.9026 146.983 80.1002 149.651 78.0975C152.425 76.1949 155.2 74.092 158.401 72.1894L158.614 71.7889C153.706 32.3352 142.608 3.99664 129.376 1.3931C129.163 1.19283 128.843 1.09269 128.629 0.992554C128.522 1.09269 128.416 1.09269 128.309 1.19282H127.989H127.562H127.455V6.60018C130.23 6.90059 132.151 8.80318 132.151 11.2064Z" fill="#222221"/>
<g opacity="0.4">
<g opacity="0.4">
<path d="M127.775 263.049H119.772H107.394H98.2171H96.8299C95.9762 263.049 95.3359 263.75 95.3359 264.551V271.861C95.3359 272.662 95.9762 273.363 96.8299 273.363H127.669H128.096V263.149H127.775V263.049Z" fill="#222221"/>
<path d="M127.775 263.049H119.772H107.394H98.2171H96.8299C95.9762 263.049 95.3359 263.75 95.3359 264.551V271.861C95.3359 272.662 95.9762 273.363 96.8299 273.363H127.669H128.096V263.149H127.775V263.049Z" fill="#B9272A"/>
</g>
<g opacity="0.4">
<path d="M158.614 263.049H155.84H147.09H135.245H128.202V273.263H158.614C159.361 273.263 160.001 272.562 160.001 271.761V264.451C160.001 263.75 159.361 263.049 158.614 263.049Z" fill="#222221"/>
<path d="M158.614 263.049H155.84H147.09H135.245H128.202V273.263H158.614C159.361 273.263 160.001 272.562 160.001 271.761V264.451C160.001 263.75 159.361 263.049 158.614 263.049Z" fill="#B9272A"/>
</g>
</g>
<path opacity="0.4" d="M162.029 115.148L161.602 115.448L161.922 115.849C162.029 116.049 177.609 137.178 193.508 135.676C201.725 134.875 208.768 128.266 214.316 115.949L214.53 115.548L214.103 115.849C211.755 117.952 209.835 120.055 207.807 121.957C205.78 123.86 203.752 125.562 201.832 127.064C199.804 128.466 197.883 129.567 195.963 130.068C194.042 130.669 192.228 130.869 190.094 130.669C185.932 130.268 181.13 128.065 176.435 125.262C171.74 122.458 167.044 119.153 162.029 115.749V115.148Z" fill="#222221"/>
<path opacity="0.4" d="M239.286 126.263C238.113 126.663 237.045 126.864 235.765 126.763C233.204 126.563 229.683 125.061 226.161 122.958C222.64 120.855 219.118 118.352 215.17 115.748L215.063 114.947L214.637 115.348L214.957 115.849C215.063 116.049 225.948 132.471 237.579 131.57C243.768 131.069 249.104 125.862 253.479 115.849L253.692 115.949L253.265 115.849C251.238 117.351 249.637 118.953 248.037 120.355C246.436 121.757 244.942 123.058 243.448 124.16C241.847 125.061 240.46 125.862 239.286 126.263Z" fill="#222221"/>
<path opacity="0.4" d="M128.416 145.089C139.94 145.089 150.931 135.275 161.069 115.949L161.175 115.649L160.855 115.849C156.694 118.152 153.386 120.555 150.184 122.858C146.983 125.162 144.102 127.365 141.327 129.267C138.553 131.17 135.992 132.672 133.751 133.673C131.51 134.674 129.91 135.075 128.202 135.175C128.096 135.175 127.882 135.175 127.775 135.175V145.089C127.882 145.089 128.096 145.089 128.202 145.089C128.202 145.089 128.309 145.089 128.416 145.089Z" fill="#222221"/>
<path opacity="0.4" d="M237.579 132.371C227.228 133.172 217.945 121.456 215.063 117.451C214.85 117.251 214.743 117.05 214.637 116.85C214.637 116.95 214.53 116.95 214.53 117.05C214.423 117.251 214.423 117.351 214.316 117.551C208.768 129.267 201.725 135.676 193.508 136.377C179.316 137.678 165.871 122.257 162.136 117.551C161.922 117.251 161.709 116.95 161.496 116.75C161.496 116.75 161.496 116.85 161.389 116.85C161.389 117.151 161.389 117.351 161.389 117.651C161.282 117.551 161.282 117.351 161.175 117.251C150.931 136.176 139.94 145.79 128.309 145.79C128.202 145.79 128.202 145.79 128.096 145.79C127.989 145.79 127.776 145.79 127.669 145.79V155.703C129.163 155.803 130.657 155.703 132.257 155.603C133.004 155.503 133.858 155.403 134.605 155.202C135.352 155.102 136.099 154.902 136.846 154.702C139.834 153.901 142.501 152.699 144.849 151.297C149.544 148.393 152.959 144.788 155.52 140.983C158.081 137.178 159.788 133.172 160.855 129.067C160.962 128.666 161.069 128.166 161.175 127.765C161.816 125.061 162.136 122.358 162.136 119.554C162.883 121.256 163.736 122.858 164.804 124.36C166.404 126.864 168.325 129.267 170.566 131.47C171.633 132.572 172.807 133.673 174.087 134.674C175.368 135.676 176.755 136.577 178.142 137.478C181.023 139.181 184.438 140.582 188.28 141.183C190.2 141.484 192.228 141.484 194.148 141.283C196.176 141.083 198.097 140.582 199.911 139.781C203.539 138.279 206.42 135.876 208.661 133.272C210.795 130.669 212.289 127.865 213.356 124.961C213.783 123.86 214.103 122.758 214.316 121.657C214.53 120.856 214.637 120.054 214.743 119.253C215.17 120.455 215.704 121.557 216.237 122.758C217.304 124.861 218.585 126.864 220.185 128.666C221.786 130.469 223.6 132.271 225.948 133.773C228.189 135.275 230.963 136.477 234.164 136.978C235.765 137.178 237.472 137.178 239.18 136.978C240.887 136.777 242.488 136.176 243.875 135.475C246.756 134.074 248.89 131.971 250.491 129.868C251.878 127.965 252.838 125.963 253.372 123.96C253.585 121.657 253.692 119.354 253.692 116.95C249.317 126.764 243.875 131.871 237.579 132.371Z" fill="#222221"/>
<path opacity="0.4" d="M189.026 87.6103C196.496 86.8092 202.792 81.7023 207.807 72.2895C205.886 74.0919 204.179 75.8944 202.365 77.4966C200.551 79.0987 198.737 80.5006 196.816 81.6021C193.081 83.9053 189.133 84.8065 184.972 84.4059C180.703 84.0054 176.328 82.203 172.06 80C167.791 77.797 163.63 75.0933 159.255 72.1893L159.148 71.8889L159.041 71.9891L159.255 72.1893C159.468 72.2895 174.087 89.1123 189.026 87.6103Z" fill="#222221"/>
<path opacity="0.4" d="M229.683 84.406C235.338 83.9053 240.14 79.7998 244.088 72.1894C242.488 73.4912 241.1 74.7929 239.713 75.9946C238.326 77.1962 236.939 78.2977 235.552 79.0988C234.164 80 232.777 80.6008 231.497 80.9013C230.109 81.3018 228.829 81.4019 227.335 81.3018C224.454 81.1015 221.253 79.7998 218.051 78.0974C214.85 76.3951 211.755 74.2923 208.448 72.1894L208.341 71.6887L208.234 71.7889L208.554 72.1894C208.661 72.2895 218.905 85.3072 229.683 84.406Z" fill="#222221"/>
<path opacity="0.4" d="M128.309 95.0205C138.98 95.0205 149.117 87.31 158.614 72.1895C155.307 74.092 152.532 76.1949 149.864 78.0975C147.197 80.0001 144.529 81.8025 142.075 83.4047C139.514 85.0069 137.059 86.2085 134.818 87.1097C132.471 88.011 130.337 88.4115 128.096 88.5117C127.989 88.5117 127.882 88.5117 127.882 88.5117V95.0205C127.989 95.0205 128.096 95.0205 128.202 95.0205C128.096 95.0205 128.202 95.0205 128.309 95.0205Z" fill="#222221"/>
<path opacity="0.4" d="M189.133 88.4113C188.493 88.5114 187.746 88.5114 187.106 88.5114C174.087 88.5114 162.136 76.395 159.361 73.3909C159.361 73.491 159.361 73.5912 159.361 73.7914C160.429 75.694 161.709 77.4965 163.096 79.0986C164.804 81.1014 166.618 82.9038 168.752 84.6061C170.886 86.3084 173.127 87.8105 175.688 89.0121C178.249 90.2138 181.023 91.2151 184.118 91.6157C187.106 92.0162 190.414 91.8159 193.402 90.9147C196.389 90.0135 199.057 88.4113 201.191 86.5087C203.326 84.6061 204.926 82.303 206.207 79.9999C207.274 77.9971 208.021 75.9944 208.448 73.8916C208.341 73.7914 208.341 73.5911 208.234 73.491C203.005 82.5033 196.603 87.6102 189.133 88.4113Z" fill="#222221"/>
<path opacity="0.4" d="M229.789 85.2072C219.865 86.0083 210.688 75.9947 208.448 73.291C208.448 73.3911 208.448 73.3911 208.448 73.4913C208.554 73.7917 208.661 73.9919 208.661 74.2923C209.301 75.494 209.942 76.6956 210.688 77.7971C211.862 79.3993 213.143 80.9013 214.743 82.3032C216.237 83.7052 217.945 85.0069 219.972 86.0083C221.893 87.0096 224.134 87.8107 226.588 88.2113C229.042 88.5117 231.71 88.3114 234.058 87.4102C236.405 86.6091 238.433 85.1071 239.927 83.5049C241.527 81.9027 242.594 80.1002 243.448 78.2978C244.088 76.6956 244.622 75.0934 244.835 73.4913C244.729 73.3911 244.729 73.1908 244.622 73.0907C240.567 80.7011 235.552 84.7065 229.789 85.2072Z" fill="#222221"/>
<path opacity="0.4" d="M140.901 99.5266C144.849 97.624 148.05 95.0205 150.611 92.2167C151.892 90.8148 153.066 89.3127 154.026 87.7106C154.986 86.1084 155.84 84.6063 156.587 82.904C157.761 80.1002 158.721 77.2964 159.041 74.2923C159.041 73.9919 158.935 73.6915 158.935 73.2909C158.935 73.2909 158.935 73.1908 158.828 73.1908C149.331 88.2112 138.98 95.7215 128.202 95.7215C128.096 95.7215 127.989 95.7215 127.882 95.7215C127.776 95.7215 127.669 95.7215 127.562 95.7215V102.23C132.364 102.431 137.059 101.429 140.901 99.5266Z" fill="#222221"/>
<path opacity="0.4" d="M40.0608 115.749C38.9937 116.55 38.0333 117.351 37.073 118.152L35.6857 119.354C35.2589 119.754 34.8321 120.155 34.2985 120.555C32.4845 122.157 30.7771 123.66 29.1765 125.061C27.4692 126.463 25.8685 127.665 24.3746 128.466C22.8807 129.267 21.6002 129.668 20.6398 129.668C20.1062 129.668 19.6794 129.668 19.0392 129.467C18.3989 129.367 17.7586 129.067 17.0117 128.666C15.5178 127.965 13.9171 126.764 12.3165 125.362C9.00852 122.658 5.80725 119.153 1.96573 115.649L1.43218 115.849L0.89864 116.049C0.791931 118.553 1.11204 120.956 1.7523 123.359C1.7523 123.459 1.7523 123.459 1.7523 123.559C2.39255 126.063 3.45965 128.366 4.84687 130.769C6.23408 133.072 8.04813 135.375 10.7159 137.278C11.9964 138.279 13.4903 139.08 15.3043 139.781C17.0117 140.382 19.0392 140.783 21.0666 140.683C23.0941 140.683 25.0149 140.182 26.7222 139.581C28.4295 138.88 29.9235 138.079 31.204 137.078C33.765 135.175 35.579 132.972 36.9662 130.669C38.3535 128.366 39.4206 126.063 40.1675 123.559C40.4876 122.658 40.7011 121.657 40.9145 120.655C40.9145 120.756 40.9145 120.856 40.9145 120.956C40.9145 120.956 40.9145 120.956 40.9145 121.056C41.2346 122.658 41.7681 124.26 42.3017 125.863C43.4755 128.967 44.9694 131.971 46.9969 134.875C49.0244 137.779 51.4787 140.482 54.7867 142.786C56.3873 143.987 58.308 144.989 60.4422 145.79C62.5764 146.591 64.924 147.192 67.3783 147.292C69.8326 147.392 72.3936 147.091 74.6345 146.39C76.9821 145.689 79.0096 144.688 80.8236 143.486C84.345 141.083 86.906 138.179 88.8268 135.175C90.7476 132.171 92.0281 129.067 92.9884 125.863C93.3086 124.561 93.6287 123.359 93.8421 122.057C93.8421 122.157 93.8421 122.258 93.9488 122.358V122.458C94.3757 124.461 94.8025 126.463 95.5495 128.366C96.83 132.371 98.7507 136.177 101.312 139.882C103.873 143.486 107.074 146.991 111.342 149.995C113.477 151.497 115.931 152.799 118.705 153.801C121.48 154.802 124.468 155.403 127.669 155.603C127.776 155.603 127.776 155.603 127.882 155.603V145.689C110.702 145.189 97.7903 123.96 94.3757 117.751C94.1622 117.451 94.0555 117.051 93.8421 116.85C93.6287 117.251 93.522 117.551 93.3086 117.952C85.8389 133.072 77.6224 140.783 68.6588 140.883H68.5521C55.0001 140.883 44.2225 123.259 41.2346 117.751C41.0212 117.451 40.9145 117.151 40.8078 116.85C40.7011 117.151 40.4877 117.451 40.3809 117.651C33.765 129.868 27.0423 135.876 20.2129 135.576C10.1823 135.075 3.35294 120.956 1.6456 117.051C1.43218 116.55 1.21875 116.149 1.21875 116.049L1.6456 115.949L2.07243 115.849C2.17914 116.049 9.32864 134.374 20.3197 134.875C27.0423 135.175 33.8717 128.766 40.5944 115.849L40.9145 115.248L40.4876 114.848L40.0608 115.749Z" fill="#222221"/>
<path opacity="0.4" d="M93.2018 115.849C91.8146 116.95 90.6408 118.052 89.467 119.153L87.7596 120.856C87.2261 121.456 86.5858 121.957 86.0523 122.458C83.8114 124.561 81.5705 126.663 79.4363 128.466C77.3022 130.168 75.168 131.67 73.1405 132.571C72.1801 132.972 71.2198 133.272 70.4728 133.473C69.6191 133.673 68.8722 133.673 68.1252 133.673C66.5246 133.573 64.6038 133.072 62.4696 131.971C60.3354 130.869 58.0946 129.367 55.747 127.665C51.1585 124.26 46.57 119.954 41.2345 115.749L40.9144 115.448L41.1278 115.849C41.2346 116.049 53.2927 140.182 68.552 140.182H68.6587C77.5156 140.082 85.9456 131.971 93.4152 115.849L93.6286 115.248L93.2018 114.948V115.849V115.849Z" fill="#222221"/>
<path opacity="0.4" d="M126.068 134.975L125.321 134.875C124.254 134.674 123.08 134.374 121.8 133.873C119.239 132.872 116.358 131.37 113.37 129.467C110.382 127.565 107.394 125.362 104.3 123.059C101.205 120.756 98.0038 118.252 94.3757 115.749L94.0555 115.548L94.269 115.849C94.3757 116.149 108.675 144.388 127.882 144.989V135.075C127.562 135.075 127.242 135.075 126.922 135.075L126.068 134.975Z" fill="#222221"/>
<path d="M40.7011 115.148L40.5944 115.248L40.7011 115.348L40.8078 115.549L40.7011 115.148Z" fill="#8BBFFA"/>
<path d="M93.7354 115.148L93.6287 115.348L93.7354 115.448L93.9488 115.549L93.7354 115.148Z" fill="#8BBFFA"/>
<path d="M95.8695 72.1894L96.0829 71.7889L95.8695 71.6887V72.1894Z" fill="#8BBFFA"/>
<path d="M46.6766 72.1894L46.8901 71.7889L46.7834 71.6887L46.6766 72.1894Z" fill="#8BBFFA"/>
<path d="M77.9424 86.0082C76.0216 86.8093 74.1008 87.1097 72.1801 87.0096C68.3385 86.9094 64.0702 84.9067 59.9085 82.1029C55.7469 79.2991 51.692 75.8945 47.3169 72.2896C47.4236 72.4898 58.5213 91.2153 72.7136 91.2153H72.8203C81.0369 91.1152 88.8267 84.8066 95.7627 72.2896C91.4944 76.0947 87.7596 79.8999 83.8113 82.7037C81.8906 84.1056 79.9698 85.2071 77.9424 86.0082Z" fill="#9C9B9B"/>
<path opacity="0.5" d="M112.943 83.6049C110.275 82.1029 107.608 80.3004 104.94 78.3979C102.272 76.4953 99.4977 74.3924 96.6166 72.2896C96.7233 72.4898 109.955 94.5198 127.776 95.0205V88.5116C125.535 88.5116 123.294 88.1111 120.84 87.31C118.172 86.4088 115.611 85.107 112.943 83.6049Z" fill="#222221"/>
<path d="M96.4031 73.4913C96.2964 73.3911 96.2963 73.291 96.1896 73.1909C96.1896 73.1909 96.1896 73.291 96.0829 73.291C96.0829 73.3911 95.9762 73.3911 95.9762 73.4913C89.0401 85.6078 81.2504 91.8162 72.8204 91.9163H72.7137C59.6952 91.9163 49.5578 77.1963 47.1035 73.3911C46.9968 73.291 46.9968 73.1909 46.8901 73.0907C46.8901 73.1909 46.7834 73.291 46.7834 73.291C40.5943 83.2045 34.085 88.011 27.6825 87.7106C18.1854 87.2099 11.8896 75.6943 10.5024 72.9906C10.3957 72.6902 10.289 72.4899 10.1823 72.3898L10.8225 72.0894H10.9292C11.0359 72.1895 17.6519 86.4088 27.6825 86.9095C33.9783 87.2099 40.2742 82.2031 46.57 72.0894C43.1553 74.793 40.1675 77.5969 37.1796 79.7999C34.1918 82.0029 31.0972 83.605 28.4295 83.605C27.0423 83.605 25.7618 83.4048 24.2678 82.8039C22.7739 82.2031 21.28 81.3019 19.7861 80.2004C16.7982 77.9974 13.9171 75.0934 10.9292 72.1895H10.8225L10.1823 72.4899C10.1823 72.7903 10.289 73.0907 10.289 73.3911C10.6091 75.1936 11.1426 76.8959 11.7829 78.5982C12.6366 80.6009 13.7036 82.5035 15.1976 84.2058C16.5848 86.0083 18.3988 87.6105 20.6397 88.9122C22.8806 90.214 25.655 91.1153 28.6429 91.0151C30.1368 91.0151 31.524 90.7147 32.8045 90.3142C34.085 89.9136 35.3655 89.3128 36.4326 88.712C38.6735 87.4102 40.3809 85.7079 41.7681 84.0056C43.1553 82.3033 44.3291 80.5008 45.1828 78.5982C45.1828 78.5982 45.1828 78.4981 45.2895 78.4981C45.9297 76.996 46.57 75.5941 46.8901 73.992C47.5304 76.195 48.384 78.2978 49.4511 80.3005C50.8384 82.8039 52.439 85.1071 54.4665 87.3101C56.4939 89.5131 58.8415 91.5158 61.7227 93.118C64.6038 94.7201 67.9118 95.9218 71.6466 96.0219C73.4606 96.1221 75.3814 95.9218 77.0887 95.5212C78.9028 95.1207 80.5034 94.5199 81.9974 93.7188C83.4913 92.9177 84.8785 92.0165 86.159 91.0151C87.3328 90.0138 88.5066 88.9123 89.467 87.7106C91.3877 85.4075 92.8817 82.9041 94.0555 80.4007C94.8024 78.7985 95.336 77.1963 95.7628 75.494C95.8695 75.0935 95.9762 74.5928 96.0829 74.1922C96.7232 76.996 97.897 79.6997 99.1775 82.3033C100.778 85.4075 102.912 88.4116 105.367 91.2154C107.928 94.0192 110.915 96.5226 114.65 98.5253C118.278 100.528 122.76 101.93 127.455 102.13H127.562V95.6214C111.449 95.321 99.0708 77.5969 96.4031 73.4913Z" fill="#B1B1B0"/>
<path d="M96.1897 71.5886L96.083 71.7889L96.2964 71.9892L96.6166 72.1894L96.2964 71.7889L96.1897 71.5886Z" fill="#8BBFFA"/>
<path d="M46.9967 71.5886L46.89 71.7889L47.2101 72.0893L47.4236 72.1894L47.3169 72.0893L46.9967 71.5886Z" fill="#8BBFFA"/>
<path d="M254.332 116.249L254.119 116.149C254.012 116.45 253.799 116.75 253.692 117.051C253.692 119.354 253.585 121.757 253.372 124.06C253.479 123.76 253.585 123.559 253.585 123.259C254.332 120.956 254.546 118.653 254.332 116.249Z" fill="#8BBFFA"/>
<path d="M161.496 117.651C161.496 117.351 161.496 117.151 161.496 116.85C161.389 116.95 161.389 117.05 161.282 117.151C161.282 117.351 161.389 117.551 161.496 117.651Z" fill="#8BBFFA"/>
<path d="M161.389 115.248L161.282 115.649L161.496 115.448V115.348L161.389 115.248Z" fill="#8BBFFA"/>
<path d="M253.799 116.049L254.119 116.149L253.799 116.049Z" fill="#8BBFFA"/>
<path d="M214.423 115.148L214.316 115.448L214.53 115.348V115.248L214.423 115.148Z" fill="#8BBFFA"/>
<path d="M159.041 73.0907C159.041 73.1908 158.934 73.1908 159.041 73.0907C159.041 73.1908 159.041 73.1908 159.041 73.291C159.041 73.5914 159.148 73.8918 159.148 74.2923C159.148 74.0921 159.255 73.8918 159.255 73.6915C159.255 73.5914 159.255 73.4913 159.255 73.291C159.148 73.1908 159.148 73.1908 159.041 73.0907Z" fill="#8BBFFA"/>
<path d="M244.835 73.4912C244.835 73.1908 244.942 72.8904 244.942 72.59C244.835 72.7902 244.728 72.9905 244.622 73.0906C244.622 73.2909 244.728 73.3911 244.835 73.4912Z" fill="#8BBFFA"/>
<path d="M208.447 73.291C208.447 73.1908 208.341 73.1908 208.341 73.0907C208.341 73.1908 208.234 73.1908 208.234 73.291C208.341 73.3911 208.341 73.5914 208.447 73.6915C208.554 73.8918 208.661 74.0921 208.768 74.2923C208.661 73.9919 208.554 73.7917 208.554 73.4913C208.341 73.4913 208.341 73.3911 208.447 73.291Z" fill="#8BBFFA"/>
<path d="M244.195 72.2896V72.1895V72.2896L244.622 72.4899L244.195 72.2896Z" fill="#8BBFFA"/>
<path d="M158.935 71.6887L158.828 71.889L158.614 72.1894L158.828 72.0893L159.148 71.889L158.935 71.6887Z" fill="#8BBFFA"/>
<path d="M208.127 71.6887L207.914 72.0893L207.807 72.1894L207.914 72.0893L208.234 71.7889L208.127 71.6887Z" fill="#8BBFFA"/>
<path opacity="0.3" d="M109.848 371.196C112.943 372.798 116.464 373.7 120.199 373.7H123.507L116.144 365.889L109.848 371.196Z" fill="#222221"/>
<path opacity="0.3" d="M126.068 335.648H110.382L117.318 342.958L126.068 335.648Z" fill="#222221"/>
<path opacity="0.3" d="M106.007 355.174L100.138 360.081C101.525 364.086 104.3 367.591 107.928 369.994L114.757 364.387L106.007 355.174Z" fill="#222221"/>
<path d="M137.272 345.561L128.629 336.349L127.775 337.05V353.472L137.272 345.561Z" fill="white"/>
<path opacity="0.3" d="M127.562 353.672L127.776 353.472V337.05L118.812 344.46L127.562 353.672Z" fill="#222221"/>
<path opacity="0.3" d="M98.9641 347.865V353.873C98.9641 355.275 99.0708 356.576 99.3909 357.878L104.406 353.672L98.9641 347.865Z" fill="#222221"/>
<path opacity="0.3" d="M115.611 344.36L107.394 335.648H106.967L98.9641 342.257V344.66L106.22 352.17L115.611 344.36Z" fill="#222221"/>
<path opacity="0.3" d="M117.134 345.887L107.64 353.801L116.285 362.935L125.78 355.022L117.134 345.887Z" fill="#222221"/>
<path opacity="0.3" d="M98.9641 335.648V339.453L103.659 335.648H98.9641Z" fill="#222221"/>
<path d="M135.992 365.889L127.775 357.077V372.798L135.992 365.889Z" fill="white"/>
<path opacity="0.3" d="M127.775 357.077L127.349 356.676L117.852 364.587L126.602 373.7L127.775 372.798V357.077Z" fill="#222221"/>
<path d="M152.532 335.648L151.998 336.149L158.934 343.458V335.648H152.532Z" fill="white"/>
<path d="M148.797 335.948L148.477 335.648H130.977L138.98 344.159L148.797 335.948Z" fill="white"/>
<path d="M130.016 373.7H137.806C139.62 373.7 141.327 373.499 142.928 373.099L137.593 367.391L130.016 373.7Z" fill="white"/>
<path opacity="0.3" d="M138.766 347.147L129.033 355.26L137.75 364.468L147.482 356.355L138.766 347.147Z" fill="white"/>
<path d="M140.474 345.661L149.224 354.874L158.934 346.763V346.663L150.291 337.55L140.474 345.661Z" fill="white"/>
<path d="M156.694 362.785C158.188 360.081 158.934 357.077 158.934 353.873V349.567L150.718 356.476L156.694 362.785Z" fill="white"/>
<path d="M139.193 365.989L145.276 372.398C149.437 370.896 153.065 368.192 155.52 364.687L149.01 357.878L139.193 365.989Z" fill="white"/>
<path d="M105.367 335.648H103.659L98.9641 339.453V340.855V342.257L106.967 335.648H105.367Z" fill="white"/>
<path opacity="0.2" d="M152.532 335.648H151.465H150.825H149.971H149.117H148.37L148.691 335.948L138.873 344.159L130.87 335.648H129.483H129.376H127.882H127.776H127.669V337.15L128.523 336.449L137.166 345.661L127.562 353.672V357.277L135.885 366.089L127.562 372.999V374H128.096H129.803L137.379 367.691L142.715 373.399C143.142 373.299 143.568 373.199 143.889 373.099C144.315 372.999 144.636 372.798 145.062 372.698L138.98 366.29L148.797 358.178L155.306 364.988C155.52 364.687 155.733 364.387 155.947 364.087C156.16 363.786 156.374 363.386 156.48 363.085L150.505 356.777L158.721 349.867V348.465V347.063L149.011 355.174L140.261 345.962L150.078 337.751L158.721 346.863V345.261V343.659L151.785 336.349L152.532 335.648ZM147.517 356.276L137.699 364.387L128.949 355.174L138.767 347.063L147.517 356.276Z" fill="#222221"/>
<path d="M127.349 356.676L127.775 357.077V353.472L127.562 353.672L118.919 344.46L127.775 337.05V335.548H126.175L117.425 342.858L110.489 335.548H108.995H107.501L115.717 344.26L106.22 352.17L99.0707 344.56V346.162V347.764L104.513 353.572L99.4975 357.778C99.6042 358.179 99.7109 358.579 99.8176 358.98C99.9243 359.38 100.031 359.781 100.138 360.081L106.007 355.174L114.65 364.387L107.821 369.995C108.141 370.195 108.461 370.395 108.781 370.595C109.101 370.796 109.421 370.996 109.742 371.196L116.037 365.989L123.4 373.8H124.894H126.388L117.638 364.587L127.349 356.676ZM107.714 353.773L117.211 345.862L125.855 355.074L116.358 362.985L107.714 353.773Z" fill="white"/>
<path d="M126.602 373.699H127.776V372.798L126.602 373.699Z" fill="#CFC195"/>
<path opacity="0.4" d="M95.4426 273.363C95.4426 274.565 109.955 275.566 127.775 275.566V271.16C109.848 271.16 95.4426 272.161 95.4426 273.363Z" fill="#222221"/>
<path opacity="0.4" d="M160.002 273.363C160.002 272.161 145.489 271.16 127.669 271.16V275.566C145.596 275.566 160.002 274.565 160.002 273.363Z" fill="#222221"/>
<path d="M94.4823 333.245C94.3756 332.844 94.2689 332.644 94.2689 332.644L96.6165 331.843C96.6165 331.843 96.7232 332.043 96.8299 332.343L94.4823 333.245Z" fill="#FFFF9C"/>
<path d="M108.034 347.264C107.714 347.264 107.394 347.264 107.074 347.164L107.394 344.86C107.714 344.86 108.034 344.96 108.354 344.86L108.568 347.164C108.354 347.264 108.248 347.264 108.034 347.264ZM110.062 346.963L109.315 344.76C109.635 344.66 109.955 344.56 110.275 344.36L111.449 346.463C111.022 346.663 110.595 346.863 110.062 346.963ZM105.58 346.863C105.153 346.663 104.726 346.463 104.3 346.262L105.58 344.26C105.9 344.46 106.22 344.56 106.54 344.66L105.58 346.863ZM112.73 345.661L111.236 343.759C111.556 343.559 111.769 343.358 112.089 343.058L113.797 344.76C113.37 345.161 113.05 345.461 112.73 345.661ZM103.019 345.561C102.699 345.261 102.272 345.061 101.952 344.76L103.659 343.058C103.979 343.258 104.193 343.559 104.513 343.759L103.019 345.561ZM114.65 343.959L112.73 342.357C112.943 342.057 113.263 341.856 113.477 341.456L115.504 342.858C115.291 343.258 114.97 343.659 114.65 343.959ZM100.992 343.759C100.671 343.458 100.351 343.158 100.138 342.758L102.059 341.255C102.272 341.556 102.592 341.856 102.806 342.057L100.992 343.759ZM116.358 341.956L114.33 340.655C114.544 340.354 114.757 340.054 114.97 339.753L117.105 340.955C116.784 341.255 116.571 341.556 116.358 341.956ZM99.3909 341.856C99.1775 341.556 98.8574 341.155 98.644 340.855L100.778 339.553C100.992 339.854 101.205 340.154 101.418 340.454L99.3909 341.856ZM117.745 339.854L115.611 338.652C115.824 338.352 116.038 337.951 116.144 337.651L118.385 338.752C118.172 339.153 117.958 339.453 117.745 339.854ZM97.897 339.753C97.6836 339.353 97.4702 339.052 97.2567 338.652L99.4976 337.55C99.7111 337.851 99.9245 338.251 100.138 338.552L97.897 339.753ZM118.919 337.651L116.678 336.649C116.891 336.349 116.998 335.948 117.211 335.648L119.452 336.649C119.239 336.95 119.132 337.35 118.919 337.651ZM96.6165 337.651C96.4031 337.25 96.1897 336.95 96.083 336.549L98.3238 335.548C98.5373 335.848 98.644 336.249 98.8574 336.549L96.6165 337.651ZM119.986 335.448L117.638 334.546C117.745 334.246 117.958 333.845 118.172 333.445L120.519 334.346C120.306 334.747 120.199 335.147 119.986 335.448ZM95.5494 335.448C95.336 335.047 95.2293 334.646 95.0159 334.346L97.3635 333.445C97.4702 333.745 97.6836 334.146 97.897 334.546L95.5494 335.448Z" fill="#FFFF9C"/>
<path d="M120.946 333.245L119.879 332.844H118.705C118.705 332.644 118.705 332.544 118.705 332.443L118.598 332.343L121.373 325.534L121.266 332.243C121.266 332.243 121.266 332.443 121.266 332.844H121.159L120.946 333.245Z" fill="#FFFF9C"/>
<path d="M127.562 349.066L127.349 351.369C127.455 351.369 127.562 351.369 127.669 351.369C127.775 351.369 127.775 351.369 127.882 351.369C127.882 350.568 127.882 349.867 127.882 348.966L127.562 349.066Z" fill="#FFFF9C"/>
<path d="M128.842 351.369L128.522 349.066C128.309 349.066 128.202 349.066 127.989 349.066H127.775C127.775 349.967 127.775 350.668 127.775 351.469C127.882 351.469 127.882 351.469 127.989 351.469C128.309 351.469 128.522 351.469 128.842 351.369Z" fill="#DBD49A"/>
<path d="M125.535 351.069C125.108 350.869 124.574 350.668 124.147 350.368L125.641 348.465C125.855 348.666 126.175 348.766 126.388 348.866L125.535 351.069Z" fill="#FFFF9C"/>
<path d="M130.123 351.069L129.269 348.866C129.59 348.766 129.803 348.666 130.123 348.465L131.51 350.368C131.083 350.668 130.55 350.869 130.123 351.069Z" fill="#DBD49A"/>
<path d="M132.577 349.467L130.763 347.864C130.977 347.664 131.19 347.364 131.404 347.063L133.538 348.365C133.218 348.766 132.897 349.166 132.577 349.467Z" fill="#DBD49A"/>
<path d="M123.08 349.367C122.76 349.066 122.44 348.666 122.226 348.265L124.361 346.963C124.574 347.264 124.787 347.564 125.001 347.764L123.08 349.367Z" fill="#FFFF9C"/>
<path d="M134.178 347.264L131.937 346.162C132.15 345.862 132.257 345.561 132.364 345.161L134.711 346.062C134.605 346.462 134.391 346.863 134.178 347.264Z" fill="#DBD49A"/>
<path d="M121.48 347.163C121.266 346.763 121.053 346.362 120.946 345.962L123.294 345.061C123.4 345.361 123.614 345.762 123.72 346.062L121.48 347.163Z" fill="#FFFF9C"/>
<path d="M135.245 344.86L132.897 344.159C133.004 343.759 133.111 343.458 133.217 343.058L135.672 343.659C135.458 344.059 135.352 344.46 135.245 344.86Z" fill="#DBD49A"/>
<path d="M120.519 344.86C120.412 344.46 120.306 344.059 120.199 343.659L122.653 343.058C122.76 343.458 122.867 343.759 122.973 344.159L120.519 344.86Z" fill="#FFFF9C"/>
<path d="M135.885 342.457L133.431 341.956C133.538 341.556 133.538 341.256 133.644 340.855L136.099 341.256C135.992 341.656 135.992 342.057 135.885 342.457Z" fill="#DBD49A"/>
<path d="M119.772 342.457C119.665 342.057 119.559 341.656 119.559 341.256L122.013 340.855C122.12 341.256 122.12 341.556 122.226 341.956L119.772 342.457Z" fill="#FFFF9C"/>
<path d="M136.312 340.054L133.858 339.753C133.858 339.353 133.964 338.952 133.964 338.652L136.419 338.852C136.312 339.253 136.312 339.653 136.312 340.054Z" fill="#DBD49A"/>
<path d="M119.345 340.054C119.239 339.653 119.239 339.253 119.132 338.852L121.586 338.552C121.586 338.952 121.693 339.353 121.8 339.653L119.345 340.054Z" fill="#FFFF9C"/>
<path d="M119.025 337.65C119.025 337.25 118.919 336.849 118.919 336.449L121.373 336.249C121.373 336.649 121.48 337.05 121.48 337.35L119.025 337.65Z" fill="#FFFF9C"/>
<path d="M136.526 337.651L134.071 337.55C134.071 337.15 134.071 336.749 134.178 336.449L136.632 336.549C136.526 336.85 136.526 337.25 136.526 337.651Z" fill="#DBD49A"/>
<path d="M118.812 335.247C118.812 334.847 118.812 334.446 118.812 334.046L121.266 333.946C121.266 334.246 121.266 334.647 121.266 335.147L118.812 335.247Z" fill="#FFFF9C"/>
<path d="M136.632 335.247L134.071 335.147V334.747V334.046H136.526L136.632 334.747V335.247Z" fill="#DBD49A"/>
<path d="M134.498 333.345C134.391 333.144 134.285 332.944 134.285 332.844H134.178C134.178 332.544 134.178 332.343 134.178 332.343L133.751 326.635L136.526 331.742C136.526 331.742 136.632 331.943 136.846 332.243L136.739 332.343C136.739 332.443 136.739 332.644 136.739 332.844H135.672L134.498 333.345Z" fill="#DBD49A"/>
<path d="M149.224 345.962C148.797 345.962 148.264 345.862 147.837 345.761L148.477 343.458C148.797 343.558 149.117 343.558 149.437 343.558L149.224 345.962ZM150.718 345.962L150.398 343.659C150.718 343.659 151.038 343.558 151.358 343.458L152.105 345.661C151.572 345.761 151.145 345.862 150.718 345.962ZM146.45 345.361C146.023 345.161 145.596 345.06 145.169 344.86L146.343 342.757C146.663 342.958 146.983 343.058 147.303 343.158L146.45 345.361ZM153.386 345.06L152.212 342.958C152.532 342.857 152.745 342.657 153.066 342.457L154.559 344.36C154.239 344.66 153.813 344.86 153.386 345.06ZM144.102 344.159C143.782 343.959 143.355 343.659 143.035 343.458L144.636 341.656C144.956 341.856 145.276 342.056 145.489 342.257L144.102 344.159ZM155.627 343.558L153.919 341.856C154.133 341.656 154.453 341.355 154.666 341.155L156.587 342.657C156.267 342.958 155.947 343.258 155.627 343.558ZM142.075 342.657C141.754 342.357 141.434 342.157 141.114 341.856L142.928 340.154C143.248 340.454 143.462 340.654 143.782 340.855L142.075 342.657ZM157.334 341.656L155.306 340.254C155.52 339.954 155.733 339.653 155.947 339.353L158.081 340.655C157.867 341.055 157.654 341.355 157.334 341.656ZM140.261 340.955C139.94 340.654 139.727 340.354 139.407 340.054L141.328 338.552C141.541 338.852 141.861 339.152 142.075 339.353L140.261 340.955ZM158.721 339.653L156.587 338.451C156.8 338.151 156.907 337.851 157.121 337.45L159.361 338.552C159.148 338.952 158.935 339.353 158.721 339.653ZM138.553 339.152C138.34 338.852 138.02 338.552 137.806 338.251L139.834 336.849C140.047 337.15 140.26 337.45 140.581 337.751L138.553 339.152ZM159.895 337.55L157.654 336.549C157.867 336.249 157.974 335.848 158.188 335.548L160.535 336.449C160.215 336.849 160.108 337.25 159.895 337.55ZM137.059 337.25C136.846 336.949 136.526 336.549 136.312 336.249L138.446 334.947C138.66 335.247 138.873 335.548 139.087 335.848L137.059 337.25ZM160.962 335.347L158.614 334.446C158.721 334.146 158.935 333.745 159.041 333.445L161.389 334.246C161.175 334.646 161.069 335.047 160.962 335.347ZM135.672 335.347C135.459 334.947 135.245 334.646 135.032 334.346L137.166 333.144C137.379 333.445 137.593 333.745 137.806 334.046L135.672 335.347Z" fill="#DBD49A"/>
<path d="M161.816 333.145L159.468 332.444L159.575 331.843L162.029 332.644L161.816 333.145Z" fill="#DBD49A"/>
<path opacity="0.4" d="M94.1621 318.024V334.146C94.1621 334.947 94.9091 335.648 95.7627 335.648H99.0707H103.659H105.367H107.074H107.501H108.995H110.489H126.175H127.775V335.448V334.246V333.845V332.243V323.932V316.522H95.7627C94.9091 316.522 94.1621 317.223 94.1621 318.024Z" fill="#222221"/>
<path d="M127.882 335.548L127.775 335.648H127.882V335.548Z" fill="#D1BEA0"/>
<path d="M162.242 316.522H127.775V323.932V332.243V333.845V334.246V335.448V335.648H127.882L127.989 335.548V335.648H129.483H129.589H130.977H148.477H149.224H150.078H150.931H151.571H152.639H159.041H162.349C163.203 335.648 163.95 334.947 163.95 334.146V318.024C163.736 317.223 163.096 316.522 162.242 316.522Z" fill="#222221"/>
</g>
<path opacity="0.2" d="M90.0919 82.9053C92.4394 82.1042 94.5736 80.3017 96.3877 78.8998C98.5218 76.9972 100.336 73.7929 103.644 74.7942C107.059 75.7956 109.833 79.9012 113.354 81.3031C121.358 84.5074 122.531 64.8807 115.702 64.8807C110.26 64.7806 107.592 70.8889 103.004 71.8903C99.0554 72.6914 95.2139 67.985 91.7992 66.8835C84.7564 64.5803 83.0491 68.3855 83.3692 74.1934C83.5826 77.8984 83.0491 83.7064 88.2778 83.3058C88.7046 83.2057 89.4516 83.1055 90.0919 82.9053Z" fill="#222221"/>
<path opacity="0.2" d="M103.11 73.6927C100.123 75.9958 98.9487 80.4018 97.9883 83.9066C96.4944 89.4141 94.1468 92.5183 91.0522 97.2247C93.5066 96.5238 94.1468 95.0217 94.6804 97.9257C95.0005 100.329 94.3602 103.233 95.1072 105.336C98.4152 99.8283 100.123 94.4209 100.869 88.3126C101.296 84.5074 101.19 74.9945 105.245 72.8916" fill="#222221"/>
<path opacity="0.2" d="M100.443 75.295C102.897 76.797 104.071 80.0014 105.138 82.6049C106.739 86.6103 108.659 88.8134 111.327 92.0177C109.406 91.6172 108.766 90.6158 108.659 92.8188C108.553 94.6213 109.3 96.7241 108.873 98.4264C105.992 94.5211 104.284 90.7159 103.217 86.1097C102.577 83.3059 101.937 76.2963 98.7355 74.8944L100.443 75.295Z" fill="#222221"/>
<path d="M105.885 73.893C105.885 76.096 103.964 77.8985 101.617 77.8985C99.269 77.8985 97.3483 76.096 97.3483 73.893C97.3483 71.69 99.269 69.8876 101.617 69.8876C103.964 69.8876 105.885 71.69 105.885 73.893Z" fill="white"/>
<path opacity="0.2" d="M46.3413 75.2949C47.6218 74.8944 48.6889 73.9931 49.6493 73.1921C50.8231 72.1907 51.6767 70.4884 53.4908 71.0892C55.3048 71.5899 56.692 73.7929 58.6128 74.4938C62.7744 76.1961 63.4147 65.8821 59.7866 65.782C56.9055 65.782 55.5182 68.9863 53.0639 69.487C51.0365 69.8876 49.009 67.3842 47.1949 66.8835C43.4601 65.6818 42.6065 67.6846 42.7132 70.6887C42.8199 72.6914 42.6065 75.6955 45.2742 75.4952C45.5943 75.4952 46.0211 75.3951 46.3413 75.2949Z" fill="#222221"/>
<path opacity="0.2" d="M53.1705 70.4883C51.5698 71.69 50.9296 73.9931 50.3961 75.8957C49.5424 78.7996 48.3686 80.4018 46.7679 82.9052C48.0485 82.5047 48.4753 81.7036 48.6887 83.3058C48.9021 84.5074 48.4753 86.1096 48.9021 87.2111C50.6095 84.3071 51.5699 81.5033 51.9967 78.1988C52.2101 76.1961 52.2101 71.1893 54.3443 70.0878" fill="#222221"/>
<path opacity="0.2" d="M51.7832 71.2894C53.0637 72.0905 53.704 73.7928 54.2375 75.0946C55.0912 77.1975 56.0516 78.299 57.5455 80.1014C56.5851 79.9011 56.265 79.3003 56.1583 80.502C56.1583 81.4032 56.4784 82.6048 56.265 83.4059C54.7711 81.303 53.8107 79.3003 53.2772 76.897C52.957 75.395 52.6369 71.69 50.9296 70.989L51.7832 71.2894Z" fill="#222221"/>
<path d="M54.6645 70.5884C54.6645 71.7901 53.5974 72.6913 52.4236 72.6913C51.1431 72.6913 50.1827 71.6899 50.1827 70.5884C50.1827 69.3868 51.2498 68.4856 52.4236 68.4856C53.5974 68.4856 54.6645 69.3868 54.6645 70.5884Z" fill="white"/>
<path opacity="0.2" d="M10.2736 76.0961C11.5542 75.6955 12.6213 74.7943 13.5816 73.9932C14.7554 72.9919 15.6091 71.2895 17.4231 71.8904C19.2372 72.391 20.6244 74.594 22.5452 75.295C26.7068 76.9973 27.3471 66.6833 23.719 66.5831C20.8378 66.5831 19.4506 69.7875 16.9963 70.2882C14.9688 70.6887 12.9414 68.1853 11.1273 67.5845C7.39251 66.3829 6.53884 68.3856 6.64555 71.3897C6.75226 73.3924 6.53884 76.3965 9.20656 76.1962C9.52668 76.2964 9.84681 76.1962 10.2736 76.0961Z" fill="#222221"/>
<path opacity="0.2" d="M17.1032 71.2896C15.5026 72.4912 14.8623 74.7944 14.3288 76.6969C13.4751 79.6009 12.3013 81.2031 10.7007 83.7065C11.9812 83.3059 12.408 82.5048 12.6214 84.107C12.8348 85.3087 12.408 86.9108 12.8349 88.0123C14.5422 85.1084 15.5026 82.3046 15.8227 79.0001C16.0361 76.9974 16.0361 71.9905 18.1703 70.889" fill="#222221"/>
<path opacity="0.2" d="M15.7157 72.0907C16.9962 72.8918 17.6365 74.5941 18.17 75.8959C19.0237 77.9987 19.9841 79.1002 21.478 80.9027C20.5176 80.7024 20.1975 80.1016 20.0908 81.3032C20.0908 82.2045 20.4109 83.3059 20.1975 84.2072C18.7036 82.1043 17.7432 80.1016 17.2097 77.6983C16.8895 76.1963 16.5694 72.4912 14.8621 71.7903L15.7157 72.0907Z" fill="#222221"/>
<path d="M18.597 71.3898C18.597 72.5915 17.5299 73.4927 16.3561 73.4927C15.0756 73.4927 14.1152 72.4913 14.1152 71.3898C14.1152 70.1882 15.1823 69.287 16.3561 69.287C17.5299 69.287 18.597 70.1882 18.597 71.3898Z" fill="white"/>
<path d="M9.95355 116.151C9.95355 117.953 8.35293 119.455 6.43216 119.455C4.5114 119.455 2.91077 117.953 2.91077 116.151C2.91077 114.348 4.5114 112.846 6.43216 112.846C8.35293 112.846 9.95355 114.348 9.95355 116.151Z" fill="white"/>
<path d="M102.577 115.049C102.577 116.852 100.976 118.354 99.0554 118.354C97.1347 118.354 95.5341 116.852 95.5341 115.049C95.5341 113.247 97.1347 111.745 99.0554 111.745C101.083 111.845 102.577 113.247 102.577 115.049Z" fill="white"/>
<path d="M224.118 114.148C224.118 115.95 222.518 117.452 220.597 117.452C218.676 117.452 217.076 115.95 217.076 114.148C217.076 112.345 218.676 110.843 220.597 110.843C222.518 110.944 224.118 112.345 224.118 114.148Z" fill="white"/>
<path d="M45.7008 118.354C47.6456 118.354 49.2222 116.874 49.2222 115.049C49.2222 113.224 47.6456 111.745 45.7008 111.745C43.756 111.745 42.1794 113.224 42.1794 115.049C42.1794 116.874 43.756 118.354 45.7008 118.354Z" fill="white"/>
<path d="M170.23 115.75C170.23 117.553 168.63 119.055 166.709 119.055C164.788 119.055 163.188 117.553 163.188 115.75C163.188 113.948 164.788 112.446 166.709 112.446C168.736 112.446 170.23 113.948 170.23 115.75Z" fill="white"/>
<path d="M262 115.55C262 117.352 260.399 118.854 258.479 118.854C256.558 118.854 254.957 117.352 254.957 115.55C254.957 113.747 256.558 112.245 258.479 112.245C260.506 112.245 262 113.747 262 115.55Z" fill="white"/>
<path opacity="0.2" d="M174.925 81.9039C172.578 81.1028 170.444 79.3004 168.629 77.8985C166.495 75.9959 164.681 72.7915 161.373 73.7929C157.959 74.7943 155.184 78.8998 151.663 80.3017C143.66 83.5061 142.486 63.8794 149.315 63.8794C154.757 63.7793 157.425 69.8876 162.014 70.8889C165.962 71.69 169.803 66.9836 173.218 65.8821C180.261 63.579 181.968 67.3842 181.648 73.1921C181.435 76.8971 181.968 82.705 176.739 82.3045C176.206 82.3045 175.566 82.2043 174.925 81.9039Z" fill="#222221"/>
<path opacity="0.2" d="M161.907 72.6914C164.895 74.9945 166.069 79.4005 167.029 82.9052C168.523 88.4127 170.87 91.517 173.965 96.2234C171.511 95.5224 170.87 94.0204 170.337 96.9243C170.017 99.3276 170.657 102.232 169.91 104.334C166.602 98.8269 164.895 93.4196 164.148 87.3112C163.721 83.5061 163.828 73.9931 159.773 71.8903" fill="#222221"/>
<path opacity="0.2" d="M164.575 74.3937C162.12 75.8957 160.947 79.1001 159.879 81.7037C158.279 85.7091 156.358 87.9121 153.69 91.1165C155.611 90.7159 156.251 89.7145 156.358 91.9175C156.465 93.72 155.718 95.8229 156.145 97.5252C159.026 93.6199 160.733 89.8147 161.8 85.2084C162.44 82.4046 163.081 75.3951 166.282 73.9932L164.575 74.3937Z" fill="#222221"/>
<path d="M159.133 72.9918C159.133 75.1948 161.053 76.9972 163.401 76.9972C165.749 76.9972 167.669 75.1948 167.669 72.9918C167.669 70.7888 165.749 68.9863 163.401 68.9863C161.053 68.8862 159.133 70.7888 159.133 72.9918Z" fill="white"/>
<path opacity="0.2" d="M218.676 74.3937C217.396 73.9931 216.329 73.0919 215.368 72.2908C214.194 71.2895 213.341 69.5871 211.527 70.188C209.713 70.6886 208.325 72.8916 206.405 73.5926C202.243 75.2949 201.603 64.9809 205.231 64.8807C208.112 64.8807 209.499 68.0851 211.954 68.5858C213.981 68.9863 216.009 66.4829 217.823 65.8821C221.557 64.6805 222.411 66.6832 222.304 69.6873C222.198 71.69 222.411 74.6941 219.743 74.4938C219.316 74.4938 218.996 74.4938 218.676 74.3937Z" fill="#222221"/>
<path opacity="0.2" d="M211.847 69.487C213.448 70.6886 214.088 72.9917 214.621 74.8943C215.475 77.7983 216.649 79.4005 218.249 81.9039C216.969 81.5033 216.542 80.7022 216.329 82.3044C216.115 83.5061 216.542 85.1082 216.115 86.2097C214.408 83.3058 213.447 80.502 213.127 77.1975C212.914 75.1947 212.914 70.1879 210.78 69.0864" fill="#222221"/>
<path opacity="0.2" d="M213.234 70.3882C211.953 71.1893 211.313 72.8916 210.78 74.1934C209.926 76.2962 208.966 77.3977 207.472 79.2002C208.432 78.9999 208.752 78.3991 208.859 79.6007C208.859 80.5019 208.539 81.7036 208.752 82.5047C210.246 80.4018 211.206 78.3991 211.74 75.9958C212.06 74.4938 212.38 70.7887 214.088 70.0878L213.234 70.3882Z" fill="#222221"/>
<path d="M210.353 69.5871C210.353 70.7887 211.42 71.69 212.594 71.69C213.874 71.69 214.835 70.6886 214.835 69.5871C214.835 68.3855 213.768 67.4843 212.594 67.4843C211.313 67.4843 210.353 68.4856 210.353 69.5871Z" fill="white"/>
<path opacity="0.2" d="M254.744 75.1948C253.463 74.7943 252.396 73.8931 251.436 73.092C250.262 72.0906 249.408 70.3883 247.594 70.9891C245.78 71.4898 244.393 73.6928 242.472 74.3937C238.311 76.0961 237.67 65.782 241.299 65.6819C244.18 65.6819 245.567 68.8862 248.021 69.3869C250.049 69.7875 252.076 67.2841 253.89 66.7834C257.625 65.5818 258.479 67.5845 258.372 70.5886C258.265 72.5913 258.479 75.5954 255.811 75.3951C255.491 75.3951 255.064 75.295 254.744 75.1948Z" fill="#222221"/>
<path opacity="0.2" d="M247.914 70.2881C249.515 71.4898 250.155 73.7929 250.689 75.6955C251.543 78.5994 252.716 80.2016 254.317 82.705C253.036 82.3045 252.61 81.5034 252.396 83.1056C252.183 84.3072 252.61 85.9094 252.183 87.0109C250.475 84.1069 249.515 81.3031 249.195 77.9986C248.982 75.9959 248.982 70.9891 246.847 69.8876" fill="#222221"/>
<path opacity="0.2" d="M249.302 71.1893C248.021 71.9904 247.381 73.6927 246.847 74.9945C245.994 77.0974 245.033 78.1989 243.539 80.0013C244.5 79.801 244.82 79.2002 244.927 80.4019C244.927 81.3031 244.606 82.4046 244.82 83.3058C246.314 81.203 247.274 79.2002 247.808 76.797C248.128 75.2949 248.448 71.5899 250.155 70.8889L249.302 71.1893Z" fill="#222221"/>
<path d="M248.661 72.5912C249.899 72.5912 250.902 71.6497 250.902 70.4884C250.902 69.327 249.899 68.3855 248.661 68.3855C247.424 68.3855 246.42 69.327 246.42 70.4884C246.42 71.6497 247.424 72.5912 248.661 72.5912Z" fill="white"/>
<path d="M105.992 272.263V315.522" stroke="#808080" stroke-miterlimit="10"/>
<path d="M115.809 272.263V315.522" stroke="#808080" stroke-miterlimit="10"/>
<path d="M125.839 272.263V315.522" stroke="#808080" stroke-miterlimit="10"/>
<path d="M141.419 272.263V315.522" stroke="#808080" stroke-miterlimit="10"/>
<path d="M151.556 272.263V315.522" stroke="#808080" stroke-miterlimit="10"/>
</svg>
