<svg width="259" height="207" viewBox="0 0 259 207" fill="none" xmlns="http://www.w3.org/2000/svg">
<path d="M89.2487 80.3033L90.2781 79.2774V77.8241V77.781V76.0876L88.9502 75.0366C81.4117 69.0701 72.1588 65.5357 62.125 65.5357H49.875C23.8688 65.5357 3.5 89.086 3.5 117.286C3.5 136.918 13.3221 154.136 28 162.921V172.429C28 181.587 34.6641 189.714 43.75 189.714H68.25C77.3359 189.714 84 181.587 84 172.429V163.166V162.038L83.341 161.122C76.1181 151.084 71.75 138.23 71.75 124.179C71.75 106.64 78.5598 90.9551 89.2487 80.3033ZM175.659 161.122L175 162.038V163.166V172.429C175 181.587 181.664 189.714 190.75 189.714H215.25C224.336 189.714 231 181.587 231 172.429V162.921C245.678 154.136 255.5 136.918 255.5 117.286C255.5 89.086 235.131 65.5357 209.125 65.5357H196.875C186.841 65.5357 177.588 69.0701 170.05 75.0366L166.968 77.4758L169.747 80.2555C180.441 90.9533 187.25 106.641 187.25 124.179C187.25 138.23 182.882 151.084 175.659 161.122ZM56 58.75C70.1391 58.75 80.9375 45.9698 80.9375 31.125C80.9375 16.2802 70.1391 3.5 56 3.5C41.8609 3.5 31.0625 16.2802 31.0625 31.125C31.0625 45.9698 41.8609 58.75 56 58.75ZM203 58.75C217.139 58.75 227.938 45.9698 227.938 31.125C227.938 16.2802 217.139 3.5 203 3.5C188.861 3.5 178.062 16.2802 178.062 31.125C178.062 45.9698 188.861 58.75 203 58.75ZM101.5 34.5714C101.5 51.3117 113.677 65.6429 129.5 65.6429C145.323 65.6429 157.5 51.3117 157.5 34.5714C157.5 17.8311 145.323 3.5 129.5 3.5C113.677 3.5 101.5 17.8311 101.5 34.5714ZM157.5 169.814C172.178 161.029 182 143.811 182 124.179C182 95.9789 161.631 72.4286 135.625 72.4286H123.375C97.3688 72.4286 77 95.9789 77 124.179C77 143.811 86.8221 161.029 101.5 169.814V186.214C101.5 195.372 108.164 203.5 117.25 203.5H141.75C150.836 203.5 157.5 195.372 157.5 186.214V169.814Z" stroke="black" stroke-opacity="0.4" stroke-width="7"/>
</svg>
