<svg width="571" height="234" viewBox="0 0 571 234" fill="none" xmlns="http://www.w3.org/2000/svg">
<path d="M179.67 65.9056C181.057 65.9056 182.406 66.0049 183.736 66.2036C184.665 66.3799 185.617 66.3561 186.537 66.1335C187.457 65.911 188.325 65.4942 189.09 64.9082C189.855 64.3221 190.5 63.5788 190.988 62.7225C191.476 61.8662 191.796 60.9144 191.929 59.924C192.063 58.9337 192.007 57.9249 191.765 56.958C191.522 55.9911 191.099 55.0859 190.52 54.2962C189.94 53.5066 189.217 52.8488 188.393 52.362C187.568 51.8753 186.66 51.5696 185.722 51.4631C176.405 50.0348 166.905 51.9319 158.716 56.8559C150.527 61.7799 144.115 69.4513 140.489 78.6627C136.862 87.8741 136.227 98.1026 138.684 107.738C141.141 117.374 146.549 125.871 154.059 131.89C143.02 137.131 133.647 145.647 127.072 156.411C120.496 167.174 116.998 179.726 117 192.55C117 194.526 117.74 196.421 119.058 197.818C120.375 199.215 122.162 200 124.026 200C125.889 200 127.676 199.215 128.994 197.818C130.311 196.421 131.052 194.526 131.052 192.55C131.053 181.467 134.421 170.678 140.657 161.783C146.893 152.888 155.666 146.359 165.675 143.164L170.677 141.575V124.927L166.836 122.851C161.143 119.793 156.588 114.79 153.906 108.649C151.224 102.509 150.572 95.5889 152.056 89.0071C153.539 82.4254 157.071 76.5657 162.081 72.3742C167.092 68.1826 173.288 65.9038 179.67 65.9056Z" fill="black" fill-opacity="0.4"/>
<path d="M504.107 73.9437C502.633 73.9437 501.199 74.0433 499.785 74.2425C498.798 74.4192 497.785 74.3954 496.807 74.1722C495.829 73.9491 494.906 73.5313 494.094 72.9438C493.281 72.3562 492.595 71.611 492.076 70.7525C491.557 69.894 491.217 68.9398 491.075 67.9469C490.933 66.954 490.993 65.9427 491.25 64.9733C491.508 64.0039 491.958 63.0963 492.574 62.3047C493.19 61.513 493.959 60.8535 494.835 60.3655C495.711 59.8775 496.677 59.571 497.674 59.4643C507.578 58.0323 517.678 59.9343 526.383 64.8709C535.087 69.8075 541.904 77.4985 545.759 86.7335C549.614 95.9684 550.289 106.223 547.677 115.884C545.066 125.544 539.316 134.062 531.333 140.097C543.068 145.351 553.032 153.889 560.022 164.68C567.012 175.472 570.731 188.055 570.728 200.912C570.728 202.893 569.941 204.793 568.541 206.194C567.14 207.594 565.24 208.381 563.26 208.381C561.279 208.381 559.379 207.594 557.978 206.194C556.578 204.793 555.791 202.893 555.791 200.912C555.79 189.8 552.209 178.984 545.58 170.066C538.951 161.148 529.625 154.603 518.985 151.4L513.667 149.806V133.116L517.75 131.035C523.802 127.969 528.645 122.953 531.496 116.797C534.346 110.64 535.039 103.703 533.463 97.1044C531.886 90.5058 528.131 84.6311 522.805 80.4288C517.479 76.2266 510.891 73.9419 504.107 73.9437Z" fill="black" fill-opacity="0.4"/>
<path d="M325.107 14.9437C323.633 14.9437 322.199 15.0433 320.785 15.2425C319.798 15.4192 318.785 15.3954 317.807 15.1722C316.829 14.9491 315.906 14.5313 315.094 13.9438C314.281 13.3562 313.595 12.611 313.076 11.7525C312.557 10.894 312.217 9.93979 312.075 8.94688C311.933 7.95397 311.993 6.94267 312.25 5.97329C312.508 5.00391 312.958 4.09633 313.574 3.30468C314.19 2.51303 314.959 1.85353 315.835 1.36553C316.711 0.877531 317.677 0.571024 318.674 0.464295C328.578 -0.967677 338.678 0.934303 347.383 5.87091C356.087 10.8075 362.904 18.4985 366.759 27.7335C370.614 36.9684 371.289 47.2231 368.677 56.8836C366.066 66.5441 360.316 75.0621 352.333 81.0969C364.068 86.3514 374.032 94.8892 381.022 105.68C388.012 116.472 391.731 129.055 391.728 141.912C391.728 143.893 390.941 145.793 389.541 147.194C388.14 148.594 386.24 149.381 384.26 149.381C382.279 149.381 380.379 148.594 378.978 147.194C377.578 145.793 376.791 143.893 376.791 141.912C376.79 130.8 373.209 119.984 366.58 111.066C359.951 102.148 350.625 95.6029 339.985 92.3996L334.667 90.8063V74.1161L338.75 72.0348C344.802 68.9691 349.645 63.9532 352.496 57.7968C355.346 51.6405 356.039 44.703 354.463 38.1044C352.886 31.5058 349.131 25.6311 343.805 21.4288C338.479 17.2266 331.891 14.9419 325.107 14.9437Z" fill="black" fill-opacity="0.4"/>
<path fill-rule="evenodd" clip-rule="evenodd" d="M188.815 93.7594C188.817 84.3181 191.259 75.0375 195.905 66.8184C200.551 58.5994 207.243 51.7208 215.331 46.8503C223.419 41.9799 232.629 39.2829 242.067 39.0211C251.504 38.7593 260.849 40.9415 269.195 45.3561C277.541 49.7707 284.604 56.2677 289.698 64.2166C294.793 72.1655 297.746 81.2963 298.271 90.7231C298.797 100.15 296.876 109.552 292.697 118.018C288.517 126.484 282.22 133.725 274.416 139.04C291.221 145.204 305.797 156.255 316.268 170.772C326.739 185.289 332.625 202.608 333.171 220.499C333.2 221.48 333.036 222.457 332.688 223.374C332.34 224.292 331.814 225.132 331.141 225.846C329.783 227.289 327.907 228.133 325.926 228.192C323.945 228.251 322.022 227.521 320.579 226.163C319.136 224.804 318.292 222.928 318.233 220.947C317.64 201.543 309.515 183.132 295.58 169.616C281.644 156.1 262.994 148.541 243.58 148.541C224.167 148.541 205.517 156.1 191.581 169.616C177.646 183.132 169.521 201.543 168.928 220.947C168.828 222.897 167.969 224.731 166.533 226.055C165.098 227.379 163.201 228.089 161.25 228.031C159.298 227.974 157.446 227.155 156.091 225.749C154.736 224.343 153.985 222.462 154 220.509C154.543 202.616 160.429 185.296 170.9 170.776C181.371 156.257 195.948 145.204 212.754 139.04C205.372 134.019 199.331 127.267 195.158 119.374C190.985 111.481 188.808 102.687 188.815 93.7594V93.7594ZM243.585 53.9261C233.021 53.9261 222.889 58.1228 215.419 65.593C207.949 73.0632 203.752 83.195 203.752 93.7594C203.752 104.324 207.949 114.456 215.419 121.926C222.889 129.396 233.021 133.593 243.585 133.593C254.15 133.593 264.282 129.396 271.752 121.926C279.222 114.456 283.419 104.324 283.419 93.7594C283.419 83.195 279.222 73.0632 271.752 65.593C264.282 58.1228 254.15 53.9261 243.585 53.9261Z" fill="black" fill-opacity="0.4"/>
<path fill-rule="evenodd" clip-rule="evenodd" d="M386.815 93.7594C386.817 84.3181 389.259 75.0375 393.905 66.8184C398.551 58.5994 405.243 51.7208 413.331 46.8503C421.419 41.9799 430.629 39.2829 440.067 39.0211C449.504 38.7593 458.849 40.9415 467.195 45.3561C475.541 49.7707 482.604 56.2677 487.698 64.2166C492.793 72.1655 495.746 81.2963 496.271 90.7231C496.797 100.15 494.876 109.552 490.697 118.018C486.517 126.484 480.22 133.725 472.416 139.04C489.221 145.204 503.797 156.255 514.268 170.772C524.739 185.289 530.625 202.608 531.171 220.499C531.2 221.48 531.036 222.457 530.688 223.374C530.34 224.292 529.814 225.132 529.141 225.846C527.783 227.289 525.907 228.133 523.926 228.192C521.945 228.251 520.022 227.521 518.579 226.163C517.136 224.804 516.292 222.928 516.233 220.947C515.64 201.543 507.515 183.132 493.58 169.616C479.644 156.1 460.994 148.541 441.58 148.541C422.167 148.541 403.517 156.1 389.581 169.616C375.646 183.132 367.521 201.543 366.928 220.947C366.828 222.897 365.969 224.731 364.533 226.055C363.098 227.379 361.201 228.089 359.25 228.031C357.298 227.974 355.446 227.155 354.091 225.749C352.736 224.343 351.985 222.462 352 220.509C352.543 202.616 358.429 185.296 368.9 170.776C379.371 156.257 393.948 145.204 410.754 139.04C403.372 134.019 397.331 127.267 393.158 119.374C388.985 111.481 386.808 102.687 386.815 93.7594V93.7594ZM441.585 53.9261C431.021 53.9261 420.889 58.1228 413.419 65.593C405.949 73.0632 401.752 83.195 401.752 93.7594C401.752 104.324 405.949 114.456 413.419 121.926C420.889 129.396 431.021 133.593 441.585 133.593C452.15 133.593 462.282 129.396 469.752 121.926C477.222 114.456 481.419 104.324 481.419 93.7594C481.419 83.195 477.222 73.0632 469.752 65.593C462.282 58.1228 452.15 53.9261 441.585 53.9261Z" fill="black" fill-opacity="0.4"/>
<path fill-rule="evenodd" clip-rule="evenodd" d="M20.5964 152.995C20.5976 147.306 22.0426 141.714 24.7912 136.762C27.5398 131.81 31.4987 127.665 36.2837 124.73C41.0686 121.796 46.5172 120.17 52.1006 120.013C57.684 119.855 63.2126 121.17 68.1499 123.83C73.0873 126.49 77.2656 130.405 80.2796 135.194C83.2935 139.984 85.0407 145.486 85.3515 151.166C85.6623 156.846 84.5262 162.511 82.0535 167.612C79.5808 172.714 75.8554 177.077 71.2388 180.279C81.1806 183.993 89.8036 190.652 95.9982 199.4C102.193 208.147 105.675 218.582 105.998 229.363C106.015 229.954 105.918 230.542 105.712 231.095C105.506 231.648 105.196 232.154 104.798 232.584C103.994 233.454 102.884 233.962 101.712 233.998C100.54 234.034 99.4023 233.594 98.5488 232.775C97.6953 231.957 97.1961 230.826 97.1609 229.633C96.8101 217.941 92.0033 206.847 83.759 198.703C75.5148 190.559 64.4811 186.004 52.9961 186.004C41.5111 186.004 30.4774 190.559 22.2332 198.703C13.989 206.847 9.18215 217.941 8.83132 229.633C8.77234 230.808 8.26385 231.913 7.41479 232.71C6.56573 233.508 5.44364 233.936 4.2889 233.901C3.13416 233.867 2.03862 233.373 1.23697 232.526C0.435327 231.679 -0.00865978 230.545 0.000128007 229.369C0.321511 218.587 3.80365 208.151 9.99832 199.402C16.193 190.654 24.8167 183.994 34.7593 180.279C30.3921 177.254 26.8182 173.185 24.3495 168.43C21.8808 163.674 20.5923 158.375 20.5964 152.995V152.995ZM52.9991 128.994C46.7491 128.994 40.7551 131.522 36.3357 136.024C31.9163 140.525 29.4335 146.63 29.4335 152.995C29.4335 159.361 31.9163 165.466 36.3357 169.967C40.7551 174.468 46.7491 176.997 52.9991 176.997C59.249 176.997 65.243 174.468 69.6624 169.967C74.0818 165.466 76.5646 159.361 76.5646 152.995C76.5646 146.63 74.0818 140.525 69.6624 136.024C65.243 131.522 59.249 128.994 52.9991 128.994Z" fill="black" fill-opacity="0.4"/>
</svg>
