<svg width="201" height="187" viewBox="0 0 201 187" fill="none" xmlns="http://www.w3.org/2000/svg">
<path d="M6.1474 49.1198C6.57561 49.5281 6.99913 49.9473 7.41174 50.3749C9.14579 52.1717 10.5016 53.9263 11.2662 55.4633M6.1474 49.1198L11.2662 55.4633M6.1474 49.1198C4.74827 54.4692 4 60.1097 4 65.9394C4 111.488 35.0033 134.463 61.9489 154.132M6.1474 49.1198L100.362 183H100.36H100.358H100.356H100.354H100.352H100.35H100.348H100.347H100.345H100.343H100.341H100.339H100.337H100.335H100.333H100.331H100.33C96.4781 183 92.8592 181.216 90.3624 178.202C83.3675 169.759 72.7701 162.028 62.1393 154.271L61.9489 154.132M11.2662 55.4633L61.5211 105.698C61.4504 105.784 61.3895 105.852 61.3483 105.898C61.322 105.926 61.2998 105.951 61.2871 105.964L61.2736 105.978C58.9911 108.444 56.1212 108.175 53.9446 107.133L53.9425 107.132C52.0579 106.229 50.3413 105.109 48.9684 103.723C46.4545 101.185 44.0352 98.7579 41.7026 96.4195C34.4684 89.164 28.0697 82.7467 22.2781 76.4507C20.1393 74.1276 18.1833 70.2913 16.493 66.7136C15.7368 65.113 15.0236 63.541 14.324 61.9991C13.3059 59.7551 12.3166 57.5749 11.2662 55.4633ZM61.9489 154.132V154.132ZM77.354 99.1895C77.5072 100.957 77.1546 103.044 75.6138 104.718L77.354 99.1895ZM77.354 99.1895C77.7275 99.345 78.1095 99.4786 78.4965 99.5816C80.0656 100.002 82.4468 100.082 84.3745 97.9858C86.5002 95.6759 86.2992 92.6636 85.801 90.8202C85.3216 89.0461 84.3882 87.4436 83.6143 86.2855C83.3357 85.8687 83.0496 85.4682 82.7674 85.0915C83.7275 84.8295 84.6972 84.2928 85.5624 83.3528L85.5634 83.3515C87.2057 81.5658 87.5747 79.2544 87.3238 77.311C87.1014 75.588 86.4069 74.0951 85.8163 73.0446C84.6083 70.8957 82.9619 69.0925 82.3304 68.4402C76.9396 62.8731 71.4253 57.2573 66.1 51.8354L66.0992 51.8346C64.1452 49.8461 62.1932 47.8588 60.2463 45.871L60.2441 45.8687C59.864 45.4813 59.4608 45.0947 59.0422 44.6933C58.4851 44.159 57.9008 43.5987 57.3072 42.9753C58.2923 42.7186 59.4658 42.5215 60.7466 42.3793C63.3782 42.0873 65.9103 42.0693 67.6444 42.0571C68.2323 42.0529 68.7284 42.0493 69.1058 42.036C71.2066 41.9616 73.7146 41.2457 75.7658 39.5242C77.9727 37.6718 79.6259 34.6189 79.3481 30.5676L79.3471 30.5534C79.1547 27.8569 77.4838 26.4592 76.5298 25.9011C75.5985 25.3562 74.6329 25.1383 73.9668 25.0443C73.6067 24.981 73.1782 24.9398 72.8956 24.9127L72.8509 24.9083C72.3317 24.8583 71.6452 24.7996 70.8462 24.7354C69.2445 24.6068 67.1412 24.4525 64.9137 24.2965C60.4618 23.9849 55.4684 23.6637 52.9268 23.526C38.8204 22.7639 29.722 20.7354 24.1025 18.8557C34.0933 9.61344 47.0623 4 61.25 4C74.2953 4 86.4959 8.57524 96.5779 17.1843L96.5797 17.1854L98.2716 18.6316L100.503 20.5381L102.732 18.6302L104.419 17.1872C114.506 8.57568 126.708 4 139.756 4C171.563 4 197 32.0654 197 65.9403C197 92.2076 186.528 111.025 172.385 126.091C170.701 120.026 168.896 110.283 168.211 95.2827C168.084 92.5135 167.788 87.0804 167.501 82.24C167.358 79.8178 167.216 77.5286 167.097 75.7838C167.038 74.9139 166.983 74.1627 166.937 73.5922L166.932 73.5278C166.909 73.2407 166.869 72.7598 166.807 72.3331C166.712 71.5559 166.495 70.4167 165.953 69.3232C165.349 68.1015 164.074 66.4913 161.94 66.3175C158.555 66.0409 155.869 67.6434 154.123 70.1027C152.492 72.3979 151.786 75.2583 151.712 77.706V77.7083L155.475 77.8617M77.354 99.1895L147.543 86.9632C146.95 86.2757 146.358 85.589 145.766 84.9027C144.529 83.4687 143.294 82.0364 142.06 80.6019L142.057 80.5987L142.051 80.5927C137.066 74.8097 131.901 68.8179 126.781 62.963C126.166 62.2571 124.52 60.4856 122.577 59.1961C121.617 58.5581 120.324 57.8603 118.881 57.6404C117.333 57.4044 115.4 57.7125 113.807 59.4443L116.378 62.6456M155.475 77.8617C155.466 78.1657 155.464 78.6175 155.46 79.182C155.434 83.4782 155.369 94.3057 152.066 96.2487C150.627 97.0975 147.537 93.3055 145.73 91.0877C145.4 90.6833 145.113 90.3312 144.887 90.0692C144.296 89.383 143.704 88.697 143.112 88.0107C141.874 86.5748 140.635 85.1383 139.398 83.7011C134.409 77.9131 129.249 71.9289 124.138 66.0836C123.099 64.8898 118.624 60.2027 116.378 62.6456M155.475 77.8617C155.576 74.5245 157.442 70.3419 161.676 70.6877C162.61 70.7634 162.976 72.0267 163.086 73.0115L155.475 77.8617ZM116.378 62.6456C115.104 64.0303 115.751 66.1723 116.814 68.0767M116.378 62.6456L113.806 59.4452M116.814 68.0767L113.806 59.4452M116.814 68.0767C116.189 67.3973 115.659 66.8182 115.247 66.3695C114.945 66.0389 114.708 65.7791 114.546 65.6023L114.361 65.4006L114.333 65.3698C114.328 65.3636 114.322 65.3569 114.316 65.3498C114.304 65.3362 114.291 65.3211 114.276 65.3043C114.217 65.2374 114.135 65.1451 114.033 65.0318C113.827 64.8058 113.538 64.4936 113.184 64.1311C112.863 63.8023 112.48 63.4219 112.05 63.0211M113.806 59.4452C112.831 60.5049 112.285 61.7572 112.05 63.0211M112.05 63.0211C111.546 62.551 110.978 62.0525 110.375 61.576C109.306 60.732 107.882 59.762 106.349 59.273C104.835 58.7901 102.356 58.5494 100.343 60.7371C98.3177 62.9376 98.3535 65.8142 98.7884 67.7316C98.8468 67.9924 98.9155 68.2503 98.9927 68.5045C97.5165 68.3024 95.6872 68.5848 94.1498 70.2558M112.05 63.0211L94.1498 70.2558M94.1498 70.2558C92.3242 72.2397 92.1492 74.8202 92.4594 76.7129C92.7468 78.466 93.4834 80.0568 94.1348 81.2391C94.6931 82.2516 95.3314 83.2165 95.9348 84.0525M94.1498 70.2558L95.9348 84.0525M95.9348 84.0525C94.919 84.2898 94.0026 84.8224 93.2143 85.6079L93.1302 85.6917L93.0824 85.7453L93.0738 85.7542L93.0498 85.7794L93.0273 85.8031L93.0052 85.8272C91.9697 86.9532 91.2841 88.4526 91.1435 90.1933C91.0118 91.8237 91.3848 93.3133 91.8781 94.528L91.879 94.5302L95.2834 92.6579L95.9348 84.0525ZM110.337 178.149L110.339 178.147C117.168 169.82 127.72 162.135 138.293 154.436L138.611 154.203L138.613 154.202L138.646 154.178C141.276 152.261 143.949 150.311 146.642 148.304L110.337 178.149ZM110.337 178.149C107.853 181.184 104.237 182.986 100.367 183L110.337 178.149ZM62.8344 98.6133C63.0442 99.4238 63.1844 100.321 63.1567 101.268C63.1468 101.606 63.1162 101.934 63.0667 102.251L62.8344 98.6133ZM62.8344 98.6133C62.697 98.0821 62.5298 97.5882 62.3607 97.1413L62.8344 98.6133ZM112.415 67.657C112.206 67.915 111.974 68.2016 111.716 68.52C111.716 68.52 105.436 61.1973 102.913 63.9387C101.172 65.8305 103.538 69.6733 105.637 72.4151L112.415 67.657ZM55.5437 40.8034C55.5437 40.8034 55.5473 40.81 55.5526 40.8222C55.5461 40.8094 55.5437 40.8034 55.5437 40.8034Z" stroke="black" stroke-opacity="0.4" stroke-width="7"/>
</svg>
