<svg width="261" height="333" viewBox="0 0 261 333" fill="none" xmlns="http://www.w3.org/2000/svg">
<path d="M158.879 115.698H156.056H156.046V111.698V111.695L152.287 110.359C155.636 100.931 156.151 90.5664 153.749 80.7863C153.748 80.782 153.747 80.7776 153.746 80.7733L149.23 62.9172L148.986 61.9505L149.224 60.9823L151.639 51.1513L151.679 50.9758C152.762 45.5138 154.848 40.3303 157.826 35.74C160.817 31.1317 164.649 27.2104 169.106 24.2309C173.565 21.2507 178.552 19.2786 183.766 18.4531C188.98 17.6275 194.293 17.9693 199.376 19.4539C204.457 20.9382 209.186 23.5286 213.281 27.0471C217.376 30.5648 220.752 34.9358 223.221 39.8817C225.691 44.8272 227.208 50.2545 227.692 55.8351C228.176 61.4125 227.619 67.0421 226.051 72.387L226.048 72.3959M158.879 115.698L222.21 71.2689L226.048 72.3959M158.879 115.698H180.23H180.235C189.103 115.687 197.911 117.367 206.265 120.669L209.136 121.804L210.961 119.315C214.485 114.511 217.041 108.978 218.485 103.073L226.003 72.5497M158.879 115.698L226.003 72.5497M226.048 72.3959L226.003 72.5497M226.048 72.3959L226.003 72.5497M256.98 199.942V199.948V321.292C256.98 323.266 256.259 325.095 255.073 326.392C253.897 327.677 252.382 328.323 250.886 328.323H62.9409C61.4451 328.323 59.9304 327.677 58.7546 326.392C57.5678 325.095 56.8471 323.266 56.8471 321.292V284.205V281.379L54.1836 280.435C46.6404 277.761 39.9477 272.648 35.0129 265.696L35.0079 265.689L35.0028 265.682C31.2299 260.415 28.608 254.242 27.3643 247.639C26.1205 241.037 26.2932 234.208 27.8671 227.694L27.8708 227.678L27.8744 227.663L41.5313 169.109L42.1331 166.529L39.9921 164.968L20.4102 150.694L20.4092 150.693C5.37812 139.743 1.26073 121.38 5.66159 105.495C10.0598 89.6203 22.6802 77.0891 40.452 77.0891H63.5768H68.9262L67.4135 71.958C64.405 61.7531 64.8271 50.7039 68.5953 40.8185C72.3624 30.9363 79.1969 22.9325 87.7856 18.1687C96.3624 13.4115 106.171 12.1671 115.475 14.6208C124.788 17.0769 133.08 23.1052 138.804 31.7278L142.498 37.2936L145.66 31.4088C152.024 19.5631 162.104 10.785 173.898 6.64204C185.68 2.50331 198.437 3.24439 209.768 8.74337C221.114 14.2488 230.298 24.1738 235.479 36.7158C240.661 49.2618 241.441 63.4777 237.655 76.6266L237.634 76.7019L237.615 76.7779L230.217 106.857C230.217 106.858 230.217 106.858 230.217 106.859C229.275 110.674 228.002 114.359 226.418 117.861L223.475 124.37L230.563 123.477C233.972 123.048 237.438 123.694 240.558 125.368C243.684 127.046 246.356 129.7 248.213 133.061C250.072 136.425 251.02 140.331 250.918 144.309C250.815 148.286 249.669 152.122 247.646 155.358L246.454 157.266L247.465 159.276C253.723 171.716 257.003 185.708 256.98 199.942ZM119.668 282.544H115.668V286.544V310.261V314.261H119.668H240.793H244.793V310.261V199.948C244.793 188.284 242.175 177.247 237.526 167.552L235.879 164.118L232.368 165.594L180.698 187.326L180.687 187.331C178.602 188.215 176.401 188.666 174.185 188.668C170.027 188.644 165.951 187.04 162.669 184.041C159.376 181.032 157.09 176.805 156.286 172.057C155.482 167.307 156.226 162.412 158.357 158.234C160.486 154.062 163.836 150.915 167.759 149.248C167.76 149.248 167.762 149.247 167.763 149.246L193.086 138.595L205.004 133.583L192.338 130.99C188.415 130.186 184.371 129.761 180.23 129.761H142.803C142.413 129.761 142.107 129.731 141.866 129.683L139.999 129.312L138.533 130.528C134.365 133.985 129.611 136.447 124.575 137.782C119.547 139.115 114.327 139.301 109.235 138.33C101.303 136.721 93.9019 132.684 87.9042 126.63C81.8977 120.568 77.549 112.734 75.4048 104.014L75.4041 104.011L72.9816 94.1933L72.231 91.1516H69.098H40.452C28.2608 91.1516 20.0173 99.8523 17.2741 109.75C14.5335 119.639 16.9971 131.589 26.8915 138.802L26.8926 138.803L112.819 201.404C112.82 201.405 112.82 201.405 112.821 201.405C113.654 202.013 114.372 202.863 114.882 203.904C115.392 204.947 115.668 206.132 115.668 207.35V207.35V237.786V241.786H119.668H146.618H146.629L146.639 241.786C149.052 241.773 151.452 242.28 153.706 243.29C155.961 244.301 158.036 245.8 159.8 247.72C161.565 249.64 162.983 251.942 163.955 254.501C164.924 257.05 165.427 259.794 165.43 262.572C165.332 268.008 163.288 273.121 159.829 276.833C156.374 280.541 151.803 282.545 147.123 282.544H147.123H119.668Z" stroke="black" stroke-opacity="0.4" stroke-width="8"/>
</svg>
