<svg width="243" height="165" viewBox="0 0 243 165" fill="none" xmlns="http://www.w3.org/2000/svg">
<path d="M240.977 56.5801L216.377 9.48015C214.925 6.68862 212.434 4.57935 209.441 3.60672C206.449 2.63409 203.194 2.87593 200.377 4.28015L176.277 16.3801H158.077L124.277 1.08014C121.673 -0.112226 118.726 -0.32526 115.977 0.480146L65.7774 15.0801L41.9774 3.18015C39.1613 1.77593 35.9063 1.53409 32.9135 2.50672C29.9208 3.47936 27.4299 5.58862 25.9774 8.38015L1.37741 55.4801C0.634914 56.9001 0.181854 58.4534 0.0445221 60.0499C-0.0928095 61.6464 0.0883236 63.2542 0.577408 64.7802C1.61815 67.8208 3.80765 70.3333 6.67741 71.7802L31.0774 83.9801L85.3774 126.48C86.727 127.488 88.2533 128.234 89.8774 128.68L147.777 143.08C148.72 143.354 149.696 143.488 150.677 143.48C152.257 143.501 153.825 143.201 155.286 142.6C156.746 141.998 158.07 141.107 159.177 139.98L195.977 103.18L196.177 102.98L211.677 84.8801L235.677 72.8801C237.112 72.1566 238.389 71.1569 239.435 69.9385C240.482 68.72 241.278 67.3069 241.777 65.7802C242.269 64.2716 242.452 62.6794 242.315 61.0986C242.177 59.5179 241.722 57.9811 240.977 56.5801V56.5801ZM192.577 94.9801L151.577 65.0801C150.874 64.5751 150.026 64.3119 149.161 64.3299C148.295 64.348 147.459 64.6463 146.777 65.1801L133.977 74.7802C129.118 78.3847 123.228 80.3306 117.177 80.3306C111.127 80.3306 105.237 78.3847 100.377 74.7802L94.9774 70.6801C94.5037 70.3543 94.1125 69.9226 93.8348 69.4192C93.5571 68.9158 93.4005 68.3546 93.3774 67.7802C93.3136 67.205 93.3893 66.623 93.5982 66.0834C93.8071 65.5437 94.143 65.0624 94.5774 64.6801L133.677 25.4801C134.438 24.7719 135.438 24.3788 136.477 24.3801H174.777L204.377 81.0802L192.577 94.9801ZM8.27741 62.2801C8.08405 61.7798 8.00178 61.2434 8.03632 60.7081C8.07085 60.1729 8.22136 59.6515 8.47741 59.1801L33.0774 12.0801C33.4174 11.4255 33.9361 10.8806 34.5734 10.5089C35.2106 10.1372 35.9402 9.95386 36.6774 9.98015C37.2697 9.95839 37.8569 10.0966 38.3774 10.3801L59.7774 20.9801L31.4774 75.1801L10.2774 64.5801C9.79219 64.3724 9.36024 64.0576 9.0139 63.6593C8.66755 63.261 8.41577 62.7895 8.27741 62.2801ZM153.577 134.28C153.083 134.762 152.478 135.114 151.815 135.306C151.152 135.497 150.452 135.523 149.777 135.38L91.7774 120.88C91.2426 120.73 90.7359 120.494 90.2774 120.18L38.2774 79.4801L67.8774 22.7801L118.177 8.18015C119.103 7.89696 120.101 7.96825 120.977 8.38015L138.677 16.3801H136.477C134.899 16.3708 133.335 16.6754 131.876 17.2763C130.417 17.8771 129.091 18.7623 127.977 19.8801L88.8774 58.9801C87.66 60.197 86.7186 61.6615 86.1171 63.2743C85.5156 64.887 85.2681 66.6103 85.3914 68.3272C85.5147 70.0441 86.0059 71.7143 86.8317 73.2246C87.6575 74.7349 88.7986 76.0498 90.1774 77.0802L95.5774 81.1801C101.828 85.8081 109.4 88.306 117.177 88.306C124.955 88.306 132.527 85.8081 138.777 81.1801L149.177 73.2802L187.077 100.78L153.577 134.28ZM234.077 63.3801C233.921 63.8808 233.662 64.3436 233.318 64.7395C232.974 65.1353 232.551 65.4556 232.077 65.6801L210.877 76.2802L182.577 22.0801L203.977 11.4801C204.909 11.0198 205.982 10.9399 206.972 11.2571C207.961 11.5744 208.788 12.2641 209.277 13.1801L233.877 60.2801C234.133 60.7515 234.284 61.2729 234.319 61.8081C234.353 62.3434 234.271 62.8798 234.077 63.3801V63.3801ZM109.077 161.28C108.858 162.153 108.357 162.93 107.652 163.49C106.947 164.051 106.078 164.363 105.177 164.38L104.177 164.18L74.0774 156.68C72.228 156.223 70.5141 155.331 69.0774 154.08L46.5774 134.48C46.107 134.164 45.709 133.752 45.4099 133.271C45.1108 132.79 44.9173 132.25 44.8424 131.689C44.7674 131.127 44.8126 130.556 44.975 130.013C45.1374 129.47 45.4133 128.968 45.7844 128.54C46.1556 128.111 46.6134 127.767 47.1277 127.529C47.642 127.291 48.2009 127.165 48.7675 127.16C49.3341 127.154 49.8955 127.269 50.4144 127.496C50.9333 127.724 51.3979 128.059 51.7774 128.48L74.3774 148.08C74.8324 148.481 75.3838 148.757 75.9774 148.88L106.177 156.48C107.194 156.74 108.067 157.389 108.609 158.287C109.152 159.185 109.32 160.26 109.077 161.28V161.28Z" fill="black" fill-opacity="0.4"/>
</svg>
