<svg width="500" height="378" viewBox="0 0 500 378" fill="none" xmlns="http://www.w3.org/2000/svg">
<path opacity="0.2" d="M250 377.5C354.106 377.5 438.5 293.106 438.5 189C438.5 84.8943 354.106 0.5 250 0.5C145.894 0.5 61.5 84.8943 61.5 189C61.5 293.106 145.894 377.5 250 377.5Z" fill="black" stroke="black" stroke-miterlimit="10"/>
<path opacity="0.2" d="M434.3 93.2L376.7 114.4L378.3 118.2L372.1 120.5L342.1 131.5L343.1 134.3L336.1 136.9L316.2 144.2L252.3 137.8C249.6 137.5 246.8 138.1 244.4 139.4L212.7 156.6L181.7 163.8L164.9 156.4L158.9 153.8L160.7 149.9L132 136.1L125.8 133.1L127.7 129.5L72.4 102.8L0 59V205L6.6 208.8C7.9 212.6 11.5 215.5 15.8 215.7C16.6 215.7 17.4 215.7 18.1 215.5L66.9 244L81.3 216.8L94.3 222.7L121.4 235L125.1 226.8L137.6 232.8L146.1 236.9C150.8 240.3 158.5 246.5 165.7 252.3C163.2 252.1 162.2 253.1 162.2 253.1C157.1 256.7 163.5 269.1 170.3 272.2C172.4 273.2 174.4 273.4 176.1 273.2C177.9 273 179.4 272.2 180.5 271.2C179.9 272.9 179.5 274.6 179.1 276C177.7 282.1 181.4 288.2 187.5 289.5C193.7 290.8 199.9 287.7 199.9 287.7C199.9 287.7 198.8 292.4 204.1 296.9C204.5 297.2 204.9 297.5 205.3 297.9C212.1 302.7 220.2 300 220.6 299.8C220.6 299.8 221 303.7 224.8 306.6C225.1 306.8 225.5 307.1 225.8 307.3C225.8 307.3 225.9 307.3 226 307.4C226.7 307.8 227.4 308.1 228.2 308.4C228.3 308.4 228.4 308.5 228.5 308.5C231.6 309.7 236.7 310.9 241.1 308.3C245.2 305.9 248.6 303.9 250.6 302.6C255.2 304.8 259.6 306 264.9 306C268.9 306 271.5 304.1 273.2 301.8C275.6 298.6 276 294.8 276 294.8C276 294.8 278.6 296.9 281 297.6C283.3 298.3 291 299.9 296.6 293.3C297.2 292.6 297.7 291.9 298.1 291.3C301.6 285.7 299.4 281.1 299.3 280.9C302.6 282 314.8 281.3 318.7 272.3C318.7 272.2 318.8 272.2 318.8 272.1C322.5 263.3 317.3 255.3 317.2 255.1C330.5 262.5 337 257.6 340.1 253C342.4 249.6 342.6 244.2 342.5 241.7C342.5 241.6 342.5 241.6 342.5 241.5C342.5 240.7 342.3 239.9 341.9 239.1L338.9 232.4C338.9 232.4 341.2 231.1 344.5 228.8C345 228.4 345.6 228 346.2 227.6C346.3 227.5 346.5 227.4 346.6 227.3C347.1 227 347.6 226.6 348.1 226.2C348.3 226.1 348.5 225.9 348.7 225.8C349.2 225.5 349.6 225.1 350.1 224.7C350.3 224.5 350.6 224.3 350.8 224.1C351.2 223.7 351.7 223.4 352.1 223C352.4 222.8 352.6 222.6 352.9 222.3C353.3 221.9 353.7 221.6 354.2 221.2C354.5 220.9 354.8 220.7 355 220.4C355.4 220 355.8 219.7 356.2 219.3C356.5 219 356.8 218.7 357.1 218.4C357.5 218 357.8 217.7 358.2 217.3C358.5 217 358.8 216.6 359.1 216.3C359.3 216 359.6 215.8 359.8 215.5C360 215.3 360.2 215.1 360.4 214.9L369.9 211.4L372.7 219.6L402.8 209.3L414.3 205.4L426 233.8L500 199.7V61.7L434.3 93.2ZM182.1 265.7C182.3 265.8 182.4 266 182.6 266.1C182.5 266.3 182.4 266.6 182.3 266.8C182.2 266.5 182.2 266.1 182.1 265.7Z" fill="black"/>
<path d="M225.9 292.3C225.9 292.3 234.4 297.3 241.2 293.3C248 289.3 252.8 286.3 252.8 286.3L237.8 277.5L225.9 292.3Z" fill="white"/>
<path opacity="0.5" d="M225.9 292.3C225.9 292.3 234.4 297.3 241.2 293.3C248 289.3 252.8 286.3 252.8 286.3L237.8 277.5L225.9 292.3Z" fill="white"/>
<path opacity="0.5" d="M340.2 238.2C337.1 242.8 330.5 247.7 317.3 240.3C317.6 240.8 321.6 247.2 319.8 254.8C319.6 255.6 319.3 256.5 319 257.3C319 257.4 318.9 257.4 318.9 257.5C315 266.5 302.8 267.2 299.5 266.1C299.6 266.3 301.8 270.9 298.3 276.5C297.9 277.2 297.4 277.8 296.8 278.5C291.2 285.1 283.5 283.5 281.2 282.8C278.9 282.1 276.2 280 276.2 280C276.2 280 275.7 283.8 273.4 287C271.8 289.2 269.2 291.1 265.1 291.2C258.7 291.3 253.6 289.4 247.7 286.3C246.4 285.6 245 284.8 243.6 284C241.8 282.9 239.8 281.7 237.7 280.4C226.8 273.7 184.2 252.7 184.2 252.7C184.2 252.7 176.3 246.2 167.4 238.9C159.7 232.6 151.1 225.8 146 222.1L137.5 218L112.8 206.2L101.2 200.6L68 184.5L113.8 119L136.4 128.9L164.7 141.3L181.5 148.7L219.9 139.8L229.1 137.6L259.9 157.1L336.1 205.4L339.1 217.6L342.1 224.3C342.4 225 342.6 225.9 342.7 226.7C342.7 226.8 342.7 226.8 342.7 226.9C342.7 229.4 342.5 234.7 340.2 238.2Z" fill="white"/>
<path opacity="0.5" d="M243.6 283.8C241.8 282.7 239.8 281.5 237.7 280.2C226.8 273.5 184.2 252.5 184.2 252.5C184.2 252.5 176.3 246 167.4 238.7C159.7 232.4 151.1 225.6 146 221.9L137.5 217.8L112.8 206L118 196.9L155.4 214.5C155.4 214.5 201.8 253.6 215.2 262C228.6 270.4 243 281.4 243 281.4L243.6 283.8Z" fill="white"/>
<path opacity="0.5" d="M164.7 141.3L137.6 217.9L101.3 200.5L136.4 129L164.7 141.3Z" fill="white"/>
<path opacity="0.5" d="M342.1 224.4L339.1 217.7L336.1 205.5L260 157.2L229.2 137.7L220 139.9L214.2 148.2L188.4 183.6C188.4 183.6 192.8 194.7 207 193.5C221.2 192.3 233.1 172.7 238.1 170.3C240.1 169.4 251.2 173.3 264.9 179.1C285.2 190.3 324.8 212.4 333.3 218.1C337.9 221.2 340.8 224.2 342.7 226.7C342.6 225.9 342.4 225.1 342.1 224.4Z" fill="white"/>
<path opacity="0.5" d="M319.7 254.8C311.7 249.2 298.3 240 291.4 235.3C280.2 227.6 281.6 217.9 281.6 217.9L317.2 240.3C317.6 240.8 321.6 247.2 319.7 254.8Z" fill="white"/>
<path opacity="0.5" d="M298.2 276.4C292.5 272.6 283.2 266.3 277.5 262.4C268.9 256.6 268.5 245.3 268.5 245.3L299.4 266C299.5 266.2 301.6 270.8 298.2 276.4Z" fill="white"/>
<path opacity="0.5" d="M276.1 279.9C276.1 279.9 275.6 283.7 273.3 286.9C268.4 284 261.2 279.5 256.7 276C249.2 270.2 249.6 264.1 249.6 264.1L276.1 279.9Z" fill="white"/>
<path d="M422.4 177.5L366.1 199L343.2 207.7C343 207.9 342.9 208.1 342.7 208.3C338.4 213.4 333.2 217.6 329.4 220.3C326.5 222.4 324.4 223.6 324.4 223.6L322.8 221.5C321.2 219.4 319.2 217.6 317 216.2L307.5 210.2L289.4 198.9L286 196.8L283.8 195.5L245.5 171.6C244.1 170.7 242.4 170.4 240.8 170.8C240.5 170.9 240.3 170.9 240 171L229 175L228.4 175.2C228.2 175.3 228 175.4 227.8 175.5C227.1 175.8 226.5 176.3 225.9 176.9C225.6 177.2 225.3 177.6 225 178C216.6 191.9 207.8 196.2 201.2 197.1C200.4 197.2 199.6 197.3 198.8 197.3C197.1 197.3 195.6 197.1 194.3 196.8C191.6 196.1 190.1 193.1 191.1 190.4L203.1 163.1C204.1 160.4 206.1 158.1 208.6 156.7L241.1 138.4C243.2 137.2 245.6 136.7 248.1 136.9L304.3 142.8L321.8 136.1L344.6 127.3L397 107.1L418.4 166.5L422.4 177.5Z" fill="white"/>
<path d="M160.4 134.8L121.3 220.1L94.3 207.8L66.8 195.3L112.8 111.9L132 121.1L160.4 134.8Z" fill="white"/>
<path opacity="0.5" d="M247.7 286.1C244.7 284.5 241.5 282.5 237.7 280.2C226.8 273.5 184.2 252.5 184.2 252.5C184.2 252.5 176.3 246 167.4 238.7C171.4 238.8 179.5 240.3 187.9 248.7L199 243.4C199 243.4 211.1 244.4 215.7 260.3L227.1 255.2C227.1 255.2 235.2 259.1 236.5 269.6C236.5 269.6 245.7 272.9 247.2 278.6C248 281.8 248 284.4 247.7 286.1Z" fill="white"/>
<path d="M176.1 258.4C174.4 258.6 172.4 258.4 170.3 257.4C163.5 254.2 157.1 241.9 162.2 238.3C162.2 238.3 164.9 235.6 172 239.8C176.2 242.3 178.9 244.7 180.5 247.1C181.6 248.8 182.2 250.4 182.3 252.1C182.6 254.9 180 257.8 176.1 258.4Z" fill="white"/>
<path opacity="0.5" d="M176.1 258.4C177.2 254 179.2 249.6 180.5 247.1C181.6 248.8 182.2 250.4 182.3 252.1C182.6 254.9 180 257.8 176.1 258.4Z" fill="white"/>
<path d="M187.5 274.7C181.4 273.4 177.6 267.2 179.1 261.2C180 257.3 181.7 252 184.8 247.3C190.8 237.9 208.5 241.9 206.7 257.6L199.9 272.9C199.9 272.8 193.8 276 187.5 274.7Z" fill="white"/>
<path d="M228.9 267.8L220.7 284.9C220.2 285.1 212.2 287.9 205.4 283C205 282.7 204.5 282.4 204.2 282C198.9 277.5 200 272.8 200 272.8L206.8 257.5C206.8 257.5 211.7 248.2 220.1 250.3C220.3 250.3 220.5 250.4 220.6 250.4C229.4 253.2 231.1 261.3 228.9 267.8Z" fill="white"/>
<path d="M244.1 277C243.2 281.5 239.5 292.9 239.5 292.9C237.9 294.4 235.4 296 228.4 293.4C227 292.9 225.9 292.3 225 291.6C221.2 288.7 220.8 284.8 220.8 284.8L227.5 270.8C230.5 268.2 233.4 267.6 235.8 268.1C241 269.2 244.5 275.1 244.1 277Z" fill="white"/>
<path opacity="0.5" d="M220.1 250.4C217.7 252.2 213.2 256.4 210.2 264.5C207.9 270.5 205.8 277.2 204.2 282.1C198.9 277.6 200 272.9 200 272.9L206.8 257.6C206.7 257.5 211.6 248.2 220.1 250.4Z" fill="white"/>
<path opacity="0.5" d="M235.7 268.2C234.1 269.6 231.7 272.5 229.5 278.4C227.6 283.4 226 288.1 224.9 291.6C221.1 288.7 220.7 284.8 220.7 284.8L227.4 270.8C230.4 268.3 233.3 267.7 235.7 268.2Z" fill="white"/>
<path opacity="0.5" d="M445.8 155.1C398.7 171 344.2 189.7 339.3 192.7C335.1 195.3 330.8 196.7 327.5 197.4C322.4 194.2 315.9 190 308.8 185.6C320.7 176.2 319.6 161 319.6 161C315.9 172.6 309.9 179.1 304.2 182.7C279 167 248.8 148.7 246.6 148.6C242.9 148.5 227 153.7 227 153.7C227 153.7 226 169.7 213 179.7C207.5 183.9 202.7 186.7 198.9 188.5C206.4 187.6 216.4 182.9 226 167.7C226.3 167.3 226.6 166.8 227 166.5C227.1 166.4 227.3 166.2 227.4 166.1L227.5 166C227.6 165.9 227.8 165.8 228 165.6C228.2 165.5 228.3 165.4 228.5 165.3C228.5 165.3 228.6 165.3 228.6 165.2C228.8 165.1 229 165 229.1 164.9C229.2 164.8 229.3 164.8 229.4 164.7C229.5 164.6 229.7 164.6 229.8 164.6L230.5 164.4L243.1 160.1C243.2 160.1 243.4 160 243.5 160H243.6C243.7 160 243.8 159.9 243.9 159.9C245.7 159.5 247.6 159.8 249.3 160.8L292.9 186.9L299.2 190.7L319.8 203L330.7 209.5C333.2 211 335.5 213 337.3 215.3L339.1 217.6C339.1 217.6 341.4 216.3 344.7 214C349.2 211 355.4 206.1 360.4 200.3L450.5 167.4L445.8 155.1Z" fill="white"/>
<path opacity="0.5" d="M386.4 190.8L360.4 200.3C360.2 200.5 360 200.7 359.8 200.9L336 121.8L361.9 112.2L386.4 190.8Z" fill="white"/>
<path d="M429.4 185.7L402.8 194.8L372.7 205.1L342.1 116.4L372.1 105.4L391.7 98.2L429.4 185.7Z" fill="white"/>
<path d="M429.4 185.7L402.8 194.8L372.1 105.4L391.7 98.2L429.4 185.7Z" fill="white"/>
<path d="M132 121.1L94.3 207.8L66.8 195.3L112.8 111.9L132 121.1Z" fill="white"/>
<path d="M26.5001 190.9C26.2001 196.6 21.4001 200.9 15.8001 200.7C10.1001 200.4 5.80011 195.6 6.00011 190C6.30011 184.3 11.1001 180 16.7001 180.2C22.4001 180.5 26.8001 185.3 26.5001 190.9Z" fill="white"/>
<path d="M228.2 329.7C223.6 330.6 222.9 331.4 222 335.9C221.1 331.3 220.3 330.6 215.8 329.7C220.4 328.8 221.1 328 222 323.5C222.9 328.1 223.7 328.8 228.2 329.7Z" fill="white"/>
<path d="M302.8 318.1C296 319.5 294.9 320.7 293.6 327.9C292.2 320.7 291.1 319.5 284.4 318.1C291.2 316.7 292.3 315.5 293.6 308.3C294.9 315.5 296 316.6 302.8 318.1Z" fill="white"/>
<path d="M376.9 240.4C370.1 241.8 369 243 367.7 250.2C366.3 243 365.2 241.8 358.5 240.4C365.3 239 366.4 237.8 367.7 230.6C369.1 237.7 370.2 238.9 376.9 240.4Z" fill="white"/>
<path d="M121.3 236.3C117.7 237.2 117.1 237.8 116.4 242.1C115.7 237.8 115.1 237.1 111.5 236.3C115.1 235.4 115.7 234.8 116.4 230.5C117.1 234.8 117.7 235.5 121.3 236.3Z" fill="white"/>
<path d="M343.1 98.2C336.3 99.6 335.2 100.8 333.9 108C332.5 100.8 331.4 99.6 324.7 98.2C331.5 96.8 332.6 95.6 333.9 88.4C335.3 95.6 336.4 96.8 343.1 98.2Z" fill="white"/>
<path d="M147.2 90.1C141.6 91.3 140.7 92.3 139.6 98.2C138.5 92.2 137.6 91.3 132 90.1C137.6 88.9 138.5 87.9 139.6 82C140.7 87.9 141.6 88.9 147.2 90.1Z" fill="white"/>
<path d="M245 22.2C238.2 23.6 237.1 24.8 235.8 32C234.4 24.8 233.3 23.6 226.6 22.2C233.4 20.8 234.5 19.6 235.8 12.4C237.1 19.6 238.2 20.7 245 22.2Z" fill="white"/>
<path d="M263.4 92.1C260 93 259.5 93.7 258.8 98.2C258.1 93.7 257.6 93 254.2 92.1C257.6 91.2 258.1 90.5 258.8 86C259.5 90.5 260.1 91.2 263.4 92.1Z" fill="white"/>
</svg>
