<svg width="115" height="148" viewBox="0 0 115 148" fill="none" xmlns="http://www.w3.org/2000/svg">
<mask id="path-1-outside-1_728_4056" maskUnits="userSpaceOnUse" x="0" y="0" width="115" height="148" fill="black">
<rect fill="white" width="115" height="148"/>
<path d="M112.004 50.706C111.343 49.3743 110.898 48.0433 110.676 46.9338C110.453 45.602 110.453 44.2711 110.453 42.9393C110.453 40.7203 110.676 38.2797 109.57 36.0606C108.687 33.8416 106.691 32.0662 105.14 30.513C104.027 29.6249 103.144 28.5161 102.476 27.6281C101.815 26.5185 101.37 25.409 100.71 23.8558C99.8193 21.6368 99.1588 19.4177 97.3853 17.6423C95.6118 15.8676 93.3931 14.9795 91.1817 14.3144C89.8462 13.87 88.5179 13.2048 87.4122 12.539C86.3065 11.8731 85.4161 10.7636 84.533 9.87629C82.9821 8.32309 81.2086 6.32548 78.9899 5.43815C76.7785 4.55009 74.3372 4.55006 72.1258 4.55006C70.5749 4.55006 69.2466 4.55006 68.1337 4.32858C67.0279 4.10639 65.6996 3.44056 64.3713 2.99689C62.3753 2.10955 60.1566 1 57.5 1C55.066 1 52.6247 2.10955 50.6287 2.99689C49.3004 3.66275 47.972 4.10639 46.8663 4.32858C45.538 4.55006 44.2025 4.55006 42.8742 4.55006C40.6627 4.55006 38.2215 4.32862 36.01 5.43815C33.7914 6.32548 32.0179 8.32309 30.467 9.87629C29.5839 10.9858 28.471 11.8731 27.5878 12.539C26.4821 13.2048 25.3692 13.6485 23.8183 14.3144C21.6068 15.2017 19.3882 15.8676 17.6147 17.6423C15.8412 19.4177 14.958 21.6368 14.2903 23.8558C13.8523 25.1875 13.1846 26.5185 12.524 27.6281C11.8563 28.7376 10.7505 29.6249 9.86022 30.513C8.30932 32.0662 6.31328 33.8416 5.43014 36.0606C4.54699 38.2797 4.54698 40.7203 4.54698 42.9393C4.54698 44.4925 4.54699 45.8242 4.32441 46.9338C4.10183 48.0433 3.43404 49.3743 2.99606 50.706C2.10573 52.7029 1 54.922 1 57.5847C1 60.026 2.10573 62.4665 2.99606 64.4641C3.65663 65.7951 4.10183 67.1268 4.32441 68.2364C4.54699 69.3459 4.54698 70.8991 4.54698 72.2308C4.54698 74.4491 4.3244 76.8904 5.43014 79.1095C6.31328 81.3285 8.30932 83.1039 9.86022 84.6571C10.9731 85.5445 11.8563 86.654 12.524 87.5413C13.1846 88.6509 13.6297 89.7604 14.2903 91.3143C15.1806 93.5334 15.8412 95.7517 17.6147 97.5271C18.2825 98.193 18.943 98.6367 19.8333 99.0803L9.63765 127.044C8.7545 129.258 9.19967 131.703 10.528 133.472C11.8563 135.248 14.0749 136.363 16.509 136.14L31.1347 135.025L41.5459 145.236C42.8742 146.567 44.6477 147.235 46.4212 147.235C46.8663 147.235 47.5269 147.235 47.972 147.012C50.1907 146.567 52.1796 144.79 52.8473 142.576L57.5 129.927L62.1527 142.576C63.0358 144.79 64.8093 146.344 67.0279 147.012C67.4731 147.235 68.1337 147.235 68.5788 147.235C70.3523 147.235 72.1258 146.567 73.4541 145.236L83.8652 135.025L98.491 136.14C100.925 136.363 103.144 135.248 104.472 133.472C105.8 131.703 106.246 129.258 105.362 127.044L95.1666 99.0803C96.0569 98.6367 96.7175 97.9708 97.3853 97.3057C99.1588 95.5303 100.042 93.3112 100.71 91.0921C101.148 89.7604 101.815 88.4294 102.476 87.3199C103.144 86.2103 104.249 85.323 105.14 84.435C106.691 82.8818 108.687 81.1064 109.57 78.8873C110.453 76.6682 110.453 74.2277 110.453 72.0086C110.453 70.4554 110.453 69.1237 110.676 68.0142C110.898 66.9046 111.566 65.5736 112.004 64.2419C112.894 62.245 114 60.026 114 57.3632C114 55.1442 112.894 52.7029 112.004 50.706ZM48.6398 141.461C48.4172 142.13 47.7494 142.799 47.0889 143.014C46.1985 143.237 45.538 143.014 44.8702 142.353L33.7914 131.257C33.3462 130.812 32.6857 130.589 32.0179 130.589L16.509 131.919C15.6258 131.919 14.9581 131.703 14.5129 131.035C14.0749 130.366 13.8523 129.704 14.2903 128.813L24.486 101.078C25.8144 101.522 26.9201 101.965 28.033 102.631C29.1387 103.297 30.0218 104.406 30.9122 105.294C32.4631 106.847 34.2366 108.844 36.448 109.732C38.6667 110.619 41.1007 110.619 43.3194 110.619C44.8703 110.619 46.1986 110.619 47.3043 110.841C48.4172 111.063 49.7455 111.729 51.0738 112.173C53.0699 113.061 55.2813 114.172 57.9451 114.172C58.1677 114.172 58.6057 114.172 58.8283 114.172L48.6398 141.461ZM100.71 131.035C100.264 131.703 99.5967 131.919 98.7136 131.919L82.982 130.589C82.3143 130.589 81.6537 130.812 81.2086 131.257L70.1297 142.353C69.462 143.014 68.8014 143.014 67.9111 143.014C67.0279 142.799 66.5828 142.353 66.3602 141.461L59.934 123.714L64.1487 112.395C64.3713 112.395 64.3713 112.173 64.5867 112.173C65.9222 111.507 67.2505 111.063 68.3563 110.841C69.6846 110.619 71.0129 110.619 72.3484 110.619C74.5599 110.619 77.001 110.841 79.2125 109.732C81.4311 108.844 83.2046 106.847 84.7555 105.294C85.6387 104.184 86.7444 103.297 87.6348 102.631C88.5179 101.965 89.6308 101.522 90.9591 101.078L100.925 128.813C101.37 129.704 101.148 130.366 100.71 131.035ZM107.796 62.6887C107.129 64.2419 106.468 65.7951 106.023 67.3483C105.578 69.1237 105.8 70.8991 105.8 72.4523C105.8 74.4491 106.023 76.2245 105.362 77.5563C104.695 78.8873 103.366 80.219 102.038 81.55C100.925 82.6596 99.5967 83.7691 98.7136 85.323C97.8233 86.8762 97.1627 88.4294 96.495 89.9826C95.8344 91.758 95.1666 93.5334 94.0609 94.4207C92.9552 95.5302 91.3971 96.1961 89.6308 96.8612C88.0799 97.5271 86.529 97.9708 84.9781 99.0803C83.6426 99.9684 82.3143 101.299 81.2086 102.409C79.8802 103.741 78.7745 105.072 77.2164 105.738C75.8881 106.403 74.1146 106.181 72.1258 106.181C70.3523 106.181 68.8014 106.181 67.0279 106.403C65.2545 106.626 63.9262 107.513 62.3753 108.179C61.9301 108.4 61.4849 108.622 61.0469 108.622C59.7186 109.066 58.6057 109.51 57.2774 109.51C55.7265 109.51 53.9531 108.845 52.4022 107.957C50.8513 107.291 49.3003 106.626 47.7495 106.181C46.6437 105.96 45.538 105.96 44.4251 105.96C43.7645 105.96 43.0968 105.96 42.6516 105.96C40.6627 105.96 38.8893 106.181 37.5609 105.516C36.2326 104.85 34.8971 103.518 33.5688 102.187C32.4631 101.078 31.3573 99.7462 29.8065 98.8588C28.2556 97.9708 26.7046 97.3056 25.1537 96.6398C23.3803 95.9739 21.6068 95.308 20.7165 94.1985C19.6108 93.089 18.943 91.5358 18.2824 89.7604C17.6147 88.2072 17.1767 86.654 16.0638 85.1008C15.1806 83.7691 13.8523 82.4381 12.7394 81.3286C11.4111 79.9968 10.0828 78.8873 9.42225 77.3341C8.75451 76.0031 8.97706 74.2277 8.97706 72.2308C8.97706 70.4554 8.97707 68.9022 8.75449 67.1268C8.53191 65.3514 7.64875 64.0204 6.981 62.4665C6.09785 60.6918 5.43014 59.1379 5.43014 57.5847C5.43014 56.0315 6.09785 54.2561 6.981 52.7029C7.64875 51.1497 8.30933 49.5965 8.75449 48.0433C9.19965 46.2679 8.97706 44.4925 8.97706 42.9393C8.97706 40.9425 8.75451 39.1671 9.42225 37.8353C10.0828 36.5043 11.4111 35.1726 12.7394 33.8416C13.8523 32.732 15.1806 31.6225 16.0638 30.0693C16.9541 28.5161 17.6147 26.9622 18.2824 25.409C18.943 23.6336 19.6108 21.8589 20.7165 20.9708C21.8294 19.8613 23.3803 19.1962 25.1537 18.5303C26.7046 17.8645 28.2556 17.4208 29.8065 16.3113C31.1348 15.4232 32.4631 14.0922 33.5688 12.9827C34.8971 11.651 36.01 10.3199 37.5609 9.65405C38.8893 8.98819 40.6627 9.21039 42.6516 9.21039C44.4251 9.21039 45.976 9.2104 47.7495 8.9882C49.5229 8.76673 50.8513 7.87865 52.4022 7.21279C54.1756 6.32545 55.7265 5.65962 57.2774 5.65962C58.8283 5.65962 60.6018 6.32545 62.1527 7.21279C63.7035 7.87865 65.2545 8.54453 66.8054 8.9882C68.5788 9.43187 70.3523 9.21039 71.9032 9.21039C73.8993 9.21039 75.6655 8.98819 77.001 9.65405C78.3294 10.3199 79.6577 11.651 80.986 12.9827C82.0917 14.0922 83.2046 15.4232 84.7555 16.3113C86.3064 17.1986 87.8573 17.8645 89.4082 18.5303C91.1817 19.1962 92.9552 19.8613 93.8383 20.9708C94.9441 22.0804 95.6118 23.6336 96.2724 25.409C96.9401 26.9622 97.3853 28.5161 98.491 30.0693C99.3742 31.4003 100.71 32.732 101.815 33.8416C103.144 35.1726 104.472 36.2821 105.14 37.8353C105.8 39.1671 105.578 40.9425 105.578 42.9393C105.578 44.7147 105.578 46.2679 105.8 48.0433C106.023 49.8187 106.913 51.1497 107.574 52.7029C108.464 54.4783 109.125 56.0315 109.125 57.5847C109.347 59.1379 108.687 60.9133 107.796 62.6887Z"/>
</mask>
<path d="M112.004 50.706C111.343 49.3743 110.898 48.0433 110.676 46.9338C110.453 45.602 110.453 44.2711 110.453 42.9393C110.453 40.7203 110.676 38.2797 109.57 36.0606C108.687 33.8416 106.691 32.0662 105.14 30.513C104.027 29.6249 103.144 28.5161 102.476 27.6281C101.815 26.5185 101.37 25.409 100.71 23.8558C99.8193 21.6368 99.1588 19.4177 97.3853 17.6423C95.6118 15.8676 93.3931 14.9795 91.1817 14.3144C89.8462 13.87 88.5179 13.2048 87.4122 12.539C86.3065 11.8731 85.4161 10.7636 84.533 9.87629C82.9821 8.32309 81.2086 6.32548 78.9899 5.43815C76.7785 4.55009 74.3372 4.55006 72.1258 4.55006C70.5749 4.55006 69.2466 4.55006 68.1337 4.32858C67.0279 4.10639 65.6996 3.44056 64.3713 2.99689C62.3753 2.10955 60.1566 1 57.5 1C55.066 1 52.6247 2.10955 50.6287 2.99689C49.3004 3.66275 47.972 4.10639 46.8663 4.32858C45.538 4.55006 44.2025 4.55006 42.8742 4.55006C40.6627 4.55006 38.2215 4.32862 36.01 5.43815C33.7914 6.32548 32.0179 8.32309 30.467 9.87629C29.5839 10.9858 28.471 11.8731 27.5878 12.539C26.4821 13.2048 25.3692 13.6485 23.8183 14.3144C21.6068 15.2017 19.3882 15.8676 17.6147 17.6423C15.8412 19.4177 14.958 21.6368 14.2903 23.8558C13.8523 25.1875 13.1846 26.5185 12.524 27.6281C11.8563 28.7376 10.7505 29.6249 9.86022 30.513C8.30932 32.0662 6.31328 33.8416 5.43014 36.0606C4.54699 38.2797 4.54698 40.7203 4.54698 42.9393C4.54698 44.4925 4.54699 45.8242 4.32441 46.9338C4.10183 48.0433 3.43404 49.3743 2.99606 50.706C2.10573 52.7029 1 54.922 1 57.5847C1 60.026 2.10573 62.4665 2.99606 64.4641C3.65663 65.7951 4.10183 67.1268 4.32441 68.2364C4.54699 69.3459 4.54698 70.8991 4.54698 72.2308C4.54698 74.4491 4.3244 76.8904 5.43014 79.1095C6.31328 81.3285 8.30932 83.1039 9.86022 84.6571C10.9731 85.5445 11.8563 86.654 12.524 87.5413C13.1846 88.6509 13.6297 89.7604 14.2903 91.3143C15.1806 93.5334 15.8412 95.7517 17.6147 97.5271C18.2825 98.193 18.943 98.6367 19.8333 99.0803L9.63765 127.044C8.7545 129.258 9.19967 131.703 10.528 133.472C11.8563 135.248 14.0749 136.363 16.509 136.14L31.1347 135.025L41.5459 145.236C42.8742 146.567 44.6477 147.235 46.4212 147.235C46.8663 147.235 47.5269 147.235 47.972 147.012C50.1907 146.567 52.1796 144.79 52.8473 142.576L57.5 129.927L62.1527 142.576C63.0358 144.79 64.8093 146.344 67.0279 147.012C67.4731 147.235 68.1337 147.235 68.5788 147.235C70.3523 147.235 72.1258 146.567 73.4541 145.236L83.8652 135.025L98.491 136.14C100.925 136.363 103.144 135.248 104.472 133.472C105.8 131.703 106.246 129.258 105.362 127.044L95.1666 99.0803C96.0569 98.6367 96.7175 97.9708 97.3853 97.3057C99.1588 95.5303 100.042 93.3112 100.71 91.0921C101.148 89.7604 101.815 88.4294 102.476 87.3199C103.144 86.2103 104.249 85.323 105.14 84.435C106.691 82.8818 108.687 81.1064 109.57 78.8873C110.453 76.6682 110.453 74.2277 110.453 72.0086C110.453 70.4554 110.453 69.1237 110.676 68.0142C110.898 66.9046 111.566 65.5736 112.004 64.2419C112.894 62.245 114 60.026 114 57.3632C114 55.1442 112.894 52.7029 112.004 50.706ZM48.6398 141.461C48.4172 142.13 47.7494 142.799 47.0889 143.014C46.1985 143.237 45.538 143.014 44.8702 142.353L33.7914 131.257C33.3462 130.812 32.6857 130.589 32.0179 130.589L16.509 131.919C15.6258 131.919 14.9581 131.703 14.5129 131.035C14.0749 130.366 13.8523 129.704 14.2903 128.813L24.486 101.078C25.8144 101.522 26.9201 101.965 28.033 102.631C29.1387 103.297 30.0218 104.406 30.9122 105.294C32.4631 106.847 34.2366 108.844 36.448 109.732C38.6667 110.619 41.1007 110.619 43.3194 110.619C44.8703 110.619 46.1986 110.619 47.3043 110.841C48.4172 111.063 49.7455 111.729 51.0738 112.173C53.0699 113.061 55.2813 114.172 57.9451 114.172C58.1677 114.172 58.6057 114.172 58.8283 114.172L48.6398 141.461ZM100.71 131.035C100.264 131.703 99.5967 131.919 98.7136 131.919L82.982 130.589C82.3143 130.589 81.6537 130.812 81.2086 131.257L70.1297 142.353C69.462 143.014 68.8014 143.014 67.9111 143.014C67.0279 142.799 66.5828 142.353 66.3602 141.461L59.934 123.714L64.1487 112.395C64.3713 112.395 64.3713 112.173 64.5867 112.173C65.9222 111.507 67.2505 111.063 68.3563 110.841C69.6846 110.619 71.0129 110.619 72.3484 110.619C74.5599 110.619 77.001 110.841 79.2125 109.732C81.4311 108.844 83.2046 106.847 84.7555 105.294C85.6387 104.184 86.7444 103.297 87.6348 102.631C88.5179 101.965 89.6308 101.522 90.9591 101.078L100.925 128.813C101.37 129.704 101.148 130.366 100.71 131.035ZM107.796 62.6887C107.129 64.2419 106.468 65.7951 106.023 67.3483C105.578 69.1237 105.8 70.8991 105.8 72.4523C105.8 74.4491 106.023 76.2245 105.362 77.5563C104.695 78.8873 103.366 80.219 102.038 81.55C100.925 82.6596 99.5967 83.7691 98.7136 85.323C97.8233 86.8762 97.1627 88.4294 96.495 89.9826C95.8344 91.758 95.1666 93.5334 94.0609 94.4207C92.9552 95.5302 91.3971 96.1961 89.6308 96.8612C88.0799 97.5271 86.529 97.9708 84.9781 99.0803C83.6426 99.9684 82.3143 101.299 81.2086 102.409C79.8802 103.741 78.7745 105.072 77.2164 105.738C75.8881 106.403 74.1146 106.181 72.1258 106.181C70.3523 106.181 68.8014 106.181 67.0279 106.403C65.2545 106.626 63.9262 107.513 62.3753 108.179C61.9301 108.4 61.4849 108.622 61.0469 108.622C59.7186 109.066 58.6057 109.51 57.2774 109.51C55.7265 109.51 53.9531 108.845 52.4022 107.957C50.8513 107.291 49.3003 106.626 47.7495 106.181C46.6437 105.96 45.538 105.96 44.4251 105.96C43.7645 105.96 43.0968 105.96 42.6516 105.96C40.6627 105.96 38.8893 106.181 37.5609 105.516C36.2326 104.85 34.8971 103.518 33.5688 102.187C32.4631 101.078 31.3573 99.7462 29.8065 98.8588C28.2556 97.9708 26.7046 97.3056 25.1537 96.6398C23.3803 95.9739 21.6068 95.308 20.7165 94.1985C19.6108 93.089 18.943 91.5358 18.2824 89.7604C17.6147 88.2072 17.1767 86.654 16.0638 85.1008C15.1806 83.7691 13.8523 82.4381 12.7394 81.3286C11.4111 79.9968 10.0828 78.8873 9.42225 77.3341C8.75451 76.0031 8.97706 74.2277 8.97706 72.2308C8.97706 70.4554 8.97707 68.9022 8.75449 67.1268C8.53191 65.3514 7.64875 64.0204 6.981 62.4665C6.09785 60.6918 5.43014 59.1379 5.43014 57.5847C5.43014 56.0315 6.09785 54.2561 6.981 52.7029C7.64875 51.1497 8.30933 49.5965 8.75449 48.0433C9.19965 46.2679 8.97706 44.4925 8.97706 42.9393C8.97706 40.9425 8.75451 39.1671 9.42225 37.8353C10.0828 36.5043 11.4111 35.1726 12.7394 33.8416C13.8523 32.732 15.1806 31.6225 16.0638 30.0693C16.9541 28.5161 17.6147 26.9622 18.2824 25.409C18.943 23.6336 19.6108 21.8589 20.7165 20.9708C21.8294 19.8613 23.3803 19.1962 25.1537 18.5303C26.7046 17.8645 28.2556 17.4208 29.8065 16.3113C31.1348 15.4232 32.4631 14.0922 33.5688 12.9827C34.8971 11.651 36.01 10.3199 37.5609 9.65405C38.8893 8.98819 40.6627 9.21039 42.6516 9.21039C44.4251 9.21039 45.976 9.2104 47.7495 8.9882C49.5229 8.76673 50.8513 7.87865 52.4022 7.21279C54.1756 6.32545 55.7265 5.65962 57.2774 5.65962C58.8283 5.65962 60.6018 6.32545 62.1527 7.21279C63.7035 7.87865 65.2545 8.54453 66.8054 8.9882C68.5788 9.43187 70.3523 9.21039 71.9032 9.21039C73.8993 9.21039 75.6655 8.98819 77.001 9.65405C78.3294 10.3199 79.6577 11.651 80.986 12.9827C82.0917 14.0922 83.2046 15.4232 84.7555 16.3113C86.3064 17.1986 87.8573 17.8645 89.4082 18.5303C91.1817 19.1962 92.9552 19.8613 93.8383 20.9708C94.9441 22.0804 95.6118 23.6336 96.2724 25.409C96.9401 26.9622 97.3853 28.5161 98.491 30.0693C99.3742 31.4003 100.71 32.732 101.815 33.8416C103.144 35.1726 104.472 36.2821 105.14 37.8353C105.8 39.1671 105.578 40.9425 105.578 42.9393C105.578 44.7147 105.578 46.2679 105.8 48.0433C106.023 49.8187 106.913 51.1497 107.574 52.7029C108.464 54.4783 109.125 56.0315 109.125 57.5847C109.347 59.1379 108.687 60.9133 107.796 62.6887Z" fill="black" fill-opacity="0.4"/>
<path d="M112.004 50.706C111.343 49.3743 110.898 48.0433 110.676 46.9338C110.453 45.602 110.453 44.2711 110.453 42.9393C110.453 40.7203 110.676 38.2797 109.57 36.0606C108.687 33.8416 106.691 32.0662 105.14 30.513C104.027 29.6249 103.144 28.5161 102.476 27.6281C101.815 26.5185 101.37 25.409 100.71 23.8558C99.8193 21.6368 99.1588 19.4177 97.3853 17.6423C95.6118 15.8676 93.3931 14.9795 91.1817 14.3144C89.8462 13.87 88.5179 13.2048 87.4122 12.539C86.3065 11.8731 85.4161 10.7636 84.533 9.87629C82.9821 8.32309 81.2086 6.32548 78.9899 5.43815C76.7785 4.55009 74.3372 4.55006 72.1258 4.55006C70.5749 4.55006 69.2466 4.55006 68.1337 4.32858C67.0279 4.10639 65.6996 3.44056 64.3713 2.99689C62.3753 2.10955 60.1566 1 57.5 1C55.066 1 52.6247 2.10955 50.6287 2.99689C49.3004 3.66275 47.972 4.10639 46.8663 4.32858C45.538 4.55006 44.2025 4.55006 42.8742 4.55006C40.6627 4.55006 38.2215 4.32862 36.01 5.43815C33.7914 6.32548 32.0179 8.32309 30.467 9.87629C29.5839 10.9858 28.471 11.8731 27.5878 12.539C26.4821 13.2048 25.3692 13.6485 23.8183 14.3144C21.6068 15.2017 19.3882 15.8676 17.6147 17.6423C15.8412 19.4177 14.958 21.6368 14.2903 23.8558C13.8523 25.1875 13.1846 26.5185 12.524 27.6281C11.8563 28.7376 10.7505 29.6249 9.86022 30.513C8.30932 32.0662 6.31328 33.8416 5.43014 36.0606C4.54699 38.2797 4.54698 40.7203 4.54698 42.9393C4.54698 44.4925 4.54699 45.8242 4.32441 46.9338C4.10183 48.0433 3.43404 49.3743 2.99606 50.706C2.10573 52.7029 1 54.922 1 57.5847C1 60.026 2.10573 62.4665 2.99606 64.4641C3.65663 65.7951 4.10183 67.1268 4.32441 68.2364C4.54699 69.3459 4.54698 70.8991 4.54698 72.2308C4.54698 74.4491 4.3244 76.8904 5.43014 79.1095C6.31328 81.3285 8.30932 83.1039 9.86022 84.6571C10.9731 85.5445 11.8563 86.654 12.524 87.5413C13.1846 88.6509 13.6297 89.7604 14.2903 91.3143C15.1806 93.5334 15.8412 95.7517 17.6147 97.5271C18.2825 98.193 18.943 98.6367 19.8333 99.0803L9.63765 127.044C8.7545 129.258 9.19967 131.703 10.528 133.472C11.8563 135.248 14.0749 136.363 16.509 136.14L31.1347 135.025L41.5459 145.236C42.8742 146.567 44.6477 147.235 46.4212 147.235C46.8663 147.235 47.5269 147.235 47.972 147.012C50.1907 146.567 52.1796 144.79 52.8473 142.576L57.5 129.927L62.1527 142.576C63.0358 144.79 64.8093 146.344 67.0279 147.012C67.4731 147.235 68.1337 147.235 68.5788 147.235C70.3523 147.235 72.1258 146.567 73.4541 145.236L83.8652 135.025L98.491 136.14C100.925 136.363 103.144 135.248 104.472 133.472C105.8 131.703 106.246 129.258 105.362 127.044L95.1666 99.0803C96.0569 98.6367 96.7175 97.9708 97.3853 97.3057C99.1588 95.5303 100.042 93.3112 100.71 91.0921C101.148 89.7604 101.815 88.4294 102.476 87.3199C103.144 86.2103 104.249 85.323 105.14 84.435C106.691 82.8818 108.687 81.1064 109.57 78.8873C110.453 76.6682 110.453 74.2277 110.453 72.0086C110.453 70.4554 110.453 69.1237 110.676 68.0142C110.898 66.9046 111.566 65.5736 112.004 64.2419C112.894 62.245 114 60.026 114 57.3632C114 55.1442 112.894 52.7029 112.004 50.706ZM48.6398 141.461C48.4172 142.13 47.7494 142.799 47.0889 143.014C46.1985 143.237 45.538 143.014 44.8702 142.353L33.7914 131.257C33.3462 130.812 32.6857 130.589 32.0179 130.589L16.509 131.919C15.6258 131.919 14.9581 131.703 14.5129 131.035C14.0749 130.366 13.8523 129.704 14.2903 128.813L24.486 101.078C25.8144 101.522 26.9201 101.965 28.033 102.631C29.1387 103.297 30.0218 104.406 30.9122 105.294C32.4631 106.847 34.2366 108.844 36.448 109.732C38.6667 110.619 41.1007 110.619 43.3194 110.619C44.8703 110.619 46.1986 110.619 47.3043 110.841C48.4172 111.063 49.7455 111.729 51.0738 112.173C53.0699 113.061 55.2813 114.172 57.9451 114.172C58.1677 114.172 58.6057 114.172 58.8283 114.172L48.6398 141.461ZM100.71 131.035C100.264 131.703 99.5967 131.919 98.7136 131.919L82.982 130.589C82.3143 130.589 81.6537 130.812 81.2086 131.257L70.1297 142.353C69.462 143.014 68.8014 143.014 67.9111 143.014C67.0279 142.799 66.5828 142.353 66.3602 141.461L59.934 123.714L64.1487 112.395C64.3713 112.395 64.3713 112.173 64.5867 112.173C65.9222 111.507 67.2505 111.063 68.3563 110.841C69.6846 110.619 71.0129 110.619 72.3484 110.619C74.5599 110.619 77.001 110.841 79.2125 109.732C81.4311 108.844 83.2046 106.847 84.7555 105.294C85.6387 104.184 86.7444 103.297 87.6348 102.631C88.5179 101.965 89.6308 101.522 90.9591 101.078L100.925 128.813C101.37 129.704 101.148 130.366 100.71 131.035ZM107.796 62.6887C107.129 64.2419 106.468 65.7951 106.023 67.3483C105.578 69.1237 105.8 70.8991 105.8 72.4523C105.8 74.4491 106.023 76.2245 105.362 77.5563C104.695 78.8873 103.366 80.219 102.038 81.55C100.925 82.6596 99.5967 83.7691 98.7136 85.323C97.8233 86.8762 97.1627 88.4294 96.495 89.9826C95.8344 91.758 95.1666 93.5334 94.0609 94.4207C92.9552 95.5302 91.3971 96.1961 89.6308 96.8612C88.0799 97.5271 86.529 97.9708 84.9781 99.0803C83.6426 99.9684 82.3143 101.299 81.2086 102.409C79.8802 103.741 78.7745 105.072 77.2164 105.738C75.8881 106.403 74.1146 106.181 72.1258 106.181C70.3523 106.181 68.8014 106.181 67.0279 106.403C65.2545 106.626 63.9262 107.513 62.3753 108.179C61.9301 108.4 61.4849 108.622 61.0469 108.622C59.7186 109.066 58.6057 109.51 57.2774 109.51C55.7265 109.51 53.9531 108.845 52.4022 107.957C50.8513 107.291 49.3003 106.626 47.7495 106.181C46.6437 105.96 45.538 105.96 44.4251 105.96C43.7645 105.96 43.0968 105.96 42.6516 105.96C40.6627 105.96 38.8893 106.181 37.5609 105.516C36.2326 104.85 34.8971 103.518 33.5688 102.187C32.4631 101.078 31.3573 99.7462 29.8065 98.8588C28.2556 97.9708 26.7046 97.3056 25.1537 96.6398C23.3803 95.9739 21.6068 95.308 20.7165 94.1985C19.6108 93.089 18.943 91.5358 18.2824 89.7604C17.6147 88.2072 17.1767 86.654 16.0638 85.1008C15.1806 83.7691 13.8523 82.4381 12.7394 81.3286C11.4111 79.9968 10.0828 78.8873 9.42225 77.3341C8.75451 76.0031 8.97706 74.2277 8.97706 72.2308C8.97706 70.4554 8.97707 68.9022 8.75449 67.1268C8.53191 65.3514 7.64875 64.0204 6.981 62.4665C6.09785 60.6918 5.43014 59.1379 5.43014 57.5847C5.43014 56.0315 6.09785 54.2561 6.981 52.7029C7.64875 51.1497 8.30933 49.5965 8.75449 48.0433C9.19965 46.2679 8.97706 44.4925 8.97706 42.9393C8.97706 40.9425 8.75451 39.1671 9.42225 37.8353C10.0828 36.5043 11.4111 35.1726 12.7394 33.8416C13.8523 32.732 15.1806 31.6225 16.0638 30.0693C16.9541 28.5161 17.6147 26.9622 18.2824 25.409C18.943 23.6336 19.6108 21.8589 20.7165 20.9708C21.8294 19.8613 23.3803 19.1962 25.1537 18.5303C26.7046 17.8645 28.2556 17.4208 29.8065 16.3113C31.1348 15.4232 32.4631 14.0922 33.5688 12.9827C34.8971 11.651 36.01 10.3199 37.5609 9.65405C38.8893 8.98819 40.6627 9.21039 42.6516 9.21039C44.4251 9.21039 45.976 9.2104 47.7495 8.9882C49.5229 8.76673 50.8513 7.87865 52.4022 7.21279C54.1756 6.32545 55.7265 5.65962 57.2774 5.65962C58.8283 5.65962 60.6018 6.32545 62.1527 7.21279C63.7035 7.87865 65.2545 8.54453 66.8054 8.9882C68.5788 9.43187 70.3523 9.21039 71.9032 9.21039C73.8993 9.21039 75.6655 8.98819 77.001 9.65405C78.3294 10.3199 79.6577 11.651 80.986 12.9827C82.0917 14.0922 83.2046 15.4232 84.7555 16.3113C86.3064 17.1986 87.8573 17.8645 89.4082 18.5303C91.1817 19.1962 92.9552 19.8613 93.8383 20.9708C94.9441 22.0804 95.6118 23.6336 96.2724 25.409C96.9401 26.9622 97.3853 28.5161 98.491 30.0693C99.3742 31.4003 100.71 32.732 101.815 33.8416C103.144 35.1726 104.472 36.2821 105.14 37.8353C105.8 39.1671 105.578 40.9425 105.578 42.9393C105.578 44.7147 105.578 46.2679 105.8 48.0433C106.023 49.8187 106.913 51.1497 107.574 52.7029C108.464 54.4783 109.125 56.0315 109.125 57.5847C109.347 59.1379 108.687 60.9133 107.796 62.6887Z" stroke="black" stroke-opacity="0.39" mask="url(#path-1-outside-1_728_4056)"/>
<path d="M25.24 57.3285C25.24 39.6488 39.5694 25.258 57.176 25.258C62.0917 25.258 66.7952 26.2859 71.094 28.5476C72.1223 28.9586 73.3496 28.5476 73.9599 27.5197C74.3712 26.4917 73.9599 25.258 72.9383 24.6411C68.0225 22.1742 62.7021 20.9412 57.176 20.9412C37.3205 20.9412 20.9412 37.1819 20.9412 57.3285C20.9412 65.5518 23.8071 73.5693 28.9219 79.942C29.3332 80.5589 29.9501 80.7647 30.5605 80.7647C30.9718 80.7647 31.5887 80.5589 31.7877 80.353C32.6103 79.5309 32.816 78.2972 32.1991 77.4751C27.6946 71.7187 25.24 64.7291 25.24 57.3285Z" fill="#2D2B29" fill-opacity="0.4"/>
<path d="M71.0475 28.6361L71.0472 28.6366L71.0569 28.6405C72.1326 29.0705 73.4114 28.6393 74.0459 27.5707L74.0499 27.564L74.0527 27.5568C74.483 26.4815 74.0517 25.1966 72.99 24.5555L72.9901 24.5552L72.9831 24.5517C68.0531 22.0777 62.7173 20.8412 57.176 20.8412C37.2652 20.8412 20.8412 37.1267 20.8412 57.3285C20.8412 65.5734 23.714 73.6115 28.8411 80.0012C29.276 80.6505 29.9281 80.8647 30.5605 80.8647C30.7801 80.8647 31.0482 80.8103 31.2854 80.7309C31.5186 80.6528 31.7418 80.544 31.8591 80.4231C32.7062 79.576 32.9336 78.2873 32.2791 77.4151L32.2778 77.4135C27.7869 71.6744 25.34 64.7065 25.34 57.3285C25.34 39.7036 39.625 25.358 57.176 25.358C62.0775 25.358 66.7647 26.3829 71.0475 28.6361Z" stroke="black" stroke-opacity="0.32" stroke-width="0.2"/>
<path d="M87.4943 41.0392C86.4634 41.4484 86.0577 42.8813 86.4634 43.9049C88.5186 48.2041 89.749 52.912 89.749 57.8255C89.749 75.4304 75.3827 89.7596 57.7308 89.7596C50.3415 89.7596 43.3645 87.3032 37.618 82.7996C36.7933 81.981 35.3566 82.1854 34.7447 83.2089C33.92 84.0282 34.1262 85.461 35.1504 86.0746C41.5155 91.1924 49.5234 94.0588 57.7308 94.0588C77.6374 94.0588 94.0589 77.8868 94.0589 57.8255C94.0589 52.2984 92.8284 46.9756 90.3675 42.0627C89.9552 41.0392 88.5185 40.6299 87.4943 41.0392Z" fill="#2D2B29" fill-opacity="0.4"/>
<path d="M86.3704 43.9417L86.3702 43.9418L86.3732 43.948C88.4228 48.2357 89.649 52.9289 89.649 57.8255C89.649 75.3749 75.3277 89.6596 57.7308 89.6596C50.3661 89.6596 43.4125 87.2122 37.6842 82.7245C36.8132 81.8654 35.3114 82.0816 34.6654 83.1469C33.8033 84.0149 34.0255 85.5122 35.0931 86.1568C41.4748 91.286 49.5026 94.1588 57.7308 94.1588C77.692 94.1588 94.1589 77.9426 94.1589 57.8255C94.1589 52.2846 92.9256 46.9476 90.4587 42.0216C90.2381 41.4777 89.7492 41.104 89.1919 40.9187C88.6334 40.733 87.9938 40.7319 87.4574 40.9462C86.9077 41.1645 86.5315 41.6525 86.3453 42.21C86.159 42.7673 86.158 43.4058 86.3704 43.9417Z" stroke="black" stroke-opacity="0.32" stroke-width="0.2"/>
<path d="M78.3139 32.9209C79.7171 34.0119 81.1113 35.376 82.2248 36.7402C82.7861 37.2857 83.628 37.5588 84.4609 37.5588C85.0222 37.5588 85.8642 37.2857 86.4165 36.7402C87.5391 35.6492 87.8197 34.0118 86.6971 32.6477C85.3029 31.0112 83.9087 29.6471 82.2248 28.2829C81.1113 27.192 79.1557 27.4643 78.0422 28.5552C77.2002 30.1926 77.2003 31.83 78.3139 32.9209Z" fill="black" fill-opacity="0.34"/>
</svg>
