<svg width="342" height="110" viewBox="0 0 342 110" fill="none" xmlns="http://www.w3.org/2000/svg">
<path d="M173.5 28.7161C199.8 28.7161 193 73.316 208.5 95.316C224.1 117.316 283 106.216 283 106.216C313.3 96.1161 317.4 68.0161 319.6 57.6161C321.9 47.2161 326.9 41.6161 331.4 41.6161C336 41.6161 341.6 38.6161 341.6 28.7161C341.6 18.8161 332.7 19.316 325.2 19.316C317.7 19.316 315.4 16.0161 315.4 16.0161C299.3 -3.58394 264.2 0.316045 243 0.316045C221.8 0.316045 208.5 5.5 202.5 10.5C194.5 16.0161 190.5 28.7161 190.5 28.7161C184.6 21.5161 173.5 21.5 173.5 21.5C173.5 21.5 161.4 21.5161 155.5 28.7161C155.5 28.7161 149 16.5 141 10.5C134.333 5.5 119.8 0.316045 98.6 0.316045C77.4 0.316045 42.3 -3.58394 26.2 16.0161C26.2 16.0161 23.9 19.316 16.4 19.316C8.90002 19.316 0 18.8161 0 28.7161C0 38.6161 5.60001 41.6161 10.2 41.6161C14.8 41.6161 19.7 47.2161 22 57.6161C24.3 68.0161 27.8 96.1161 58 106.216C58 106.216 117.6 117.316 133.1 95.316C151.1 74.5 147.1 28.7161 173.5 28.7161Z" fill="url(#paint0_linear_747_3761)"/>
<path d="M85.9332 4.01866C85.9332 4.01866 29.5796 1.43051 26.5 27.5C26.5 54.6678 20.0913 105.834 85.9332 105.834C85.9332 105.834 124.594 106.755 134 88.5C143.406 70.245 154 33.58 144.217 20C135.63 8.07999 112.143 4.01866 85.9332 4.01866Z" fill="white"/>
<path d="M255.733 4.07247C255.733 4.07247 315.969 1.4113 315.969 28.3422C315.969 55.2731 319.338 105.941 255.733 105.941C255.733 105.941 218.775 107.858 209.689 89.7617C200.602 71.6658 190.414 30.1026 199.5 18.5C208.586 6.89736 230.414 4.07247 255.733 4.07247Z" fill="white"/>
<defs>
<linearGradient id="paint0_linear_747_3761" x1="550.487" y1="54.5081" x2="550.987" y2="54.5081" gradientUnits="userSpaceOnUse">
<stop offset="1" stop-opacity="0.4"/>
</linearGradient>
</defs>
</svg>
