<svg width="1242" height="102" viewBox="0 0 1242 102" fill="none" xmlns="http://www.w3.org/2000/svg">
<path d="M1167.39 54.1474C1161.89 41.5474 1147.79 33.1474 1127.99 30.8474C1106.49 28.3474 1100.69 31.7474 1092.19 52.1474C1090.79 52.0474 1090.69 50.5474 1089.89 49.7474C1096.29 28.2474 1114.89 19.5474 1139.99 26.7474C1144.79 28.1474 1149.29 30.7474 1153.89 32.7474C1155.49 31.9474 1156.99 32.0474 1158.39 33.3474C1163.29 40.6474 1171.59 43.7474 1177.19 53.3474C1176.99 44.7474 1173.19 38.8474 1177.19 33.1474C1177.99 32.1474 1178.99 31.9474 1180.09 32.6474C1182.79 38.5474 1182.49 44.9474 1182.89 51.1474C1182.09 55.0474 1182.39 58.4474 1185.29 61.6474C1187.49 64.0474 1189.59 67.1474 1186.59 70.6474C1182.99 63.2474 1174.29 65.3474 1169.49 60.0474C1169.09 58.0474 1165.99 57.0474 1167.39 54.1474Z" fill="#F7C787"/>
<path d="M1186.59 70.6472C1186.19 63.5472 1176.29 60.1472 1180.39 51.3472C1184.79 51.1472 1186.29 55.1472 1188.29 58.0472C1190.89 61.6472 1193.49 65.4472 1196.79 68.3472C1201.49 72.4472 1207.09 78.6472 1212.39 76.3472C1217.49 74.1472 1213.19 66.0472 1213.89 60.6472C1214.49 56.1472 1213.79 51.4472 1214.39 46.8472C1214.89 42.7472 1217.69 41.0472 1220.99 39.9472C1222.59 34.3472 1226.29 30.1472 1229.49 25.6472C1233.59 24.4472 1236.09 17.5472 1241.79 21.6472C1229.49 32.0472 1220.59 44.9472 1219.49 62.1472C1218.39 78.5472 1223.29 82.7472 1236.89 78.8472C1226.69 91.9472 1207.69 88.8472 1186.59 70.6472Z" fill="#D9903A"/>
<path d="M1022.79 63.6473C1010.89 64.9473 999.19 70.4473 986.89 66.1473C983.29 64.9473 979.79 63.7473 976.39 61.3473C989.49 64.1473 1002.29 62.2473 1014.59 58.4473C1021.89 56.2473 1031.19 55.3473 1033.59 44.6473C1032.99 39.2473 1039.79 40.0473 1040.19 35.4473C1043.69 29.2473 1050.49 34.0473 1054.79 30.4473C1058.09 33.5473 1051.79 36.8473 1054.89 39.8473C1048.39 44.8473 1041.89 49.8473 1035.29 54.9473C1032.09 57.3473 1028.59 59.3473 1026.79 63.3473C1025.49 64.8473 1024.19 64.9473 1022.79 63.6473Z" fill="#F9C686"/>
<path d="M1089.99 49.7473C1090.79 50.5473 1091.49 51.3473 1092.19 52.1473C1092.29 77.4473 1105.69 88.2473 1131.19 82.3473C1124.69 90.4473 1117.49 92.2473 1108.99 89.5473C1096.99 85.7473 1090.79 76.9473 1089.39 63.8473C1088.29 62.0473 1088.29 60.1473 1089.39 58.3473C1089.59 55.5473 1089.79 52.6473 1089.99 49.7473Z" fill="#D8782E"/>
<path d="M1054.79 39.8473C1048.89 36.8473 1054.99 33.5473 1054.69 30.3473C1073.79 11.3473 1094.39 7.64735 1109.29 21.6473C1085.79 10.4473 1068.99 20.8473 1054.79 39.8473Z" fill="#D89036"/>
<path d="M1085.19 54.5473C1075.79 45.9473 1073.19 46.7473 1069.69 59.1473C1068.79 62.3473 1068.39 66.8473 1063.79 65.5473C1059.99 64.4473 1059.89 60.3473 1060.19 56.8473C1060.69 50.8473 1063.79 46.7473 1069.29 45.5473C1076.59 43.9473 1082.89 45.2473 1085.59 54.1473L1085.19 54.5473Z" fill="#E09137"/>
<path d="M1022.79 63.6474C1024.09 63.5474 1025.39 63.4474 1026.79 63.3474C1020.99 89.0474 1030.99 100.447 1053.89 94.3474C1046.79 101.447 1042.49 101.847 1033.79 97.4474C1023.79 92.4474 1021.59 83.0474 1021.39 72.6474C1021.19 69.7474 1022.29 66.7474 1022.79 63.6474Z" fill="#FEE5BC"/>
<path d="M980.09 31.3474C986.99 24.9474 993.69 24.7474 999.49 32.6474C1003.29 37.8474 1000.69 45.7474 995.29 46.3474C991.99 46.7474 989.69 44.9474 989.79 41.1474C990.19 29.9474 990.19 29.9474 979.69 33.2474C979.09 32.6474 978.99 32.1474 979.29 31.7474C979.59 31.5474 979.89 31.3474 980.09 31.3474Z" fill="#DA8A36"/>
<path d="M1115.79 60.5473C1116.89 57.9473 1126.99 60.6473 1119.69 52.8473C1117.49 50.4473 1119.09 47.9473 1121.39 46.2473C1123.99 44.2473 1126.19 45.7473 1127.99 47.6473C1132.19 52.0473 1130.59 59.9473 1124.89 62.9473C1121.19 64.8473 1117.39 64.8473 1113.49 63.4473C1112.89 61.2473 1113.69 60.2473 1115.79 60.5473Z" fill="#DB7C2F"/>
<path d="M1179.79 33.1474C1178.89 33.1474 1178.09 33.1474 1177.19 33.1474C1183.79 13.5474 1202.79 9.84743 1215.59 25.6474C1215.09 26.7474 1214.29 27.2474 1213.29 27.3474C1200.79 19.6474 1189.79 22.8474 1179.79 33.1474Z" fill="#ECB972"/>
<path d="M1039.99 35.4473C1039.79 37.5473 1037.59 40.6473 1033.49 44.6473C1032.39 44.8473 1031.09 44.6473 1030.39 45.2473C1027.19 47.9473 1023.99 48.3473 1020.69 45.8473C1019.99 45.3473 1019.59 43.6473 1019.79 42.8473C1021.39 38.3473 1025.19 40.1473 1028.09 39.8473C1032.39 39.3473 1036.29 37.6473 1039.99 35.4473Z" fill="#CA7C30"/>
<path d="M1221.09 40.0473C1221.39 43.3473 1216.09 42.9473 1217.19 46.7473C1210.69 57.3473 1207.69 58.4473 1199.29 53.0473C1199.99 49.6473 1202.99 49.0473 1205.19 47.4473C1214.09 43.7473 1210.29 33.5473 1214.19 27.3473C1214.69 26.8473 1215.29 26.2473 1215.79 25.7473C1219.99 29.3473 1217.49 35.9473 1221.09 40.0473Z" fill="#F3C480"/>
<path d="M1167.39 54.1473C1168.09 56.1473 1168.79 58.0473 1169.49 60.0473C1163.99 57.2473 1158.69 54.1473 1152.29 54.1473C1150.39 54.1473 1148.59 52.4473 1148.59 50.5473C1148.69 47.9473 1150.69 46.7473 1153.19 46.8473C1158.99 46.9473 1163.19 50.7473 1167.39 54.1473Z" fill="#DA7B32"/>
<path d="M1115.79 60.5474C1114.99 61.5474 1114.19 62.4474 1113.39 63.4474C1101.29 53.9474 1101.49 43.3474 1115.79 32.0474C1112.39 38.7474 1107.79 42.0474 1107.09 47.6474C1106.09 55.1474 1111.79 57.1474 1115.79 60.5474Z" fill="#F8D4A7"/>
<path d="M1057.29 75.3474C1064.49 78.0474 1071.79 79.3474 1079.09 75.5474C1080.09 76.6474 1080.09 77.6474 1079.09 78.7474C1071.79 83.0474 1064.49 85.3474 1057.19 78.6474C1056.19 77.4474 1056.19 76.3474 1057.29 75.3474Z" fill="#F3D593"/>
<path d="M1158.49 33.3473C1156.99 33.1473 1155.49 32.9473 1153.99 32.7473C1152.89 23.5473 1150.39 14.1473 1157.99 6.24731C1154.99 15.3473 1155.09 24.3473 1158.49 33.3473Z" fill="#FEE5C0"/>
<path d="M1057.29 75.3473C1057.29 76.4473 1057.29 77.5473 1057.19 78.6473C1046.59 70.5473 1045.19 66.8473 1047.79 50.9473C1048.79 60.0473 1048.39 69.9473 1057.29 75.3473Z" fill="#E7B264"/>
<path d="M980.089 31.3474C980.489 32.1474 980.289 32.7474 979.689 33.2474C977.789 40.8474 978.889 48.2474 983.089 55.2474C973.689 50.0474 972.589 41.4474 980.089 31.3474Z" fill="#FADAA9"/>
<path d="M1079.09 78.6474V75.4474C1086.29 70.2474 1085.39 62.1474 1085.29 54.4474L1085.69 54.0474C1086.99 55.4474 1088.19 56.9474 1089.39 58.3474C1089.39 60.1474 1089.39 62.0474 1089.39 63.8474C1086.69 69.4474 1085.69 76.3474 1079.09 78.6474Z" fill="#EBB863"/>
<path d="M1199.39 52.2473C1193.99 51.4473 1191.29 47.9473 1190.89 42.3473C1190.59 38.1473 1190.09 32.6473 1194.99 32.1473C1199.49 31.6473 1199.69 36.6473 1199.69 40.6473C1199.69 45.3473 1201.29 48.7473 1205.89 49.8473C1204.39 52.4473 1201.59 51.2473 1199.39 52.2473Z" fill="#D18438"/>
<path d="M904.089 64.9472C892.189 66.2472 880.489 71.7472 868.189 67.4472C864.589 66.2472 861.089 65.0472 857.689 62.6472C870.789 65.4472 883.589 63.5472 895.889 59.7472C903.189 57.5472 912.39 56.6472 914.79 45.8472C914.19 40.4472 920.99 41.2472 921.29 36.6472C924.79 30.4472 931.589 35.2472 935.889 31.6472C939.189 34.7472 932.89 38.0472 935.99 41.0472C929.49 46.0472 922.989 51.0472 916.389 56.1472C913.189 58.5472 909.689 60.5472 907.889 64.5472C906.789 66.0472 905.489 66.1472 904.089 64.9472Z" fill="#F9C686"/>
<path d="M885.089 13.2474C861.189 -0.352575 846.189 12.6474 845.089 47.7474C837.589 30.2474 843.39 10.9474 858.29 4.04742C869.79 -1.35258 880.589 2.34743 885.089 13.2474Z" fill="#D68339"/>
<path d="M936.189 41.0474C930.289 38.0474 936.389 34.7474 936.089 31.6474C955.189 12.6474 975.789 8.9474 990.689 22.9474C967.189 11.7474 950.389 22.1474 936.189 41.0474Z" fill="#D89036"/>
<path d="M966.589 55.7473C957.189 47.1473 954.589 47.9473 951.089 60.3473C950.189 63.5473 949.789 68.0473 945.189 66.7473C941.389 65.6473 941.289 61.5473 941.589 58.0473C942.089 51.9473 945.189 47.9473 950.689 46.7473C957.989 45.1473 964.289 46.4473 966.989 55.3473L966.589 55.7473Z" fill="#E09137"/>
<path d="M904.089 64.9472C905.389 64.8472 906.789 64.7472 908.089 64.6472C902.289 90.3472 912.29 101.747 935.19 95.6472C927.99 102.747 923.789 103.147 915.089 98.7472C905.089 93.7472 902.89 84.3472 902.69 73.9472C902.59 70.9472 903.589 67.9472 904.089 64.9472Z" fill="#FEE5BC"/>
<path d="M861.489 32.5474C868.389 26.1474 875.089 25.9474 880.889 33.8474C884.689 39.0473 882.089 46.9474 876.689 47.5474C873.389 47.9474 871.089 46.1474 871.189 42.3474C871.589 31.1474 871.689 31.1474 861.089 34.4474C860.489 33.8474 860.389 33.3474 860.689 32.9474C860.889 32.7474 861.189 32.5474 861.489 32.5474Z" fill="#DA8A36"/>
<path d="M921.39 36.7473C921.19 38.8473 918.99 41.9473 914.89 45.9473C913.79 46.1473 912.49 45.9473 911.79 46.5473C908.59 49.2473 905.39 49.6473 901.99 47.1473C901.39 46.6473 900.89 44.9473 901.09 44.1473C902.69 39.6473 906.49 41.4473 909.39 41.1473C913.79 40.5473 917.59 38.8473 921.39 36.7473Z" fill="#CA7C30"/>
<path d="M938.59 76.5474C945.79 79.2474 953.09 80.5474 960.39 76.7474C961.39 77.8474 961.39 78.8474 960.39 79.9474C953.09 84.2474 945.79 86.5474 938.59 79.8474C937.49 78.6474 937.49 77.5474 938.59 76.5474Z" fill="#F3D593"/>
<path d="M938.589 76.5472C938.589 77.6472 938.589 78.7472 938.489 79.8472C927.789 71.7472 926.489 68.0472 929.089 52.1472C930.189 61.2472 929.689 71.1472 938.589 76.5472Z" fill="#E7B264"/>
<path d="M861.489 32.5474C861.889 33.3474 861.689 33.9474 861.089 34.4474C859.189 42.0474 860.289 49.4474 864.389 56.4474C854.989 51.2474 853.989 42.6474 861.489 32.5474Z" fill="#FADAA9"/>
<path d="M960.39 79.8473V76.6473C967.59 71.4473 966.69 63.3473 966.59 55.6473L966.99 55.2473C968.29 56.6473 969.49 58.1473 970.69 59.5473C970.69 61.3473 970.69 63.2473 970.69 65.0473C967.99 70.6473 966.99 77.5473 960.39 79.8473Z" fill="#EBB863"/>
<path d="M53.4893 52.7473C54.3893 49.8473 55.3892 46.9473 56.2892 44.1473C63.3892 22.2473 55.1892 6.84732 36.5892 7.24732C34.9892 7.24732 33.1893 8.94732 30.9893 5.94732C39.8893 0.947317 47.8892 1.64732 54.7892 9.44732C63.1892 18.8473 64.0892 30.8473 60.5892 44.6473C66.5892 33.0473 79.6892 30.3473 81.6892 13.4473C82.7892 18.4473 82.5893 23.3473 88.4893 19.6473C98.9893 13.1473 110.389 11.0473 122.089 14.3473C125.389 15.2473 128.889 15.5473 131.089 19.9473C106.589 17.3473 83.9892 20.4473 68.1892 48.3473C69.3892 49.4473 70.1892 50.8473 70.3892 52.8473C61.5892 54.4473 55.6892 62.1473 49.2892 68.8473C46.7892 64.9473 49.3892 62.7473 50.8892 60.0473C52.1892 57.9473 55.0893 56.6473 53.4893 52.7473Z" fill="#F2C47A"/>
<path d="M175.689 14.6472C184.989 18.9472 188.789 32.8472 198.489 36.4472L198.389 36.3472C209.389 53.5472 224.689 55.4472 240.389 55.6472L240.289 55.4472C245.089 61.7472 249.889 53.2472 254.989 55.0472C247.689 66.4472 229.189 64.7472 210.689 56.7472C208.889 59.8472 212.589 63.4472 209.789 67.2472C207.189 50.5472 194.389 47.0472 186.389 34.2472C189.489 52.2472 191.089 67.5472 177.289 76.6472C176.389 75.8472 174.989 75.7472 174.889 73.8472C186.989 65.6472 187.189 52.5472 183.789 37.9472C182.789 32.4472 181.589 27.3472 177.889 23.4472C175.889 21.3472 173.389 18.7472 175.689 14.6472Z" fill="#F9CE91"/>
<path d="M53.4892 52.7473C56.3892 52.8473 56.9892 54.3473 55.1892 57.3473C52.9892 61.0473 49.5892 63.6473 49.1892 68.8473C32.2892 86.8473 16.3892 89.9473 3.08918 77.9473C7.08918 73.3473 12.3891 84.8473 15.7891 76.5473C18.8891 68.9473 20.4892 60.5473 19.1892 51.9473C16.7892 35.9473 10.0892 23.2473 0.589178 12.8473C-0.610822 8.64733 -0.210797 5.54733 3.9892 7.54733C6.4892 8.74733 7.68915 12.5473 9.68915 14.7473C21.3892 31.6473 25.5892 51.0473 20.5892 72.9473C18.3892 82.6473 23.4892 80.3473 26.5892 79.1473C38.0892 74.6473 46.5892 64.8473 53.4892 52.7473Z" fill="#D78D37"/>
<path d="M146.189 58.6474C145.289 73.0474 139.29 82.8474 128.99 87.9474C120.39 92.2474 112.689 89.8474 106.189 80.4474C116.989 84.3474 126.989 84.4474 135.589 73.6474C144.289 62.5474 145.29 49.6474 140.79 33.3474C144.09 38.7474 145.989 44.9474 146.389 51.9474C147.389 54.2474 147.289 56.4474 146.189 58.6474Z" fill="#DC8037"/>
<path d="M175.689 14.6472C178.689 22.1472 186.789 26.8472 183.689 37.8472C178.389 26.5472 171.29 17.6472 162.49 10.8472C151.09 2.14723 139.589 2.74722 126.189 11.7472C137.389 -5.45278 157.789 -3.15277 175.689 14.6472Z" fill="#DD9036"/>
<path d="M24.8896 39.1473C33.7896 45.0473 37.2897 43.3473 38.7897 30.7473C39.3897 26.0473 39.6897 20.7473 44.2897 21.7473C47.9897 22.5473 47.4897 27.9473 47.5897 31.9473C47.6897 37.2473 46.2897 42.2473 42.2897 43.9473C35.9897 46.7473 29.5896 46.8473 24.8896 39.1473Z" fill="#CF8336"/>
<path d="M252.889 22.8473C250.189 22.0473 247.489 20.3473 244.889 20.8473C242.089 21.3473 235.089 20.8473 241.889 28.5473C244.689 31.6473 243.589 35.1473 240.989 37.4473C238.089 40.0473 235.689 37.7473 233.789 34.9473C231.289 31.1473 230.889 26.8473 233.289 22.6473C236.389 17.2473 240.589 14.3473 245.789 15.7473C249.089 16.5473 251.789 18.6473 252.889 22.8473Z" fill="#DD8131"/>
<path d="M146.189 58.6474C146.189 56.4474 146.29 54.2474 146.29 51.9474C150.09 45.4474 152.189 36.1474 160.589 36.8474C161.689 38.4474 161.689 39.9474 160.589 41.4474C151.789 42.1474 149.689 49.6474 150.389 59.0474C151.189 69.0474 159.289 76.7474 167.689 75.8474C169.989 75.6474 172.289 74.4474 174.589 73.6474C175.389 74.5474 176.19 75.5474 176.99 76.4474C162.69 84.1474 153.089 78.5474 146.189 58.6474Z" fill="#ECC16D"/>
<path d="M160.689 41.4474C160.689 39.9474 160.689 38.4474 160.689 36.8474C167.989 37.4474 174.39 39.7474 174.79 51.3474C174.89 55.4474 174.389 59.9474 170.589 60.6474C166.989 61.2474 166.19 56.8474 165.79 53.4474C165.19 48.6474 164.989 43.6474 160.689 41.4474Z" fill="#E46F2D"/>
<path d="M126.889 52.8473C119.189 61.5473 110.99 60.8473 107.29 51.5473C105.29 46.6473 106.689 42.8473 109.089 39.4473C110.889 36.8473 113.289 36.2473 115.589 38.5473C118.889 41.9473 117.79 44.8473 115.29 48.4473C112.39 52.5473 115.99 54.1473 117.99 54.3473C120.99 54.6473 123.99 53.5473 126.99 53.0473L126.889 52.8473Z" fill="#D88636"/>
<path d="M198.489 36.4473C196.289 33.2473 194.089 30.0473 190.789 25.4473C197.989 27.0473 203.289 31.7473 209.489 30.9473C211.889 30.6473 214.789 31.4473 214.189 35.8473C213.689 39.9473 210.689 39.8473 208.289 39.3473C204.889 38.6473 201.589 37.3473 198.289 36.2473L198.489 36.4473Z" fill="#DA8032"/>
<path d="M281.789 17.4473C284.789 24.9473 292.889 29.6473 289.789 40.6473C284.489 29.3473 277.389 20.4473 268.589 13.6473C257.189 4.94731 245.689 5.54731 232.289 14.5473C243.589 -2.75269 263.889 -0.352693 281.789 17.4473Z" fill="#DD9036"/>
<path d="M252.39 61.4474C252.39 59.2474 252.49 57.0474 252.49 54.7474C256.29 48.2474 258.39 38.9474 266.79 39.6474C267.89 41.1474 267.89 42.6474 266.79 44.2474C257.99 44.9474 255.89 52.4474 256.59 61.8474C257.39 71.8474 265.49 79.5474 273.89 78.6474C276.19 78.4474 278.49 77.2474 280.79 76.4474C281.59 77.3474 282.39 78.3474 283.19 79.2474C268.89 86.8474 259.19 81.3474 252.39 61.4474Z" fill="#ECC16D"/>
<path d="M266.789 44.2472C266.789 42.7472 266.789 41.2472 266.789 39.6472C274.089 40.2472 280.489 42.5472 280.889 54.1472C280.989 58.2472 280.489 62.7472 276.689 63.4472C273.089 64.0472 272.289 59.6472 271.889 56.2472C271.289 51.3472 271.189 46.3472 266.789 44.2472Z" fill="#E46F2D"/>
<path d="M70.3894 52.9472C69.6894 51.4472 68.8895 49.9472 68.1895 48.4472C73.1895 45.7472 76.9894 39.6472 82.8894 39.1472C85.3894 38.9472 88.2895 39.1472 88.4895 43.1472C88.5895 45.7472 86.4894 47.6472 84.0894 47.6472C79.1894 47.6472 74.6894 49.9472 70.3894 52.9472Z" fill="#D77931"/>
<path d="M202.589 96.0473C194.789 103.447 187.389 102.347 180.189 94.0473C187.789 97.2473 195.19 97.5473 202.29 92.9473C203.49 93.8473 203.589 94.8473 202.589 96.0473Z" fill="#FEE6C2"/>
<path d="M126.99 52.9473C130.49 41.7473 128.59 32.3473 120.39 24.2473C132.09 28.8473 134.49 41.4473 126.89 52.8473L126.99 52.9473Z" fill="#F9D9A4"/>
<path d="M202.59 96.0472C202.49 94.9472 202.49 93.9472 202.39 92.8472C204.99 88.3472 207.49 83.7472 210.69 78.1472C211.39 87.4472 206.99 91.7472 202.59 96.0472Z" fill="#F9CE91"/>
<path d="M240.389 55.5473C255.589 42.2473 256.589 39.8473 252.889 22.9473L252.79 23.0473C259.69 27.4473 257.89 35.0473 255.99 41.4473C253.39 50.2473 248.589 56.5473 240.189 55.4473L240.389 55.5473Z" fill="#FADBAF"/>
<path d="M310.489 36.3472C311.389 39.0472 312.289 41.7472 313.189 44.4472C319.989 65.0472 312.189 79.3472 294.289 78.9472C292.689 78.9472 291.089 77.3472 288.989 80.1472C297.489 84.8472 305.189 84.1472 311.789 76.8472C319.789 68.0472 320.689 56.7472 317.389 43.8472C323.089 54.7472 335.689 57.2472 337.689 73.1472C338.689 68.4472 338.589 63.8472 344.189 67.2472C354.289 73.3472 365.189 75.2472 376.389 72.2472C379.489 71.3472 382.889 71.1472 384.989 66.9472C361.589 69.4472 339.889 66.4472 324.689 40.3472C325.789 39.3472 326.689 37.9472 326.789 36.1472C318.389 34.6472 312.689 27.4472 306.589 21.1472C304.189 24.7472 306.689 26.8472 308.189 29.3472C309.189 31.5472 311.889 32.7472 310.489 36.3472Z" fill="#F2C47A"/>
<path d="M399.189 30.8473C398.289 17.3473 392.589 8.14731 382.789 3.34731C374.589 -0.652689 367.189 1.54731 360.989 10.3473C371.389 6.74731 380.989 6.64731 389.089 16.7473C397.489 27.1473 398.389 39.2473 393.989 54.4473C397.189 49.3473 398.989 43.5473 399.389 37.0473C400.389 34.9473 400.289 32.9473 399.189 30.8473Z" fill="#DC8037"/>
<path d="M282.989 49.2473C291.489 43.7473 294.789 45.3473 296.389 57.0473C296.989 61.4473 297.289 66.3473 301.689 65.4473C305.289 64.7473 304.789 59.6473 304.789 55.9473C304.889 50.9473 303.489 46.2473 299.689 44.6473C293.589 42.0473 287.489 41.9473 282.989 49.2473Z" fill="#CF8336"/>
<path d="M380.69 36.3474C373.29 28.2474 365.489 28.8474 361.889 37.6474C359.989 42.2474 361.289 45.7474 363.589 48.9474C365.289 51.3474 367.69 51.9474 369.79 49.8474C372.99 46.6474 371.89 43.9474 369.49 40.5474C366.69 36.6474 370.189 35.2474 372.089 35.0474C374.889 34.7474 377.89 35.8474 380.79 36.2474L380.69 36.3474Z" fill="#D88636"/>
<path d="M326.589 36.2473C325.889 37.6473 325.189 39.0473 324.489 40.4473C329.289 43.0473 332.989 48.6473 338.589 49.1473C340.989 49.3473 343.789 49.1473 343.989 45.4473C344.089 42.9473 342.089 41.2473 339.789 41.2473C334.989 41.2473 330.689 39.0473 326.589 36.2473Z" fill="#D77931"/>
<path d="M380.79 36.2473C384.19 46.7473 382.29 55.5473 374.39 63.1473C385.59 58.8473 387.89 47.0473 380.59 36.3473L380.79 36.2473Z" fill="#F9D9A4"/>
</svg>
