<svg width="1287" height="101" viewBox="0 0 1287 101" fill="none" xmlns="http://www.w3.org/2000/svg">
<path d="M587.384 18.4953C584.484 37.6953 600.684 43.1953 611.984 54.6953C605.384 38.3953 608.984 27.3953 622.984 20.4953C624.784 19.5953 624.484 17.4953 624.584 15.6953C627.584 23.2953 635.684 18.2953 642.484 23.3953C636.384 23.3953 632.484 22.8953 628.884 23.4953C613.784 26.0953 608.484 36.7953 614.684 51.4953C615.384 53.0953 615.884 54.6953 616.484 56.2953C616.384 59.7953 620.684 62.4953 618.084 66.3953C610.384 64.3953 607.784 54.6953 599.684 53.1953L599.784 53.2953C590.684 40.8953 577.484 37.4953 563.784 35.9953C555.584 35.0953 547.184 31.7953 538.884 36.9953C548.584 28.7953 563.684 28.5953 585.984 35.3953C587.684 29.8953 581.984 23.5953 587.384 18.4953Z" fill="#F6CD8F"/>
<path d="M0.483398 53.3953C5.7834 36.9953 19.5834 28.5953 38.7834 30.3953C46.9834 31.0953 55.0834 32.5953 63.1834 35.6953C64.7834 30.1953 60.0834 24.9953 64.9834 17.6953C61.4834 39.0953 78.6834 42.8953 88.9834 55.2953C85.4834 42.5953 83.1834 31.9953 94.4834 24.8953C95.8834 24.0953 97.0834 24.1953 98.1834 25.3953C87.4834 35.2953 86.9834 38.9953 93.4834 55.4953C90.8834 59.7953 98.4834 62.0953 95.3834 66.4953C90.7834 61.7953 82.8834 66.0953 78.8834 59.8953C78.9834 58.4953 80.1834 58.2953 81.0834 57.5953C81.2834 50.3953 74.5834 49.9953 70.8834 46.8953C57.9834 36.4953 42.2834 34.5953 27.0834 34.6953C15.0834 34.6953 6.6834 43.3953 2.7834 55.6953C1.2834 55.6953 1.1834 54.2953 0.483398 53.3953Z" fill="#F7C88B"/>
<path d="M479.583 53.2953C462.283 59.4953 456.783 67.1953 456.583 85.5953L456.683 85.4953C452.183 79.9953 455.183 74.2953 456.283 67.5953C446.583 70.2953 437.283 73.3953 427.383 73.0953C417.783 72.7953 408.783 71.5953 400.583 63.3953C424.283 69.7953 445.783 69.0953 465.483 54.7953C467.283 53.4953 470.783 52.6953 469.183 48.8953C468.683 45.5953 470.083 45.1953 472.483 46.5953C478.783 46.9953 480.383 39.0953 485.983 38.3953C487.883 39.9953 486.083 42.7953 487.783 44.4953C486.083 47.4953 484.483 50.4953 482.783 53.3953C481.583 54.3953 480.583 54.2953 479.583 53.2953Z" fill="#F8C68A"/>
<path d="M327.283 31.7954C330.683 43.2954 343.683 44.3954 349.183 53.8954C348.283 45.6954 343.383 37.5954 350.883 30.3954C351.283 38.8954 349.883 47.7954 354.783 55.4954C352.183 59.6954 360.483 62.1954 356.483 66.5954C348.783 64.4954 346.483 54.4954 338.283 53.1954L338.383 53.2954C325.183 37.3954 303.583 32.2954 284.483 40.6954C283.683 39.8954 283.683 39.0954 284.483 38.3954C286.583 37.2954 288.683 36.1954 291.583 34.5954C284.983 32.8954 280.483 38.4954 272.783 37.7954C282.083 30.2954 291.283 29.8954 300.283 30.3954C306.983 30.7954 313.983 31.1954 320.283 34.2954C323.383 35.7954 325.583 35.7954 325.983 31.5954L327.283 31.7954Z" fill="#F7CD8B"/>
<path d="M137.083 57.5954C154.883 74.3954 192.083 69.8954 209.783 48.8954C209.983 47.5954 210.683 46.7954 211.983 46.5954C217.783 46.5954 218.983 38.7954 224.583 38.4954C227.083 42.5954 222.683 44.9954 222.383 48.3954C213.683 54.4954 204.883 60.4954 197.583 68.4954C194.683 71.6954 191.083 67.8954 187.183 69.4954C175.483 74.2954 163.083 74.5954 150.883 70.7954C144.583 68.7954 138.783 65.6954 135.483 59.2954C135.683 58.3954 136.183 57.8954 137.083 57.5954Z" fill="#F7C987"/>
<path d="M744.984 49.9953C745.484 51.7953 744.784 53.1953 743.484 54.2953C741.984 53.8953 741.884 52.1953 740.884 51.2953C734.084 57.5953 726.584 63.6953 719.284 68.3953C715.384 70.8953 706.184 71.7953 699.184 72.2953C697.184 70.6953 694.084 72.8953 692.384 70.0953C694.184 65.7953 698.084 66.9953 701.284 66.4953C713.084 64.6953 723.284 59.3953 731.484 50.3953C731.584 50.2953 731.484 49.6953 731.284 49.4953C731.084 49.1953 730.684 49.1953 730.384 48.9953C729.884 45.8953 730.984 45.2953 733.384 46.7953C741.984 46.6953 743.884 36.1953 751.284 34.1953C752.984 40.9953 745.284 43.8953 744.984 49.9953Z" fill="#F3BC6F"/>
<path d="M659.283 59.1953C649.983 45.2953 651.583 28.9953 662.583 20.0953C673.783 10.9953 686.983 11.9953 697.583 24.4953C683.983 16.7953 672.883 17.7953 663.083 27.6953C653.683 36.9953 654.683 47.6953 659.283 59.1953Z" fill="#DB7933"/>
<path d="M137.083 57.5953L135.483 59.3953C128.983 48.7953 128.283 37.6953 134.283 26.9953C139.583 17.4953 148.183 13.4953 158.783 14.1953C164.983 14.5953 169.983 17.0953 175.683 24.7953C160.183 16.0953 148.083 17.9953 138.483 29.5953C131.483 38.0953 131.383 47.8953 137.083 57.5953Z" fill="#D78233"/>
<path d="M303.984 80.5954C294.884 91.1954 283.684 92.4954 272.784 85.1954C260.884 77.1954 257.684 62.3954 265.584 46.9954C261.584 59.1954 263.584 69.7954 273.084 77.8954C282.184 85.7954 292.484 85.5954 303.984 80.5954Z" fill="#D88933"/>
<path d="M565.184 80.7954C556.384 91.3954 545.684 92.5954 534.484 85.2954C522.384 77.3954 519.084 62.7954 526.784 47.2954C523.884 59.0954 524.584 69.7954 534.384 77.8954C543.684 85.4954 553.684 85.6954 565.184 80.7954Z" fill="#DA8232"/>
<path d="M0.483219 53.3953C1.18322 54.1953 1.98322 54.8953 2.68322 55.6953C3.18322 78.8953 19.0832 88.9953 42.2832 80.8953C36.4832 88.9953 29.1832 91.5953 19.6832 88.8953C8.78322 85.6953 0.983219 76.8953 0.0832193 66.3953C-0.216781 62.0953 0.383219 57.6953 0.483219 53.3953Z" fill="#D78836"/>
<path d="M222.384 48.4952C219.384 44.2952 224.684 42.0952 224.584 38.5952C237.384 25.5952 251.984 18.1952 270.384 22.7952C273.884 23.6952 277.684 24.0952 279.984 29.9952C254.384 17.4952 237.884 31.4952 222.384 48.4952Z" fill="#DB9638"/>
<path d="M433.083 20.8954C406.783 14.8954 389.983 30.0954 395.783 56.3954C388.883 44.6954 390.783 29.7954 400.083 21.0954C409.583 12.1954 421.583 11.6954 433.083 20.8954Z" fill="#DA7F31"/>
<path d="M356.383 66.5954C357.383 62.5954 347.683 60.3954 354.683 55.4954C368.683 74.4954 385.783 84.4954 410.683 73.7954C397.583 87.2954 373.883 83.4954 356.383 66.5954Z" fill="#DA8E3C"/>
<path d="M95.383 66.3953C96.483 62.3953 85.983 60.5953 93.483 55.3953C107.683 74.4953 124.883 84.6953 151.283 73.1953C134.683 87.2953 112.183 83.3953 95.383 66.3953Z" fill="#DB8D3A"/>
<path d="M744.984 49.9953C743.384 43.0953 749.984 39.7953 751.384 34.1953C770.984 19.2953 788.684 17.1953 802.284 29.0953C776.984 18.0953 759.684 30.2953 744.984 49.9953Z" fill="#D89238"/>
<path d="M617.983 66.4953C616.783 63.2953 614.383 60.1953 616.383 56.3953C632.983 76.6953 642.783 80.0953 670.983 75.4953C657.583 87.3953 636.483 83.7953 617.983 66.4953Z" fill="#DB8C38"/>
<path d="M487.683 44.4953C481.683 44.1953 486.383 40.4953 485.883 38.3953C504.583 19.7953 526.883 15.6953 543.283 30.5953C519.083 19.4952 502.183 27.4953 487.683 44.4953Z" fill="#D7963A"/>
<path d="M98.1834 25.3953C96.9834 25.1953 95.6834 25.0953 94.4834 24.8953C106.683 20.0953 97.5834 13.5953 95.7834 7.69531L95.6834 7.79531C102.483 13.9953 108.083 20.4953 118.383 22.6953C130.683 25.2953 132.283 38.6953 123.483 49.3953C121.683 47.5953 123.483 46.2953 123.883 44.7953C128.083 30.5953 119.083 20.4953 105.083 23.6953C102.683 24.1953 100.483 24.7953 98.1834 25.3953Z" fill="#F1CA83"/>
<path d="M644.583 49.9953C634.183 55.7953 624.583 52.5953 623.283 42.7953C622.783 38.8953 623.583 35.0953 627.483 34.2953C631.483 33.4953 631.983 37.5953 632.683 40.6953C634.883 49.5953 635.483 49.9953 644.583 49.9953Z" fill="#E08230"/>
<path d="M148.783 44.3954C155.283 36.3954 163.983 35.1953 169.283 41.4953C171.583 44.1953 171.983 47.1954 170.583 50.3954C169.483 52.8954 167.583 54.4953 164.983 54.5953C161.783 54.6953 159.583 52.9954 159.883 49.3954C160.683 38.8954 160.683 38.8953 150.383 43.7953C149.983 44.0953 149.383 44.1954 148.783 44.3954Z" fill="#DE9338"/>
<path d="M410.583 44.6953C414.883 36.2953 421.583 35.5953 428.583 39.8953C433.883 43.1953 433.583 51.2953 428.683 54.0953C426.483 55.2953 424.683 54.6953 422.883 53.5953C421.183 52.5953 421.283 50.7953 421.083 48.9953C420.783 46.1953 427.683 46.5953 423.783 42.7953C420.583 39.6953 416.683 41.1953 413.183 42.8953C412.283 43.2953 411.383 43.9953 410.583 44.6953Z" fill="#DE9037"/>
<path d="M511.483 52.2954C504.883 53.1954 501.583 56.4954 501.583 63.4954C501.583 66.3954 500.083 69.3954 496.583 68.8954C492.683 68.3954 492.283 64.6954 492.383 61.4954C492.483 53.1954 498.683 50.0954 511.483 52.2954Z" fill="#DC7E2C"/>
<path d="M670.083 45.7954C677.783 36.5954 685.083 35.2954 690.783 40.2954C693.483 42.6954 693.983 45.5954 693.483 48.8954C692.983 52.1954 690.683 54.0954 687.983 54.4954C684.283 54.9954 682.483 52.8954 682.583 48.6954C682.683 46.1954 689.283 46.2954 684.883 42.3954C681.783 39.6954 678.383 40.9954 675.183 42.4954C674.083 43.1954 673.083 43.8954 670.083 45.7954Z" fill="#DF8F36"/>
<path d="M379.083 52.0953C370.183 53.6953 363.083 52.2953 361.783 41.9953C361.383 38.7953 362.283 35.0953 365.883 34.2953C369.183 33.5953 371.083 36.9953 371.083 39.5953C370.883 45.9953 374.183 49.2953 379.083 52.0953Z" fill="#E08632"/>
<path d="M33.1834 59.9953C33.3834 56.6953 25.3834 54.6953 31.0834 50.0953C34.2834 47.5953 37.1834 49.0953 39.0834 51.6953C42.4834 56.1953 40.9834 60.5953 36.7834 63.4953C31.5834 67.1953 26.1834 67.8953 20.9834 62.4953C25.1834 61.0953 29.5834 63.8953 33.1834 59.9953Z" fill="#D88132"/>
<path d="M249.083 53.0955C243.483 53.7955 240.383 56.6955 240.383 62.8955C240.383 66.2955 238.983 69.7955 234.783 68.6955C230.983 67.6955 230.783 63.7955 231.283 60.6955C233.183 49.8955 240.883 50.0955 248.883 51.2955C249.883 51.7955 249.983 52.3955 249.083 53.0955Z" fill="#DD742B"/>
<path d="M284.483 61.5953C292.583 61.8953 292.583 61.8953 290.883 55.2953C290.083 52.3953 290.983 49.9953 293.683 49.2953C297.583 48.1953 300.583 50.3953 301.483 54.2953C302.983 60.9953 298.883 64.1953 293.483 65.8953C289.683 67.0953 285.983 66.0953 282.683 63.7953C281.883 61.7953 282.383 60.9953 284.483 61.5953Z" fill="#DA7B32"/>
<path d="M117.483 51.9952C104.883 52.7952 99.9835 48.9952 100.983 40.1952C101.283 37.7952 101.383 34.7952 104.283 34.1952C107.783 33.4952 109.683 36.5952 109.683 39.2952C109.583 45.4952 112.383 49.1952 117.483 51.9952Z" fill="#DA8531"/>
<path d="M545.883 61.6952C553.483 61.8952 553.583 61.8952 551.983 54.6952C551.483 52.1952 552.383 50.5952 554.483 49.4952C556.983 48.1952 559.083 48.9952 560.983 50.8952C565.683 55.6952 563.083 63.0952 555.683 65.5952C551.483 66.9952 547.583 66.0952 543.983 63.6952C543.383 61.7952 543.783 60.7952 545.883 61.6952Z" fill="#D97F2D"/>
<path d="M211.883 46.5955C211.183 47.3955 210.383 48.0955 209.683 48.8955C205.283 50.6955 200.983 52.5955 196.583 54.3955C193.583 55.5955 190.583 54.3955 189.883 51.4955C189.083 48.2955 192.483 47.4955 194.583 47.3955C200.483 46.9955 205.883 45.6955 210.983 42.4955C212.483 41.4955 212.783 41.9955 211.883 46.5955Z" fill="#DE9039"/>
<path d="M472.384 46.6953C470.784 46.5953 469.684 47.3953 469.084 48.9953C465.084 51.8953 460.884 54.1953 455.984 54.6953C453.984 54.8953 451.584 54.0953 450.984 51.6953C450.284 48.7953 452.784 47.9953 454.684 47.6953C460.784 46.6953 466.884 46.1953 472.284 42.5953C473.484 41.7953 475.084 42.2953 474.384 44.3953C474.084 45.1953 473.084 45.8953 472.384 46.6953Z" fill="#DC9537"/>
<path d="M338.184 53.1954C339.684 55.0954 341.084 56.8954 343.484 59.8954C335.984 58.9954 330.384 55.2954 323.984 55.5954C322.284 55.6954 320.284 54.9954 320.484 52.6954C320.584 50.1954 322.384 49.1954 324.684 48.9954C329.784 48.6954 333.584 52.5954 338.284 53.3954L338.184 53.1954Z" fill="#DB8837"/>
<path d="M599.583 53.2954C601.783 55.7954 604.083 58.3954 606.283 60.8954C599.183 58.8954 592.683 55.6954 585.383 55.6954C583.583 55.6954 581.683 54.7954 581.783 52.5954C581.883 50.1954 583.683 48.9954 585.983 48.8954C590.983 48.7954 594.983 52.2954 599.583 53.2954V53.2954Z" fill="#DC8731"/>
<path d="M224.383 96.4953C224.483 96.1953 224.583 95.7953 224.783 95.4953C230.583 88.6953 230.183 82.5954 223.483 77.2954C224.383 76.0954 225.383 75.9953 226.583 76.8953C235.383 81.7953 244.083 81.9954 252.583 76.2954C253.683 76.0954 254.183 76.5953 254.083 77.6953C243.783 83.1953 232.083 86.4953 224.183 96.3953L224.383 96.4953Z" fill="#ECC779"/>
<path d="M733.483 46.6952C731.883 46.5952 731.083 47.4952 730.483 48.8952C726.983 51.8952 722.883 53.4952 718.583 54.5952C716.083 55.1952 713.383 54.2952 712.583 51.7952C711.283 48.0952 714.983 47.7952 716.883 47.4952C722.583 46.4952 728.383 46.2952 733.383 42.7952C734.283 42.1952 736.183 41.2952 736.083 43.5952C735.983 44.6952 734.383 45.6952 733.483 46.6952Z" fill="#DB9239"/>
<path d="M485.983 76.9954C498.683 81.9954 510.183 83.8954 518.683 67.2954C519.083 77.0954 513.883 79.6954 508.583 81.8954C499.283 85.8954 494.083 84.7954 485.983 76.9954Z" fill="#EDC881"/>
<path d="M80.9835 57.5954L78.7835 59.8954C74.4835 57.5954 69.8835 56.3954 64.9835 55.8954C62.5835 55.6954 58.5835 56.3954 59.6835 51.6954C60.5835 47.9954 63.9835 48.5954 66.5835 49.3954C71.9835 51.0954 76.8835 53.6954 80.9835 57.5954Z" fill="#D59036"/>
<path d="M745.584 73.8953C755.084 81.5953 764.984 83.0953 775.484 76.2953C776.484 75.9953 776.884 76.3953 776.684 77.3953C764.184 87.1953 756.084 86.6953 743.884 75.3953C744.084 74.3953 744.684 73.7953 745.584 73.8953Z" fill="#E8C16A"/>
<path d="M456.583 85.5954C463.483 95.1954 471.483 102.195 484.283 96.5954C472.283 104.295 459.883 98.9954 456.783 85.4954L456.583 85.5954Z" fill="#F8C68A"/>
<path d="M355.384 24.4954C357.684 21.3954 363.584 21.8954 363.184 15.9954C366.384 23.1954 374.884 17.5954 378.984 23.3954C370.884 20.4954 363.384 27.9954 355.384 24.4954Z" fill="#F9D6A3"/>
<path d="M692.384 70.0954C694.584 70.7954 697.284 70.0954 699.184 72.2954C686.784 73.4954 674.484 74.1954 664.184 64.2954C673.384 67.7954 682.484 71.3954 692.384 70.0954Z" fill="#EABE67"/>
<path d="M249.084 53.0953C248.984 52.4953 248.984 51.9953 248.884 51.3953C261.284 57.3953 262.884 65.5953 254.084 77.6953C253.584 77.1953 253.084 76.7953 252.584 76.2953C257.684 67.4953 257.384 59.5953 249.084 53.0953Z" fill="#F1C27F"/>
<path d="M327.284 31.7955C326.884 31.7955 326.384 31.7955 325.984 31.5955C320.684 18.3955 325.484 8.39546 338.384 5.59546C329.884 12.0955 323.184 19.3955 327.284 31.7955Z" fill="#FBDDB4"/>
<path d="M284.484 61.5954C283.884 62.2954 283.184 63.0954 282.584 63.7954C273.284 54.9954 273.784 46.9954 284.484 38.4954C284.484 39.2954 284.484 40.0954 284.484 40.7954C278.484 47.6954 275.184 54.6954 284.484 61.5954Z" fill="#F9E1B4"/>
<path d="M773.884 53.1955C784.384 58.4955 785.284 66.0955 776.684 77.3955C776.184 77.0955 775.784 76.6955 775.484 76.2955C780.184 68.1955 778.784 60.4955 773.984 53.0955L773.884 53.1955Z" fill="#EEC676"/>
<path d="M226.584 76.7954C225.584 76.8954 224.484 77.0954 223.484 77.1954C215.484 70.7954 215.084 62.7954 219.284 53.9954C220.284 62.1954 218.584 71.1954 226.584 76.7954Z" fill="#EFC582"/>
<path d="M384.583 48.9953C386.783 42.5953 387.183 36.0953 385.983 29.3953C393.283 36.5953 390.183 42.9953 384.583 48.9953Z" fill="#F3C97A"/>
<path d="M740.883 51.1953C741.783 52.1953 742.683 53.1953 743.483 54.1953C742.283 60.9953 741.883 67.5953 745.583 73.7953C744.983 74.2953 744.483 74.7953 743.883 75.2953C736.783 68.1953 739.383 59.5953 740.883 51.1953Z" fill="#F1C18A"/>
<path d="M479.583 53.2954C480.583 53.2954 481.683 53.3954 482.683 53.3954C480.483 60.3954 480.883 67.1954 482.983 74.1954C476.083 68.2954 476.983 60.9954 479.583 53.2954Z" fill="#EECA84"/>
<path d="M224.283 96.2954C216.683 103.795 209.483 101.395 202.283 95.4954C209.483 99.2954 216.883 98.3954 224.383 96.4954L224.283 96.2954Z" fill="#FADDAC"/>
<path d="M545.884 61.6953C545.284 62.3953 544.684 63.0953 544.084 63.6953C536.884 58.8953 536.284 52.6953 540.484 45.3953C538.584 52.1953 540.484 57.5953 545.884 61.6953Z" fill="#F7DAB3"/>
<path d="M359.683 10.0953C352.683 7.99534 345.983 4.19534 338.283 5.69534C346.583 0.795339 353.483 3.49534 359.683 10.0953Z" fill="#F9D6A3"/>
<path d="M621.184 10.0953C614.184 7.99528 607.484 3.79528 599.684 5.69528C607.984 1.19528 614.984 3.39528 621.184 10.0953Z" fill="#F6CD8F"/>
<path d="M599.883 5.59546C595.283 9.49546 590.383 13.1955 587.283 18.6955C587.683 10.3955 592.083 6.29546 599.883 5.59546Z" fill="#F6CD8F"/>
<path d="M95.7836 7.6953C89.9836 7.2953 84.5836 4.2953 78.6836 4.8953C84.7836 2.8953 90.5836 3.0953 95.5836 7.8953L95.7836 7.6953Z" fill="#F1CA83"/>
<path d="M774.084 53.0954C767.984 53.0954 763.284 54.6954 763.284 62.5954C763.284 66.3954 761.784 70.2954 757.184 68.6954C753.384 67.3954 753.184 63.3954 754.184 59.5954C756.284 51.1954 763.384 48.8954 773.984 53.1954L774.084 53.0954Z" fill="#DD782B"/>
<path d="M739.684 49.7955C744.984 33.3955 758.784 24.9955 777.984 26.7955C786.184 27.4955 794.284 28.9955 802.384 32.0955C803.984 26.5955 799.284 21.3955 804.184 14.0955C800.584 35.3955 817.784 39.2955 828.084 51.5955C824.584 38.8955 822.284 28.2955 833.584 21.1955C834.984 20.3955 836.184 20.4955 837.284 21.6955C826.584 31.5955 826.084 35.2955 832.584 51.7955C829.984 56.0955 837.584 58.3955 834.484 62.7955C829.884 58.0955 821.984 62.3955 817.984 56.1955C818.084 54.7955 819.284 54.5955 820.184 53.8955C820.384 46.6955 813.684 46.2955 809.984 43.1955C797.184 32.7955 781.484 30.7955 766.184 30.8955C754.184 30.8955 745.784 39.5955 741.884 51.8955C740.484 51.9955 740.384 50.5955 739.684 49.7955Z" fill="#F7C88B"/>
<path d="M1218.78 49.5953C1201.48 55.7953 1195.98 63.4953 1195.78 81.8953L1195.98 81.7953C1191.48 76.2953 1194.48 70.5953 1195.58 63.8953C1185.88 66.5953 1176.58 69.6953 1166.68 69.3953C1157.08 69.0953 1148.08 67.8953 1139.88 59.6953C1163.58 66.0953 1185.08 65.3953 1204.78 51.0953C1206.58 49.7953 1210.08 48.9953 1208.48 45.1953C1207.98 41.8953 1209.28 41.4953 1211.78 42.8953C1218.08 43.2953 1219.68 35.3953 1225.28 34.6953C1227.18 36.2953 1225.38 39.0953 1227.08 40.7953C1225.38 43.7953 1223.78 46.7953 1222.08 49.6953C1220.78 50.6953 1219.78 50.5953 1218.78 49.5953Z" fill="#F8C68A"/>
<path d="M1066.48 28.0954C1069.88 39.5954 1082.88 40.6954 1088.38 50.1954C1087.48 41.9954 1082.58 33.8954 1090.08 26.6954C1090.48 35.1954 1089.08 44.0954 1093.98 51.7954C1091.38 55.9954 1099.68 58.4954 1095.68 62.8954C1087.98 60.7954 1085.68 50.7954 1077.48 49.4954L1077.58 49.5954C1064.38 33.6954 1042.78 28.5954 1023.68 36.9954C1022.88 36.1954 1022.88 35.3954 1023.68 34.6954C1025.78 33.5954 1027.88 32.4954 1030.78 30.8954C1024.18 29.1954 1019.68 34.7954 1011.98 34.0954C1021.28 26.5954 1030.48 26.1954 1039.48 26.6954C1046.18 27.0954 1053.18 27.4954 1059.48 30.5954C1062.58 32.0954 1064.78 32.0954 1065.18 27.8954L1066.48 28.0954Z" fill="#F7CD8B"/>
<path d="M876.183 53.8954C893.983 70.6954 931.183 66.1954 948.883 45.1954C949.083 43.8954 949.783 43.0954 951.083 42.8954C956.883 42.8954 958.083 35.0954 963.683 34.7954C966.183 38.8954 961.783 41.2954 961.483 44.6954C952.783 50.7954 943.983 56.7954 936.683 64.7954C933.783 67.9954 930.183 64.1954 926.283 65.7954C914.583 70.5954 902.183 70.8954 889.983 67.0954C883.683 65.0954 877.883 61.9954 874.583 55.5954C874.783 54.7954 875.383 54.1954 876.183 53.8954Z" fill="#F7C987"/>
<path d="M876.183 53.8953L874.583 55.6953C868.083 45.0953 867.383 33.9953 873.383 23.2953C878.683 13.7953 887.283 9.79534 897.883 10.4953C904.083 10.8953 909.083 13.3953 914.783 21.0953C899.283 12.3953 887.183 14.2953 877.583 25.8953C870.683 34.3953 870.583 44.1953 876.183 53.8953Z" fill="#D78233"/>
<path d="M1043.18 76.9953C1034.08 87.5953 1022.88 88.8953 1011.98 81.5953C1000.08 73.5953 996.883 58.7953 1004.78 43.3953C1000.78 55.5953 1002.78 66.1953 1012.28 74.2953C1021.38 82.0953 1031.58 81.8953 1043.18 76.9953Z" fill="#D88933"/>
<path d="M739.683 49.7954C740.383 50.5954 741.183 51.2954 741.883 52.0954C742.383 75.2954 758.283 85.3954 781.383 77.2954C775.583 85.3954 768.283 87.9954 758.783 85.2954C747.983 81.9954 740.083 73.1954 739.283 62.6954C738.883 58.3954 739.483 54.0954 739.683 49.7954Z" fill="#D78836"/>
<path d="M961.483 44.7953C958.483 40.5953 963.783 38.3953 963.683 34.8953C976.483 21.8953 991.083 14.4953 1009.48 19.0953C1012.98 19.9953 1016.78 20.3953 1019.08 26.2953C993.583 13.8953 977.083 27.8953 961.483 44.7953Z" fill="#DB9638"/>
<path d="M1172.28 17.1954C1145.98 11.1954 1129.08 26.3954 1134.98 52.6954C1128.08 40.9954 1129.98 26.0954 1139.28 17.3954C1148.78 8.49541 1160.78 7.99541 1172.28 17.1954Z" fill="#DA7F31"/>
<path d="M1095.58 62.9953C1096.58 58.9953 1086.88 56.7953 1093.88 51.8953C1107.88 70.8953 1124.98 80.8953 1149.88 70.1953C1136.78 83.6953 1113.08 79.7953 1095.58 62.9953Z" fill="#DA8E3C"/>
<path d="M834.583 62.7954C835.683 58.7954 825.183 56.9954 832.683 51.7954C846.883 70.8954 864.083 81.0954 890.483 69.5954C873.883 83.5954 851.383 79.7954 834.583 62.7954Z" fill="#DB8D3A"/>
<path d="M1226.88 40.7953C1220.88 40.4953 1225.58 36.7953 1225.08 34.6953C1243.78 16.0953 1266.08 11.9953 1282.48 26.8953C1258.28 15.7953 1241.38 23.7953 1226.88 40.7953Z" fill="#D7963A"/>
<path d="M837.384 21.6954C836.184 21.4954 834.884 21.3954 833.684 21.1954C845.884 16.3954 836.784 9.89536 834.984 3.99536L834.884 4.09536C841.684 10.2954 847.284 16.7954 857.584 18.9954C869.884 21.5954 871.484 34.9954 862.684 45.6954C860.884 43.8954 862.684 42.5954 863.084 41.0954C867.284 26.8954 858.284 16.7954 844.284 19.9954C841.884 20.4954 839.584 21.0954 837.384 21.6954Z" fill="#F1CA83"/>
<path d="M887.983 40.6954C894.483 32.6954 903.183 31.4954 908.483 37.7954C910.783 40.4954 911.183 43.4954 909.783 46.6954C908.683 49.1954 906.783 50.7954 904.183 50.8954C900.983 50.9954 898.783 49.2954 899.083 45.6954C899.883 35.1954 899.883 35.1954 889.583 40.0954C889.183 40.3954 888.583 40.4954 887.983 40.6954Z" fill="#DE9338"/>
<path d="M1149.78 40.9953C1154.08 32.5953 1160.78 31.8953 1167.78 36.1953C1173.08 39.4953 1172.78 47.5953 1167.88 50.3953C1165.68 51.5953 1163.88 50.9953 1162.08 49.8953C1160.38 48.8953 1160.48 47.0953 1160.28 45.2953C1159.98 42.4953 1166.88 42.8953 1162.98 39.0953C1159.78 35.9953 1155.88 37.4953 1152.38 39.1953C1151.38 39.6953 1150.58 40.3953 1149.78 40.9953Z" fill="#DE9037"/>
<path d="M1118.28 48.3954C1109.38 49.9954 1102.28 48.5954 1100.98 38.2954C1100.58 35.0954 1101.48 31.3954 1105.08 30.5954C1108.38 29.8954 1110.28 33.2954 1110.28 35.8954C1109.98 42.2954 1113.38 45.5954 1118.28 48.3954Z" fill="#E08632"/>
<path d="M772.384 56.2953C772.584 52.9953 764.584 50.9953 770.284 46.3953C773.484 43.8953 776.384 45.3953 778.284 47.9953C781.684 52.4953 780.184 56.8953 775.984 59.7953C770.784 63.4953 765.384 64.1953 760.184 58.7953C764.384 57.3953 768.784 60.2953 772.384 56.2953Z" fill="#D88132"/>
<path d="M988.283 49.3953C982.683 50.0953 979.583 52.9953 979.583 59.1953C979.583 62.5953 978.183 66.0953 973.983 64.9953C970.183 63.9953 969.983 60.0953 970.483 56.9953C972.383 46.1953 980.083 46.3953 988.083 47.5953C989.083 48.1953 989.183 48.6953 988.283 49.3953Z" fill="#DD742B"/>
<path d="M1023.68 57.8954C1031.78 58.1954 1031.78 58.1954 1030.08 51.5954C1029.28 48.6954 1030.18 46.2954 1032.88 45.5954C1036.88 44.4954 1039.78 46.6954 1040.68 50.5954C1042.18 57.2954 1038.08 60.4954 1032.68 62.1954C1028.88 63.3954 1025.18 62.3954 1021.88 60.0954C1021.08 58.1954 1021.58 57.2954 1023.68 57.8954Z" fill="#DA7B32"/>
<path d="M856.684 48.2953C844.084 49.0953 839.184 45.2953 840.184 36.4953C840.484 34.0953 840.584 31.0953 843.484 30.4953C846.984 29.7953 848.884 32.8953 848.884 35.5953C848.784 41.7953 851.584 45.5953 856.684 48.2953Z" fill="#DA8531"/>
<path d="M1268.58 43.6952C1276.18 43.8952 1276.28 43.8952 1274.68 36.6952C1274.18 34.1952 1275.08 32.5952 1277.18 31.4952C1279.68 30.1952 1281.78 30.9952 1283.68 32.8952C1288.38 37.6952 1285.78 45.0952 1278.38 47.5952C1274.18 48.9952 1270.28 48.0952 1266.68 45.6952C1265.98 43.7952 1266.38 42.7952 1268.58 43.6952Z" fill="#D97F2D"/>
<path d="M951.083 42.9953C950.383 43.7953 949.583 44.4953 948.883 45.2953C944.483 47.0953 940.183 48.9953 935.783 50.7953C932.783 51.9953 929.783 50.7953 929.083 47.8953C928.283 44.6953 931.683 43.8953 933.783 43.7953C939.683 43.3953 945.083 42.0953 950.183 38.8953C951.683 37.8953 951.883 38.2953 951.083 42.9953Z" fill="#DE9039"/>
<path d="M1211.38 31.3953C1209.78 31.2953 1208.68 32.0953 1208.08 33.6953C1204.08 36.5953 1199.88 38.8953 1194.98 39.3953C1192.98 39.5953 1190.58 38.7953 1189.98 36.3953C1189.28 33.4953 1191.78 32.6953 1193.68 32.3953C1199.78 31.3953 1205.88 30.8953 1211.28 27.2953C1212.48 26.4953 1214.08 26.9953 1213.38 29.0953C1213.08 29.8953 1212.08 30.5953 1211.38 31.3953Z" fill="#DC9537"/>
<path d="M1077.38 49.5953C1078.88 51.4953 1080.28 53.2953 1082.68 56.2953C1075.18 55.3953 1069.58 51.6953 1063.18 51.9953C1061.48 52.0953 1059.48 51.3953 1059.68 49.0953C1059.88 46.5953 1061.58 45.5953 1063.88 45.3953C1068.98 45.0953 1072.78 48.9953 1077.48 49.7953L1077.38 49.5953Z" fill="#DB8837"/>
<path d="M963.584 92.7954C963.684 92.4954 963.784 92.0954 963.984 91.7954C969.784 84.9954 969.384 78.8954 962.684 73.5954C963.584 72.3954 964.584 72.2954 965.784 73.1954C974.584 78.0954 983.284 78.2954 991.784 72.5954C992.884 72.3954 993.384 72.8954 993.284 73.9954C982.984 79.4954 971.284 82.7954 963.384 92.6954L963.584 92.7954Z" fill="#ECC779"/>
<path d="M820.184 53.8955L817.984 56.1955C813.684 53.8955 809.084 52.6955 804.184 52.1955C801.784 51.9955 797.784 52.6955 798.884 47.9955C799.784 44.2955 803.184 44.8955 805.784 45.6955C811.184 47.3955 815.984 50.0955 820.184 53.8955Z" fill="#D59036"/>
<path d="M1195.78 81.8954C1202.68 91.4954 1210.68 98.4954 1223.48 92.8954C1211.48 100.595 1199.08 95.2954 1195.98 81.7954L1195.78 81.8954Z" fill="#F8C68A"/>
<path d="M1094.58 20.7954C1096.88 17.6954 1102.88 18.1954 1102.38 12.2954C1105.58 19.4954 1114.08 13.8954 1118.18 19.6954C1110.08 16.8954 1102.58 24.2954 1094.58 20.7954Z" fill="#F9D6A3"/>
<path d="M988.283 49.3953C988.183 48.7953 988.183 48.2953 988.083 47.6953C1000.48 53.6953 1002.08 61.8953 993.283 73.9953C992.783 73.4953 992.283 73.0953 991.783 72.5953C996.883 63.7953 996.583 55.8953 988.283 49.3953Z" fill="#F1C27F"/>
<path d="M1066.48 28.0953C1066.08 28.0953 1065.58 28.0953 1065.18 27.8953C1059.88 14.6953 1064.68 4.69526 1077.58 1.89526C1069.08 8.39526 1062.28 15.7953 1066.48 28.0953Z" fill="#FBDDB4"/>
<path d="M1023.68 57.8954C1023.08 58.5954 1022.38 59.3954 1021.78 60.0954C1012.48 51.2954 1012.98 43.2954 1023.68 34.7954C1023.68 35.5954 1023.68 36.3954 1023.68 37.0954C1017.68 44.0954 1014.38 50.9954 1023.68 57.8954Z" fill="#F9E1B4"/>
<path d="M965.783 73.1953C964.783 73.2953 963.683 73.4953 962.683 73.5953C954.683 67.1953 954.283 59.1953 958.483 50.3953C959.483 58.4953 957.683 67.4953 965.783 73.1953Z" fill="#EFC582"/>
<path d="M1123.78 45.2953C1125.98 38.8953 1126.38 32.3953 1125.18 25.6953C1132.48 32.8953 1129.38 39.2953 1123.78 45.2953Z" fill="#F3C97A"/>
<path d="M1218.78 49.5955C1219.78 49.5955 1220.88 49.6955 1221.88 49.6955C1219.68 56.6955 1220.08 63.4955 1222.18 70.4955C1215.28 64.5955 1216.18 57.2955 1218.78 49.5955Z" fill="#EECA84"/>
<path d="M963.483 92.5954C955.883 100.095 948.683 97.6954 941.483 91.7954C948.683 95.5954 956.083 94.6954 963.583 92.7954L963.483 92.5954Z" fill="#FADDAC"/>
<path d="M1268.58 43.6953C1267.98 44.3953 1267.28 45.0953 1266.68 45.6953C1259.48 40.8953 1258.88 34.6953 1263.08 27.3953C1261.18 34.1953 1263.18 39.5953 1268.58 43.6953Z" fill="#F7DAB3"/>
<path d="M1094.18 8.69542C1087.18 6.59542 1080.48 2.79542 1072.78 4.29542C1081.18 -0.704579 1088.08 1.99542 1094.18 8.69542Z" fill="#F9D6A3"/>
<path d="M834.883 3.99535C829.083 3.59535 823.683 0.59535 817.783 1.19535C823.883 -0.80465 829.683 -0.60465 834.783 4.19535L834.883 3.99535Z" fill="#F1CA83"/>
<path d="M1225.18 73.2955C1237.88 78.2955 1249.38 80.1955 1257.88 63.5955C1258.28 73.3955 1253.08 75.9955 1247.78 78.1955C1238.48 82.1955 1233.28 81.1955 1225.18 73.2955Z" fill="#EDC881"/>
<path d="M1250.68 48.5953C1244.08 49.4953 1240.78 52.7953 1240.78 59.7953C1240.78 62.6953 1239.28 65.6953 1235.78 65.1953C1231.78 64.6953 1231.48 60.9953 1231.58 57.7953C1231.68 49.5953 1237.88 46.3953 1250.68 48.5953Z" fill="#DC7E2C"/>
</svg>
