<svg width="86" height="679" viewBox="0 0 86 679" fill="none" xmlns="http://www.w3.org/2000/svg">
<path d="M35.5852 659.709C30.4852 663.709 34.2852 671.509 30.7852 676.309C33.7852 679.109 36.4852 674.509 39.3852 675.709C46.8852 671.409 54.4852 669.209 62.5852 673.909C56.5852 664.509 49.3852 667.109 41.2852 669.809C48.2852 663.909 49.7852 652.209 57.5852 647.209C64.3852 642.809 71.2852 642.409 77.2852 649.809C82.6852 656.709 84.7852 664.409 80.9852 673.509C80.2852 675.109 79.8852 676.809 79.9852 678.609C86.2852 671.009 86.1852 662.109 82.3852 653.009C78.1852 642.909 70.8852 640.209 57.0852 643.609C60.6852 624.009 65.3852 604.509 54.4852 586.309C61.3852 607.609 56.2852 627.309 49.0852 646.709C46.8852 652.609 46.5852 652.409 41.5852 655.709C37.8852 653.509 38.1852 659.809 35.5852 659.709Z" fill="#F9CF97"/>
<path d="M39.5852 102.709C53.2852 95.6088 57.1852 96.4088 65.6852 107.609C66.5852 106.409 66.6852 105.109 65.9852 103.809C59.7852 91.5088 50.7852 93.9088 41.6852 97.2088C61.3852 66.5088 65.6852 64.6088 80.7852 80.3088L81.0852 80.0088C76.3852 68.8088 72.5852 67.2088 56.8852 70.1088C60.7852 52.8088 64.0852 35.5088 57.1852 18.5088C56.1852 31.4088 57.7852 44.5088 54.6852 57.2088C51.5852 69.9088 47.8852 82.1088 37.5852 89.1088C37.0852 88.2088 36.8852 86.8088 35.5852 86.8088C30.3852 91.5088 34.3852 101.109 28.7852 105.509C33.2852 109.109 35.4852 100.309 39.5852 102.709Z" fill="#F7CA8C"/>
<path d="M49.5852 359.909C46.7852 363.709 45.5852 369.109 41.2852 371.109L41.3852 371.009C39.7852 380.309 31.1852 383.409 28.7852 391.909C33.1852 395.409 35.2852 387.009 39.3852 389.009C59.3852 379.109 67.0852 386.309 67.4852 415.209C71.9852 405.909 71.5852 397.309 66.0852 388.909C59.0852 378.209 50.2852 378.909 40.7852 383.709C47.7852 377.209 49.7852 365.609 57.2852 360.609C65.4852 355.109 73.4852 356.309 80.2852 366.709C76.3852 355.509 71.3852 353.509 56.9852 356.809C60.8852 337.609 65.0852 318.509 54.4852 300.709C55.2852 305.709 55.9852 310.709 56.6852 315.709C56.1852 325.809 58.8852 336.009 55.2852 346.009C53.6852 350.709 52.7852 356.009 49.5852 359.909Z" fill="#F7CD8F"/>
<path d="M45.2847 230.109C35.4847 220.009 30.1847 207.309 30.1847 191.509C32.7847 187.809 30.4847 184.609 29.2847 181.309C28.3847 178.709 26.2847 176.409 28.2847 173.309C27.4847 166.609 31.2847 161.409 32.0847 155.109C26.4847 160.209 24.8847 167.809 24.3847 175.609C23.9847 185.809 25.8847 195.809 26.6847 205.809C27.6847 219.909 36.7847 226.509 42.0847 236.609C43.2847 238.809 45.4847 240.409 41.4847 241.509C42.6847 245.909 46.3847 246.309 49.0847 248.309C52.6847 246.109 54.1847 254.409 57.9847 250.909C55.4847 242.409 46.8847 239.409 45.2847 230.109Z" fill="#F3C37C"/>
<path d="M25.085 480.109C26.285 486.109 27.385 492.109 28.885 498.009C29.685 501.209 27.685 500.609 26.585 501.309L26.785 502.509C35.085 507.809 37.485 519.309 44.085 526.409C44.185 526.509 43.985 527.209 43.885 527.309C43.285 527.409 42.685 527.409 42.085 527.509C41.085 527.409 40.785 527.909 40.985 529.009C43.685 531.009 46.385 533.009 49.085 535.009C51.585 533.009 54.085 538.809 56.585 535.009C54.785 528.609 47.685 526.809 47.185 519.209C46.985 517.809 46.285 517.009 45.185 516.709C35.885 507.609 31.585 495.209 29.885 481.309C29.385 476.909 29.385 472.409 26.685 468.809C24.285 472.109 26.485 476.509 25.085 480.109Z" fill="#F1BF72"/>
<path d="M17.5848 47.0088C8.48479 21.3088 22.6848 -2.29117 45.8848 4.50883C35.4848 -3.59117 21.7848 -0.491171 14.4848 11.5088C7.08479 23.6088 8.38479 37.8088 17.5848 47.0088Z" fill="#D78D39"/>
<path d="M46.4852 577.909C33.8852 569.609 20.6852 573.109 14.0852 585.109C7.28518 597.609 8.38518 609.609 18.8852 622.209C13.1852 608.609 13.0852 597.109 19.6852 586.709C26.4852 576.109 35.5852 573.209 46.4852 577.909Z" fill="#DC8037"/>
<path d="M36.2852 436.809C46.8852 430.609 56.7852 430.409 64.8852 441.809C72.2852 452.309 73.4852 464.009 66.5852 477.309C77.1852 467.909 78.3852 452.809 70.5852 440.509C62.4852 427.709 46.8852 425.709 36.2852 436.809Z" fill="#D87D32"/>
<path d="M16.7848 332.309C9.28481 306.509 22.9848 283.609 45.8848 291.009C36.1848 282.909 22.6848 285.409 15.2848 296.709C7.28481 308.909 7.88481 323.109 16.7848 332.309Z" fill="#D78836"/>
<path d="M39.5849 102.709C34.4849 94.7089 32.8849 106.909 28.8849 105.409L22.8849 114.209C14.1849 137.909 14.0849 152.609 24.0849 165.009C15.2849 141.809 20.2849 124.309 33.5849 109.409C35.4849 108.709 37.3849 108.009 37.6849 105.109L39.5849 102.709Z" fill="#DB9235"/>
<path d="M39.385 389.009C34.185 381.109 32.785 393.609 28.785 391.909C14.785 413.909 12.385 433.909 22.585 449.909C14.085 423.609 22.885 404.709 39.385 389.009Z" fill="#DC903B"/>
<path d="M56.585 534.809C54.085 538.309 51.585 526.309 49.085 534.809C63.685 550.609 70.885 569.009 61.585 594.009C73.385 580.309 71.185 559.109 56.585 534.809Z" fill="#D59238"/>
<path d="M57.8849 250.909C55.2849 250.509 53.8849 248.009 52.0849 246.209C49.6849 243.909 49.1849 245.709 48.9849 248.309C63.3849 264.209 70.9849 282.409 61.3849 307.809C73.0849 294.309 71.0849 271.509 57.8849 250.909Z" fill="#D98C38"/>
<path d="M42.5851 417.509C45.0851 410.509 47.9851 406.309 53.8851 406.809C55.9851 407.009 58.1851 404.809 57.9851 401.709C57.6851 398.009 54.9851 397.209 52.4851 396.909C44.9851 395.909 41.0851 403.209 42.5851 417.509Z" fill="#E08331"/>
<path d="M41.585 275.709C45.485 263.409 43.085 255.309 35.085 253.909C31.885 253.309 28.285 253.509 27.685 258.209C27.085 262.409 30.285 263.909 33.185 264.009C39.685 264.109 41.885 268.309 41.385 275.509L41.585 275.709Z" fill="#DF712E"/>
<path d="M49.185 449.809C50.085 453.809 52.985 457.009 51.685 461.309C51.085 463.209 50.485 467.809 47.785 464.709C45.185 461.709 43.385 460.609 41.085 464.109C39.085 467.009 40.185 469.809 42.085 472.109C44.685 475.209 47.685 475.209 50.585 473.109C56.985 468.509 56.285 456.709 49.185 449.809Z" fill="#DC9639"/>
<path d="M41.4848 563.409C45.2848 550.809 43.2848 542.409 35.9848 540.309C32.7848 539.409 29.1848 539.709 27.9848 543.609C26.4848 548.809 30.2848 550.009 33.3848 550.209C38.6848 550.609 41.3848 553.309 41.3848 559.909C40.6848 561.009 40.6848 562.209 41.4848 563.409Z" fill="#DB7D30"/>
<path d="M35.6851 307.709C29.0851 317.309 29.3851 326.009 34.6851 329.909C37.6851 332.109 40.6851 331.609 43.2851 328.909C45.2851 326.709 46.1851 323.809 44.3851 320.909C42.0851 317.309 39.8851 318.309 37.6851 321.709C35.5851 325.009 34.7851 322.009 34.0851 320.109C32.8851 316.909 34.1851 313.909 35.6851 307.709Z" fill="#D97A32"/>
<path d="M32.385 596.609C29.085 602.609 29.185 608.609 32.785 614.309C34.585 617.109 37.085 618.609 40.085 617.609C42.285 616.909 44.185 615.309 44.785 612.609C45.785 608.009 44.385 604.909 40.285 605.509C33.285 606.409 33.285 606.709 34.885 596.309C33.985 595.409 33.185 595.509 32.385 596.609Z" fill="#DC7330"/>
<path d="M33.9849 21.7089C28.5849 30.7089 29.5849 36.8089 33.6849 42.4089C36.2849 45.9089 39.6849 46.0089 42.7849 43.0089C44.8849 41.0089 46.2849 38.2089 44.5849 35.2089C42.1849 30.6089 39.8849 32.2089 37.2849 35.7089C35.0849 38.5089 34.1849 35.3089 33.8849 33.3089C33.6849 30.3089 33.9849 27.3089 33.9849 21.7089Z" fill="#D7802C"/>
<path d="M45.1851 516.609C45.8851 517.409 46.4851 518.209 47.1851 519.109C48.6851 520.309 50.1851 521.609 52.8851 523.709C49.3851 515.009 46.4851 507.509 46.2851 499.009C46.2851 497.009 45.3851 493.909 42.9851 494.709C40.6851 495.409 39.5851 498.109 40.3851 501.009C41.8851 506.209 43.5851 511.409 45.1851 516.609Z" fill="#DF8A37"/>
<path d="M49.5848 359.909C59.0848 349.409 58.8848 335.909 57.6848 322.109C57.4848 319.909 57.0848 317.809 56.6848 315.709C54.1848 313.709 54.2848 308.509 48.8848 307.809C61.2848 325.609 55.0848 342.709 49.5848 359.909Z" fill="#FBD8A7"/>
<path d="M65.9851 103.809C65.8851 105.109 65.7851 106.409 65.6851 107.609C65.6851 109.409 65.2851 111.409 65.6851 113.109C69.1851 128.209 68.1851 130.209 51.6851 140.609C62.3851 142.009 68.8851 136.109 69.7851 123.409C70.0851 119.009 69.8851 114.609 73.4851 111.809C68.0851 113.109 68.9851 105.809 65.9851 103.809Z" fill="#F0BE6F"/>
<path d="M15.1851 255.209C1.28508 246.009 -1.01493 235.909 7.58507 220.609C8.68507 218.709 9.98507 217.209 9.08507 214.609C-5.01493 231.009 -2.41492 250.109 14.8851 257.709C15.4851 257.209 15.6851 256.709 15.5851 256.109C15.5851 255.509 15.3851 255.209 15.1851 255.209Z" fill="#FAE3B2"/>
<path d="M51.6851 234.909C49.4851 228.009 46.3851 221.509 46.5851 213.809C46.6851 211.209 45.6851 208.009 42.9851 208.509C40.4851 209.009 39.8851 212.309 40.4851 214.809C41.7851 220.109 43.5851 225.209 45.1851 230.309C47.7851 230.809 48.3851 235.609 51.6851 234.909Z" fill="#DD9539"/>
<path d="M41.2848 371.109C42.1848 366.009 45.2848 361.709 45.0848 356.209C44.9848 353.709 44.0848 351.609 41.8848 351.509C40.0848 351.409 39.2848 353.509 39.3848 355.509C39.4848 362.409 37.0848 368.509 35.3848 375.009C39.0848 376.509 38.9848 371.109 41.4848 371.009L41.2848 371.109Z" fill="#D78335"/>
<path d="M35.585 659.709C39.485 662.409 39.185 656.109 41.585 655.609C41.685 655.309 41.885 654.909 41.985 654.609C43.285 649.409 48.785 641.509 42.985 639.409C36.485 637.009 40.885 647.709 38.285 651.609C36.785 653.709 36.385 656.909 35.585 659.709Z" fill="#DA8A33"/>
<path d="M35.6851 86.7089C36.3851 87.5089 36.9851 88.2089 37.6851 89.0089C41.0851 84.4089 43.3851 79.2089 44.7851 73.3089C45.4851 70.4089 45.9851 66.6089 42.8851 65.6089C39.0851 64.5089 39.5851 68.7089 39.3851 71.5089C38.8851 77.0089 37.7851 82.0089 35.6851 86.7089Z" fill="#CF792E"/>
<path d="M21.6852 563.809C16.6852 554.409 16.6852 544.909 20.9852 535.209C21.7852 533.909 21.6852 532.809 20.6852 531.809C12.5852 544.409 12.5852 552.609 20.4852 565.409C21.3852 565.409 21.7852 564.909 21.6852 563.809Z" fill="#EFC377"/>
<path d="M32.3848 596.609C33.1848 596.509 33.9848 596.409 34.7848 596.309C44.6848 589.409 47.7848 591.009 55.4848 606.409C54.9848 598.009 51.7848 592.309 45.8848 590.309C40.2848 588.309 35.5848 590.109 32.3848 596.609Z" fill="#F9CF97"/>
<path d="M25.0849 480.109C27.3849 476.709 25.8849 472.509 26.6849 468.709C26.0849 459.309 29.1849 450.809 33.5849 440.009C24.6849 451.109 23.4849 458.109 25.0849 480.109Z" fill="#E9B061"/>
<path d="M41.4849 563.409C41.4849 562.209 41.3849 561.009 41.3849 559.809C35.8849 569.209 28.9849 568.009 21.6849 563.809C21.1849 564.309 20.7849 564.809 20.4849 565.409C29.3849 574.009 35.2849 573.409 41.4849 563.409Z" fill="#F7D096"/>
<path d="M41.3848 275.509C35.3848 281.409 28.8848 282.809 20.3848 276.009C27.8848 288.009 36.5848 286.909 41.5848 275.609L41.3848 275.509Z" fill="#EFBF7A"/>
<path d="M20.6851 531.709L20.9851 535.109C26.3851 526.909 33.3851 526.709 40.9851 528.809C41.3851 528.309 41.6851 527.809 42.0851 527.309C33.7851 520.809 26.7851 523.309 20.6851 531.709Z" fill="#F0C580"/>
<path d="M41.5849 241.609C33.6849 233.609 27.0849 237.309 20.8849 244.909C20.1849 246.109 20.2849 247.309 20.9849 248.409C26.4849 240.209 34.1849 241.409 41.5849 241.609Z" fill="#EFC78B"/>
<path d="M26.7851 502.409C26.7851 502.009 26.7851 501.609 26.5851 501.209C16.8851 495.409 9.38506 498.109 3.68506 509.409L4.48506 510.309C10.6851 502.409 17.6851 498.409 26.7851 502.409Z" fill="#FAE0B5"/>
<path d="M80.7849 80.3089C83.8849 89.0089 83.0849 97.5089 79.4849 106.009C86.2849 97.3089 86.6849 89.1089 80.9849 80.1089L80.7849 80.3089Z" fill="#FADEB1"/>
<path d="M20.985 248.409C20.985 247.209 20.885 246.109 20.885 244.909C18.985 248.309 17.185 251.809 15.285 255.209C15.185 256.009 15.085 256.909 15.085 257.709C15.285 260.909 15.385 264.209 15.585 267.409C17.685 261.109 18.285 254.309 20.985 248.409Z" fill="#E4AF4B"/>
<path d="M3.68495 509.409C-0.715047 516.509 -1.11505 523.709 4.28495 534.109C2.38495 524.109 2.28495 517.109 4.48495 510.309C4.18495 510.109 3.88495 509.809 3.68495 509.409Z" fill="#F8E2AE"/>
<path d="M67.8851 190.109C77.4851 178.909 77.9851 164.709 69.8851 153.009C61.8851 141.509 47.9851 140.009 36.1851 150.209C46.6851 144.509 56.6851 144.109 64.6851 155.209C71.9851 165.509 73.7851 177.109 67.8851 190.109Z" fill="#D87A31"/>
<path d="M42.4849 130.409C45.3849 124.309 48.2849 119.909 53.9849 120.509C55.9849 120.709 58.2849 118.709 58.0849 115.509C57.8849 112.509 55.7849 111.409 53.4849 110.809C45.6849 108.609 41.1849 116.009 42.4849 130.409Z" fill="#DB8C31"/>
<path d="M41.5849 175.909L39.9849 178.109C39.9849 183.209 41.3849 187.109 45.9849 188.009C49.5849 188.709 51.8849 186.009 53.4849 182.609C56.0849 177.509 55.2849 172.109 51.0849 165.709C49.9849 167.709 51.2849 169.209 51.7849 170.909C52.7849 174.209 51.9849 177.409 50.0849 179.209C47.3849 181.809 47.3849 176.009 45.2849 175.909C44.0849 175.709 42.8849 175.809 41.5849 175.909Z" fill="#D97A2E"/>
</svg>
