<svg width="86" height="1949" viewBox="0 0 86 1949" fill="none" xmlns="http://www.w3.org/2000/svg">
<path d="M35.5852 659.709C30.4852 663.709 34.2852 671.509 30.7852 676.309C33.7852 679.109 36.4852 674.509 39.3852 675.709C46.8852 671.409 54.4852 669.209 62.5852 673.909C56.5852 664.509 49.3852 667.109 41.2852 669.809C48.2852 663.909 49.7852 652.209 57.5852 647.209C64.3852 642.809 71.2852 642.409 77.2852 649.809C82.6852 656.709 84.7852 664.409 80.9852 673.509C80.2852 675.109 79.8852 676.809 79.9852 678.609C86.2852 671.009 86.1852 662.109 82.3852 653.009C78.1852 642.909 70.8852 640.209 57.0852 643.609C60.6852 624.009 65.3852 604.509 54.4852 586.309C61.3852 607.609 56.2852 627.309 49.0852 646.709C46.8852 652.609 46.5852 652.409 41.5852 655.709C37.8852 653.509 38.1852 659.809 35.5852 659.709Z" fill="#F9CF97"/>
<path d="M82.7852 1530.91C79.5852 1535.51 76.4852 1540.11 73.2852 1544.71C79.4852 1543.11 82.6852 1538.51 82.7852 1530.91Z" fill="#FAD69E"/>
<path d="M40.585 1533.31C43.885 1523.11 49.685 1514.61 56.185 1507.81C66.085 1497.61 80.985 1506.31 82.485 1522.01C82.785 1525.01 82.585 1528.01 82.585 1531.01C88.985 1511.51 78.685 1499.61 56.785 1501.71C61.485 1483.01 64.885 1464.41 55.485 1445.21C52.685 1450.81 57.185 1454.01 55.985 1458.51C53.285 1458.91 53.385 1452.61 50.085 1454.51C58.585 1473.21 56.485 1497.01 44.885 1513.61C44.085 1514.71 43.385 1517.41 41.385 1515.11C38.385 1514.51 38.285 1516.21 39.385 1518.81C38.885 1527.71 30.385 1530.11 28.585 1538.01C33.685 1541.11 35.485 1533.51 39.485 1533.21L39.985 1533.61L40.585 1533.31Z" fill="#FAD69E"/>
<path d="M21.8855 1106.01C28.8855 1098.71 36.6855 1100.41 44.4855 1103.51C50.1855 1102.61 51.9855 1112.91 58.2855 1110.41C56.4855 1103.41 48.6855 1101.01 48.7855 1092.51C48.2855 1090.21 48.7855 1086.81 45.3855 1087.61C41.8855 1090.01 41.5855 1085.61 40.3855 1083.81C35.5855 1076.71 31.5855 1068.61 30.9855 1059.51C29.9855 1045.01 26.5855 1030.21 32.3855 1015.41C22.4855 1024.21 21.4855 1045.61 29.3855 1073.21C22.9855 1072.51 16.5855 1069.21 10.1855 1075.11C28.6855 1067.41 34.5856 1084.31 42.9855 1098.71C33.3855 1095.11 25.1855 1095.71 19.2855 1105.71C20.0855 1107.01 20.9855 1107.01 21.8855 1106.01Z" fill="#F5C680"/>
<path d="M39.5852 102.709C53.2852 95.6088 57.1852 96.4088 65.6852 107.609C66.5852 106.409 66.6852 105.109 65.9852 103.809C59.7852 91.5088 50.7852 93.9088 41.6852 97.2088C61.3852 66.5088 65.6852 64.6088 80.7852 80.3088L81.0852 80.0088C76.3852 68.8088 72.5852 67.2088 56.8852 70.1088C60.7852 52.8088 64.0852 35.5088 57.1852 18.5088C56.1852 31.4088 57.7852 44.5088 54.6852 57.2088C51.5852 69.9088 47.8852 82.1088 37.5852 89.1088C37.0852 88.2088 36.8852 86.8088 35.5852 86.8088C30.3852 91.5088 34.3852 101.109 28.7852 105.509C33.2852 109.109 35.4852 100.309 39.5852 102.709Z" fill="#F7CA8C"/>
<path d="M49.5852 359.909C46.7852 363.709 45.5852 369.109 41.2852 371.109L41.3852 371.009C39.7852 380.309 31.1852 383.409 28.7852 391.909C33.1852 395.409 35.2852 387.009 39.3852 389.009C59.3852 379.109 67.0852 386.309 67.4852 415.209C71.9852 405.909 71.5852 397.309 66.0852 388.909C59.0852 378.209 50.2852 378.909 40.7852 383.709C47.7852 377.209 49.7852 365.609 57.2852 360.609C65.4852 355.109 73.4852 356.309 80.2852 366.709C76.3852 355.509 71.3852 353.509 56.9852 356.809C60.8852 337.609 65.0852 318.509 54.4852 300.709C55.2852 305.709 55.9852 310.709 56.6852 315.709C56.1852 325.809 58.8852 336.009 55.2852 346.009C53.6852 350.709 52.7852 356.009 49.5852 359.909Z" fill="#F7CD8F"/>
<path d="M66.1848 963.509C59.5848 952.409 55.2848 951.309 38.7848 958.109C48.5848 948.909 51.2848 936.309 60.4848 930.609C55.5848 930.409 57.2848 927.409 58.0848 923.809C60.7848 912.209 62.3848 900.309 60.5848 888.209C58.9848 877.509 55.6848 867.909 46.8848 862.909C46.0848 863.209 45.4848 863.909 45.1848 864.809C52.6848 871.509 57.2848 880.209 58.1848 892.109C54.9848 890.909 56.3848 885.109 52.6848 885.209L52.8848 885.009C60.1848 905.209 55.0848 923.009 45.4848 939.709C44.6848 941.109 44.0848 944.509 41.4848 942.009C38.5848 941.509 38.4848 943.109 39.6848 945.709C38.9848 954.509 30.7848 957.209 28.8848 965.009C33.1848 968.309 35.3848 960.209 39.4848 962.009C53.5848 954.909 57.6848 955.709 65.7848 967.309C66.6848 966.209 66.7848 964.909 66.1848 963.509Z" fill="#F6CC8B"/>
<path d="M39.4855 1248.81C53.1855 1241.61 57.1855 1242.41 65.6855 1253.81C66.5855 1252.61 66.6856 1251.31 65.8856 1249.91C58.9856 1239.41 54.8855 1238.31 41.5855 1243.41C59.8855 1213.01 64.9855 1210.71 80.7855 1226.21C76.2855 1215.01 72.5855 1213.41 56.7855 1216.21C60.5855 1198.81 64.0855 1181.51 57.4855 1163.51C54.5855 1167.71 57.4855 1171.41 56.6855 1174.81C53.8855 1180.71 58.5855 1186.01 57.5855 1192.11C56.4855 1198.41 55.7855 1204.71 52.9855 1210.31C50.2855 1218.11 47.6855 1226.01 41.4855 1230.81C38.1855 1231.21 37.4855 1234.81 36.0855 1237.41C35.8855 1244.51 28.9855 1246.51 28.1855 1253.01C33.2855 1256.91 34.5855 1245.91 39.4855 1248.81Z" fill="#F6CB8B"/>
<path d="M4.08496 1656.11C22.485 1635.91 33.585 1651.11 41.485 1672.21C40.485 1673.11 40.385 1674.21 41.285 1675.31C42.085 1676.71 43.185 1677.11 44.485 1676.61C48.985 1676.31 51.285 1684.31 56.485 1681.01C54.785 1675.21 48.085 1673.21 48.685 1665.71C48.085 1663.41 48.785 1659.81 45.185 1660.71C37.785 1656.31 32.385 1642.61 29.785 1628.01C27.285 1613.81 25.885 1600.21 33.185 1587.21C22.385 1598.51 21.285 1618.71 29.285 1646.31C19.585 1644.81 9.08496 1640.71 4.08496 1656.11Z" fill="#F5C585"/>
<path d="M56.5848 821.309C54.4848 814.809 47.3848 812.409 47.1848 804.409C48.2848 801.809 48.0848 800.309 45.1848 801.109C42.0848 802.009 41.0848 798.909 39.8848 796.609C29.8848 777.809 20.4848 746.809 35.9848 723.809C23.5848 730.009 20.5848 755.609 28.9848 786.309C25.5848 785.909 22.4848 785.309 19.2848 785.109C16.1848 784.909 12.9848 784.509 9.38477 789.709C29.7848 780.009 34.3848 800.809 43.6848 812.409C43.8848 812.709 43.8848 813.109 43.9848 813.409L42.1848 813.909C40.8848 813.609 40.4848 814.209 40.8848 815.709C43.5848 817.609 46.2848 819.409 48.9848 821.309C51.5848 819.409 54.0848 825.209 56.5848 821.309Z" fill="#F8CF93"/>
<path d="M45.2847 230.109C35.4847 220.009 30.1847 207.309 30.1847 191.509C32.7847 187.809 30.4847 184.609 29.2847 181.309C28.3847 178.709 26.2847 176.409 28.2847 173.309C27.4847 166.609 31.2847 161.409 32.0847 155.109C26.4847 160.209 24.8847 167.809 24.3847 175.609C23.9847 185.809 25.8847 195.809 26.6847 205.809C27.6847 219.909 36.7847 226.509 42.0847 236.609C43.2847 238.809 45.4847 240.409 41.4847 241.509C42.6847 245.909 46.3847 246.309 49.0847 248.309C52.6847 246.109 54.1847 254.409 57.9847 250.909C55.4847 242.409 46.8847 239.409 45.2847 230.109Z" fill="#F3C37C"/>
<path d="M34.1848 1744.81C42.0848 1735.61 48.6848 1737.21 53.5848 1749.21C58.1848 1760.41 55.7848 1771.21 52.6848 1782.01C51.4848 1786.31 50.1848 1790.51 48.8848 1794.71C50.0848 1795.41 51.3848 1795.41 51.9848 1794.11C54.5848 1789.01 53.2848 1795.81 54.2848 1795.21C57.0848 1796.71 59.7848 1795.21 62.4848 1794.41C69.1848 1792.31 74.0848 1795.41 77.6848 1802.01C81.1848 1808.41 80.4848 1814.81 76.8848 1821.01C75.2848 1823.71 73.0848 1826.11 72.7848 1829.71C72.8848 1830.21 72.9848 1830.71 73.1848 1831.21C82.3848 1827.11 86.8848 1816.31 84.4848 1804.51C82.1848 1793.11 73.5848 1786.31 63.2848 1788.01C59.8848 1788.61 55.1848 1792.01 58.1848 1783.11C57.4848 1775.21 60.2848 1767.71 59.5848 1759.81C59.3848 1757.61 59.9848 1755.31 58.2848 1753.61C56.9848 1750.31 55.8848 1746.91 54.1848 1743.91C48.4848 1733.21 40.0848 1732.91 32.3848 1742.71C32.6848 1743.71 33.2848 1744.41 34.1848 1744.81Z" fill="#FDD9AB"/>
<path d="M25.085 480.109C26.285 486.109 27.385 492.109 28.885 498.009C29.685 501.209 27.685 500.609 26.585 501.309L26.785 502.509C35.085 507.809 37.485 519.309 44.085 526.409C44.185 526.509 43.985 527.209 43.885 527.309C43.285 527.409 42.685 527.409 42.085 527.509C41.085 527.409 40.785 527.909 40.985 529.009C43.685 531.009 46.385 533.009 49.085 535.009C51.585 533.009 54.085 538.809 56.585 535.009C54.785 528.609 47.685 526.809 47.185 519.209C46.985 517.809 46.285 517.009 45.185 516.709C35.885 507.609 31.585 495.209 29.885 481.309C29.385 476.909 29.385 472.409 26.685 468.809C24.285 472.109 26.485 476.509 25.085 480.109Z" fill="#F1BF72"/>
<path d="M13.2852 1361.11C27.6852 1357.31 33.5852 1365.81 41.5852 1385.91C40.5852 1386.81 40.4852 1387.91 41.2852 1389.11L49.0852 1394.51C50.4852 1393.11 52.2852 1392.41 52.8852 1390.01C51.5852 1384.51 45.3852 1382.91 45.2852 1376.31L45.3852 1376.51C35.9852 1367.71 31.7852 1355.41 30.0852 1341.71C29.5852 1337.61 30.0852 1333.31 26.8852 1330.31C22.9852 1336.51 28.0852 1342.81 26.7852 1349.01L28.9852 1359.91C23.4852 1359.71 17.9852 1354.91 13.2852 1361.11Z" fill="#F2C27E"/>
<path d="M54.6844 1794.91C52.9844 1782.61 50.7844 1798.71 48.9844 1794.71C46.0844 1797.81 44.8844 1803.31 40.2844 1804.31C37.1844 1805.51 36.5844 1808.31 36.8844 1811.71C34.7844 1817.41 29.5844 1820.21 27.9844 1826.31C31.0844 1828.51 32.1844 1815.71 36.0844 1824.71C51.1844 1813.81 56.5844 1814.21 65.6844 1826.61C66.3844 1825.91 66.8844 1825.01 67.0844 1823.91C63.6844 1812.01 56.6844 1808.41 45.3844 1812.81C49.5844 1807.91 54.1844 1802.91 54.6844 1794.91Z" fill="#F3BA73"/>
<path d="M17.5853 47.0088C8.48528 21.3088 22.6853 -2.29117 45.8853 4.50883C35.4853 -3.59117 21.7853 -0.491171 14.4853 11.5088C7.08528 23.6088 8.38528 37.8088 17.5853 47.0088Z" fill="#D78D39"/>
<path d="M46.4857 577.909C33.8857 569.609 20.6857 573.109 14.0857 585.109C7.28567 597.609 8.38567 609.609 18.8857 622.209C13.1857 608.609 13.0857 597.109 19.6857 586.709C26.4857 576.109 35.5857 573.209 46.4857 577.909Z" fill="#DC8037"/>
<path d="M17.3854 1193.31C8.28543 1164.61 24.4854 1143.61 45.7854 1150.71C39.0854 1141.61 20.6854 1146.91 15.0854 1156.21C7.58543 1169.01 7.98543 1182.51 17.3854 1193.31Z" fill="#DA8738"/>
<path d="M36.2852 436.809C46.8852 430.609 56.7852 430.409 64.8852 441.809C72.2852 452.309 73.4852 464.009 66.5852 477.309C77.1852 467.909 78.3852 452.809 70.5852 440.509C62.4852 427.709 46.8852 425.709 36.2852 436.809Z" fill="#D87D32"/>
<path d="M35.7849 1298.01C44.3849 1291.11 52.9849 1289.81 61.6849 1297.91C70.4849 1306.11 72.2849 1315.81 68.3849 1336.31C77.2849 1325.61 77.9849 1311.91 70.3849 1300.11C62.2849 1287.61 49.3849 1285.71 36.0849 1295.11C35.4849 1295.61 35.2849 1296.31 35.3849 1296.91C35.4849 1297.71 35.5849 1298.01 35.7849 1298.01Z" fill="#D78435"/>
<path d="M16.7848 332.309C9.28481 306.509 22.9848 283.609 45.8848 291.009C36.1848 282.909 22.6848 285.409 15.2848 296.709C7.28481 308.909 7.88481 323.109 16.7848 332.309Z" fill="#D78836"/>
<path d="M16.7843 1764.91C9.68426 1741.41 20.7843 1716.61 46.4843 1723.41C35.0843 1714.21 19.6843 1721.11 14.5843 1730.31C7.58426 1742.91 8.18426 1755.81 16.7843 1764.91Z" fill="#D68635"/>
<path d="M46.9848 716.609C43.6848 716.409 41.1848 718.409 38.3848 720.909C49.0848 717.309 58.3848 718.409 65.6848 729.609C72.6848 740.309 72.6848 751.509 67.8848 763.409C75.7848 756.209 77.1848 746.709 74.4848 736.409C71.2848 724.209 64.2848 716.909 53.1848 716.509C51.0848 715.209 48.9848 715.509 46.9848 716.609Z" fill="#D57A2F"/>
<path d="M45.1851 864.809C45.7851 864.209 46.2851 863.509 46.8851 862.909C43.9851 861.609 41.3851 859.309 38.0851 859.809C35.3851 859.009 32.6851 857.309 30.0851 859.809C10.5851 864.809 3.68511 887.709 18.2851 908.309C12.7851 891.909 13.5851 879.209 22.7851 869.109C29.2851 861.909 36.9851 860.709 45.1851 864.809Z" fill="#DC7B35"/>
<path d="M46.885 1003.01C42.685 1003.11 39.085 1005.01 36.085 1009.41C46.385 1003.91 56.285 1003.31 64.285 1014.01C71.785 1024.11 73.785 1035.61 66.885 1049.31C74.985 1042.21 77.385 1034.81 74.985 1024.71C72.085 1012.61 66.085 1004.21 54.985 1002.91C52.285 1001.71 49.585 1002.01 46.885 1003.01Z" fill="#D87F32"/>
<path d="M16.5846 1478.61C9.88464 1452.91 21.3846 1430.51 46.2846 1436.61C34.6846 1427.91 20.3846 1433.81 14.6846 1443.21C7.58464 1455.31 8.08464 1468.31 16.5846 1478.61Z" fill="#D87A31"/>
<path d="M69.0855 1619.81C77.4855 1610.01 77.4856 1596.41 69.8856 1585.61C61.6856 1573.91 47.9855 1572.21 36.1855 1582.41C46.1855 1577.41 55.6855 1576.31 63.7855 1586.41C71.1855 1595.91 73.4855 1607.01 69.0855 1619.81Z" fill="#D78537"/>
<path d="M39.5854 102.709C34.4854 94.7089 32.8854 106.909 28.8854 105.409L22.8854 114.209C14.1854 137.909 14.0854 152.609 24.0854 165.009C15.2854 141.809 20.2854 124.309 33.5854 109.409C35.4854 108.709 37.3854 108.009 37.6854 105.109L39.5854 102.709Z" fill="#DB9235"/>
<path d="M52.7847 1389.91C50.4847 1390.21 48.7847 1391.11 48.9847 1394.41C63.3847 1410.41 70.8847 1428.81 61.3847 1454.31C75.2847 1438.31 68.5847 1407.11 52.7847 1389.91Z" fill="#DA903B"/>
<path d="M39.4853 1248.81C33.3853 1241.41 32.3853 1253.51 28.0853 1253.11C14.6853 1273.21 12.3853 1295.31 24.2853 1312.31C13.8853 1283.21 23.0853 1264.51 39.4853 1248.81Z" fill="#DD9339"/>
<path d="M39.6844 1533.31C34.3844 1529.41 32.8844 1538.11 28.7844 1538.11C14.5844 1560.61 12.1844 1582.31 23.2844 1596.21C12.4844 1568.61 25.1844 1550.61 39.6844 1533.31Z" fill="#DD8F3A"/>
<path d="M39.385 389.009C34.185 381.109 32.785 393.609 28.785 391.909C14.785 413.909 12.385 433.909 22.585 449.909C14.085 423.609 22.885 404.709 39.385 389.009Z" fill="#DC903B"/>
<path d="M39.3844 675.609C36.2844 671.509 33.5844 675.809 30.7844 676.209C15.3844 697.009 11.9844 719.609 22.6844 736.409C14.0844 710.209 22.9844 691.309 39.3844 675.609Z" fill="#DA8B38"/>
<path d="M56.585 1680.91C52.485 1679.91 49.185 1675.31 44.585 1676.51C62.585 1690.61 68.685 1711.11 62.785 1738.51C75.285 1725.91 67.985 1695.01 56.585 1680.91Z" fill="#D88E39"/>
<path d="M58.285 1110.31C53.485 1108.71 50.585 1101.41 44.585 1103.41C63.285 1118.51 69.185 1138.41 62.685 1165.11C72.985 1154.41 71.185 1131.61 58.285 1110.31Z" fill="#DA8F36"/>
<path d="M56.585 534.809C54.085 538.309 51.585 526.309 49.085 534.809C63.685 550.609 70.885 569.009 61.585 594.009C73.385 580.309 71.185 559.109 56.585 534.809Z" fill="#D59238"/>
<path d="M39.3856 962.009C34.1856 954.409 32.7856 966.409 28.7856 965.009C14.8856 986.009 12.3856 1006.61 22.4856 1022.61C14.3856 996.609 22.7856 977.609 39.3856 962.009Z" fill="#D88E36"/>
<path d="M56.585 821.309C52.285 819.609 49.785 819.609 49.085 821.309C63.285 837.309 71.285 855.309 61.385 880.309C72.785 871.009 71.285 840.609 56.585 821.309Z" fill="#D98E3A"/>
<path d="M57.8844 250.909C55.2844 250.509 53.8844 248.009 52.0844 246.209C49.6844 243.909 49.1844 245.709 48.9844 248.309C63.3844 264.209 70.9844 282.409 61.3844 307.809C73.0844 294.309 71.0844 271.509 57.8844 250.909Z" fill="#D98C38"/>
<path d="M46.885 1003.01C49.585 1003.01 52.285 1002.91 54.985 1002.91C64.485 998.309 71.485 991.509 70.085 977.509C69.785 974.009 72.685 973.809 73.485 971.509C68.485 972.309 69.285 965.309 66.185 963.509C65.985 964.809 65.885 966.109 65.785 967.409C66.685 974.709 69.185 981.809 65.485 989.209C62.485 995.109 58.585 997.409 52.985 996.609C47.185 995.809 44.985 991.609 44.985 985.109C42.085 984.509 42.985 987.809 42.085 989.309C42.685 993.709 45.085 996.609 47.985 999.009C49.685 1000.21 49.485 1001.11 46.885 1003.01Z" fill="#F3CC8A"/>
<path d="M45.185 705.609C42.785 697.609 45.9851 694.709 52.0851 693.909C55.0851 693.509 59.0851 692.709 57.7851 687.509C56.7851 683.409 53.0851 683.109 49.8851 683.709C42.2851 685.209 39.6851 695.309 43.7851 707.409C45.3851 708.109 45.885 707.509 45.185 705.609Z" fill="#E18734"/>
<path d="M45.1851 1278.71C42.3851 1270.41 46.1851 1268.01 52.0851 1267.01C55.1851 1266.51 59.0851 1265.51 57.6851 1260.41C56.5851 1256.51 52.9851 1256.11 49.6851 1256.91C41.1851 1259.01 39.2851 1270.61 45.4851 1282.61C45.9851 1281.21 45.8851 1279.91 45.1851 1278.71Z" fill="#E07D2E"/>
<path d="M42.7854 1562.01C44.8854 1555.51 48.3854 1552.81 53.7854 1552.91C55.9854 1552.91 58.2854 1551.11 58.1854 1548.01C58.0854 1544.41 55.4854 1543.21 52.8854 1542.71C45.3854 1541.51 41.2854 1548.81 42.7854 1562.01Z" fill="#E18A34"/>
<path d="M42.5851 417.509C45.0851 410.509 47.9851 406.309 53.8851 406.809C55.9851 407.009 58.1851 404.809 57.9851 401.709C57.6851 398.009 54.9851 397.209 52.4851 396.909C44.9851 395.909 41.0851 403.209 42.5851 417.509Z" fill="#E08331"/>
<path d="M41.985 989.209C42.985 987.809 43.985 986.409 44.885 985.009C46.485 981.109 49.285 980.309 52.485 979.809C55.085 979.409 58.785 978.809 57.785 974.009C56.885 969.609 53.085 968.809 50.185 969.709C41.785 972.409 40.885 980.309 41.985 989.209Z" fill="#E17929"/>
<path d="M41.5845 275.709C45.4845 263.409 43.0845 255.309 35.0845 253.909C31.8845 253.309 28.2845 253.509 27.6845 258.209C27.0845 262.409 30.2845 263.909 33.1845 264.009C39.6845 264.109 41.8845 268.309 41.3845 275.509L41.5845 275.709Z" fill="#DF712E"/>
<path d="M42.5855 1133.01C43.9855 1124.91 44.8855 1116.81 36.5855 1113.31C33.1855 1111.81 29.0855 1112.01 27.8855 1116.91C26.5855 1122.31 30.7855 1123.01 33.7855 1123.01C39.2855 1123.21 40.9855 1127.61 42.5855 1133.01Z" fill="#DD8331"/>
<path d="M42.285 1849.51C45.285 1843.71 47.985 1838.81 53.885 1839.41C55.785 1839.61 58.385 1837.71 58.085 1834.51C57.785 1830.91 55.085 1829.91 52.585 1829.41C45.485 1827.91 41.285 1835.61 42.285 1849.51Z" fill="#E57831"/>
<path d="M48.8851 1021.91C50.2851 1027.11 53.2852 1030.71 51.5852 1035.41C50.8852 1037.31 49.9852 1041.51 47.5852 1037.71C45.5852 1034.41 43.6852 1034.11 41.5852 1036.41C40.2852 1037.81 39.4851 1039.91 40.6851 1042.51C42.1851 1045.81 44.2852 1048.01 47.3851 1047.31C54.5851 1045.71 55.4852 1039.21 54.9852 1031.91C54.6852 1027.61 52.5852 1025.01 48.8851 1021.91Z" fill="#D98637"/>
<path d="M49.185 449.809C50.085 453.809 52.985 457.009 51.685 461.309C51.085 463.209 50.485 467.809 47.785 464.709C45.185 461.709 43.385 460.609 41.085 464.109C39.085 467.009 40.185 469.809 42.085 472.109C44.685 475.209 47.685 475.209 50.585 473.109C56.985 468.509 56.285 456.709 49.185 449.809Z" fill="#DC9639"/>
<path d="M41.4843 563.409C45.2843 550.809 43.2843 542.409 35.9843 540.309C32.7843 539.409 29.1843 539.709 27.9843 543.609C26.4843 548.809 30.2843 550.009 33.3843 550.209C38.6843 550.609 41.3843 553.309 41.3843 559.909C40.6843 561.009 40.6843 562.209 41.4843 563.409Z" fill="#DB7D30"/>
<path d="M47.9847 735.109C50.1847 739.909 52.7847 743.409 51.7847 747.909C51.2847 749.809 51.0847 755.609 47.4847 750.509C45.6847 748.009 43.7847 747.809 41.9847 749.609C40.5847 751.009 39.8847 753.209 40.6847 755.709C41.5847 758.309 42.8847 760.009 45.2847 760.609C51.0847 762.109 55.6847 755.709 55.1847 746.909C54.7847 741.709 52.7847 738.109 47.9847 735.109Z" fill="#DE9035"/>
<path d="M42.5847 1421.81C44.2847 1406.21 41.4847 1399.91 33.9847 1399.61C30.9847 1399.51 27.8847 1400.41 27.5847 1404.51C27.2847 1408.01 30.0847 1410.21 32.4847 1409.91C38.7847 1409.31 41.1847 1414.01 42.5847 1421.81Z" fill="#DF6E2D"/>
<path d="M73.385 1544.61C68.385 1544.51 68.485 1538.71 66.385 1535.41C60.385 1526.21 51.985 1524.11 47.085 1531.01C63.485 1531.11 67.185 1536.71 67.385 1562.21C72.185 1557.11 67.685 1548.11 73.385 1544.61Z" fill="#FAD69E"/>
<path d="M48.4849 1309.21C50.4849 1313.41 53.2849 1317.11 51.3849 1322.31C50.7849 1324.01 50.0849 1327.61 47.8849 1324.41C45.5849 1321.01 43.5849 1320.31 41.0849 1323.61C39.2849 1326.01 40.0849 1328.61 41.3849 1330.81C43.5849 1334.31 46.6849 1335.11 49.6849 1333.11C55.7849 1329.21 55.9849 1322.31 54.3849 1315.51C53.6849 1312.71 51.8849 1309.71 48.4849 1309.21Z" fill="#E28E34"/>
<path d="M52.9852 1210.31C61.2852 1199.61 57.9852 1187.11 56.6852 1174.91C46.9852 1159.81 40.8852 1158.51 32.2852 1169.71C33.1852 1170.61 34.0852 1170.51 34.8852 1169.41C39.0852 1165.81 43.3852 1163.31 48.1852 1168.01C54.7852 1174.51 56.6852 1183.31 56.0852 1193.01C55.7852 1198.81 54.0852 1204.51 52.9852 1210.31Z" fill="#FBDDAF"/>
<path d="M42.4856 1707.31C43.7856 1699.01 44.9856 1690.91 37.0856 1686.81C33.1856 1684.81 28.9856 1685.21 27.8856 1690.41C26.7856 1695.21 30.8856 1696.21 34.0856 1696.21C39.9856 1696.41 41.4856 1701.51 42.4856 1707.31Z" fill="#DA7F29"/>
<path d="M43.1847 846.309C44.1847 838.009 44.2847 830.109 36.0847 826.909C32.3847 825.409 28.6847 826.609 27.7847 831.309C26.9847 835.609 30.6847 836.909 33.3847 836.909C38.9847 836.809 41.1847 840.509 41.6847 846.609C42.1847 847.409 42.6847 847.409 43.1847 846.309Z" fill="#DD6E2C"/>
<path d="M50.2848 1594.61C51.1848 1600.91 52.1848 1604.11 51.8848 1607.21C51.6848 1608.91 50.6848 1614.11 48.0848 1611.11C45.1848 1607.71 43.3848 1606.41 40.8848 1610.81C39.0848 1614.11 40.6848 1616.81 42.5848 1618.71C45.6848 1621.61 49.2848 1621.41 51.8848 1617.81C56.5848 1611.11 56.2848 1604.21 50.2848 1594.61Z" fill="#DA9335"/>
<path d="M34.1845 1744.81C33.5845 1744.11 32.8845 1743.41 32.2845 1742.61C29.2845 1748.71 29.0845 1754.81 33.0845 1760.41C36.4845 1765.31 42.9845 1764.41 44.7845 1759.11C45.5845 1756.91 45.4845 1754.61 44.0845 1752.71C42.8845 1751.21 41.4845 1751.01 39.7845 1751.51C35.9845 1752.81 34.0845 1750.51 34.1845 1744.81Z" fill="#DC7E33"/>
<path d="M35.6851 307.709C29.0851 317.309 29.3851 326.009 34.6851 329.909C37.6851 332.109 40.6851 331.609 43.2851 328.909C45.2851 326.709 46.1851 323.809 44.3851 320.909C42.0851 317.309 39.8851 318.309 37.6851 321.709C35.5851 325.009 34.7851 322.009 34.0851 320.109C32.8851 316.909 34.1851 313.909 35.6851 307.709Z" fill="#D97A32"/>
<path d="M33.585 1454.51C28.485 1463.91 29.685 1470.41 34.685 1475.71C37.185 1478.31 40.685 1478.01 43.285 1475.01C45.185 1472.81 46.385 1469.81 44.485 1466.91C42.185 1463.41 39.985 1464.31 37.685 1467.71C35.485 1471.01 34.585 1467.41 34.285 1465.71C33.685 1462.91 33.785 1459.91 33.585 1454.51Z" fill="#D78831"/>
<path d="M32.385 596.609C29.085 602.609 29.185 608.609 32.785 614.309C34.585 617.109 37.085 618.609 40.085 617.609C42.285 616.909 44.185 615.309 44.785 612.609C45.785 608.009 44.385 604.909 40.285 605.509C33.285 606.409 33.285 606.709 34.885 596.309C33.985 595.409 33.185 595.509 32.385 596.609Z" fill="#DC7330"/>
<path d="M34.985 1169.41C34.085 1169.51 33.2849 1169.61 32.3849 1169.71C29.3849 1175.81 29.285 1181.81 32.985 1187.61C34.885 1190.51 37.385 1191.41 40.485 1190.51C42.785 1189.81 44.5849 1188.01 45.0849 1185.51C45.8849 1181.71 44.5849 1178.41 40.985 1178.61C33.285 1179.01 33.285 1179.21 34.985 1169.41Z" fill="#D9742C"/>
<path d="M32.3851 883.109C29.0851 889.209 29.3851 895.309 33.0851 900.909C36.2851 905.709 42.9851 904.809 44.6851 899.509C45.1851 898.009 45.0851 895.709 44.4851 894.209C43.8851 892.609 42.3851 891.609 40.5851 891.809C35.8851 892.509 33.7851 889.509 34.3851 883.009C33.6851 882.009 32.9851 882.109 32.3851 883.109Z" fill="#DB7331"/>
<path d="M33.9849 21.7089C28.5849 30.7089 29.5849 36.8089 33.6849 42.4089C36.2849 45.9089 39.6849 46.0089 42.7849 43.0089C44.8849 41.0089 46.2849 38.2089 44.5849 35.2089C42.1849 30.6089 39.8849 32.2089 37.2849 35.7089C35.0849 38.5089 34.1849 35.3089 33.8849 33.3089C33.6849 30.3089 33.9849 27.3089 33.9849 21.7089Z" fill="#D7802C"/>
<path d="M21.8851 1106.01C20.9851 1105.91 20.0851 1105.81 19.1851 1105.81C14.0851 1113.51 13.5851 1122.01 16.4851 1131.01C20.1851 1142.71 26.8851 1146.01 38.9851 1140.31C30.3851 1139.61 22.6851 1141.01 19.2851 1130.71C16.1851 1121.51 18.8851 1113.91 21.8851 1106.01Z" fill="#EFC67F"/>
<path d="M36.9853 1811.71C38.0853 1809.21 39.1853 1806.81 40.3853 1804.31C42.5853 1799.81 44.7853 1795.31 45.2853 1790.01C45.5853 1787.11 44.7853 1784.61 42.0853 1784.31C39.4853 1784.11 39.3853 1786.91 39.2853 1789.01C39.0853 1795.91 37.3853 1802.11 34.3853 1808.01C32.2853 1812.01 34.2853 1812.21 36.9853 1811.71Z" fill="#DB8833"/>
<path d="M45.1846 516.609C45.8846 517.409 46.4846 518.209 47.1846 519.109C48.6846 520.309 50.1846 521.609 52.8846 523.709C49.3846 515.009 46.4846 507.509 46.2846 499.009C46.2846 497.009 45.3846 493.909 42.9846 494.709C40.6846 495.409 39.5846 498.109 40.3846 501.009C41.8846 506.209 43.5846 511.409 45.1846 516.609Z" fill="#DF8A37"/>
<path d="M49.5848 359.909C59.0848 349.409 58.8848 335.909 57.6848 322.109C57.4848 319.909 57.0848 317.809 56.6848 315.709C54.1848 313.709 54.2848 308.509 48.8848 307.809C61.2848 325.609 55.0848 342.709 49.5848 359.909Z" fill="#FBD8A7"/>
<path d="M45.2844 1087.51C46.3844 1089.21 47.5844 1090.81 48.6844 1092.51C49.4844 1093.61 50.3844 1094.61 51.2844 1095.71C51.5844 1094.91 52.2844 1093.71 52.0844 1093.31C47.8844 1086.81 47.0844 1079.01 46.2844 1071.21C46.0844 1069.51 45.4844 1067.31 43.4844 1067.41C41.1844 1067.51 40.2844 1069.91 40.3844 1072.11C40.4844 1077.91 42.4844 1082.91 45.2844 1087.51Z" fill="#DC9538"/>
<path d="M65.9855 103.809C65.8855 105.109 65.7855 106.409 65.6855 107.609C65.6855 109.409 65.2855 111.409 65.6855 113.109C69.1855 128.209 68.1855 130.209 51.6855 140.609C62.3855 142.009 68.8855 136.109 69.7855 123.409C70.0855 119.009 69.8856 114.609 73.4855 111.809C68.0855 113.109 68.9855 105.809 65.9855 103.809Z" fill="#F0BE6F"/>
<path d="M45.1846 801.109C45.8846 802.209 46.4846 803.309 47.1846 804.409C48.6846 806.109 50.1846 807.809 51.6846 809.609C49.5846 801.809 46.4846 794.609 46.4846 786.209C46.4846 784.009 45.7846 780.309 42.6846 781.409C40.2846 782.209 39.8846 785.209 40.3846 787.909C41.1846 792.709 42.7846 797.209 45.1846 801.109Z" fill="#DC9238"/>
<path d="M15.1851 255.209C1.28508 246.009 -1.01493 235.909 7.58507 220.609C8.68507 218.709 9.98507 217.209 9.08507 214.609C-5.01493 231.009 -2.41492 250.109 14.8851 257.709C15.4851 257.209 15.6851 256.709 15.5851 256.109C15.5851 255.509 15.3851 255.209 15.1851 255.209Z" fill="#FAE3B2"/>
<path d="M45.1855 1376.21C46.8855 1377.71 48.4855 1379.21 51.4855 1381.91C49.0855 1373.31 46.4855 1366.71 46.2855 1359.21C46.2855 1357.11 45.4855 1354.21 43.0855 1354.51C40.2855 1354.91 39.7855 1358.31 40.3855 1360.61C41.6855 1366.01 43.5855 1371.11 45.2855 1376.31L45.1855 1376.21Z" fill="#DB9438"/>
<path d="M51.6846 234.909C49.4846 228.009 46.3846 221.509 46.5846 213.809C46.6846 211.209 45.6846 208.009 42.9846 208.509C40.4846 209.009 39.8846 212.309 40.4846 214.809C41.7846 220.109 43.5846 225.209 45.1846 230.309C47.7846 230.809 48.3846 235.609 51.6846 234.909Z" fill="#DD9539"/>
<path d="M35.7851 1298.01C35.8851 1297.01 35.9851 1296.11 36.1851 1295.11C21.1851 1310.01 23.3851 1329.31 26.7851 1348.91C29.9851 1342.71 24.3851 1336.41 26.8851 1330.21C26.0851 1317.91 29.5851 1307.41 35.7851 1298.01Z" fill="#EBB566"/>
<path d="M45.1851 1660.61C46.3851 1662.31 47.5851 1663.91 48.6851 1665.61C49.7851 1666.91 51.3851 1666.71 50.6851 1664.91C48.1851 1658.81 46.9851 1652.31 46.2851 1645.61C46.0851 1643.51 45.7851 1639.51 42.5851 1640.81C40.2851 1641.71 39.6851 1644.51 40.2851 1647.41C41.3851 1652.21 42.7851 1656.71 45.1851 1660.61Z" fill="#DC9138"/>
<path d="M35.9844 1237.51C39.1844 1237.01 39.9844 1233.51 41.3844 1230.91C42.5844 1226.31 43.9844 1221.71 44.9844 1217.01C45.4844 1214.81 44.8844 1212.21 42.6844 1211.61C40.1844 1210.91 39.5844 1213.11 39.1844 1215.51C38.1844 1222.81 37.0844 1230.11 35.9844 1237.51Z" fill="#DA8B38"/>
<path d="M39.5852 1518.81C39.4852 1517.01 40.2852 1515.91 41.5852 1515.11C42.7852 1511.31 44.2852 1507.51 45.0852 1503.61C45.6852 1501.01 44.8852 1497.91 42.2852 1497.51C39.8852 1497.11 39.3852 1499.81 39.3852 1502.11C39.0852 1509.71 37.2852 1516.61 33.2852 1523.91C37.1852 1523.71 37.7852 1520.31 39.5852 1518.81Z" fill="#D98735"/>
<path d="M73.1855 930.509C86.6855 947.709 86.6856 954.009 73.3856 971.609C82.2856 968.909 84.4855 960.509 84.5855 951.009C84.5855 941.409 81.9855 933.309 73.1855 930.509Z" fill="#F3CC8A"/>
<path d="M41.2848 371.109C42.1848 366.009 45.2848 361.709 45.0848 356.209C44.9848 353.709 44.0848 351.609 41.8848 351.509C40.0848 351.409 39.2848 353.509 39.3848 355.509C39.4848 362.409 37.0848 368.509 35.3848 375.009C39.0848 376.509 38.9848 371.109 41.4848 371.009L41.2848 371.109Z" fill="#D78335"/>
<path d="M58.1844 1753.61C60.6844 1763.51 54.9844 1773.31 58.1844 1783.11C61.2844 1766.31 63.7844 1749.51 55.0844 1731.11C54.7844 1740.61 59.3844 1746.51 58.1844 1753.61Z" fill="#EDB56A"/>
<path d="M39.5848 945.709C39.3848 943.909 40.2848 942.909 41.3848 942.009C42.5848 938.209 44.0848 934.409 44.9848 930.509C45.5848 927.709 44.7848 924.809 42.0848 924.409C39.5848 924.009 39.2848 926.809 39.1848 929.109C38.9848 936.709 36.8848 943.709 32.8848 951.009C37.0848 950.509 37.8848 947.509 39.5848 945.709Z" fill="#DB7D34"/>
<path d="M35.585 659.709C39.485 662.409 39.185 656.109 41.585 655.609C41.685 655.309 41.885 654.909 41.985 654.609C43.285 649.409 48.785 641.509 42.985 639.409C36.485 637.009 40.885 647.709 38.285 651.609C36.785 653.709 36.385 656.909 35.585 659.709Z" fill="#DA8A33"/>
<path d="M19.8844 1392.11C15.9844 1399.11 10.6844 1399.11 3.98438 1392.21C4.18438 1393.31 4.08437 1394.71 4.58437 1395.41C9.48438 1401.61 17.2844 1405.11 17.0844 1416.71C17.0844 1407.21 18.5844 1399.31 22.8844 1392.41C21.9844 1391.31 20.9844 1391.21 19.8844 1392.11Z" fill="#F6D29C"/>
<path d="M35.6855 86.7089C36.3855 87.5089 36.9855 88.2089 37.6855 89.0089C41.0855 84.4089 43.3855 79.2089 44.7855 73.3089C45.4855 70.4089 45.9855 66.6089 42.8855 65.6089C39.0855 64.5089 39.5855 68.7089 39.3855 71.5089C38.8855 77.0089 37.7855 82.0089 35.6855 86.7089Z" fill="#CF792E"/>
<path d="M45.1852 705.609C44.6852 706.209 44.2852 706.809 43.7852 707.409C44.9852 709.009 45.8852 711.409 47.3852 712.109C52.3852 714.509 47.3852 715.209 46.9852 716.609C48.9852 716.609 51.0852 716.509 53.0852 716.509C58.5852 713.209 66.3852 713.609 67.3852 703.209H66.2852C59.8852 712.109 52.8852 712.909 45.1852 705.609Z" fill="#F9C68E"/>
<path d="M43.1844 846.309C42.6844 846.309 42.1844 846.409 41.6844 846.509C35.9844 854.809 28.9844 855.009 20.9844 850.109C22.0844 857.509 28.1844 855.509 29.9844 859.909C32.6844 859.909 35.3844 859.909 37.9844 859.909C37.8844 858.509 33.3844 858.209 37.4844 855.809C40.6844 853.909 42.8844 850.809 43.1844 846.309Z" fill="#F8D07F"/>
<path d="M22.8849 1710.51C15.5849 1700.81 17.1849 1690.31 21.9849 1678.21C12.0849 1688.31 11.8849 1697.11 20.1849 1710.81C21.1849 1711.71 22.0849 1711.61 22.8849 1710.51Z" fill="#F0C477"/>
<path d="M21.6852 563.809C16.6852 554.409 16.6852 544.909 20.9852 535.209C21.7852 533.909 21.6852 532.809 20.6852 531.809C12.5852 544.409 12.5852 552.609 20.4852 565.409C21.3852 565.409 21.7852 564.909 21.6852 563.809Z" fill="#EFC377"/>
<path d="M32.3848 596.609C33.1848 596.509 33.9848 596.409 34.7848 596.309C44.6848 589.409 47.7848 591.009 55.4848 606.409C54.9848 598.009 51.7848 592.309 45.8848 590.309C40.2848 588.309 35.5848 590.109 32.3848 596.609Z" fill="#F9CF97"/>
<path d="M21.5852 819.309C15.9852 819.509 18.4852 830.209 11.9852 826.909C11.1852 826.509 9.98524 828.009 11.4852 828.509C17.7852 830.909 13.3852 838.809 17.4852 844.209C17.3852 834.909 19.0852 827.409 21.5852 819.309Z" fill="#EFC77F"/>
<path d="M45.1855 1278.71C45.2855 1280.01 45.3855 1281.31 45.4855 1282.61C54.4855 1290.81 60.8856 1289.71 66.9855 1277.11C58.9855 1284.31 51.9855 1285.91 45.1855 1278.71Z" fill="#FACA89"/>
<path d="M25.0849 480.109C27.3849 476.709 25.8849 472.509 26.6849 468.709C26.0849 459.309 29.1849 450.809 33.5849 440.009C24.6849 451.109 23.4849 458.109 25.0849 480.109Z" fill="#E9B061"/>
<path d="M41.4844 563.409C41.4844 562.209 41.3844 561.009 41.3844 559.809C35.8844 569.209 28.9844 568.009 21.6844 563.809C21.1844 564.309 20.7844 564.809 20.4844 565.409C29.3844 574.009 35.2844 573.409 41.4844 563.409Z" fill="#F7D096"/>
<path d="M41.3848 275.509C35.3848 281.409 28.8848 282.809 20.3848 276.009C27.8848 288.009 36.5848 286.909 41.5848 275.609L41.3848 275.509Z" fill="#EFBF7A"/>
<path d="M20.6855 531.709L20.9855 535.109C26.3855 526.909 33.3855 526.709 40.9855 528.809C41.3855 528.309 41.6855 527.809 42.0855 527.309C33.7855 520.809 26.7855 523.309 20.6855 531.709Z" fill="#F0C580"/>
<path d="M41.5849 241.609C33.6849 233.609 27.0849 237.309 20.8849 244.909C20.1849 246.109 20.2849 247.309 20.9849 248.409C26.4849 240.209 34.1849 241.409 41.5849 241.609Z" fill="#EFC78B"/>
<path d="M66.1844 1823.21C65.9844 1824.41 65.8844 1825.51 65.7844 1826.71C67.2844 1834.81 69.0844 1842.91 63.9844 1853.31C72.7844 1846.51 66.6844 1835.71 73.2844 1831.11L73.3844 1831.21C71.3844 1828.11 69.9844 1824.01 66.1844 1823.21Z" fill="#E9B96C"/>
<path d="M66.2848 703.109H66.8848L67.4848 703.209C70.7848 695.009 73.4848 686.809 65.8848 677.709C66.1848 687.009 68.9848 695.109 66.2848 703.109Z" fill="#EEC073"/>
<path d="M26.7855 502.409C26.7855 502.009 26.7855 501.609 26.5855 501.209C16.8855 495.409 9.38555 498.109 3.68555 509.409L4.48555 510.309C10.6855 502.409 17.6855 498.409 26.7855 502.409Z" fill="#FAE0B5"/>
<path d="M19.8848 1392.11C20.8848 1392.21 21.8848 1392.31 22.8848 1392.31C28.3848 1386.21 34.6848 1386.81 41.1848 1389.01C41.2848 1387.91 41.3848 1386.91 41.4848 1385.81C33.0848 1381.51 25.6848 1382.91 19.8848 1392.11Z" fill="#F3BF6F"/>
<path d="M41.2844 1675.21C41.3844 1674.21 41.3844 1673.11 41.4844 1672.11C31.3844 1668.41 30.1844 1668.61 20.9844 1677.21C28.9844 1673.81 35.0844 1672.81 41.2844 1675.21Z" fill="#F2C36E"/>
<path d="M32.3848 883.109C33.0848 883.109 33.7848 883.009 34.4848 883.009C41.2848 875.209 47.1848 879.509 52.8848 885.109L52.6848 885.309C47.5848 873.609 40.2848 872.809 32.3848 883.109Z" fill="#F6CC8B"/>
<path d="M39.6848 1426.41C32.3848 1426.31 26.5848 1427.81 21.3848 1424.41C26.1848 1431.91 31.6848 1432.71 39.6848 1426.41Z" fill="#F0C679"/>
<path d="M80.7844 80.3089C83.8844 89.0089 83.0844 97.5089 79.4844 106.009C86.2844 97.3089 86.6844 89.1089 80.9844 80.1089L80.7844 80.3089Z" fill="#FADEB1"/>
<path d="M61.9848 1856.61C56.4848 1856.41 50.9848 1857.61 45.8848 1854.61C50.5848 1861.51 55.9848 1862.11 61.9848 1856.61Z" fill="#EDC97D"/>
<path d="M42.1844 813.909C35.4844 808.609 29.0844 809.909 22.9844 815.709C28.9844 814.309 34.9844 813.309 40.9844 815.609C41.3844 815.109 41.7844 814.509 42.1844 813.909Z" fill="#F4BA90"/>
<path d="M65.9852 1249.91C65.8852 1251.21 65.7852 1252.51 65.7852 1253.81C67.1852 1260.21 68.1852 1266.61 68.3852 1273.31C70.3852 1265.01 72.2852 1256.81 65.9852 1249.91Z" fill="#EBB46C"/>
<path d="M3.98525 1656.01C-1.41475 1662.91 -0.814747 1670.01 3.48525 1677.41C1.38525 1670.21 3.18525 1663.11 3.98525 1656.01Z" fill="#F9DDAB"/>
<path d="M22.8855 1710.51L20.1855 1710.91C25.0855 1718.01 30.8855 1717.91 39.0855 1713.61C32.5855 1712.01 27.1855 1714.61 22.8855 1710.51Z" fill="#F0BA70"/>
<path d="M4.08434 1392.31C1.58434 1384.41 2.68434 1376.41 4.08434 1368.51C-0.415658 1376.41 -1.91566 1384.41 4.08434 1392.31Z" fill="#F6D29C"/>
<path d="M3.58537 797.909C-0.714633 804.209 -0.814632 810.809 3.38537 817.409C2.28537 811.109 1.68537 804.709 3.58537 797.909Z" fill="#F9E4B7"/>
<path d="M20.985 248.409C20.985 247.209 20.885 246.109 20.885 244.909C18.985 248.309 17.185 251.809 15.285 255.209C15.185 256.009 15.085 256.909 15.085 257.709C15.285 260.909 15.385 264.209 15.585 267.409C17.685 261.109 18.285 254.309 20.985 248.409Z" fill="#E4AF4B"/>
<path d="M3.68495 509.409C-0.715047 516.509 -1.11505 523.709 4.28495 534.109C2.38495 524.109 2.28495 517.109 4.48495 510.309C4.18495 510.109 3.88495 509.809 3.68495 509.409Z" fill="#F8E2AE"/>
<path d="M67.8856 190.109C77.4856 178.909 77.9856 164.709 69.8856 153.009C61.8856 141.509 47.9855 140.009 36.1855 150.209C46.6855 144.509 56.6855 144.109 64.6855 155.209C71.9855 165.509 73.7856 177.109 67.8856 190.109Z" fill="#D87A31"/>
<path d="M42.4849 130.409C45.3849 124.309 48.2849 119.909 53.9849 120.509C55.9849 120.709 58.2849 118.709 58.0849 115.509C57.8849 112.509 55.7849 111.409 53.4849 110.809C45.6849 108.609 41.1849 116.009 42.4849 130.409Z" fill="#DB8C31"/>
<path d="M41.5844 175.909L39.9844 178.109C39.9844 183.209 41.3844 187.109 45.9844 188.009C49.5844 188.709 51.8844 186.009 53.4844 182.609C56.0844 177.509 55.2844 172.109 51.0844 165.709C49.9844 167.709 51.2844 169.209 51.7844 170.909C52.7844 174.209 51.9844 177.409 50.0844 179.209C47.3844 181.809 47.3844 176.009 45.2844 175.909C44.0844 175.709 42.8844 175.809 41.5844 175.909Z" fill="#D97A2E"/>
<path d="M80.8844 1226.21C83.6844 1234.91 83.3844 1243.51 79.4844 1252.01C86.3844 1243.11 86.6844 1235.01 80.8844 1226.21Z" fill="#FADEB1"/>
<path d="M3.38479 1104.11C3.18479 1097.71 0.484789 1091.41 4.28479 1085.11C-0.815211 1092.21 -0.915211 1094.01 3.38479 1104.11Z" fill="#F9DCAC"/>
<path d="M40.6855 1943.91C54.7855 1936.81 58.7856 1937.61 67.4855 1948.81C68.3855 1947.61 68.4855 1946.31 67.7855 1945.01C61.3855 1932.71 52.1855 1935.11 42.7855 1938.41C63.0855 1907.71 67.3855 1905.81 82.9855 1921.51L83.2855 1921.21C78.3855 1910.01 74.4855 1908.41 58.4855 1911.31C62.5855 1893.91 65.8855 1876.61 58.7855 1859.61C57.6855 1872.51 59.4855 1885.61 56.2855 1898.31C53.0855 1911.01 49.3855 1923.21 38.6855 1930.21C38.1855 1929.31 37.8855 1927.91 36.6855 1927.91C31.3855 1932.61 35.3855 1942.21 29.6855 1946.61C34.1855 1950.31 36.4855 1941.41 40.6855 1943.91Z" fill="#F7CA8C"/>
<path d="M18.0848 1888.21C8.68481 1862.51 23.2848 1838.91 47.1848 1845.71C36.4848 1837.61 22.4848 1840.71 14.9848 1852.71C7.28481 1864.81 8.58481 1879.01 18.0848 1888.21Z" fill="#D78D39"/>
<path d="M34.885 1862.81C29.385 1871.81 30.385 1877.91 34.585 1883.51C37.285 1887.01 40.785 1887.11 43.985 1884.11C46.085 1882.11 47.585 1879.31 45.885 1876.31C43.385 1871.81 41.085 1873.31 38.385 1876.81C36.185 1879.61 35.185 1876.41 34.885 1874.41C34.685 1871.41 34.885 1868.41 34.885 1862.81Z" fill="#D7802C"/>
<path d="M36.6855 1927.91C37.3855 1928.71 38.0855 1929.51 38.6855 1930.21C42.1855 1925.61 44.5855 1920.41 45.9855 1914.51C46.6855 1911.61 47.2855 1907.81 43.9855 1906.81C39.9855 1905.71 40.5855 1909.91 40.3855 1912.71C39.9855 1918.11 38.8855 1923.21 36.6855 1927.91Z" fill="#CF792E"/>
</svg>
