<svg width="86" height="682" viewBox="0 0 86 682" fill="none" xmlns="http://www.w3.org/2000/svg">
<path d="M49.5387 662.709C54.6387 666.709 50.8387 674.609 54.3387 679.309C51.3387 682.109 48.6387 677.509 45.7387 678.709C38.2387 674.409 30.6387 672.209 22.5387 676.909C28.5387 667.409 35.7387 670.009 43.8387 672.809C36.8387 666.809 35.3387 655.209 27.5387 650.109C20.7387 645.709 13.8387 645.309 7.83868 652.709C2.43868 659.609 0.338681 667.309 4.13868 676.509C4.83868 678.109 5.23868 679.809 5.13868 681.609C-1.16132 673.909 -1.06133 665.009 2.73867 655.909C6.93867 645.809 14.2387 643.109 28.0387 646.409C24.4387 626.709 19.7387 607.109 30.6387 588.909C23.7387 610.309 28.8387 630.109 36.0387 649.609C38.2387 655.509 38.5387 655.409 43.5387 658.709C47.2387 656.409 46.9387 662.809 49.5387 662.709Z" fill="#F9CF97"/>
<path d="M45.5391 103.209C31.8391 96.109 27.9391 96.809 19.4391 108.209C18.5391 107.009 18.4391 105.709 19.1391 104.409C25.3391 92.009 34.3391 94.509 43.4391 97.809C23.7391 66.909 19.4391 65.109 4.33907 80.809L4.03906 80.509C8.73906 69.209 12.5391 67.609 28.2391 70.609C24.3391 53.109 21.0391 35.809 27.9391 18.709C28.9391 31.709 27.3391 44.909 30.4391 57.609C33.5391 70.309 37.2391 82.609 47.5391 89.609C48.0391 88.709 48.2391 87.309 49.5391 87.209C54.7391 91.909 50.7391 101.509 56.3391 106.009C51.9391 109.609 49.7391 100.709 45.5391 103.209Z" fill="#F7CA8C"/>
<path d="M35.5379 361.509C38.3379 365.309 39.5379 370.809 43.8379 372.809L43.7379 372.709C45.3379 382.109 53.9379 385.109 56.3379 393.709C51.9379 397.209 49.8379 388.709 45.7379 390.809C25.7379 380.909 18.0379 388.109 17.6379 417.109C13.1379 407.809 13.5379 399.209 19.0379 390.709C26.0379 380.009 34.8379 380.609 44.3379 385.409C37.3379 378.909 35.3379 367.209 27.8379 362.209C19.6379 356.709 11.6379 357.909 4.83789 368.409C8.73789 357.209 13.7379 355.209 28.1379 358.409C24.2379 339.109 20.0379 320.009 30.6379 302.009C29.8379 307.009 29.1379 312.109 28.4379 317.109C28.9379 327.209 26.2379 337.509 29.8379 347.509C31.4379 352.309 32.3379 357.609 35.5379 361.509Z" fill="#F7CD8F"/>
<path d="M39.8379 231.109C49.6379 220.909 54.9379 208.209 54.9379 192.309C52.3379 188.509 54.6379 185.309 55.8379 182.109C56.7379 179.509 58.8379 177.109 56.8379 174.009C57.6379 167.309 53.8379 162.109 53.0379 155.709C58.6379 160.809 60.2379 168.409 60.7379 176.309C61.3379 186.509 59.3379 196.609 58.6379 206.709C57.6379 220.809 48.5379 227.509 43.2379 237.609C42.0379 239.809 39.8379 241.409 43.8379 242.509C42.6379 246.909 38.9379 247.309 36.2379 249.309C32.6379 247.109 31.1379 255.409 27.3379 251.909C29.6379 243.409 38.2379 240.409 39.8379 231.109Z" fill="#F3C37C"/>
<path d="M60.0386 482.309C58.8386 488.309 57.7386 494.409 56.2386 500.209C55.4386 503.409 57.4386 502.809 58.5386 503.509L58.3386 504.709C50.0386 510.009 47.6386 521.609 41.0386 528.709C40.9386 528.809 41.1386 529.509 41.2386 529.609C41.8386 529.709 42.4386 529.709 43.0386 529.809C44.0386 529.709 44.3385 530.209 44.1385 531.309C41.4385 533.309 38.7386 535.309 36.0386 537.309C33.5386 535.209 31.0386 541.109 28.5386 537.309C30.3386 530.909 37.4386 529.109 37.9386 521.409C38.1386 520.009 38.8386 519.209 39.9386 518.909C49.2386 509.709 53.5386 497.309 55.2386 483.309C55.7386 478.809 55.7386 474.309 58.4386 470.809C60.8386 474.309 58.6386 478.609 60.0386 482.309Z" fill="#F1BF72"/>
<path d="M67.5383 47.2088C76.6383 21.4088 62.4383 -2.29117 39.2383 4.50883C49.6383 -3.59117 63.3383 -0.491171 70.6383 11.5088C78.0383 23.7088 76.7383 37.9088 67.5383 47.2088Z" fill="#D78D39"/>
<path d="M38.7383 580.509C51.3383 572.209 64.5383 575.609 71.1383 587.709C77.9383 600.309 76.8383 612.409 66.3383 625.009C72.0383 611.309 72.1383 599.709 65.5383 589.409C58.6383 578.709 49.5383 575.809 38.7383 580.509Z" fill="#DC8037"/>
<path d="M48.8379 438.709C38.2379 432.409 28.3379 432.309 20.2379 443.809C12.8379 454.309 11.6379 466.109 18.5379 479.509C7.93791 470.109 6.73791 454.909 14.5379 442.509C22.6379 429.609 38.2379 427.609 48.8379 438.709Z" fill="#D87D32"/>
<path d="M68.3383 333.809C75.8383 307.909 62.1383 284.909 39.2383 292.309C48.9383 284.209 62.4383 286.709 69.8383 298.009C77.8383 310.309 77.2383 324.509 68.3383 333.809Z" fill="#D78836"/>
<path d="M45.5386 103.209C50.6386 95.1088 52.2386 107.409 56.2386 105.909L62.2386 114.709C70.9386 138.509 71.0386 153.309 61.0386 165.709C69.8386 142.409 64.8386 124.809 51.5386 109.809C49.6386 109.109 47.7386 108.409 47.4386 105.509L45.5386 103.209Z" fill="#DB9235"/>
<path d="M45.7383 390.809C50.9383 382.909 52.3383 395.409 56.3383 393.709C70.3383 415.809 72.7383 435.909 62.5383 452.009C71.0383 425.509 62.2383 406.509 45.7383 390.809Z" fill="#DC903B"/>
<path d="M28.5382 537.309C31.0382 540.809 33.5382 528.809 36.0382 537.309C21.4382 553.209 14.2382 571.609 23.5382 596.809C11.7382 582.909 14.0382 561.609 28.5382 537.309Z" fill="#D59238"/>
<path d="M27.2381 252.009C29.8381 251.609 31.2381 249.109 33.0381 247.309C35.4381 245.009 35.9381 246.809 36.1381 249.409C21.7381 265.409 14.1381 283.709 23.7381 309.209C12.0381 295.609 14.0381 272.709 27.2381 252.009Z" fill="#D98C38"/>
<path d="M42.5377 419.409C40.0377 412.409 37.1377 408.109 31.2377 408.609C29.1377 408.809 26.9377 406.609 27.1377 403.509C27.4377 399.809 30.1377 398.909 32.6377 398.609C40.2377 397.709 44.0377 405.009 42.5377 419.409Z" fill="#E08331"/>
<path d="M43.5386 276.909C39.6386 264.609 42.0386 256.409 50.0386 255.009C53.2386 254.409 56.8386 254.609 57.4386 259.309C58.0386 263.509 54.8386 265.109 51.9386 265.109C45.4386 265.209 43.2386 269.409 43.7386 276.709L43.5386 276.909Z" fill="#DF712E"/>
<path d="M35.9385 451.809C35.0385 455.809 32.1385 459.109 33.4385 463.309C34.0385 465.209 34.6385 469.909 37.3385 466.709C39.9385 463.709 41.7385 462.609 44.0385 466.109C46.0385 469.009 44.9385 471.909 43.0385 474.209C40.4385 477.309 37.4385 477.309 34.5385 475.209C28.2385 470.609 28.8385 458.709 35.9385 451.809Z" fill="#DC9639"/>
<path d="M43.6386 565.909C39.8386 553.309 41.8386 544.809 49.1386 542.709C52.3386 541.809 55.9386 542.109 57.1386 546.009C58.6386 551.209 54.8386 552.409 51.7386 552.609C46.4386 553.009 43.7386 555.809 43.7386 562.309C44.5386 563.509 44.4386 564.709 43.6386 565.909Z" fill="#DB7D30"/>
<path d="M49.4384 309.009C56.0384 318.609 55.7384 327.309 50.4384 331.309C47.4384 333.509 44.4384 333.009 41.8384 330.309C39.8384 328.109 38.9384 325.109 40.7384 322.309C43.0384 318.709 45.2384 319.709 47.4384 323.109C49.5384 326.409 50.3384 323.409 51.0384 321.509C52.3384 318.409 50.9384 315.309 49.4384 309.009Z" fill="#D97A32"/>
<path d="M52.7382 599.309C56.0382 605.409 55.9382 611.409 52.3382 617.109C50.5382 619.909 48.0382 621.409 45.0382 620.409C42.8382 619.709 40.9382 618.109 40.3382 615.409C39.3382 610.809 40.7382 607.709 44.8382 608.209C51.8382 609.109 51.8382 609.409 50.2382 598.909C51.2382 598.109 52.0382 598.209 52.7382 599.309Z" fill="#DC7330"/>
<path d="M51.1386 21.709C56.5386 30.709 55.5386 36.909 51.4386 42.409C48.8386 45.909 45.4386 46.009 42.3386 43.009C40.2386 41.009 38.8386 38.209 40.5386 35.109C42.9386 30.509 45.2386 32.109 47.8386 35.609C50.0386 38.509 50.9386 35.209 51.2386 33.209C51.4386 30.409 51.2386 27.409 51.1386 21.709Z" fill="#D7802C"/>
<path d="M39.9383 518.909C39.2383 519.709 38.6383 520.509 37.9383 521.409C36.4383 522.609 34.9383 523.909 32.2383 526.109C35.7383 517.309 38.6383 509.809 38.8383 501.309C38.8383 499.309 39.7383 496.209 42.1383 496.909C44.4383 497.609 45.5383 500.409 44.7383 503.209C43.2383 508.509 41.5383 513.709 39.9383 518.909Z" fill="#DF8A37"/>
<path d="M35.5377 361.509C26.0377 351.009 26.2377 337.409 27.4377 323.509C27.6377 321.309 28.0377 319.209 28.4377 317.009C30.9377 314.909 30.8377 309.809 36.2377 309.109C23.8377 327.109 30.0377 344.309 35.5377 361.509Z" fill="#FBD8A7"/>
<path d="M19.1387 104.309C19.2387 105.609 19.3387 106.909 19.4387 108.109C19.4387 110.009 19.8387 111.909 19.4387 113.709C15.9387 128.909 16.9387 130.909 33.4387 141.309C22.7387 142.709 16.2387 136.809 15.3387 124.009C15.0387 119.509 15.2387 115.209 11.6387 112.409C17.0387 113.609 16.1387 106.209 19.1387 104.309Z" fill="#F0BE6F"/>
<path d="M69.9382 256.309C83.8382 247.109 86.1382 237.009 77.5382 221.609C76.4382 219.709 75.1382 218.109 76.0382 215.609C90.1382 232.109 87.5382 251.309 70.2382 258.909C69.6382 258.409 69.4382 257.909 69.5382 257.309C69.6382 256.709 69.7382 256.409 69.9382 256.309Z" fill="#FAE3B2"/>
<path d="M33.4385 235.909C35.6385 229.009 38.7385 222.509 38.5385 214.709C38.4385 212.109 39.4385 208.909 42.1385 209.409C44.6385 209.909 45.2385 213.309 44.6385 215.709C43.3385 221.009 41.5385 226.109 39.9385 231.309C37.3385 231.909 36.7385 236.609 33.4385 235.909Z" fill="#DD9539"/>
<path d="M43.8385 372.809C42.9385 367.709 39.8385 363.309 40.0385 357.809C40.1385 355.309 41.0385 353.209 43.2385 353.109C45.0385 353.009 45.8385 355.109 45.7385 357.109C45.6385 364.009 48.0385 370.209 49.7385 376.709C46.0385 378.209 46.1385 372.809 43.6385 372.709L43.8385 372.809Z" fill="#D78335"/>
<path d="M49.5382 662.709C45.6382 665.409 45.9382 659.109 43.5382 658.609C43.4382 658.309 43.2382 657.909 43.1382 657.609C41.8382 652.309 36.3382 644.509 42.1382 642.309C48.6382 639.909 44.2382 650.609 46.8382 654.509C48.3382 656.609 48.7382 659.909 49.5382 662.709Z" fill="#DA8A33"/>
<path d="M49.4384 87.1089C48.7384 87.9089 48.1384 88.7089 47.4384 89.5089C44.0384 84.9089 41.7384 79.6089 40.3384 73.7089C39.6384 70.8089 39.1384 67.0089 42.2384 66.0089C46.0384 64.9089 45.5384 69.1089 45.7384 71.9089C46.2384 77.3089 47.3384 82.4089 49.4384 87.1089Z" fill="#CF792E"/>
<path d="M63.4383 566.309C68.4383 556.909 68.4383 547.309 64.1383 537.509C63.3383 536.209 63.4383 535.109 64.4383 534.109C72.5383 546.809 72.5383 555.009 64.6383 567.909C63.7383 568.009 63.3383 567.509 63.4383 566.309Z" fill="#EFC377"/>
<path d="M52.7382 599.309C51.9382 599.209 51.1382 599.109 50.3382 599.009C40.4382 592.109 37.3382 593.609 29.6382 609.109C30.1382 600.709 33.3382 595.009 39.2382 593.009C44.8382 591.009 49.6382 592.809 52.7382 599.309Z" fill="#F9CF97"/>
<path d="M60.0386 482.309C57.7386 478.909 59.2386 474.609 58.4386 470.909C59.0386 461.409 55.9386 453.009 51.5386 442.109C60.4386 453.109 61.6386 460.209 60.0386 482.309Z" fill="#E9B061"/>
<path d="M43.6382 565.909C43.6382 564.709 43.7382 563.509 43.7382 562.309C49.2382 571.709 56.1382 570.509 63.4382 566.309C63.9382 566.809 64.3382 567.309 64.6382 567.909C55.7382 576.609 49.8382 576.009 43.6382 565.909Z" fill="#F7D096"/>
<path d="M43.8382 276.809C49.8382 282.709 56.3382 284.209 64.8382 277.309C57.3382 289.409 48.6382 288.309 43.6382 276.909L43.8382 276.809Z" fill="#EFBF7A"/>
<path d="M64.5382 534.109L64.2382 537.509C58.8382 529.309 51.8382 529.109 44.2382 531.209C43.8382 530.709 43.5382 530.209 43.1382 529.709C51.3382 523.109 58.3382 525.609 64.5382 534.109Z" fill="#F0C580"/>
<path d="M43.6382 242.709C51.5382 234.609 58.1382 238.409 64.3382 246.009C65.0382 247.209 64.9382 248.409 64.2382 249.509C58.6382 241.309 51.0382 242.509 43.6382 242.709Z" fill="#EFC78B"/>
<path d="M58.4385 504.709C58.4385 504.309 58.4385 503.909 58.6385 503.509C68.3385 497.709 75.8385 500.409 81.5385 511.709L80.7385 512.609C74.5385 504.709 67.4385 500.609 58.4385 504.709Z" fill="#FAE0B5"/>
<path d="M4.43804 80.6089C1.33804 89.3089 2.13803 97.9089 5.73803 106.409C-1.06197 97.7089 -1.46197 89.4089 4.23803 80.4089L4.43804 80.6089Z" fill="#FADEB1"/>
<path d="M64.2383 249.509C64.2383 248.309 64.3383 247.209 64.3383 246.009C66.2383 249.509 68.0383 252.909 69.9383 256.409C70.0383 257.209 70.1383 258.109 70.1383 258.909C69.9383 262.109 69.8383 265.409 69.6383 268.709C67.4383 262.309 66.9383 255.509 64.2383 249.509Z" fill="#E4AF4B"/>
<path d="M81.4382 511.709C85.8382 518.809 86.2382 526.109 80.8382 536.509C82.7382 526.509 82.8382 519.409 80.6382 512.609C80.9382 512.409 81.2382 512.109 81.4382 511.709Z" fill="#F8E2AE"/>
<path d="M17.3386 190.909C7.73859 179.709 7.23859 165.409 15.3386 153.609C23.3386 142.009 37.2386 140.509 49.0386 150.709C38.5386 144.909 28.5386 144.609 20.5386 155.709C13.1386 166.209 11.4386 177.909 17.3386 190.909Z" fill="#D87A31"/>
<path d="M42.7382 131.009C39.8382 124.909 36.9382 120.509 31.2382 121.009C29.2382 121.209 26.9382 119.109 27.1382 116.009C27.3382 113.009 29.4382 111.909 31.7382 111.309C39.4382 109.109 43.9382 116.609 42.7382 131.009Z" fill="#DB8C31"/>
<path d="M43.5382 176.609L45.1381 178.809C45.1381 183.909 43.7381 187.809 39.1381 188.709C35.5381 189.409 33.2381 186.709 31.6381 183.309C29.0381 178.109 29.8382 172.809 34.0382 166.309C35.1382 168.309 33.8382 169.809 33.3382 171.509C32.3382 174.809 33.1382 178.009 35.0382 179.809C37.7382 182.409 37.7382 176.609 39.8382 176.509C41.0382 176.509 42.3382 176.609 43.5382 176.609Z" fill="#D97A2E"/>
</svg>
